<svg xmlns="http://www.w3.org/2000/svg" viewBox="0 0 330.64297 330.07353"><g id="Personaje"><path d="M213.48572,61.04833c-1.35632.64835-10.36047,4.77053-19.95032.43932a23.38492,23.38492,0,0,1-10.58911-9.794,62.91882,62.91882,0,0,0-41.05786,22.85286c-12.60046,15.6842-13.5404,32.90268-13.813,39.65105a74.3785,74.3785,0,0,0,6.74036,33.80642q1.25208,2.88518,2.50427,5.77036a26.265,26.265,0,0,1,13.3822-.94835c13.00416,2.569,18.96375,14.60393,19.725,16.20583a22.39718,22.39718,0,0,1,10.9906-2.13236c14.35974,1.02216,21.56116,16.68466,21.88233,17.41175a26.86638,26.86638,0,0,1,28.92749-25.32981,21.61964,21.61964,0,0,1,16.88049-21.496c-.93213-1.14366-6.53259-8.25238-4.99121-17.99855a22.92911,22.92911,0,0,1,7.14416-13.14655,29.97962,29.97962,0,0,1-8.9021-15.20552,29.65935,29.65935,0,0,1,.2135-14.05966,29.6211,29.6211,0,0,1-29.08679-16.02672Z" fill="#f5c92b"/><path d="M311.15394,104.63084A46.65279,46.65279,0,0,0,305.26,84.86651c-2.39941-4.26505-14.86193-24.82248-35.36315-24.15108a38.30434,38.30434,0,0,0-9.24842,1.535,37.46778,37.46778,0,0,0,2.67835-5.96785c6.58813-19.42554-9.47119-37.31472-12.85669-40.84785A46.666,46.666,0,0,0,233.26477,4.06179a48.20107,48.20107,0,0,0-22.26452-2.27974c-6.69837.85876-16.88843,2.16505-24.577,10.44371a32.02056,32.02056,0,0,0-8.02368,18.44348q-.41144-1.90419-.82336-3.80845A35.80864,35.80864,0,0,0,166.29505,13.0901c-9.73047-7.03742-20.254-6.72134-25.88086-6.57843a48.19924,48.19924,0,0,0-21.65759,5.64444A46.6618,46.6618,0,0,0,103.4845,26.017c-3.07678,4.391-15.94751,24.39631-6.48486,42.32956a36.87246,36.87246,0,0,0,5.58069,7.49642,27.75,27.75,0,0,0-9.589,1.1541c-15.59119,4.80182-22.96594,22.97661-24.896,34.84273a46.66009,46.66009,0,0,0,1.26514,20.58551,48.19651,48.19651,0,0,0,11.57251,19.157c4.358,4.46772,11.53515,11.884,23.12707,13.3498,2.62635.33209,13.64991,1.72607,22.74756-5.7499a27.37222,27.37222,0,0,0,8.00818-11.17824,76.21456,76.21456,0,0,1,.947-64.74969,31.14366,31.14366,0,0,1-10.13159,1.89181,29.19456,29.19456,0,0,0,11.4469-3.75337,63.95232,63.95232,0,0,1,45.86816-29.69908l-.00061-.00212c4.97095,7.65291,13.73108,12.914,22.74219,11.9323a20.18811,20.18811,0,0,0,7.79785-2.57546c5.8949,11.04351,17.26306,17.21886,28.122,15.67806.72253-.10263,1.417-.24591,2.09766-.4083-4.16,9.82633-1.46411,22.08881,7.17517,30.71367h.00036a20.19131,20.19131,0,0,0-4.72656,6.71576c-3.31213,7.77423-1.3667,16.91106,3.67737,23.76663-7.09937,1.93264-13.37122,6.6154-16.14624,13.38549a20.19149,20.19149,0,0,0-1.45776,8.08172c-12.51807-.08964-23.36976,6.95358-27.19776,17.23151a22.5295,22.5295,0,0,0-1.32617,9.93893c-.0127-.04663-.02332-.0935-.03626-.14029-3.059-11.12249-13.8778-20.27862-25.37536-19.342a20.19025,20.19025,0,0,0-7.86487,2.36228c-5.5918-11.19991-16.78784-17.68259-27.68457-16.438-15.27515,1.745-21.47607,17.70477-22.26746,19.84506-7.11486,19.23871,8.4513,37.55853,11.73963,41.18265a46.65826,46.65826,0,0,0,16.8894,11.837,48.1954,48.1954,0,0,0,22.19409,2.88517c6.71912-.67591,16.94092-1.70444,24.85193-9.7707,6.32569-6.44985,9.83826-16.57656,8.57-27.18063a37.12263,37.12263,0,0,0,7.911,13.663c13.92676,15.05981,37.31152,9.484,42.032,8.19467a46.664,46.664,0,0,0,18.20508-9.69269,48.20216,48.20216,0,0,0,12.62817-18.47781c2.44178-6.29624,6.1565-15.87455,2.55042-26.58167a29.7748,29.7748,0,0,0-5.08386-9.12445,28.88421,28.88421,0,0,0,6.79272-2.28252c10.15271-4.95689,14.35828-14.33,17.12293-20.49134A48.19359,48.19359,0,0,0,311.15394,104.63084Z" fill="#fc95bb"/><path d="M284.62669,178.09934a3.97916,3.97916,0,0,0-2.50641,1.26425c-1.70154,2.09042.07269,5.85705.31732,6.36072a15.82035,15.82035,0,0,1-6.04468,3.58581c-2.561.79831-4.1867.52258-7.43762.84284a38.576,38.576,0,0,0-8.56238,1.863,26.5029,26.5029,0,0,1-11.05877-1.88235c-2.22754-.91788-9.19886-4.18415-10.82355-3.2941a4.7136,4.7136,0,0,0-1.35388,1.15277,4.611,4.611,0,0,0-.5149.91776,14.11333,14.11333,0,0,0,1.93262,11.17889c3.90936,5.67166,11.02027,6.015,11.93616,6.04468a12.89928,12.89928,0,0,0,5.844,10.67694c-.00464.23392-.01935,5.77948,4.5636,8.53506a9.78983,9.78983,0,0,0,7.59241.90564,12.11412,12.11412,0,0,0,21.72424-9.60031,14.43725,14.43725,0,0,0,7.21631-6.585c3.187-6.21393.28668-12.34439-.05945-13.04523.25861.12653,5.10437,2.43653,7.10608.44016.16461-.16419.94861-.99439.80927-3.0882C304.76011,186.15369,291.21958,176.99079,284.62669,178.09934Z" fill="#f7f5f6"/><path d="M30.5846,160.19373c.28516.82165,2.48462,6.89288,7.33777,7.82226,2.56336.49088,4.76773-.88842,9.17649-3.647,6.58721-4.12174,9.49847-8.22852,10.92468-10.70061,1.6629-2.88231,1.71673-4.25261,1.52557-5.24722-.65216-3.39273-4.65149-4.99284-5.30884-5.2453a45.98422,45.98422,0,0,0,.50562-4.92453,59.04355,59.04355,0,0,0-.26746-7.86263,31.80872,31.80872,0,0,1,1.94074-12.20039c.91815-2.40268,3.31891-7.62532,3.89783-11.802a3.29409,3.29409,0,0,0-.18836-1.77888c-.87561-2.05345-4.03619-2.65495-5.76776-2.69107-5.1944-.10835-8.86554,4.63469-9.58655,5.56624a16.52328,16.52328,0,0,0-3.32257,9.12162c-6.11911-7.16456-13.21548-11.086-18.17087-9.4954a7.74729,7.74729,0,0,0-4.601,3.34292,7.85553,7.85553,0,0,0-.39047,6.26029,7.67037,7.67037,0,0,0-6.04322,1.45048,7.68006,7.68006,0,0,0-2.2062,8.32407c-5.14221.25081-7.03177,2.50584-7.52942,3.17647-4.08966,5.51107,3.01218,15.61053,3.66421,16.5168.84751,1.178,3.02988,3.12285,7.39463,7.01262,6.74221,6.00851,9.29989,7.4631,12.34054,7.66738A11.77647,11.77647,0,0,0,30.5846,160.19373Z" fill="#f7f5f6"/><path d="M227.18272,213.453c-10.12531,13.98475-21.16394,28.37983-33.189,43.02753-18.61273,22.67215-37.16455,42.99677-55.07135,61.12369a109.89613,109.89613,0,0,1-22.97107-17.59177,112.68235,112.68235,0,0,1-13.20337-16.046c-3.20611-4.71341-4.8092-7.07016-5.69867-9.47046-3.13629-8.46307-2.71887-22.95623,7.84735-31.62094,9.14209-7.49691,21.2865-6.86245,29.08692-3.35617,7.73981,3.479,12.16632,10.21863,14.82318,14.26377a47.86039,47.86039,0,0,1,5.3139,10.90762c6.21283-6.44266,12.59381-13.44376,19.03705-21.02728,5.75562-6.7742,11.05719-13.42029,15.934-19.86533a32.06376,32.06376,0,0,0,10.457-9.748,33.1238,33.1238,0,0,0,5.32581-21.0299A34.02778,34.02778,0,0,0,227.18272,213.453Z" fill="#f7f5f6"/><path d="M169.33415,228.25128a14.87837,14.87837,0,0,0-.48511,10.19434,14.36393,14.36393,0,0,0,3.62421,5.789c8.03881,4.75894,16.569,9.54733,25.58978,14.291q13.688,7.198,26.57324,13.121-2.07082,4.52737-4.14172,9.05472c-1.32166-.54212-9.48761-3.73993-17.37537.46273a19.21808,19.21808,0,0,0-7.34045,7.07886c-4.27411,6.96356-2.83228,14.10288-2.40491,16.21924.54993,2.723,1.62012,9.15372,6.34,10.97794a15.07328,15.07328,0,0,0,5.23011.70062q18.17614.28257,36.35235.565c1.01941.01584,4.15595.56821,5.75183-1.198a3.81321,3.81321,0,0,0,.87427-1.84469c1.15582-5.55112,20.43921-39.28528,19.19068-44.41a6.1791,6.1791,0,0,0-.43555-1.18316,6.84811,6.84811,0,0,0-3.3905-2.97965c-2.36426-1.086-34.13465-17.294-77.89685-39.58526a31.23362,31.23362,0,0,1-16.056,2.7463Z" fill="#f7f5f6"/><ellipse cx="204.30902" cy="108.22731" rx="15.03113" ry="22.07816" fill="#f7f5f6"/><path d="M179.26308,119.31845a30.24766,30.24766,0,0,0,2.03149-11.09114c0-12.19343-6.72967-22.07815-15.03113-22.07815-8.30151,0-15.03113,9.88472-15.03113,22.07815s6.72962,22.07816,15.03113,22.07816a10.93891,10.93891,0,0,0,5.57715-1.56969,7.83416,7.83416,0,0,1,7.42249-9.41733Z" fill="#f7f5f6"/><path d="M321.53505,264.70178c-14.94116-1.77295-16.75964-3.97656-17.96021-25.45623a.2343.2343,0,0,0-.46289,0c-1.20044,21.47967-3.0188,23.68328-17.96,25.45623a.20631.20631,0,0,0,0,.41248c14.94116,1.773,16.75952,3.97656,17.96,25.4563a.23431.23431,0,0,0,.46289,0c1.20057-21.47974,3.019-23.68329,17.96021-25.4563A.20631.20631,0,0,0,321.53505,264.70178Z"/><path d="M33.276,52.53168c14.94122,1.773,16.75964,3.97656,17.96008,25.45624a.23433.23433,0,0,0,.46295,0c1.20044-21.47968,3.01886-23.68329,17.96-25.45624a.20631.20631,0,0,0,0-.41248c-14.94116-1.773-16.75958-3.97656-17.96-25.45623a.23433.23433,0,0,0-.46295,0C50.0356,48.14264,48.21718,50.34625,33.276,52.1192A.20631.20631,0,0,0,33.276,52.53168Z"/><path d="M330.533,228.71356c-7.22534-.85742-8.10461-1.923-8.68518-12.3103a.11332.11332,0,0,0-.22387,0c-.58057,10.38727-1.46,11.45288-8.68531,12.3103a.09977.09977,0,0,0,0,.19947c7.22535.85736,8.10474,1.923,8.68531,12.31024a.11332.11332,0,0,0,.22387,0c.58057-10.38727,1.45984-11.45288,8.68518-12.31024A.09977.09977,0,0,0,330.533,228.71356Z"/><path d="M76.44124,239.282a.11332.11332,0,0,0,.22388,0c.5805-10.38726,1.4599-11.45288,8.68518-12.31024a.09976.09976,0,0,0,0-.19946c-7.22528-.85742-8.10468-1.923-8.68518-12.3103a.11332.11332,0,0,0-.22388,0c-.58051,10.38727-1.4599,11.45288-8.68524,12.3103a.09977.09977,0,0,0,0,.19946C74.98134,227.82916,75.86073,228.89478,76.44124,239.282Z"/><path d="M256.43922,298.4397q.88239-1.90787,1.76453-3.81574,2.55322-5.52155,5.10669-11.043c1.70972-3.69738,3.58594-7.3609,5.13354-11.12866a6.03749,6.03749,0,0,0-1.88085-7.0863,31.2,31.2,0,0,0-4.82117-2.59052q-2.87129-1.47079-5.74256-2.94159l-21.64526-11.0874q-11.54352-5.913-23.08716-11.82605,6.21131-8.03165,12.252-16.193,2.12493-2.876,4.22412-5.77088a42.16641,42.16641,0,0,0,5.38073,1.02387,57.02691,57.02691,0,0,0,19.34363-1.16681,14.65265,14.65265,0,0,0,2.8169,2.63031,12.74724,12.74724,0,0,0,.23315,1.5506,12.45152,12.45152,0,0,0,4.12158,6.89825,10.7567,10.7567,0,0,0,8.41529,2.11957l.01159-.00293q.25874.33883.54163.66284c5.60547,6.38648,15.971,5.22,20.738-1.529a13.47661,13.47661,0,0,0,2.17065-9.97131c5.5238-2.85675,9.65527-7.90509,8.91943-14.60968a17.26919,17.26919,0,0,0-.54443-2.72187c2.57874.78974,5.3523.11652,6.53125-2.98431,1.05176-2.7666.17944-5.311-1.2937-7.59668a50.65606,50.65606,0,0,0-4.02161-50.26294,50.03853,50.03853,0,0,0,4.77393-7.90985c3.95471-8.01239,6.64758-16.726,6.22729-25.75037-.69519-14.92767-9.22009-29.46765-21.05493-38.428a35.54,35.54,0,0,0-13.24988-6.40527,34.17689,34.17689,0,0,0-14.97583.102,32.58681,32.58681,0,0,0,3.26917-14.15259c-.06433-9.5354-4.316-18.639-9.92871-26.1629A50.95642,50.95642,0,0,0,237.14125,4.308,47.35652,47.35652,0,0,0,213.78285.20062c-10.27173.72815-21.02392,3.264-28.27551,11.08991a32.23645,32.23645,0,0,0-7.668,14.91809,33.21679,33.21679,0,0,0-9.61395-13.05731A36.10307,36.10307,0,0,0,151.21327,5.831a55.872,55.872,0,0,0-24.67914,1.67755,46.31513,46.31513,0,0,0-24.3219,17.29455,59.73469,59.73469,0,0,0-8.7528,18.97412c-2.1037,7.6073-2.03492,15.62946,1.3349,22.87a32.098,32.098,0,0,0,5.31347,7.94494,30.677,30.677,0,0,0-18.06994,7.741c-4.389,3.97406-7.40546,9.08234-10.02466,14.32709-5.09808,10.20856-7.01587,21.51373-4.416,32.669a54.98277,54.98277,0,0,0,13.88837,24.92144c5.42938,5.70819,12.269,10.07953,19.88709,11.62909a32.82423,32.82423,0,0,1-21.37519,1.65985A43.89752,43.89752,0,0,1,62.686,158.05524a47.31639,47.31639,0,0,1-3.49817-3.37116,9.861,9.861,0,0,0,1.92-5.1037c.15442-3.498-2.66149-5.689-5.62756-6.874.11426-.31366.21979-.63129.30493-.95721.74005-2.832.43958-6.10181.29639-8.98493a27.04053,27.04053,0,0,1,.07593-5.77063,59.66707,59.66707,0,0,1,1.73785-7.24817c1.00079-3.387,2.17487-6.71771,3.2945-10.06622.58154-1.7392,1.51739-3.8902.68573-5.697-1.07172-2.32825-3.83588-3.03961-6.17438-3.20221a13.05849,13.05849,0,0,0-7.88092,1.96075A15.2511,15.2511,0,0,0,40.82149,113.936a37.36264,37.36264,0,0,0-8.14807-6.2757c-3.45124-2.02936-7.5235-2.905-11.29419-1.20935a8.166,8.166,0,0,0-4.54554,8.72656,7.483,7.483,0,0,0-4.79376,1.32227A7.695,7.695,0,0,0,8.98677,125.309a7.85069,7.85069,0,0,0-1.07538.07868A9.55669,9.55669,0,0,0,.90291,130.328c-1.464,3.00867-.67346,6.618.54175,9.579,1.49475,3.64234,4.10614,6.70154,6.80261,9.51655a76.93228,76.93228,0,0,0,10.06494,9.34735c3.0343,2.19568,6.49841,3.77081,10.31049,3.37433.51013-.053,1.01849-.12763,1.526-.20685,1.217,3.27166,3.44177,6.44842,7.09979,7.1203a9.91867,9.91867,0,0,0,4.91266-.44355A62.65533,62.65533,0,0,0,62.582,185.62634a59.73323,59.73323,0,0,0,55.02349-.10034c.69684,8.26264,4.33179,16.2013,9.01557,22.94623a50.62332,50.62332,0,0,0,18.78479,16.70221,47.4181,47.4181,0,0,0,22.18194,4.68756,16.53036,16.53036,0,0,0,3.61414,14.09784.94261.94261,0,0,0,.1441.13416q-7.98669,9.32519-16.54809,18.13952A55.06828,55.06828,0,0,0,149.2292,251.733a43.23756,43.23756,0,0,0-7.8872-9.20727,30.14691,30.14691,0,0,0-24.55152-6.3468,26.90376,26.90376,0,0,0-20.272,16.47912,31.36578,31.36578,0,0,0-.34107,22.30316c1.38153,3.57123,3.80225,6.73243,5.95081,9.86487,2.16333,3.154,4.49267,6.196,6.9538,9.12329,1.07891,1.28327,2.19409,2.53394,3.32525,3.76953-25.9107,3.30628-42.54736,8.4209-42.54736,14.16413,0,9.97,50.10187,18.05237,111.90564,18.05237,61.80395,0,111.90576-8.08234,111.90576-18.05237C293.67128,306.54248,279.28859,301.74481,256.43922,298.4397Zm-6.1715-38.62012q5.08006,2.6022,10.15991,5.20435c2.36548,1.21167,6.64673,2.44262,5.78772,5.93994a29.80758,29.80758,0,0,1-2.23535,4.99249q-1.25061,2.70447-2.50123,5.40881-2.397,5.18345-4.79394,10.367-5.37433,11.622-10.74866,23.24408h-46.2727c-5.67871-7.03925-7.81348-17.351-2.90906-25.39093a20.20488,20.20488,0,0,1,7.91785-7.47949,18.75248,18.75248,0,0,1,13.74853-1.07911,25.65138,25.65138,0,0,1,13.54273,9.9552c.96191,1.35559,3.22107.05634,2.24853-1.31427A29.4552,29.4552,0,0,0,222.559,279.824q1.64043-3.63035,3.28088-7.26075a1.3266,1.3266,0,0,0-.467-1.78137q-14.63013-7.39068-29.26038-14.78125,6.869-8.41231,13.5315-16.98993Q229.95583,249.4151,250.26772,259.81958ZM216.445,206.62036a33.91794,33.91794,0,0,1-9.3584-12.69873c-3.218-7.47625-2.87487-15.81561,1.83033-22.5924,4.95751-7.14045,13.50524-10.90772,22.02783-11.22779a23.40323,23.40323,0,0,0,10.80578,18.11164c1.43384.87609,2.74366-1.37513,1.31433-2.24842a20.87756,20.87756,0,0,1-9.58886-18.35284c.2406-7.28424,4.773-13.40894,11.05542-16.81531,13.75476-7.45789,31.47888-.574,39.41345,12.20569a30.882,30.882,0,0,1,3.3927,23.6521,7.53964,7.53964,0,0,0-4.05786.62451,5.72813,5.72813,0,0,0-2.41773,8.2959,18.55082,18.55082,0,0,1-3.0188,1.77551,21.08068,21.08068,0,0,1-7.26013,1.55628,29.77882,29.77882,0,0,0-7.86413,1.33392c-.1106.03985-.21875.08881-.32886.13055a33.10093,33.10093,0,0,1-12.918-1.4964c-2.1897-.71673-4.23-1.79315-6.402-2.55072-1.64807-.57483-4.087-1.26989-5.75818-.42627-1.765.89112-2.25341,3.676-2.46777,5.44263a13.03893,13.03893,0,0,0,.29175,4.76935,14.97832,14.97832,0,0,0,3.65454,6.4787,16.44513,16.44513,0,0,0,10.038,4.83063,1.11812,1.11812,0,0,0,.7284-.1333,12.07711,12.07711,0,0,0,1.38208,5.20117C239.35878,214.91181,225.88856,214.3971,216.445,206.62036Zm-31.93457-40.55981a21.75764,21.75764,0,0,0-13.22607,1.44879c-4.81732-9.04053-13.80316-15.88232-24.23267-16.50732a23.33687,23.33687,0,0,0-8.70764,1.13671,1.38094,1.38094,0,0,0-.13208-.37811c-.71826-1.34881-1.37872-2.72192-2.00848-4.10681a1.03385,1.03385,0,0,0-.15888-.34735,77.25272,77.25272,0,0,1-6.03393-40.86749,62.44122,62.44122,0,0,1,8.56817-25.12983,58.44755,58.44755,0,0,1,22.72638-21.06738A64.95046,64.95046,0,0,1,181.964,53.58093a1.133,1.133,0,0,0,.61914-.28064,26.75822,26.75822,0,0,0,16.905,11.28309,21.76688,21.76688,0,0,0,13.42945-1.94581c5.17993,8.81421,14.40564,15.312,24.84179,15.518a23.61458,23.61458,0,0,0,3.36182-.17334c-2.275,10.18054,1.44849,20.69281,8.39111,28.286a22.14119,22.14119,0,0,0-6.572,18.83246,28.48234,28.48234,0,0,0,4.244,11.69861c-.722.25689-1.44055.53363-2.15051.85162-7.18628,3.21875-12.85791,9.65875-13.95142,17.59589a22.54427,22.54427,0,0,0-.18115,2.24792c-8.20386.29181-16.34766,3.5155-21.94287,9.64557a25.12723,25.12723,0,0,0-6.338,13.3139C198.93544,173.38434,192.37636,167.713,184.51039,166.06055Zm65.1604,39.18408a1.34184,1.34184,0,0,0-.84241-.42969,13.18805,13.18805,0,0,1-11.05224-8.93689,10.19217,10.19217,0,0,1-.42932-3.02514,10.44139,10.44139,0,0,1,.3352-2.61414c.23755-.90948.39575-1.98627,1.42945-2.06775,1.8811-.14831,3.94616.8913,5.6217,1.62091a42.2119,42.2119,0,0,0,5.33289,1.98615,34.84524,34.84524,0,0,0,7.38623,1.24127A18.118,18.118,0,0,0,249.67079,205.24463Zm53.19287-7.85608c-1.66858.89349-3.61963-.458-4.72107-1.65228a1.22327,1.22327,0,0,0-.23938-.22351,1.146,1.146,0,0,0-1.52954.11072,1.21775,1.21775,0,0,0-.33227,1.63317c2.81421,4.90412,2.45654,11.07038-1.854,14.983a18.405,18.405,0,0,1-4.61242,3.01385,1.47159,1.47159,0,0,0-.24158.12048,21.18078,21.18078,0,0,1-9.997,1.8086c-1.67273-.1131-1.66577,2.49133,0,2.604a23.49589,23.49589,0,0,0,9.71021-1.52,10.93787,10.93787,0,0,1-9.23328,11.968c-6.75977.98718-13.2699-4.96674-11.31873-11.96777a12.73152,12.73152,0,0,1,5.97889-7.5246,1.303,1.303,0,0,0-1.31434-2.24848,15.5736,15.5736,0,0,0-6.84875,8.08082,11.77129,11.77129,0,0,0,.30859,8.99408c-4.52649.2384-8.10839-3.54883-8.73339-8.03473-.67969-4.87885,2.38012-9.49378,5.613-12.85566,1.16187-1.20819-.67688-3.052-1.84118-1.84124-3.00452,3.12426-5.60926,7.04754-6.272,11.31689a10.16861,10.16861,0,0,1-3.20324-8.12384,15.46608,15.46608,0,0,1,5.21728-9.72974,18.47091,18.47091,0,0,1,5.60327-3.36993c.02088-.002.04187-.00262.06275-.00464a1.33452,1.33452,0,0,0,.72973-.29523c.08716-.02948.17115-.06976.25855-.0979,2.68493-.865,5.37048-.87817,8.15137-1.1784A20.94834,20.94834,0,0,0,283.636,186.703a1.03171,1.03171,0,0,0,.355-1.25488,1.23669,1.23669,0,0,0-.355-.58642,3.15759,3.15759,0,0,1,1.05725-5.37586c1.78076-.70294,3.958.07318,5.64759.726a22.84423,22.84423,0,0,1,4.50463,2.41938A32.54312,32.54312,0,0,1,300.945,188.062c1.50183,1.69648,3.40576,3.8111,3.36377,6.19593C304.28969,195.34534,303.93666,196.81391,302.86366,197.38855ZM262.42934,63.3512a30.00514,30.00514,0,0,1,25.12475,4.25824,50.87135,50.87135,0,0,1,14.21167,14.811,46.61687,46.61687,0,0,1,7.62842,21.28272,46.37208,46.37208,0,0,1-4.44983,23.31036,51.40855,51.40855,0,0,1-7.05945,11.88452,28.22984,28.22984,0,0,1-14.34082,9.11591,36.73747,36.73747,0,0,0-14.42309-10.46,30.97656,30.97656,0,0,0-19.34583-1.546c-3.91443-5.94062-5.69934-13.42-3.37829-20.31482a20.27746,20.27746,0,0,1,13.51806-12.51764,19.712,19.712,0,0,1,10.623-.24866,1.30309,1.30309,0,0,0,.69226-2.51092,23.34627,23.34627,0,0,0-19.731,4.16827c-6.675-7.24762-10.22986-17.40057-7.58325-27.13251a27.79944,27.79944,0,0,0,15.97131-11.713c.55884-.82086,1.08277-1.66541,1.57691-2.52661A1.2405,1.2405,0,0,0,262.42934,63.3512ZM184.84657,16.28851a27.77562,27.77562,0,0,1,12.0697-9.863A47.46476,47.46476,0,0,1,209.46156,3.28c8.00916-1.08478,16.2815-.69855,23.88843,2.2179A45.86486,45.86486,0,0,1,251.624,18.73071c5.06311,5.94941,9.2113,12.99561,11.00671,20.6471a30.52759,30.52759,0,0,1-2.44446,20.69934c-3.22815,6.43207-8.36084,12.28143-15.41442,14.48633-9.33558,2.91833-19.32813-.93274-25.75684-7.94611a30.6795,30.6795,0,0,1-3.83093-5.25592,23.6279,23.6279,0,0,0,9.07946-10.68115,21.8847,21.8847,0,0,0,1.70667-7.4516c.08606-1.6748-2.51819-1.67017-2.604,0-.49012,9.54614-8.62391,18.27411-18.23621,19.05933-9.94556.81244-19.12817-6.17292-23.056-14.98871A33.19343,33.19343,0,0,1,184.84657,16.28851ZM95.16829,47.88068a56.98756,56.98756,0,0,1,7.339-18.83612,43.47081,43.47081,0,0,1,20.07593-17.34A52.59873,52.59873,0,0,1,146.3564,7.89148a37.464,37.464,0,0,1,16.16974,4.506,30.48418,30.48418,0,0,1,12.99914,14.91486,37.73533,37.73533,0,0,1,1.3274,3.81384,1.34075,1.34075,0,0,0,.20324.41016,37.7434,37.7434,0,0,0,1.02735,12.04449,29.52091,29.52091,0,0,0,3.078,7.50812A65.36216,65.36216,0,0,0,149.07161,65.351a1.31956,1.31956,0,0,0-.32282-.23522,20.97376,20.97376,0,0,1-11.50067-19.41138c.09107-1.6745-2.51318-1.66937-2.60394,0-.47717,8.773,4.70471,17.29651,12.36987,21.42493a59.75511,59.75511,0,0,0-8.39685,9.41979,57.66585,57.66585,0,0,0-3.45062,5.45331,28.54238,28.54238,0,0,1-21.9671-1.10534A33.12986,33.12986,0,0,1,98.805,68.56824,28.56679,28.56679,0,0,1,95.16829,47.88068ZM71.75374,134.1593a44.03388,44.03388,0,0,1,.00812-30.42254A56.3142,56.3142,0,0,1,80.135,88.1994,28.49013,28.49013,0,0,1,97.22774,77.572a30.62016,30.62016,0,0,1,5.36059-.4981c7.41742,6.72241,17.76783,10.45147,27.56269,8.94647a28.06094,28.06094,0,0,0,3.32165-.72766,71.63026,71.63026,0,0,0-6.65619,31.37976,23.42717,23.42717,0,0,0-20.43066,3.8836c-1.32276,1.02521.53216,2.8559,1.84131,1.84125,5.24707-4.06665,12.40045-4.89307,18.651-2.9917.06549,1.66394.16668,3.32471.33038,4.975a76.91941,76.91941,0,0,0,6.30927,23.629c-3.54169,9.82641-13.15766,14.83471-23.13172,15.73785-9.334.84521-17.96423-2.80054-24.7749-9.08588A53.64538,53.64538,0,0,1,71.75374,134.1593ZM22.13741,108.96771c2.74-1.46356,5.95855-.84008,8.574.57434a38.39951,38.39951,0,0,1,7.05023,5.06763c2.15741,1.91809,4.22174,4.37738,4.08484,7.43439-.18085,4.039-3.86041,5.34271-7.2868,4.54291a20.80746,20.80746,0,0,0-3.25128-3.56324,36.213,36.213,0,0,0-11.162-7.11267c-.1825-.06744-.36347-.1192-.54517-.17852C18.921,113.14606,19.65,110.29633,22.13741,108.96771ZM11.82283,125.39423a5.08256,5.08256,0,0,1,1.53137-6.64606,5.49938,5.49938,0,0,1,5.31714-.60455,28.42588,28.42588,0,0,1,8.86011,5.12762c2.5733,2.06024,4.83472,4.19544,6.20129,7.26587,1.75354,3.94006-1.92315,7.298-5.77557,7.03192-.02625-.00183-.0484.00275-.07385.00226a30.74385,30.74385,0,0,0-2.16883-2.46258,51.39209,51.39209,0,0,0-4.4881-4.369,25.37416,25.37416,0,0,0-6.19567-3.8291,26.99774,26.99774,0,0,0-3.07984-1.15406A1.39032,1.39032,0,0,0,11.82283,125.39423Zm20.90155,36.01605a21.2504,21.2504,0,0,0,9.46606-4.99091c1.22095-1.15295-.6228-2.99188-1.8413-1.84124-2.88648,2.72564-6.4571,3.97357-10.30024,4.73224a11.07087,11.07087,0,0,1-7.92865-1.21,35.32114,35.32114,0,0,1-7.57061-6.0592,68.53085,68.53085,0,0,1-8.56208-9.29492,17.02968,17.02968,0,0,1-3.2232-7.89917,5.86339,5.86339,0,0,1,3.64386-6.28534c2.93329-1.38666,5.97418-.13269,8.70422,1.24029,3.45111,1.7356,6.13788,4.3703,8.76081,7.148,1.27087,1.34583,2.99469,2.95026,3.19482,4.90436a3.68651,3.68651,0,0,1-1.56574,3.48084c-1.82605,1.0003-4.80584-.12-6.58679-.78864a25.737,25.737,0,0,1-6.04114-3.38171c-1.35614-.98792-2.65692,1.27038-1.31427,2.24847a28.73128,28.73128,0,0,0,5.49646,3.15656.9149.9149,0,0,0,.08143.1455,24.79821,24.79821,0,0,1,2.14563,3.35163c.30651.57751.58709,1.16742.849,1.76642l.01856.04327q.04732.11444.09357.22937.09429.23474.18371.47138c.11926.31549.23108.63366.33789.95361a1.3023,1.3023,0,0,0,2.51093-.6922,26.42049,26.42049,0,0,0-2.23664-4.91425,10.98194,10.98194,0,0,0,3.96216.25428c3.54969-.51142,5.41309-4.56134,4.40137-7.80805-.02374-.07623-.0575-.14807-.0838-.2232,3.47308-.34113,6.83777-2.82319,7.43182-6.39179a7.99679,7.99679,0,0,0-.60522-4.3349c3.37671.11853,6.64068-1.37445,7.86548-4.89972a9.007,9.007,0,0,0-.6615-7.08331,1.28063,1.28063,0,0,0,.03686-.43866,12.77916,12.77916,0,0,1,4.72644-11.30212,10.70835,10.70835,0,0,1,6.84381-2.345,9.1449,9.1449,0,0,1,2.88349.44349c.82434.28973,1.65594.96618,1.75683,1.52014a5.542,5.542,0,0,1-.236,1.49493c-.3703,1.37183-.86389,2.71344-1.32147,4.05762-.95142,2.79474-1.8985,5.59332-2.72784,8.42731-1.11268,3.80181-2.1637,7.75347-1.93952,11.74554a47.5619,47.5619,0,0,1,.07617,9.168c-.40484,2.86322-2.38263,5.15808-4.54767,6.92541-1.29882,1.06025.553,2.89289,1.84125,1.84131a16.81341,16.81341,0,0,0,3.5755-3.93933c2.02637.73712,4.22614,2.04743,4.1875,4.39545-.04907,2.97839-2.89233,5.67657-4.85815,7.60809a75.2765,75.2765,0,0,1-6.2981,5.63739c-2.25085,1.76044-4.99084,3.63782-7.92059,3.90058C36.03371,166.88263,33.854,164.30945,32.72438,161.41028Zm116.14258,62.513a46.68409,46.68409,0,0,1-17.74542-13.72919c-4.973-6.23614-8.94709-13.61786-10.45942-21.496a30.01211,30.01211,0,0,1,.93287-15.29c.18444-.54407.38555-1.08191.59924-1.61511.02179-.05426.10559-.25513.1261-.305.014-.03077.16229-.37049.21429-.48633q.68353-1.523,1.4997-2.982c3.4945-6.26953,8.86-11.81927,15.96875-13.72674,9.45312-2.5365,19.26434,1.7868,25.39648,9.04217a30.41694,30.41694,0,0,1,3.57434,5.35962,23.3824,23.3824,0,0,0-9.60571,10.51618,22.29545,22.29545,0,0,0-1.91046,7.2243c-.15412,1.668,2.4508,1.65747,2.60394,0,.87531-9.47491,9.32544-17.75214,18.86816-18.23749,9.785-.49762,18.613,6.61237,22.31885,15.32575a28.51623,28.51623,0,0,1,1.31482,3.84607,25.69546,25.69546,0,0,0,.68164,3.42608c.00611.02228.01453.04413.02063.06641a33.609,33.609,0,0,1-5.41528,23.56079,27.56434,27.56434,0,0,1-12.05127,9.59332,45.37275,45.37275,0,0,1-13.15649,2.91932C164.6028,227.69971,156.37721,227.08917,148.867,223.92328Zm23.9353,17.89453c-.01745-.02594-.18213-.2453-.22479-.30456q-.39835-.55326-.75134-1.13739a14.4571,14.4571,0,0,1-1.41584-3.07386,13.03472,13.03472,0,0,1-.109-7.5473,54.14659,54.14659,0,0,0,14.91651-2.82385q-5.90607,7.7352-12.19049,15.16778Q172.91332,241.95957,172.80226,241.81781Zm-70.69641,38.34088a27.81765,27.81765,0,0,1-4.26825-8.58606,30.2023,30.2023,0,0,1-.741-10.31341,25.10448,25.10448,0,0,1,12.89093-20.03986,27.50581,27.50581,0,0,1,23.93488-.41534c7.54346,3.542,12.95508,10.95428,16.63129,18.22632a46.65294,46.65294,0,0,1,2.49224,5.94134,1.3168,1.3168,0,0,0,2.17615.57453,400.68193,400.68193,0,0,0,34.91962-40.83106,28.71394,28.71394,0,0,0,6.98535-5.321,33.81267,33.81267,0,0,0,8.92773-21.62458,38.20958,38.20958,0,0,0,5.625,7.93134,31.8585,31.8585,0,0,0,13.42505,8.47308q-18.87981,25.92408-39.53564,50.48657-11.10279,13.19229-22.69672,25.96033-5.4645,6.01814-11.0354,11.93829-2.797,2.97235-5.6203,5.91987c-1.70856,1.78363-3.35248,3.79126-5.22919,5.39746-1.89788,1.62432-4.235,1.31085-6.16906-.01819-2.27265-1.56165-4.48535-3.21643-6.63916-4.93775a123.0757,123.0757,0,0,1-10.14582-9.06494A128.3198,128.3198,0,0,1,102.10585,280.15869Zm61.123,13.92365q8.19753-8.98425,16.16021-18.179,7.63184-8.82366,15.02954-17.84607,14.302,7.22489,28.60425,14.44983-1.43664,3.17953-2.87341,6.35913c-.2367-.08007-.4646-.17871-.70447-.25189a21.36962,21.36962,0,0,0-17.1654,1.84235,22.13684,22.13684,0,0,0-10.03333,13.45666q-5.17932-.07782-10.48071-.08276Q172.28816,293.83063,163.22884,294.08234Z"/><path d="M220.6421,108.2273c-.04992-8.05054-2.95812-17.9101-10.62438-21.92463a12.06837,12.06837,0,0,0-10.09351-.603A17.22326,17.22326,0,0,0,191.68,93.36225a27.6896,27.6896,0,0,0-2.72571,6.75354,7.62335,7.62335,0,0,0-2.51026,2.17248,7.74369,7.74369,0,0,0-1.27417,5.337,10.16424,10.16424,0,0,0,3.2616,6.219,30.389,30.389,0,0,0,1.88806,6.4657c2.83033,6.72516,9.32178,13.07983,17.19947,10.84985C216.9391,128.4931,220.58827,116.9303,220.6421,108.2273Zm-11.6903,19.54242c-6.12122,3.3861-12.19019-.867-15.18885-6.2854a24.9084,24.9084,0,0,1-2.08569-5.06379,27.78261,27.78261,0,0,0,5.75086,2.75592c.584-.219,7.6184-2.94482,10.822-7.53949l-7.58863-3.31384q4.422-1.95447,8.84424-3.90893a6.82555,6.82555,0,0,0-.40674-1.02747c-.166-.33051-1.98559-3.82428-5.4414-3.89917a6.56765,6.56765,0,0,0-6.1626,5.05646,6.69864,6.69864,0,0,0-5.63989-5.02c.1958-.63324.405-1.26044.64331-1.8725,2.23633-5.74213,7.65625-11.82861,14.46069-9.80817,3.47266,1.03107,6.08753,3.90931,7.81409,6.979a27.65582,27.65582,0,0,1,3.265,13.405C217.99428,115.30725,215.61879,124.08154,208.9518,127.76972Z"/><path d="M182.32143,134.82276a1.30309,1.30309,0,0,0-.69214-2.51093,7.89324,7.89324,0,0,1-5.62573-.74634,6.3134,6.3134,0,0,1-2.9184-3.07849,1.43679,1.43679,0,0,0-.06629-.19769,4.69533,4.69533,0,0,1-.259-1.13544,5.67672,5.67672,0,0,1,.60571-3.03418,8.67141,8.67141,0,0,1,.6507-1.08862c.0415-.05921.08478-.11713.12677-.1759l.00092-.001c.06665-.07849.13061-.15882.1997-.23523a5.87072,5.87072,0,0,1,2.65943-1.66321,6.308,6.308,0,0,1,2.37964-.33228,7.55742,7.55742,0,0,1,3.65112,1.049,6.856,6.856,0,0,1,1.65259,1.22522c1.2091,1.16076,3.053-.678,1.84131-1.84131a10.95056,10.95056,0,0,0-5.50123-2.81427,31.85477,31.85477,0,0,0-1.41626-23.52552c-2.79284-5.70941-8.31189-10.71545-15.07623-9.73065-6.85022.99732-11.26587,7.548-13.19024,13.68317q-.22266.7099-.41114,1.434a7.61063,7.61063,0,0,0-2.53418,2.18524,7.74317,7.74317,0,0,0-1.27411,5.337,10.15647,10.15647,0,0,0,3.25257,6.21014,29.14377,29.14377,0,0,0,2.84985,8.5152,18.01316,18.01316,0,0,0,7.57825,7.92877,12.185,12.185,0,0,0,10.39917.21759,9.03344,9.03344,0,0,0,2.87872,2.95746A10.54772,10.54772,0,0,0,182.32143,134.82276Zm-26.18464-12.61152a24.38353,24.38353,0,0,1-2.504-5.79,27.776,27.776,0,0,0,5.74987,2.75524c.58387-.219,7.61823-2.94482,10.82184-7.53949l-7.58862-3.31384q4.42209-1.95447,8.84424-3.90893a6.82228,6.82228,0,0,0-.40668-1.02747c-.166-.33051-1.98559-3.82428-5.44134-3.89917a6.56742,6.56742,0,0,0-6.1626,5.05646,6.69924,6.69924,0,0,0-5.64032-5.02008c1.52258-4.94422,4.59527-10.06232,9.67248-11.63971,5.52832-1.71753,10.40992,2.07641,13.0788,6.64642,4.07056,6.97,4.406,16.00458,1.7644,23.55182a8.86381,8.86381,0,0,0-5.42858,2.3006,8.97222,8.97222,0,0,0-2.74805,5.92077,7.08569,7.08569,0,0,0,.13391,1.75336C164.65669,130.59589,159.17055,127.24249,156.13679,122.21124Z"/><path d="M191.70155,138.1676a10.11061,10.11061,0,0,0-2.23706,1.15064,38.21435,38.21435,0,0,1-4.42907,2.19726c-1.20044.49988-2.44129.87262-3.65455,1.33411a3.81052,3.81052,0,0,0-1.70764,1.13056,1.28627,1.28627,0,0,0-.25781.35754,1.39527,1.39527,0,0,0-.12927.33722,6.545,6.545,0,0,0,.57483,4.94055,18.28438,18.28438,0,0,0,3.76867,5.35339c2.49231,2.4986,6.73694,4.95209,9.542,1.49829,2.42614-2.98706,2.91015-7.61474,2.77966-11.32177C195.87318,142.92438,195.27846,137.17822,191.70155,138.1676Z"/><path d="M212.66981,134.78772c-2.8955,0-2.90039,4.5,0,4.5C215.56532,139.28772,215.57021,134.78772,212.66981,134.78772Z"/><path d="M220.11769,129.96832c-2.89563,0-2.90027,4.5,0,4.5C223.0132,134.46832,223.018,129.96832,220.11769,129.96832Z"/><path d="M218.7809,137.98908c-2.89551,0-2.90039,4.5,0,4.5C221.67641,142.48908,221.68129,137.98908,218.7809,137.98908Z"/><path d="M148.35225,137.23334c-2.89551,0-2.90033,4.5,0,4.5C151.24782,141.73334,151.25258,137.23334,148.35225,137.23334Z"/><path d="M154.15218,131.19843c-2.89551,0-2.90033,4.5,0,4.5C157.04768,135.69843,157.05251,131.19843,154.15218,131.19843Z"/><path d="M155.49782,139.21777c-2.89557,0-2.90033,4.5,0,4.5C158.39333,143.71777,158.39815,139.21777,155.49782,139.21777Z"/><path d="M158.182,79.83283a26.60832,26.60832,0,0,1,13.95349-1.53492,21.87679,21.87679,0,0,0-13.11627-1.95349c-2.21155.38434-9.52814,1.65589-12.4884,7.7442a12.71265,12.71265,0,0,0-1.15113,6.593A26.86251,26.86251,0,0,1,158.182,79.83283Z"/><path d="M212.06239,79.83283a26.86227,26.86227,0,0,1,12.80225,10.84881,12.71128,12.71128,0,0,0-1.15112-6.593c-2.96021-6.08831-10.27686-7.35986-12.48829-7.7442a21.87692,21.87692,0,0,0-13.11633,1.95349A26.60832,26.60832,0,0,1,212.06239,79.83283Z"/></g></svg>