<svg xmlns="http://www.w3.org/2000/svg" viewBox="0 0 245.88817 230.00476"><g id="Personaje"><path d="M147.00211,61.63044c-1.35633.64834-10.36048,4.77052-19.95032.43931a23.38475,23.38475,0,0,1-10.58911-9.794A62.91876,62.91876,0,0,0,75.40482,75.12857c-12.60047,15.68421-13.54041,32.90268-13.813,39.65105a74.37831,74.37831,0,0,0,6.74036,33.80643q1.25207,2.88516,2.50427,5.77035a26.26523,26.26523,0,0,1,13.3822-.94835c13.00415,2.569,18.96375,14.60393,19.725,16.20583a22.39714,22.39714,0,0,1,10.9906-2.13235c14.35974,1.02215,21.56115,16.68466,21.88232,17.41174A26.86642,26.86642,0,0,1,165.744,159.56346a21.61964,21.61964,0,0,1,16.88049-21.496c-.93212-1.14366-6.53259-8.25238-4.99121-17.99855a22.929,22.929,0,0,1,7.14417-13.14654,29.97965,29.97965,0,0,1-8.9021-15.20552,29.65926,29.65926,0,0,1,.2135-14.05967,29.62112,29.62112,0,0,1-29.08679-16.02671Z" fill="#f5c92b"/><path d="M153.0214,108.82523a27.50437,27.50437,0,0,1-3.79578,13.10583c-5.26721-2.049-8.1615-1.4328-9.85364-.36914-2.13025,1.33907-2.89307,3.72551-6.14526,5.08394a10.44041,10.44041,0,0,1-3.77368.78351,30.2469,30.2469,0,0,1-6.88379-18.57307c-.03894-8.20852,3.58947-17.112,9.03418-20.2786a13.90456,13.90456,0,0,1,6.01733-1.82942,13.5998,13.5998,0,0,1,5.42114,1.20383C149.10916,90.76841,153.23685,100.148,153.0214,108.82523Z" fill="#f7f5f6"/><path d="M113.58182,119.90056a31.33052,31.33052,0,0,0,1.884-14.17311c-.32129-3.10411-1.14526-11.06468-7.17737-15.87523a12.56981,12.56981,0,0,0-7.70642-3.121,11.34623,11.34623,0,0,0-5.35376,1.33848c-5.829,2.95548-9.6593,11.64745-9.76464,19.76471-.10389,7.99893,3.3507,19.96283,12.1715,22.62718a14.58,14.58,0,0,0,8.569-.258,8.13153,8.13153,0,0,1,1.14185-7.428A7.98062,7.98062,0,0,1,113.58182,119.90056Z" fill="#f7f5f6"/><path d="M244.67032,105.21294a46.65288,46.65288,0,0,0-5.89392-19.76433c-2.39941-4.265-14.86194-24.82248-35.36316-24.15108a38.30429,38.30429,0,0,0-9.24841,1.535,37.46834,37.46834,0,0,0,2.67834-5.96785C203.43131,37.43914,187.372,19.55,183.98648,16.01683A46.666,46.666,0,0,0,166.78116,4.64389a48.20115,48.20115,0,0,0-22.26453-2.27974c-6.69836.85876-16.88842,2.16505-24.577,10.44371a32.02052,32.02052,0,0,0-8.02368,18.44349q-.41145-1.9042-.82337-3.80846A35.8086,35.8086,0,0,0,99.81143,13.67221C90.081,6.63478,79.55741,6.95086,73.93057,7.09378A48.19919,48.19919,0,0,0,52.273,12.73822,46.66183,46.66183,0,0,0,37.00089,26.59907c-3.07679,4.391-15.94751,24.39631-6.48487,42.32957a36.873,36.873,0,0,0,5.58069,7.49641,27.75,27.75,0,0,0-9.589,1.1541C10.91654,82.381,3.54178,100.55576,1.61173,112.42188a46.66,46.66,0,0,0,1.26513,20.58551,48.19686,48.19686,0,0,0,11.57251,19.157c4.358,4.46771,11.53516,11.884,23.12708,13.34979,2.62634.33209,13.6499,1.72607,22.74756-5.74989a27.37238,27.37238,0,0,0,8.00818-11.17824,76.21449,76.21449,0,0,1,.947-64.7497,31.1439,31.1439,0,0,1-10.13159,1.89182A29.1946,29.1946,0,0,0,70.59451,81.9748a63.95236,63.95236,0,0,1,45.86817-29.69909l-.00061-.00212c4.971,7.65291,13.73108,12.914,22.74219,11.9323a20.18815,20.18815,0,0,0,7.79785-2.57545c5.8949,11.0435,17.26306,17.21885,28.122,15.67805.72253-.10263,1.417-.24591,2.09765-.40829-4.16,9.82632-1.46411,22.0888,7.17517,30.71366h.00037a20.19131,20.19131,0,0,0-4.72656,6.71576c-3.31214,7.77423-1.3667,16.91106,3.67736,23.76664-7.09936,1.93263-13.37121,6.6154-16.14624,13.38548a20.19153,20.19153,0,0,0-1.45776,8.08172c-12.51807-.08964-23.36975,6.95359-27.19775,17.23151a22.52953,22.52953,0,0,0-1.32617,9.93894c-.0127-.04664-.02332-.09351-.03626-.14029-3.059-11.1225-13.87781-20.27863-25.37537-19.342a20.19,20.19,0,0,0-7.86486,2.36227c-5.5918-11.19991-16.78785-17.68259-27.68457-16.438-15.27515,1.745-21.47608,17.70477-22.26746,19.84506-7.11487,19.23871,8.45129,37.55854,11.73962,41.18265a46.65856,46.65856,0,0,0,16.88941,11.837,48.19554,48.19554,0,0,0,22.19409,2.88516c6.71912-.6759,16.94092-1.70444,24.85193-9.77069,6.32568-6.44986,9.83826-16.57657,8.56994-27.18064a37.12264,37.12264,0,0,0,7.911,13.663c13.92675,15.05981,37.31152,9.484,42.032,8.19467a46.664,46.664,0,0,0,18.20508-9.69269,48.20228,48.20228,0,0,0,12.62817-18.47781c2.44177-6.29623,6.15649-15.87454,2.55041-26.58167a29.77459,29.77459,0,0,0-5.08386-9.12445,28.88488,28.88488,0,0,0,6.79273-2.28251c10.15271-4.9569,14.35827-14.33,17.12292-20.49135A48.19344,48.19344,0,0,0,244.67032,105.21294Z" fill="#0083cf"/><path d="M137.73091,146.27433c-1.895-.20047-3.92141-.37735-5.60358.518a7.55206,7.55206,0,0,0-1.78265,1.4099,8.94968,8.94968,0,0,0-1.6879,2.23364,9.31349,9.31349,0,0,0-.82393,3.88312,2.092,2.092,0,0,0,.10939.89969,1.71781,1.71781,0,0,0,.96846.82882c1.94683.80779,4.16954-.141,5.91456-1.32316,2.02467-1.37166,3.92851-3.288,4.23573-5.71419" fill="#f7f5f6"/><path d="M245.76908,105.31832c-.69532-14.92762-9.22022-29.46765-21.05494-38.428a35.54221,35.54221,0,0,0-13.25-6.40528,34.17781,34.17781,0,0,0-14.97583.10212,32.58532,32.58532,0,0,0,3.26929-14.15265c-.06445-9.5354-4.31616-18.639-9.92871-26.16284a50.95789,50.95789,0,0,0-19.027-15.98151A47.35687,47.35687,0,0,0,147.44339.18276c-10.27173.72815-21.02392,3.264-28.27539,11.0899A32.23551,32.23551,0,0,0,111.5,26.19075a33.21765,33.21765,0,0,0-9.614-13.05731A36.10432,36.10432,0,0,0,84.87381,5.81313,55.87088,55.87088,0,0,0,60.19474,7.49074a46.31506,46.31506,0,0,0-24.3219,17.2945A59.7358,59.7358,0,0,0,27.12,43.75936c-2.10364,7.6073-2.03491,15.62951,1.33484,22.87a32.10185,32.10185,0,0,0,5.31347,7.94495,30.67634,30.67634,0,0,0-18.06982,7.741C11.30948,86.28933,8.293,91.3976,5.67386,96.64235c-5.09814,10.20856-7.01587,21.51374-4.416,32.669a54.98108,54.98108,0,0,0,13.88842,24.92145c7.1399,7.50659,16.71485,12.71515,27.29785,12.21209a36.07832,36.07832,0,0,0,16.08741-4.44012c-.08594.11133-.177.21789-.26172.33044a34.1706,34.1706,0,0,0-7.11133,19.16883c-.34729,9.68554,3.68677,19.12146,9.12317,26.95031a50.62491,50.62491,0,0,0,18.78479,16.70227,47.69373,47.69373,0,0,0,23.24878,4.67115c10.34216-.45618,21.04639-2.67884,28.47241-10.45148a33.82154,33.82154,0,0,0,8.92957-21.68115c.40564.76886.82995,1.5296,1.29345,2.2702a33.36968,33.36968,0,0,0,18.26526,14.40845c7.8855,2.5105,16.47229,2.37579,24.54517.90027a49.63744,49.63744,0,0,0,21.79663-9.66108,47.45693,47.45693,0,0,0,13.86108-18.49554,57.0347,57.0347,0,0,0,4.682-15.95129,30.51333,30.51333,0,0,0-3.14136-17.49817,31.50847,31.50847,0,0,0-2.07629-3.44379,30.29891,30.29891,0,0,0,12.92944-7.83661,43.72708,43.72708,0,0,0,7.66919-11.31891C243.49649,123.05635,246.18924,114.34267,245.76908,105.31832Zm-127.262-89.04761a27.77558,27.77558,0,0,1,12.06983-9.863A47.46132,47.46132,0,0,1,143.1221,3.26216c8.00928-1.08483,16.2815-.6986,23.88843,2.2179A45.86382,45.86382,0,0,1,185.2847,18.71285c5.063,5.9494,9.21118,12.9956,11.00659,20.64709a30.52841,30.52841,0,0,1-2.44433,20.6994c-3.22827,6.432-8.36084,12.28138-15.41443,14.48627-9.33557,2.91834-19.32813-.93274-25.757-7.9461a30.67727,30.67727,0,0,1-3.83081-5.25592,23.62709,23.62709,0,0,0,9.07935-10.68116,21.88166,21.88166,0,0,0,1.70678-7.4516c.08594-1.6748-2.51831-1.67016-2.604,0-.49024,9.54621-8.624,18.27411-18.23633,19.05933-9.94556.81244-19.12805-6.17291-23.05591-14.98871A33.19364,33.19364,0,0,1,118.50711,16.27071Zm58.09375,108.812a28.47877,28.47877,0,0,0,4.22827,11.67481,25.92665,25.92665,0,0,0-12.01025,8.64087,21.27842,21.27842,0,0,0-4.22412,12.08447c-10.0072.3537-19.92261,5.14618-25.16992,13.91382a23.53676,23.53676,0,0,0-3.15161,9.02411c-3.68653-7.06263-10.242-12.72687-18.10218-14.37812a21.75809,21.75809,0,0,0-13.22619,1.44879c-4.81726-9.04052-13.8031-15.88232-24.23267-16.50732a23.33608,23.33608,0,0,0-8.70752,1.13672,1.38238,1.38238,0,0,0-.13208-.37811c-.71826-1.34882-1.37878-2.72193-2.00854-4.10682a1.03406,1.03406,0,0,0-.15894-.34735,77.25388,77.25388,0,0,1-6.03393-40.86749,62.44212,62.44212,0,0,1,8.56823-25.12982A58.44667,58.44667,0,0,1,94.96585,60.224a64.9474,64.9474,0,0,1,20.65869-6.66089,1.13323,1.13323,0,0,0,.61915-.28064,26.75849,26.75849,0,0,0,16.90515,11.28314,21.76649,21.76649,0,0,0,13.42932-1.94586c5.17993,8.81427,14.40576,15.31195,24.84192,15.518a23.61128,23.61128,0,0,0,3.36169-.17334c-2.2749,10.18049,1.44849,20.69281,8.39111,28.28589A22.142,22.142,0,0,0,176.60086,125.08272Zm-107.918,26.10071c.3086.61822.60572,1.24188.93055,1.85229a25.93411,25.93411,0,0,0-2.848,1.49585c.22559-.32873.4563-.65246.66675-.99621A23.41845,23.41845,0,0,0,68.68289,151.18343ZM28.82889,47.86281a56.98643,56.98643,0,0,1,7.339-18.83612,43.47113,43.47113,0,0,1,20.07593-17.34A52.59957,52.59957,0,0,1,80.017,7.87361a37.46414,37.46414,0,0,1,16.1698,4.506,30.48414,30.48414,0,0,1,12.999,14.91485,37.67655,37.67655,0,0,1,1.3274,3.81391,1.34065,1.34065,0,0,0,.20337.41015,37.74371,37.74371,0,0,0,1.02734,12.0445,29.51616,29.51616,0,0,0,3.07788,7.50811,65.36261,65.36261,0,0,0-32.0896,14.262,1.31844,1.31844,0,0,0-.32275-.23523A20.9736,20.9736,0,0,1,70.90872,45.6866c.09107-1.6745-2.51318-1.66943-2.604,0-.47705,8.773,4.70483,17.29651,12.36987,21.42493a59.754,59.754,0,0,0-8.39672,9.41974,57.664,57.664,0,0,0-3.45069,5.45331,28.54249,28.54249,0,0,1-21.967-1.10529A33.12937,33.12937,0,0,1,32.46561,68.55037,28.56617,28.56617,0,0,1,28.82889,47.86281ZM19.27176,154.64388A53.64687,53.64687,0,0,1,5.41434,134.14144a44.0343,44.0343,0,0,1,.00806-30.42255,56.31711,56.31711,0,0,1,8.37317-15.53735A28.49021,28.49021,0,0,1,30.88834,77.55422a30.609,30.609,0,0,1,5.36072-.49811c7.41735,6.72241,17.7677,10.45142,27.5625,8.94641a28.04358,28.04358,0,0,0,3.32165-.7276,71.63037,71.63037,0,0,0-6.65613,31.3797,23.42736,23.42736,0,0,0-20.43066,3.88361c-1.32275,1.0252.53223,2.856,1.84131,1.84124,5.24707-4.06665,12.40039-4.89306,18.651-2.99169.06555,1.66394.16663,3.3247.33044,4.97509a76.91623,76.91623,0,0,0,6.30921,23.629c-3.54163,9.82642-13.1576,14.83478-23.13172,15.73785C34.71268,164.57491,26.08243,160.92916,19.27176,154.64388Zm112.23938,59.761a27.56494,27.56494,0,0,1-12.05139,9.59333,45.37125,45.37125,0,0,1-13.15649,2.91931c-8.0398.76434-16.26539.15381-23.77564-3.01209a46.68435,46.68435,0,0,1-17.74548-13.72918c-4.973-6.23609-8.94715-13.61786-10.45935-21.496a30.01021,30.01021,0,0,1,.93286-15.2901c.18432-.54407.3855-1.08191.59912-1.61512.02185-.05426.10571-.25512.12622-.305.01392-.03076.16223-.37048.21423-.48633q.68354-1.523,1.49964-2.98193c3.49463-6.26959,8.8601-11.81928,15.96875-13.72675,9.45312-2.53656,19.2644,1.78675,25.39648,9.04212a30.42014,30.42014,0,0,1,3.57446,5.35962A23.38138,23.38138,0,0,0,93.02884,179.193a22.29257,22.29257,0,0,0-1.91052,7.22431c-.15418,1.668,2.4508,1.65747,2.60388,0,.87537-9.47492,9.32544-17.75214,18.86817-18.23743,9.78515-.49768,18.61315,6.61236,22.31884,15.32568a28.93547,28.93547,0,0,1,1.6272,5.19214c.06714.3595.13354.71869.21448,1.07642A33.60693,33.60693,0,0,1,131.51114,214.40486Zm90.2135-48.58361c.3075,5.50854-1.04663,10.85217-2.93725,15.98224-2.82825,7.6745-6.938,14.8847-13.10047,20.37347a44.93041,44.93041,0,0,1-19.22326,9.88019c-13.92554,3.37347-30.62647,2.28729-40.38343-9.47687a33.55862,33.55862,0,0,1-6.80993-13.01892c-.12574-.76679-.27051-1.5296-.44361-2.285-.00891-.03894-.02173-.07708-.03088-.116a21.47668,21.47668,0,0,1,.07019-7.01349c1.79419-9.84461,10.09814-16.97339,19.55664-19.25531a30.6732,30.6732,0,0,1,6.22925-.80921,24.05947,24.05947,0,0,0,5.19031,13.24384,21.52378,21.52378,0,0,0,5.569,4.86908c1.43383.8761,2.74353-1.37512,1.3142-2.24841a20.77346,20.77346,0,0,1-8.30908-24.60486c3.44055-8.75226,13.12061-13.66345,22.17127-13.71967,9.84631-.06116,19.89612,5.46942,25.67883,13.33661A27.7333,27.7333,0,0,1,221.72464,165.82125Zm16.88037-38.8255a51.41008,51.41008,0,0,1-7.05957,11.88446,28.22922,28.22922,0,0,1-14.31494,9.10864,36.67252,36.67252,0,0,0-21.562-12.5296,29.10777,29.10777,0,0,0-12.24292.51562c-3.90759-5.93817-5.68713-13.41076-3.36816-20.29962a20.278,20.278,0,0,1,13.51806-12.51764,19.71313,19.71313,0,0,1,10.62317-.24859,1.30312,1.30312,0,0,0,.69226-2.511A23.34631,23.34631,0,0,0,185.16,104.5663c-6.675-7.24762-10.22974-17.40063-7.58326-27.13244a27.80024,27.80024,0,0,0,15.97132-11.713c.55871-.82086,1.08264-1.6654,1.5769-2.52661a1.2402,1.2402,0,0,0,.965.1391,30.00524,30.00524,0,0,1,25.12475,4.25824,50.86841,50.86841,0,0,1,14.21167,14.811,46.61441,46.61441,0,0,1,7.62842,21.28271A46.37354,46.37354,0,0,1,238.605,126.99575Z"/><path d="M131.779,132.78273a1.31629,1.31629,0,0,0-1.91259.77814,20.24616,20.24616,0,0,1-19.49646,13.92053,1.3028,1.3028,0,0,0,0,2.604,21.58769,21.58769,0,0,0,7.66015-1.22693,12.31254,12.31254,0,0,0,15.70325,8.66748c6.80579-2.347,6.70056-10.82831,4.56384-16.51648A16.16366,16.16366,0,0,0,131.779,132.78273Zm4.56531,19.16565c-1.08691,2.783-4.19409,3.75873-7.04394,3.57843a22.83174,22.83174,0,0,1,.60852-3.14654,8.08077,8.08077,0,0,1,.53686-1.43317,7.62861,7.62861,0,0,1,.44837-.7763c.041-.06189.2124-.30384.18652-.27027-.03442.04462.15674-.184.19824-.23022a6.69168,6.69168,0,0,1,.52161-.522c.088-.07891.17883-.15588.27185-.22949.03039-.01953.18323-.13.2052-.1449a7.24414,7.24414,0,0,1,.69189-.41412c.11927-.06256.24036-.121.36243-.17749.04028-.01868.06543-.03082.08582-.041.02209-.00666.05383-.01685.1007-.03272.25562-.08649.50879-.172.77112-.23669q.19574-.04826.39392-.08539c.02954-.00549.18506-.02661.23474-.03479a6.82782,6.82782,0,0,1,.68738-.037q.2016.00009.40259.01233c.04834.003.47632.05054.25525.01837a1.72082,1.72082,0,0,0,.72766-.0611A10.92465,10.92465,0,0,1,136.34427,151.94838Z"/><path d="M116.53958,135.4952a1.30312,1.30312,0,0,0-.69238-2.51093,7.919,7.919,0,0,1-5.64514-.7489,6.3363,6.3363,0,0,1-2.92822-3.08868,1.43027,1.43027,0,0,0-.06678-.19928,4.70887,4.70887,0,0,1-.26-1.14,5.69746,5.69746,0,0,1,.60791-3.045,8.7213,8.7213,0,0,1,.65259-1.09186c.04187-.05963.08545-.11773.12769-.17706l.001-.00116c.0669-.07874.13111-.1593.20032-.236a5.89253,5.89253,0,0,1,2.66883-1.66907,6.34343,6.34343,0,0,1,2.38769-.33337,7.58232,7.58232,0,0,1,3.66382,1.05255,6.892,6.892,0,0,1,1.6582,1.22943c1.20923,1.16077,3.0531-.678,1.84131-1.84125a10.97934,10.97934,0,0,0-5.51965-2.82239,31.94542,31.94542,0,0,0-1.4187-23.59564c-2.80017-5.72449-8.33374-10.74481-15.11621-9.75745-6.869.99994-11.29676,7.56879-13.22632,13.72065a31.82525,31.82525,0,0,0,1.88806,23.74823,18.06325,18.06325,0,0,0,7.59912,7.95074,12.21706,12.21706,0,0,0,10.4292.21662,9.05575,9.05575,0,0,0,2.88782,2.96777A10.57523,10.57523,0,0,0,116.53958,135.4952Zm-26.26391-12.643c-3.637-6.03149-4.43091-13.76434-2.91614-20.568,1.23425-5.54334,4.434-12.04773,10.28479-13.86548,5.54321-1.72211,10.43823,2.0788,13.11694,6.66028a7.03153,7.03153,0,0,0-1.77856-.23578c-4.50537,0-8.32129,4.32507-9.6333,10.302q5.28369,1.8598,10.56738,3.71967-5.27307,2.74191-10.5459,5.48388c.93958,4.19178,3.11646,7.54749,5.89478,9.16284a9.07463,9.07463,0,0,0-.93042,3.44336,7.10552,7.10552,0,0,0,.13489,1.76068C98.82547,131.26485,93.31986,127.90078,90.27567,122.85219Z"/><path d="M152.43387,97.861c-2.26245-6.0686-7.07471-12.19067-14.06836-12.4715-6.87427-.27606-11.98743,5.4759-14.44653,11.3191a31.982,31.982,0,0,0,.1145,24.49658,23.35935,23.35935,0,0,0,3.27319,5.46,6.82492,6.82492,0,0,0,2.09278,2.07251,3.56283,3.56283,0,0,0,1.71167-.01923,5.87731,5.87731,0,0,0,1.6372-.28509,8.93654,8.93654,0,0,0,2.51856-1.77271c1.5498-1.45032,2.648-2.97082,4.60669-3.89526a10.34637,10.34637,0,0,1,9.31152.77722,1.31429,1.31429,0,0,0,1.78137-.4671A31.83512,31.83512,0,0,0,152.43387,97.861Zm-19.0083,26.95831a7.8459,7.8459,0,0,1-1.44556,1.07135c-.09521.05762-.1936.10962-.2926.16053-.43347.02636-.86731.08087-1.30041.13531-4.22437-4.3006-6.04651-10.57922-6.20264-16.48944-.15418-5.83466,1.21948-12.10242,4.88147-16.77643,2.82068-3.60028,7.2218-5.94781,11.80334-4.46094a13.88268,13.88268,0,0,1,7.41748,6.62226,7.03391,7.03391,0,0,0-1.793-.23877c-4.50562,0-8.32154,4.32507-9.63331,10.302q5.2837,1.8598,10.56739,3.71967-5.274,2.74227-10.54785,5.48486a17.07887,17.07887,0,0,0,2.45935,5.85382c-.10364.03778-.21033.06238-.31336.10291a1.43664,1.43664,0,0,0-.15649.08007,1.42175,1.42175,0,0,0-.15454.05121C136.44828,121.44393,135.17716,123.18343,133.42557,124.81929Z"/><path d="M147.03324,130.80385c-2.89551,0-2.90027,4.5,0,4.5C149.92887,135.30385,149.93363,130.80385,147.03324,130.80385Z"/><path d="M154.50308,126.97322c-2.89563,0-2.90026,4.5,0,4.5C157.39859,131.47322,157.40335,126.97322,154.50308,126.97322Z"/><path d="M153.16239,135.0176c-2.89551,0-2.90039,4.5,0,4.5C156.05789,139.5176,156.06266,135.0176,153.16239,135.0176Z"/><path d="M79.65531,136.3279c-2.89551,0-2.90039,4.5,0,4.5C82.55081,140.8279,82.55557,136.3279,79.65531,136.3279Z"/><path d="M86.14652,130.67806c-2.89551,0-2.90039,4.5,0,4.5C89.042,135.17806,89.04679,130.67806,86.14652,130.67806Z"/><path d="M87.49613,138.721c-2.89563,0-2.90039,4.5,0,4.5C90.39163,143.221,90.3964,138.721,87.49613,138.721Z"/><path d="M106.54788,79.57491a21.87545,21.87545,0,0,0-13.11621-1.95349c-2.21154.38434-9.52807,1.65582-12.4884,7.74414a12.71251,12.71251,0,0,0-1.15112,6.593,26.3611,26.3611,0,0,1,26.75573-12.38367Z"/><path d="M145.63773,77.62142a21.87589,21.87589,0,0,0-13.11633,1.95349,26.36086,26.36086,0,0,1,26.75573,12.38367,12.71126,12.71126,0,0,0-1.15112-6.593C155.1658,79.27724,147.84915,78.00576,145.63773,77.62142Z"/></g></svg>