<svg xmlns="http://www.w3.org/2000/svg" viewBox="0 0 330.64297 330.07353"><g id="Personaje"><path d="M213.6579,61.04567c-1.35632.64835-10.36047,4.77052-19.95032.43931a23.38486,23.38486,0,0,1-10.58911-9.794,62.91869,62.91869,0,0,0-41.05786,22.85286c-12.60046,15.6842-13.5404,32.90268-13.813,39.651a74.37841,74.37841,0,0,0,6.74036,33.80643q1.25208,2.88518,2.50427,5.77036a26.265,26.265,0,0,1,13.3822-.94835c13.00415,2.569,18.96375,14.60393,19.725,16.20582a22.39717,22.39717,0,0,1,10.9906-2.13235c14.35974,1.02215,21.56116,16.68466,21.88232,17.41174a26.8664,26.8664,0,0,1,28.92749-25.3298,21.61964,21.61964,0,0,1,16.8805-21.496c-.93213-1.14367-6.5326-8.25238-4.99121-17.99855a22.92905,22.92905,0,0,1,7.14416-13.14655,29.97967,29.97967,0,0,1-8.9021-15.20552,29.65922,29.65922,0,0,1,.2135-14.05966A29.6211,29.6211,0,0,1,213.6579,61.04567Z" fill="#f5c92b"/><path d="M219.67719,108.24046a27.50428,27.50428,0,0,1-3.79578,13.10584c-5.26721-2.049-8.1615-1.4328-9.85364-.36914-2.13024,1.33906-2.89306,3.72551-6.14526,5.08394a10.44053,10.44053,0,0,1-3.77368.7835,30.247,30.247,0,0,1-6.88379-18.57307c-.03894-8.20851,3.58948-17.112,9.03418-20.2786a13.90472,13.90472,0,0,1,6.01733-1.82942,13.59983,13.59983,0,0,1,5.42115,1.20383C215.765,90.18364,219.89264,99.56326,219.67719,108.24046Z" fill="#f7f5f6"/><path d="M180.23761,119.3158a31.33044,31.33044,0,0,0,1.884-14.17312c-.32129-3.10411-1.14527-11.06468-7.17737-15.87522a12.56992,12.56992,0,0,0-7.70642-3.121A11.34619,11.34619,0,0,0,161.8841,87.485c-5.829,2.95548-9.65931,11.64745-9.76465,19.76471-.10388,7.99894,3.35071,19.96283,12.17151,22.62719a14.58017,14.58017,0,0,0,8.569-.258,8.13153,8.13153,0,0,1,1.14184-7.428A7.98061,7.98061,0,0,1,180.23761,119.3158Z" fill="#f7f5f6"/><path d="M311.32611,104.62817a46.65254,46.65254,0,0,0-5.89392-19.76432c-2.39941-4.26505-14.86194-24.82248-35.36316-24.15108a38.30436,38.30436,0,0,0-9.24841,1.535,37.46818,37.46818,0,0,0,2.67834-5.96785c6.58814-19.42554-9.47119-37.31472-12.85668-40.84785A46.6659,46.6659,0,0,0,233.437,4.05913a48.201,48.201,0,0,0-22.26452-2.27974c-6.69837.85876-16.88843,2.165-24.577,10.44371a32.02056,32.02056,0,0,0-8.02368,18.44348q-.41144-1.90419-.82337-3.80846a35.80856,35.80856,0,0,0-11.28112-13.77068C156.73676,6.05,146.2132,6.3661,140.58637,6.509a48.19934,48.19934,0,0,0-21.6576,5.64444A46.662,46.662,0,0,0,103.65668,26.0143c-3.07678,4.391-15.94751,24.39631-6.48486,42.32957a36.87294,36.87294,0,0,0,5.58068,7.49642,27.74989,27.74989,0,0,0-9.589,1.15409c-15.59119,4.80182-22.966,22.97661-24.896,34.84273a46.66007,46.66007,0,0,0,1.26514,20.58551,48.19652,48.19652,0,0,0,11.57251,19.157c4.358,4.46771,11.53515,11.884,23.12707,13.34979,2.62634.33209,13.6499,1.72608,22.74756-5.74989a27.37238,27.37238,0,0,0,8.00818-11.17824,76.21456,76.21456,0,0,1,.947-64.74969,31.1442,31.1442,0,0,1-10.13159,1.89181A29.19456,29.19456,0,0,0,137.25031,81.39,63.95232,63.95232,0,0,1,183.11847,51.691l-.00061-.00212c4.97095,7.65291,13.73108,12.914,22.74219,11.93229a20.18793,20.18793,0,0,0,7.79785-2.57545c5.8949,11.0435,17.26306,17.21886,28.122,15.67805.72253-.10263,1.417-.24591,2.09765-.40829-4.16,9.82632-1.46411,22.08881,7.17518,30.71367h.00036a20.19121,20.19121,0,0,0-4.72656,6.71576c-3.31213,7.77423-1.3667,16.91105,3.67737,23.76663-7.09937,1.93263-13.37122,6.6154-16.14624,13.38548a20.19155,20.19155,0,0,0-1.45777,8.08173c-12.51806-.08965-23.36975,6.95358-27.19775,17.2315a22.52957,22.52957,0,0,0-1.32617,9.93894c-.0127-.04663-.02332-.09351-.03626-.14029-3.059-11.1225-13.8778-20.27863-25.37536-19.342a20.19018,20.19018,0,0,0-7.86487,2.36227c-5.5918-11.1999-16.78784-17.68258-27.68457-16.438-15.27515,1.745-21.47608,17.70478-22.26746,19.84507-7.11487,19.23871,8.4513,37.55853,11.73963,41.18264a46.65834,46.65834,0,0,0,16.8894,11.837,48.1954,48.1954,0,0,0,22.19409,2.88516c6.71912-.6759,16.94092-1.70443,24.85193-9.77069,6.32568-6.44986,9.83826-16.57657,8.57-27.18063a37.12245,37.12245,0,0,0,7.911,13.663c13.92676,15.05982,37.31152,9.484,42.032,8.19467a46.66413,46.66413,0,0,0,18.20508-9.69268,48.20235,48.20235,0,0,0,12.62817-18.47782c2.44178-6.29623,6.1565-15.87454,2.55042-26.58166a29.77456,29.77456,0,0,0-5.08386-9.12445,28.88467,28.88467,0,0,0,6.79272-2.28252c10.15271-4.95689,14.35828-14.33,17.12292-20.49135A48.19341,48.19341,0,0,0,311.32611,104.62817Z" fill="#0083cf"/><path d="M204.38671,145.68956c-1.895-.20047-3.92142-.37735-5.60359.518a7.55228,7.55228,0,0,0-1.78265,1.40989,8.95015,8.95015,0,0,0-1.6879,2.23365,9.31362,9.31362,0,0,0-.82393,3.88312,2.09184,2.09184,0,0,0,.1094.89968,1.71776,1.71776,0,0,0,.96845.82882c1.94683.80779,4.16954-.141,5.91456-1.32316,2.02467-1.37165,3.92852-3.288,4.23574-5.71419" fill="#f7f5f6"/><path d="M284.79887,178.09667a3.97921,3.97921,0,0,0-2.50641,1.26425c-1.70154,2.09043.07269,5.85706.31732,6.36072a15.8203,15.8203,0,0,1-6.04468,3.58582c-2.561.79831-4.18671.52258-7.43762.84283a38.576,38.576,0,0,0-8.56238,1.863,26.5028,26.5028,0,0,1-11.05878-1.88236c-2.22753-.91787-9.19885-4.18414-10.82354-3.29409a4.71373,4.71373,0,0,0-1.35389,1.15277,4.611,4.611,0,0,0-.51489.91775,14.11335,14.11335,0,0,0,1.93262,11.1789c3.90936,5.67166,11.02026,6.015,11.93616,6.04467a12.89928,12.89928,0,0,0,5.844,10.677c-.00464.23391-.01935,5.77948,4.5636,8.53506a9.78983,9.78983,0,0,0,7.59241.90564,12.11412,12.11412,0,0,0,21.72424-9.60031,14.43725,14.43725,0,0,0,7.21631-6.585c3.187-6.21393.28668-12.34439-.05945-13.04523.25861.12653,5.10437,2.43652,7.10608.44015.16461-.16418.94861-.99438.80926-3.08819C304.93229,186.151,291.39176,176.98812,284.79887,178.09667Z" fill="#f7f5f6"/><path d="M30.75678,160.19106c.28516.82166,2.48462,6.89289,7.33777,7.82227,2.56335.49087,4.76773-.88843,9.17648-3.647,6.58722-4.12174,9.49848-8.22852,10.92469-10.70061,1.6629-2.88231,1.71673-4.25261,1.52557-5.24722-.65216-3.39274-4.65149-4.99285-5.30884-5.2453a45.98451,45.98451,0,0,0,.50562-4.92453,59.04348,59.04348,0,0,0-.26746-7.86263,31.80872,31.80872,0,0,1,1.94074-12.20039c.91815-2.40268,3.3189-7.62532,3.89782-11.802a3.29406,3.29406,0,0,0-.18835-1.77888c-.87561-2.05346-4.0362-2.655-5.76776-2.69108-5.1944-.10835-8.86554,4.63469-9.58655,5.56624a16.5233,16.5233,0,0,0-3.32257,9.12163c-6.11911-7.16456-13.21549-11.086-18.17087-9.49541a7.74736,7.74736,0,0,0-4.601,3.34293,7.85546,7.85546,0,0,0-.39047,6.26028,7.67034,7.67034,0,0,0-6.04322,1.45049,7.68006,7.68006,0,0,0-2.2062,8.32407c-5.14222.2508-7.03177,2.50584-7.52942,3.17646-4.08966,5.51108,3.01217,15.61054,3.66421,16.5168.84751,1.178,3.02988,3.12285,7.39462,7.01262,6.74222,6.00852,9.2999,7.46311,12.34055,7.66739A11.77629,11.77629,0,0,0,30.75678,160.19106Z" fill="#f7f5f6"/><path d="M267.28519,269.25039a6.177,6.177,0,0,0-.43554-1.18317,6.84837,6.84837,0,0,0-3.39051-2.97967c-1.91156-.878-23.0509-11.64392-54.2041-27.51526q9.49677-12.22779,18.09986-24.12195a34.02776,34.02776,0,0,1-22.30829-20.43323A33.12389,33.12389,0,0,1,199.7208,214.047a32.064,32.064,0,0,1-10.457,9.74805c-.6466.85455-1.32068,1.72149-1.9823,2.58294-.57385-.29229-1.14111-.58123-1.71924-.87573a31.23309,31.23309,0,0,1-16.056,2.74634,14.8784,14.8784,0,0,0-.4851,10.19434,14.36411,14.36411,0,0,0,3.6242,5.789c.04163.02466.08509.04931.12671.074-6.25323,7.33148-12.44629,14.12549-18.47937,20.38172a47.86052,47.86052,0,0,0-5.3139-10.9076c-2.65686-4.04516-7.08338-10.78473-14.82318-14.26379-7.80042-3.50629-19.94483-4.14075-29.08692,3.3562-10.56622,8.66467-10.98364,23.15784-7.84735,31.62091.88947,2.40033,2.49256,4.75708,5.69867,9.47046a112.68114,112.68114,0,0,0,13.20337,16.046,109.89637,109.89637,0,0,0,22.97107,17.5918c17.9068-18.127,36.45862-38.45154,55.07135-61.12372l.07306-.08972c1.32849.71191,2.64581,1.42468,3.99628,2.13482q13.688,7.198,26.57324,13.121-2.07084,4.52738-4.14173,9.05469c-1.32165-.54211-9.48761-3.73993-17.37536.46277a19.21792,19.21792,0,0,0-7.34046,7.07886c-4.2741,6.96356-2.83227,14.10284-2.4049,16.21924.54992,2.723,1.62011,9.15368,6.34,10.9779a15.07207,15.07207,0,0,0,5.23011.70062q18.17614.28263,36.35235.56507c1.01941.01581,4.15595.56817,5.75183-1.198a3.81326,3.81326,0,0,0,.87427-1.84473C249.25034,308.10928,268.53373,274.37508,267.28519,269.25039Z" fill="#f7f5f6"/><path d="M321.54191,264.69912c-14.94116-1.77295-16.75958-3.97656-17.96-25.45624a.23434.23434,0,0,0-.463,0c-1.20044,21.47968-3.01886,23.68329-17.96,25.45624a.20631.20631,0,0,0,0,.41248c14.94116,1.773,16.75958,3.97656,17.96,25.45629a.23435.23435,0,0,0,.463,0c1.20044-21.47973,3.01886-23.68328,17.96-25.45629A.20631.20631,0,0,0,321.54191,264.69912Z"/><path d="M33.28294,52.529C48.2241,54.302,50.04252,56.50558,51.243,77.98525a.2343.2343,0,0,0,.46289,0C52.90635,56.50558,54.72483,54.302,69.666,52.529a.20631.20631,0,0,0,0-.41248C54.72483,50.34359,52.90635,48.14,51.70591,26.6603a.2343.2343,0,0,0-.46289,0C50.04252,48.14,48.2241,50.34359,33.28294,52.11654A.20631.20631,0,0,0,33.28294,52.529Z"/><path d="M330.53995,228.7109c-7.22534-.85742-8.10473-1.923-8.68524-12.3103a.11332.11332,0,0,0-.22387,0c-.58051,10.38727-1.4599,11.45288-8.68518,12.3103a.09976.09976,0,0,0,0,.19946c7.22528.85736,8.10467,1.923,8.68518,12.31024a.11332.11332,0,0,0,.22387,0c.58051-10.38726,1.4599-11.45288,8.68524-12.31024A.09977.09977,0,0,0,330.53995,228.7109Z"/><path d="M76.44816,239.27938a.11332.11332,0,0,0,.22387,0c.58057-10.38727,1.4599-11.45288,8.68525-12.31024a.09976.09976,0,0,0,0-.19946c-7.22535-.85742-8.10468-1.923-8.68525-12.31031a.11332.11332,0,0,0-.22387,0c-.58051,10.38727-1.45984,11.45289-8.68518,12.31031a.09976.09976,0,0,0,0,.19946C74.98832,227.8265,75.86765,228.89211,76.44816,239.27938Z"/><path d="M256.4462,298.437q.8823-1.90788,1.76453-3.81574,2.55331-5.52155,5.10657-11.043c1.70978-3.69739,3.58606-7.3609,5.13367-11.12866a6.03767,6.03767,0,0,0-1.88086-7.0863,31.20333,31.20333,0,0,0-4.82123-2.59052l-5.74256-2.94159q-10.82262-5.5437-21.6452-11.0874l-23.08722-11.826q6.21131-8.03165,12.252-16.19306,2.12493-2.876,4.22424-5.77087a42.16633,42.16633,0,0,0,5.38061,1.02387,57.02654,57.02654,0,0,0,19.34357-1.16681,14.65375,14.65375,0,0,0,2.817,2.63037,12.72444,12.72444,0,0,0,.23321,1.55053A12.45,12.45,0,0,0,259.646,225.89a10.7567,10.7567,0,0,0,8.41535,2.11957l.01147-.00293q.25861.33884.54157.66284c5.60565,6.38647,15.97107,5.22,20.73822-1.529a13.4768,13.4768,0,0,0,2.17047-9.97132c5.52392-2.85675,9.65546-7.90509,8.91949-14.60968a17.25585,17.25585,0,0,0-.54449-2.72186c2.5788.78973,5.35242.11652,6.53131-2.98431,1.05182-2.76661.17963-5.311-1.29364-7.59668a50.65544,50.65544,0,0,0-4.02167-50.26294,50.02551,50.02551,0,0,0,4.77393-7.90985c3.95477-8.01239,6.64758-16.726,6.22729-25.75037-.69525-14.92767-9.22015-29.46765-21.05493-38.428a35.53974,35.53974,0,0,0-13.24982-6.40527,34.1782,34.1782,0,0,0-14.976.102,32.58515,32.58515,0,0,0,3.26923-14.15259c-.06439-9.5354-4.316-18.639-9.92865-26.1629a50.95689,50.95689,0,0,0-19.027-15.98145A47.35677,47.35677,0,0,0,213.78971.198c-10.27173.72815-21.02393,3.264-28.27539,11.08991a32.23664,32.23664,0,0,0-7.668,14.918,33.21665,33.21665,0,0,0-9.61389-13.05726,36.10348,36.10348,0,0,0-17.01221-7.32031,55.87221,55.87221,0,0,0-24.67914,1.67755,46.315,46.315,0,0,0-24.32184,17.29456,59.73208,59.73208,0,0,0-8.7528,18.97412c-2.10376,7.6073-2.035,15.62946,1.3349,22.87a32.0982,32.0982,0,0,0,5.31347,7.94494,30.67716,30.67716,0,0,0-18.07,7.741c-4.38892,3.97406-7.40546,9.08233-10.02466,14.32709-5.098,10.20855-7.01587,21.51373-4.416,32.669A54.98291,54.98291,0,0,0,81.49259,154.248c5.42932,5.70819,12.269,10.07947,19.887,11.629A32.82392,32.82392,0,0,1,80.00443,167.537a43.89847,43.89847,0,0,1-17.31152-9.48437,47.343,47.343,0,0,1-3.49817-3.37116,9.861,9.861,0,0,0,1.92-5.1037c.15448-3.49805-2.6615-5.689-5.62756-6.874.11426-.31366.21979-.63129.30493-.95722.74005-2.832.43958-6.1018.29645-8.98492a27.03661,27.03661,0,0,1,.07587-5.77063,59.678,59.678,0,0,1,1.73791-7.24817c1.00073-3.387,2.17481-6.71771,3.2945-10.06622.58148-1.7392,1.51733-3.8902.68566-5.697-1.07165-2.32825-3.83581-3.03962-6.17437-3.20221a13.05814,13.05814,0,0,0-7.88086,1.96075,15.25073,15.25073,0,0,0-6.9989,11.19519,37.35576,37.35576,0,0,0-8.14807-6.27563c-3.45118-2.02936-7.5235-2.905-11.29413-1.20935a8.16593,8.16593,0,0,0-4.5456,8.72656,7.48285,7.48285,0,0,0-4.79376,1.32226,7.695,7.695,0,0,0-3.0531,8.80927,7.85224,7.85224,0,0,0-1.07538.07867,9.55672,9.55672,0,0,0-7.00854,4.94031c-1.46393,3.00867-.6734,6.618.54175,9.579,1.49475,3.64234,4.10614,6.70154,6.80261,9.51654a76.9314,76.9314,0,0,0,10.065,9.34735c3.03424,2.19568,6.49841,3.77082,10.31049,3.37433.51013-.053,1.01849-.12762,1.52594-.20685,1.217,3.27167,3.44177,6.44843,7.09985,7.1203a9.91843,9.91843,0,0,0,4.9126-.44354A62.65554,62.65554,0,0,0,62.589,185.62368a59.73314,59.73314,0,0,0,55.02343-.10034c.69678,8.26263,4.33179,16.20129,9.01563,22.94623a50.62332,50.62332,0,0,0,18.78479,16.70221,47.41866,47.41866,0,0,0,22.18194,4.68756,16.53017,16.53017,0,0,0,3.61414,14.09784.944.944,0,0,0,.144.13409q-7.98669,9.3252-16.54809,18.13959a55.0711,55.0711,0,0,0-5.56867-10.50055,43.23761,43.23761,0,0,0-7.8872-9.20728,30.14711,30.14711,0,0,0-24.55158-6.3468,26.90387,26.90387,0,0,0-20.272,16.47913,31.36578,31.36578,0,0,0-.34107,22.30316c1.38153,3.57123,3.80231,6.73242,5.95081,9.86487,2.16333,3.154,4.49274,6.196,6.95386,9.12329,1.07891,1.28326,2.19409,2.53393,3.32525,3.76953-25.9107,3.30627-42.54736,8.4209-42.54736,14.16412,0,9.97,50.10187,18.05237,111.9057,18.05237s111.90576-8.08233,111.90576-18.05237C293.67832,306.53982,279.29557,301.74215,256.4462,298.437Zm-6.17157-38.62012q5.08,2.6022,10.16,5.20434c2.36548,1.21167,6.64667,2.44263,5.78766,5.94a29.81239,29.81239,0,0,1-2.23536,4.99249q-1.25051,2.70447-2.50115,5.40881-2.397,5.18345-4.794,10.367-5.37442,11.622-10.74878,23.24407H199.67039c-5.67859-7.03924-7.81342-17.351-2.909-25.39093a20.20629,20.20629,0,0,1,7.91772-7.47949,18.75271,18.75271,0,0,1,13.7486-1.0791,25.65193,25.65193,0,0,1,13.54279,9.9552c.96191,1.35559,3.221.05634,2.24847-1.31427a29.45588,29.45588,0,0,0-11.653-9.84363q1.64043-3.63033,3.28088-7.26074a1.32661,1.32661,0,0,0-.4671-1.78137q-14.63022-7.39069-29.26032-14.78125,6.86884-8.41224,13.53156-16.98993Q229.96278,249.41244,250.27463,259.81692ZM216.45194,206.6177A33.91522,33.91522,0,0,1,207.0936,193.919c-3.218-7.47626-2.87493-15.81561,1.83014-22.59241,4.95765-7.14044,13.50531-10.90771,22.02784-11.22778a23.40342,23.40342,0,0,0,10.80584,18.11163c1.43384.8761,2.74366-1.37512,1.31427-2.24841a20.87752,20.87752,0,0,1-9.5888-18.35285c.24066-7.28424,4.773-13.40893,11.05548-16.8153,13.7547-7.45789,31.47882-.574,39.41339,12.20569a30.88171,30.88171,0,0,1,3.39276,23.6521,7.53988,7.53988,0,0,0-4.058.62451,5.72824,5.72824,0,0,0-2.41767,8.2959,18.5506,18.5506,0,0,1-3.01873,1.77551,21.08028,21.08028,0,0,1-7.2602,1.55627,29.7775,29.7775,0,0,0-7.86407,1.33393c-.11066.03985-.21881.0888-.329.13055a33.10234,33.10234,0,0,1-12.91791-1.4964c-2.1897-.71673-4.23-1.79315-6.402-2.55072-1.64807-.57483-4.087-1.2699-5.75811-.42627-1.76508.89111-2.25348,3.676-2.46778,5.44263a13.03635,13.03635,0,0,0,.29181,4.76935,14.97535,14.97535,0,0,0,3.65454,6.4787,16.44434,16.44434,0,0,0,10.0379,4.83062,1.11822,1.11822,0,0,0,.7284-.1333,12.07613,12.07613,0,0,0,1.382,5.20117C239.36564,214.90914,225.89548,214.39443,216.45194,206.6177Zm-31.93457-40.55981a21.75745,21.75745,0,0,0-13.22607,1.44873c-4.81732-9.04053-13.80323-15.88227-24.23273-16.50727a23.33656,23.33656,0,0,0-8.70758,1.13672,1.38083,1.38083,0,0,0-.13208-.37811c-.71832-1.34888-1.37885-2.722-2.00861-4.10706a1.0341,1.0341,0,0,0-.15869-.34692,77.253,77.253,0,0,1-6.03406-40.86768,62.44134,62.44134,0,0,1,8.56818-25.12982A58.44772,58.44772,0,0,1,161.31217,60.2391a64.94914,64.94914,0,0,1,20.65875-6.66083,1.13287,1.13287,0,0,0,.61914-.28064,26.75845,26.75845,0,0,0,16.90509,11.28308,21.76636,21.76636,0,0,0,13.42933-1.9458c5.18005,8.81421,14.40576,15.312,24.842,15.518a23.61468,23.61468,0,0,0,3.36169-.17334c-2.275,10.18054,1.44849,20.69281,8.39117,28.286a22.14139,22.14139,0,0,0-6.57208,18.83245,28.48622,28.48622,0,0,0,4.244,11.69867c-.72211.2569-1.44055.53357-2.15051.85157-7.18622,3.21875-12.85791,9.65875-13.95136,17.59588a22.49126,22.49126,0,0,0-.18121,2.24793c-8.20367.29187-16.34766,3.5155-21.94281,9.64557a25.12764,25.12764,0,0,0-6.338,13.3139C198.94242,173.38168,192.38328,167.71035,184.51737,166.05789Zm65.1604,39.18408a1.342,1.342,0,0,0-.84241-.42969,13.18821,13.18821,0,0,1-11.0523-8.93689,10.18823,10.18823,0,0,1-.42926-3.02515,10.44137,10.44137,0,0,1,.33526-2.61413c.23743-.90949.39569-1.98627,1.42926-2.06775,1.88129-.14832,3.94623.8913,5.62177,1.62091a42.21422,42.21422,0,0,0,5.33295,1.98614,34.84482,34.84482,0,0,0,7.3861,1.24128A18.118,18.118,0,0,0,249.67777,205.242Zm53.19275-7.85608c-1.66852.89349-3.61944-.45795-4.721-1.65228a1.22255,1.22255,0,0,0-.2395-.22358,1.146,1.146,0,0,0-1.5296.11084,1.21785,1.21785,0,0,0-.33221,1.63312c2.81433,4.90411,2.45672,11.07037-1.854,14.983a18.40162,18.40162,0,0,1-4.61224,3.01386,1.47085,1.47085,0,0,0-.24219.12073,21.18035,21.18035,0,0,1-9.99646,1.80835c-1.67273-.1131-1.66577,2.49133,0,2.604a23.49533,23.49533,0,0,0,9.71027-1.52,10.93788,10.93788,0,0,1-9.2334,11.968c-6.75958.98718-13.26978-4.96674-11.31867-11.96778a12.73131,12.73131,0,0,1,5.97889-7.52459,1.303,1.303,0,0,0-1.31427-2.24848,15.57328,15.57328,0,0,0-6.84876,8.08081,11.77128,11.77128,0,0,0,.30853,8.99408c-4.52643.23841-8.10833-3.54883-8.73333-8.03473-.67975-4.87884,2.38018-9.49377,5.61309-12.85565,1.16187-1.20819-.677-3.052-1.8413-1.84125-3.00446,3.12427-5.60932,7.04755-6.272,11.317a10.16867,10.16867,0,0,1-3.20318-8.1239,15.46519,15.46519,0,0,1,5.21728-9.72974,18.46975,18.46975,0,0,1,5.60333-3.36993c.02082-.002.04181-.00263.06263-.00464a1.335,1.335,0,0,0,.72979-.29523c.0871-.02948.17121-.06976.25861-.0979,2.68488-.865,5.37036-.87817,8.15124-1.1784a20.94816,20.94816,0,0,0,11.43079-4.65119,1.03183,1.03183,0,0,0,.355-1.25476,1.23728,1.23728,0,0,0-.355-.58655,3.15758,3.15758,0,0,1,1.05725-5.37585c1.78076-.70294,3.95807.07318,5.64752.72595a22.84283,22.84283,0,0,1,4.50464,2.41937,32.54577,32.54577,0,0,1,6.09961,5.43085c1.50177,1.69647,3.40558,3.8111,3.36371,6.19592C304.29661,195.34268,303.9437,196.81124,302.87052,197.38589ZM262.43626,63.34853a30.00542,30.00542,0,0,1,25.12481,4.25824,50.86955,50.86955,0,0,1,14.21155,14.811,46.61558,46.61558,0,0,1,7.62854,21.28271,46.374,46.374,0,0,1-4.44983,23.31037,51.41087,51.41087,0,0,1-7.05945,11.88452,28.22916,28.22916,0,0,1-14.34082,9.11591,36.73776,36.73776,0,0,0-14.42309-10.46,30.9766,30.9766,0,0,0-19.34583-1.546c-3.91455-5.94061-5.6994-13.42-3.37842-20.31482a20.27815,20.27815,0,0,1,13.51813-12.51764,19.71233,19.71233,0,0,1,10.62311-.24865,1.30309,1.30309,0,0,0,.69226-2.51093,23.34648,23.34648,0,0,0-19.731,4.16828C244.83109,97.33383,241.2764,87.181,243.923,77.449a27.8,27.8,0,0,0,15.97144-11.71295c.55871-.82086,1.08258-1.66541,1.57684-2.52661A1.24056,1.24056,0,0,0,262.43626,63.34853ZM184.85349,16.28585a27.77589,27.77589,0,0,1,12.0697-9.863,47.465,47.465,0,0,1,12.54529-3.14557c8.00916-1.08478,16.2815-.69855,23.88837,2.21789A45.86392,45.86392,0,0,1,251.631,18.72805c5.06305,5.9494,9.21124,12.99561,11.00671,20.6471a30.52717,30.52717,0,0,1-2.4444,20.69934c-3.22827,6.43206-8.36083,12.28143-15.41436,14.48632-9.3357,2.91834-19.32819-.93273-25.757-7.9461a30.679,30.679,0,0,1-3.83093-5.25592,23.62754,23.62754,0,0,0,9.07946-10.68115,21.87885,21.87885,0,0,0,1.70667-7.4516c.086-1.67481-2.51819-1.67017-2.60394,0-.49018,9.54614-8.624,18.27411-18.23627,19.05932-9.94556.81244-19.12805-6.17291-23.056-14.98871A33.19375,33.19375,0,0,1,184.85349,16.28585ZM95.17527,47.878a56.98643,56.98643,0,0,1,7.339-18.83612,43.47055,43.47055,0,0,1,20.07593-17.34,52.5986,52.5986,0,0,1,23.77319-3.81311,37.46428,37.46428,0,0,1,16.16974,4.506,30.48443,30.48443,0,0,1,12.99914,14.91486,37.7193,37.7193,0,0,1,1.32734,3.81384,1.34034,1.34034,0,0,0,.20324.41009,37.744,37.744,0,0,0,1.02735,12.04456,29.52091,29.52091,0,0,0,3.078,7.50812,65.36232,65.36232,0,0,0-32.0896,14.262,1.32084,1.32084,0,0,0-.32282-.23517A20.97379,20.97379,0,0,1,137.255,45.70175c.09113-1.6745-2.51312-1.66938-2.60394,0-.47711,8.773,4.70471,17.29644,12.36987,21.42492a59.75526,59.75526,0,0,0-8.39679,9.4198,57.66457,57.66457,0,0,0-3.45062,5.45331,28.54247,28.54247,0,0,1-21.96716-1.10535A33.12961,33.12961,0,0,1,98.81193,68.56558,28.56681,28.56681,0,0,1,95.17527,47.878ZM71.76066,134.15664a44.0339,44.0339,0,0,1,.00812-30.42255,56.31429,56.31429,0,0,1,8.3731-15.53735A28.49026,28.49026,0,0,1,97.23466,77.56936a30.62139,30.62139,0,0,1,5.36065-.49811c7.41742,6.72241,17.76776,10.45148,27.56263,8.94647a28.06254,28.06254,0,0,0,3.32171-.72766,71.63032,71.63032,0,0,0-6.65619,31.37976,23.4271,23.4271,0,0,0-20.43066,3.88361c-1.32282,1.02521.5321,2.8559,1.84125,1.84125,5.24713-4.06665,12.40051-4.89319,18.65106-2.9917.06549,1.66388.16662,3.32471.33032,4.975a76.92052,76.92052,0,0,0,6.30927,23.62909c-3.54181,9.82642-13.15766,14.83466-23.13166,15.7378-9.3341.84521-17.96423-2.80054-24.7749-9.08588A53.6456,53.6456,0,0,1,71.76066,134.15664ZM22.14432,108.96505c2.74006-1.46356,5.95862-.84009,8.5741.57434a38.40064,38.40064,0,0,1,7.05017,5.06763c2.15741,1.91809,4.2218,4.37738,4.0849,7.43439-.18091,4.039-3.86053,5.34271-7.28686,4.5429a20.80738,20.80738,0,0,0-3.25128-3.56323,36.21271,36.21271,0,0,0-11.16193-7.11267c-.1825-.06744-.36347-.11926-.54517-.17859C18.928,113.14333,19.6569,110.29366,22.14432,108.96505ZM11.82975,125.39156a5.08262,5.08262,0,0,1,1.53137-6.64605,5.49949,5.49949,0,0,1,5.3172-.60456,28.42514,28.42514,0,0,1,8.86005,5.12763c2.5733,2.06024,4.83478,4.19543,6.20129,7.26587,1.7536,3.94006-1.92316,7.298-5.77557,7.03192-.02631-.00183-.0484.00275-.07385.00226a30.74511,30.74511,0,0,0-2.16877-2.46259,51.41184,51.41184,0,0,0-4.4881-4.369,25.37481,25.37481,0,0,0-6.19573-3.8291,26.99453,26.99453,0,0,0-3.07984-1.15411A1.39,1.39,0,0,0,11.82975,125.39156ZM32.7313,161.40762a21.25008,21.25008,0,0,0,9.46606-4.99091c1.22095-1.153-.62274-2.99188-1.84124-1.84125-2.88648,2.72565-6.45716,3.97358-10.30024,4.73224a11.07107,11.07107,0,0,1-7.92871-1.21,35.32144,35.32144,0,0,1-7.57061-6.0592,68.5354,68.5354,0,0,1-8.56208-9.29493,17.0296,17.0296,0,0,1-3.2232-7.89917A5.86351,5.86351,0,0,1,6.4152,128.559c2.93323-1.38665,5.97412-.13269,8.70416,1.2403,3.45117,1.7356,6.13788,4.3703,8.7608,7.148,1.27088,1.34583,2.99469,2.95026,3.19483,4.90436a3.68633,3.68633,0,0,1-1.56568,3.48083c-1.82611,1.00031-4.80584-.12-6.58685-.78863a25.73718,25.73718,0,0,1-6.04107-3.38172c-1.35621-.98791-2.65693,1.27039-1.31427,2.24848a28.72985,28.72985,0,0,0,5.49639,3.15655.91455.91455,0,0,0,.08143.14551,24.79183,24.79183,0,0,1,2.14562,3.35162c.30658.57752.58716,1.16742.84906,1.76642l.01734.04041q.04806.11608.09473.23224.09438.23473.18377.47137c.1192.31549.231.63367.33783.95362a1.3023,1.3023,0,1,0,2.51093-.6922,26.42179,26.42179,0,0,0-2.23664-4.91425,10.9818,10.9818,0,0,0,3.96216.25427c3.54975-.51141,5.41315-4.56134,4.40143-7.808-.02374-.07623-.05749-.14807-.0838-.22321,3.47308-.34112,6.83771-2.82318,7.43182-6.39178a7.99683,7.99683,0,0,0-.60528-4.3349c3.37671.11859,6.64068-1.37445,7.86548-4.89972a9.007,9.007,0,0,0-.6615-7.08331,1.28065,1.28065,0,0,0,.03686-.43866,12.77932,12.77932,0,0,1,4.72644-11.30213,10.70845,10.70845,0,0,1,6.84387-2.345,9.14453,9.14453,0,0,1,2.88343.44348c.8244.28974,1.656.96619,1.75689,1.52014a5.542,5.542,0,0,1-.236,1.49494c-.37036,1.37182-.86395,2.71344-1.32153,4.05762-.95142,2.79473-1.89844,5.59332-2.72785,8.4273-1.1126,3.80182-2.16369,7.75348-1.93951,11.74555a47.56271,47.56271,0,0,1,.07623,9.168c-.4049,2.86322-2.38269,5.15808-4.54773,6.92541-1.29882,1.06024.553,2.89288,1.84131,1.84131a16.81507,16.81507,0,0,0,3.57544-3.93933c2.02637.73712,4.22614,2.04742,4.1875,4.39545-.049,2.97839-2.89233,5.67657-4.85809,7.60809a75.2765,75.2765,0,0,1-6.2981,5.63739c-2.25091,1.76044-4.99084,3.63782-7.92065,3.90057C36.04069,166.88,33.861,164.30679,32.7313,161.40762Zm116.14264,62.513a46.68393,46.68393,0,0,1-17.74548-13.72919c-4.973-6.23614-8.94709-13.61786-10.45942-21.496a30.01276,30.01276,0,0,1,.93287-15.29c.18444-.54407.38562-1.08191.5993-1.61511.02173-.05426.10553-.25513.1261-.305.014-.03076.16223-.37048.21423-.48632q.68354-1.523,1.4997-2.982c3.4945-6.26953,8.86-11.81927,15.96881-13.72674,9.45306-2.5365,19.26428,1.7868,25.39642,9.04217a30.41657,30.41657,0,0,1,3.57434,5.35962,23.382,23.382,0,0,0-9.60565,10.51617,22.29415,22.29415,0,0,0-1.91052,7.22431c-.15412,1.668,2.45086,1.65747,2.60394,0,.87537-9.47492,9.32544-17.75214,18.8681-18.23749,9.7851-.49762,18.61316,6.61237,22.319,15.32574a28.53485,28.53485,0,0,1,1.3147,3.84559,25.71249,25.71249,0,0,0,.6817,3.42657c.00611.02246.01453.04443.02069.06683a33.6098,33.6098,0,0,1-5.41522,23.56037,27.56568,27.56568,0,0,1-12.05139,9.59332,45.37218,45.37218,0,0,1-13.1565,2.91931C164.60978,227.69705,156.38413,227.08651,148.87394,223.92062Zm23.93542,17.89471c-.01727-.02563-.18231-.24542-.225-.30475q-.39825-.55325-.75128-1.13739a14.45428,14.45428,0,0,1-1.4159-3.07385,13.03472,13.03472,0,0,1-.109-7.5473,54.14659,54.14659,0,0,0,14.91651-2.82385q-5.90616,7.73519-12.19049,15.16778Q172.92024,241.95691,172.80936,241.81533ZM102.11277,280.156A27.8176,27.8176,0,0,1,97.84458,271.57a30.20388,30.20388,0,0,1-.741-10.31342,25.10476,25.10476,0,0,1,12.89093-20.03985,27.50581,27.50581,0,0,1,23.93488-.41535c7.54352,3.54206,12.95508,10.95429,16.63129,18.22632A46.65552,46.65552,0,0,1,153.053,264.969a1.31674,1.31674,0,0,0,2.17608.57452,400.68493,400.68493,0,0,0,34.91974-40.83111,28.71439,28.71439,0,0,0,6.98523-5.321,33.812,33.812,0,0,0,8.9278-21.62445,38.2087,38.2087,0,0,0,5.625,7.93122,31.85782,31.85782,0,0,0,13.425,8.47308q-18.87981,25.92407-39.53576,50.48657-11.1027,13.19229-22.69666,25.96033-5.46441,6.01812-11.0354,11.93829-2.797,2.97235-5.6203,5.91986c-1.70856,1.78363-3.35248,3.79126-5.22919,5.39746-1.89788,1.62433-4.235,1.31086-6.16906-.01819-2.27259-1.56164-4.48529-3.21643-6.63916-4.93774a123.08549,123.08549,0,0,1-10.14582-9.06494A128.32385,128.32385,0,0,1,102.11277,280.156Zm61.123,13.92364q8.19762-8.98425,16.16027-18.179,7.63174-8.82367,15.02942-17.84613,14.30218,7.22488,28.60437,14.44989-1.43673,3.17953-2.87347,6.35913c-.2367-.08008-.4646-.17871-.70441-.25189a21.36966,21.36966,0,0,0-17.1654,1.84234,22.13711,22.13711,0,0,0-10.03333,13.45667q-5.17932-.07782-10.48065-.08276Q172.29511,293.828,163.23576,294.07967Z"/><path d="M198.0911,132.79794a1.31629,1.31629,0,0,0-1.9126.77807,20.246,20.246,0,0,1-19.49639,13.9206,1.3028,1.3028,0,0,0,0,2.604,21.58688,21.58688,0,0,0,7.66-1.22693,12.31269,12.31269,0,0,0,15.70331,8.66748c6.80578-2.347,6.70068-10.82831,4.56378-16.51648A16.16317,16.16317,0,0,0,198.0911,132.79794Zm4.56525,19.16565c-1.08679,2.783-4.19391,3.75866-7.04376,3.57843a22.83154,22.83154,0,0,1,.60839-3.14655,8.08691,8.08691,0,0,1,.53687-1.43323,7.617,7.617,0,0,1,.44843-.77624c.04089-.06189.21246-.3039.18646-.27027-.03449.04456.15674-.184.19818-.23028a6.71076,6.71076,0,0,1,.52167-.52191c.088-.07886.17865-.15583.27154-.22931.03015-.01923.18353-.13019.20557-.14508a7.22235,7.22235,0,0,1,.69189-.41413c.1192-.06256.24024-.121.36243-.17749.04034-.01867.06537-.03082.08581-.041.0221-.00665.05384-.01685.10071-.03272.2555-.08648.50873-.172.77106-.23669q.19574-.04826.394-.08539c.02942-.00549.185-.02661.23468-.03479a6.80951,6.80951,0,0,1,.68744-.037q.20151,0,.40253.01233c.04834.00293.47632.05054.25525.01831a1.72063,1.72063,0,0,0,.7276-.061A10.92243,10.92243,0,0,1,202.65635,151.96359Z"/><path d="M182.85166,135.5104a1.30312,1.30312,0,0,0-.6922-2.511,7.91867,7.91867,0,0,1-5.6452-.74884,6.33683,6.33683,0,0,1-2.928-3.08789,1.44413,1.44413,0,0,0-.0672-.20062,4.71252,4.71252,0,0,1-.25989-1.13947,5.69779,5.69779,0,0,1,.608-3.045,8.70826,8.70826,0,0,1,.65259-1.09186c.04181-.05957.08545-.11786.12763-.177l.0011-.00122c.06677-.07873.131-.15924.20025-.236a5.892,5.892,0,0,1,2.66889-1.669,6.34052,6.34052,0,0,1,2.38769-.33337,7.58288,7.58288,0,0,1,3.66382,1.05255,6.89147,6.89147,0,0,1,1.65814,1.22943c1.20911,1.16077,3.053-.678,1.84131-1.84125a10.97976,10.97976,0,0,0-5.51971-2.82244,31.94467,31.94467,0,0,0-1.41871-23.59559c-2.80023-5.72448-8.33374-10.74481-15.11621-9.7575-6.869.99994-11.29663,7.56884-13.22631,13.7207a31.82481,31.82481,0,0,0,1.88812,23.74817,18.06238,18.06238,0,0,0,7.59918,7.95074,12.217,12.217,0,0,0,10.42908.21668,9.05562,9.05562,0,0,0,2.88781,2.96771A10.575,10.575,0,0,0,182.85166,135.5104Zm-26.26391-12.643c-3.63691-6.03149-4.43085-13.76434-2.916-20.568,1.23413-5.54333,4.4339-12.04773,10.28473-13.86548,5.54321-1.72223,10.43841,2.07874,13.117,6.66028a7.03235,7.03235,0,0,0-1.77856-.23578c-4.50543,0-8.32141,4.32507-9.6333,10.30194q5.28369,1.8598,10.56744,3.71973-5.27316,2.74191-10.546,5.48389c.93958,4.19165,3.11633,7.5473,5.89466,9.16278a9.07488,9.07488,0,0,0-.93024,3.44336,7.10321,7.10321,0,0,0,.13476,1.76068C165.13755,131.28,159.63193,127.91592,156.58775,122.86739Z"/><path d="M193.61887,126.68032a6.82726,6.82726,0,0,0,2.09265,2.07251,3.5631,3.5631,0,0,0,1.71174-.01922,5.87726,5.87726,0,0,0,1.63714-.2851,8.933,8.933,0,0,0,2.51856-1.77277c1.55-1.45031,2.64819-2.97088,4.607-3.89532a10.34628,10.34628,0,0,1,9.31128.77728,1.31424,1.31424,0,0,0,1.78137-.4671,31.83576,31.83576,0,0,0,1.46747-25.21442c-2.26245-6.0686-7.07477-12.19067-14.06836-12.47149-6.87439-.27607-11.98749,5.47589-14.44653,11.319a31.9822,31.9822,0,0,0,.11444,24.49658A23.35462,23.35462,0,0,0,193.61887,126.68032Zm1.7591-33.74457c2.82074-3.60022,7.2218-5.94775,11.80334-4.46087a13.88229,13.88229,0,0,1,7.41754,6.62225,7.0345,7.0345,0,0,0-1.79309-.23877c-4.50549,0-8.32141,4.32507-9.6333,10.30194q5.28378,1.8598,10.56745,3.71973-5.274,2.74227-10.54779,5.48486a17.079,17.079,0,0,0,2.45928,5.85382c-.10369.03778-.21032.06238-.31335.10291a1.10774,1.10774,0,0,1-.311.13122c-2.26661,1.00629-3.53766,2.74579-5.28937,4.38166a7.84852,7.84852,0,0,1-1.44538,1.07135c-.09527.05761-.19372.10955-.29272.16046-.43341.02637-.86737.08087-1.30048.13537-4.22424-4.30053-6.04644-10.57922-6.20257-16.4895C190.34232,103.87759,191.71592,97.60983,195.378,92.93575Z"/><path d="M213.3455,130.81905c-2.89557,0-2.90033,4.5,0,4.5C216.241,135.31905,216.24583,130.81905,213.3455,130.81905Z"/><path d="M220.81522,126.98843c-2.89557,0-2.90033,4.5,0,4.5C223.71073,131.48843,223.71555,126.98843,220.81522,126.98843Z"/><path d="M219.47446,135.03274c-2.8955,0-2.90033,4.5,0,4.5C222.37,139.53274,222.37485,135.03274,219.47446,135.03274Z"/><path d="M145.96744,136.3431c-2.89556,0-2.90032,4.5,0,4.5C148.863,140.8431,148.86777,136.3431,145.96744,136.3431Z"/><path d="M152.45866,130.69326c-2.89557,0-2.90033,4.5,0,4.5C155.35416,135.19326,155.359,130.69326,152.45866,130.69326Z"/><path d="M153.8082,138.73611c-2.8955,0-2.90033,4.5,0,4.5C156.70377,143.23611,156.70853,138.73611,153.8082,138.73611Z"/><path d="M172.86014,79.59005a21.8767,21.8767,0,0,0-13.11627-1.95349c-2.21154.38434-9.52813,1.65588-12.4884,7.7442a12.71252,12.71252,0,0,0-1.15112,6.593,26.36119,26.36119,0,0,1,26.75579-12.38373Z"/><path d="M212.787,81.125a26.86246,26.86246,0,0,1,12.80231,10.84882,12.71252,12.71252,0,0,0-1.15112-6.593c-2.96027-6.08832-10.27686-7.35986-12.4884-7.7442a21.87675,21.87675,0,0,0-13.11628,1.95349A26.60839,26.60839,0,0,1,212.787,81.125Z"/></g></svg>