<svg xmlns="http://www.w3.org/2000/svg" viewBox="0 0 245.88817 230.00476"><g id="Personaje"><path d="M147.31157,61.03045c-1.35632.64834-10.36047,4.77052-19.95031.43931a23.38474,23.38474,0,0,1-10.58911-9.794A62.91868,62.91868,0,0,0,75.71428,74.52859c-12.60046,15.6842-13.5404,32.90268-13.813,39.651a74.37846,74.37846,0,0,0,6.74035,33.80643q1.25208,2.88518,2.50427,5.77036a26.26506,26.26506,0,0,1,13.38221-.94835c13.00415,2.569,18.96374,14.60392,19.725,16.20582a22.39719,22.39719,0,0,1,10.9906-2.13235c14.35974,1.02215,21.56116,16.68466,21.88233,17.41174a26.8664,26.8664,0,0,1,28.92749-25.3298,21.61964,21.61964,0,0,1,16.88049-21.496c-.93213-1.14366-6.53259-8.25238-4.99121-17.99855a22.92907,22.92907,0,0,1,7.14416-13.14654,29.97967,29.97967,0,0,1-8.9021-15.20552,29.65919,29.65919,0,0,1,.21351-14.05966,29.62111,29.62111,0,0,1-29.0868-16.02672Z" fill="#f5c92b"/><path d="M112.778,116.8595a31.33041,31.33041,0,0,0,1.884-14.17311c-.32129-3.10412-1.14527-11.06469-7.17737-15.87523a12.56992,12.56992,0,0,0-7.70642-3.121,11.346,11.346,0,0,0-5.35376,1.33849c-5.829,2.95547-9.6593,11.64744-9.76465,19.76471-.10388,7.99893,3.35071,19.96283,12.17151,22.62718a14.58017,14.58017,0,0,0,8.569-.258,8.13153,8.13153,0,0,1,1.14184-7.428A7.98061,7.98061,0,0,1,112.778,116.8595Z" fill="#f7f5f6"/><path d="M244.97979,104.613a46.65292,46.65292,0,0,0-5.89392-19.76433c-2.39942-4.265-14.86194-24.82248-35.36316-24.15107a38.30434,38.30434,0,0,0-9.24842,1.535,37.4686,37.4686,0,0,0,2.67835-5.96785C203.74077,36.83915,187.68145,18.95,184.296,15.41684A46.66589,46.66589,0,0,0,167.09063,4.04391,48.201,48.201,0,0,0,144.8261,1.76417c-6.69836.85875-16.88843,2.165-24.577,10.44371a32.02053,32.02053,0,0,0-8.02368,18.44348q-.41144-1.90419-.82336-3.80846A35.8086,35.8086,0,0,0,100.1209,13.07222C90.39043,6.0348,79.86687,6.35087,74.24,6.49379a48.19924,48.19924,0,0,0-21.65759,5.64444,46.66185,46.66185,0,0,0-15.2721,13.86085c-3.07678,4.391-15.94751,24.39631-6.48486,42.32957a36.873,36.873,0,0,0,5.58069,7.49641,27.75023,27.75023,0,0,0-9.589,1.1541C11.226,81.781,3.85125,99.95577,1.92119,111.82189A46.66007,46.66007,0,0,0,3.18633,132.4074a48.19652,48.19652,0,0,0,11.57251,19.157c4.358,4.46771,11.53516,11.884,23.12707,13.34979,2.62635.33209,13.64991,1.72608,22.74756-5.74989a27.37219,27.37219,0,0,0,8.00818-11.17824,76.21456,76.21456,0,0,1,.947-64.74969,31.14414,31.14414,0,0,1-10.13159,1.89181A29.1945,29.1945,0,0,0,70.904,81.37481a63.95231,63.95231,0,0,1,45.86817-29.69908l-.00062-.00212c4.971,7.6529,13.73108,12.914,22.74219,11.93229a20.18787,20.18787,0,0,0,7.79785-2.57545c5.8949,11.0435,17.26307,17.21885,28.122,15.67805.72254-.10263,1.417-.24591,2.09766-.40829-4.16,9.82632-1.46411,22.0888,7.17517,30.71367h.00037a20.19124,20.19124,0,0,0-4.72657,6.71576c-3.31213,7.77423-1.3667,16.91105,3.67737,23.76663-7.09936,1.93263-13.37121,6.6154-16.14624,13.38548a20.19154,20.19154,0,0,0-1.45776,8.08173c-12.51807-.08965-23.36975,6.95358-27.19776,17.2315a22.52955,22.52955,0,0,0-1.32617,9.93894c-.01269-.04663-.02331-.09351-.03625-.14029-3.059-11.1225-13.87781-20.27863-25.37537-19.342a20.19023,20.19023,0,0,0-7.86487,2.36227c-5.59179-11.1999-16.78784-17.68258-27.68457-16.438-15.27514,1.745-21.47607,17.70478-22.26745,19.84507-7.11487,19.2387,8.45129,37.55853,11.73962,41.18264a46.65834,46.65834,0,0,0,16.8894,11.837,48.19563,48.19563,0,0,0,22.1941,2.88516c6.71911-.6759,16.94091-1.70444,24.85192-9.77069,6.32569-6.44986,9.83826-16.57657,8.56995-27.18063a37.1226,37.1226,0,0,0,7.911,13.663c13.92676,15.05982,37.31153,9.484,42.032,8.19467a46.664,46.664,0,0,0,18.20508-9.69268,48.20221,48.20221,0,0,0,12.62818-18.47782c2.44177-6.29623,6.15649-15.87454,2.55041-26.58166a29.77436,29.77436,0,0,0-5.08386-9.12445,28.88512,28.88512,0,0,0,6.79272-2.28252c10.15271-4.95689,14.35828-14.33,17.12293-20.49135A48.19357,48.19357,0,0,0,244.97979,104.613Z" fill="#fa8632"/><path d="M108.10245,141.03011a111.82359,111.82359,0,0,0,16.20374-2.14512,36.3513,36.3513,0,0,0,8.44187-2.60506c3.65992-1.76259,6.74-4.50767,9.767-7.21674a23.85887,23.85887,0,0,0,5.237,6.25012,1.04363,1.04363,0,0,1,.393.50039.96064.96064,0,0,1-.13638.63586,14.78606,14.78606,0,0,1-3.57456,4.21813q-3.86223,3.49133-7.9916,6.67105a21.27,21.27,0,0,1-3.90393,2.54124,23.15242,23.15242,0,0,1-6.22253,1.59117l-6.76758,1.07416a7.179,7.179,0,0,1-2.18847.12052,6.3916,6.3916,0,0,1-3.28986-1.95614,27.48773,27.48773,0,0,1-5.35485-7.14909" fill="#f7f5f6"/><path d="M245.769,105.31832c-.69519-14.92768-9.22009-29.46765-21.05493-38.4281a35.54185,35.54185,0,0,0-13.24988-6.40528,34.17782,34.17782,0,0,0-14.97583.10211,32.58527,32.58527,0,0,0,3.26917-14.15264c-.06433-9.53534-4.316-18.63892-9.92859-26.16285a50.95778,50.95778,0,0,0-19.0271-15.98144A47.35619,47.35619,0,0,0,147.44345.18276c-10.27173.72815-21.02393,3.264-28.27539,11.08984A32.2365,32.2365,0,0,0,111.5,26.19063a33.2171,33.2171,0,0,0-9.61389-13.05719A36.10368,36.10368,0,0,0,84.87387,5.81313a55.87244,55.87244,0,0,0-24.6792,1.67755A46.31508,46.31508,0,0,0,35.87289,24.78524,59.7332,59.7332,0,0,0,27.12,43.75936c-2.10363,7.6073-2.03491,15.62945,1.335,22.87A32.09857,32.09857,0,0,0,33.7684,74.5743a30.67631,30.67631,0,0,0-18.06995,7.7409C11.30954,86.28933,8.29306,91.3976,5.6738,96.64235c-5.098,10.20856-7.01587,21.51374-4.4159,32.66895a54.98115,54.98115,0,0,0,13.88843,24.92145c7.13977,7.50665,16.71484,12.71514,27.29785,12.21215a36.07769,36.07769,0,0,0,16.08716-4.44006c-.08594.11133-.17676.21783-.26147.33032A34.16989,34.16989,0,0,0,51.15854,181.504c-.34741,9.6856,3.68664,19.12152,9.12317,26.95031A50.623,50.623,0,0,0,79.0665,225.15657a47.69235,47.69235,0,0,0,23.24878,4.67115c10.342-.45618,21.04638-2.67878,28.47241-10.45148a33.82148,33.82148,0,0,0,8.92956-21.681c.40564.76886.83,1.52948,1.29346,2.27008A33.369,33.369,0,0,0,159.276,214.37374c7.8855,2.5105,16.47229,2.37585,24.545.90027a49.63729,49.63729,0,0,0,21.79676-9.66108,47.45809,47.45809,0,0,0,13.86108-18.49554,57.04245,57.04245,0,0,0,4.682-15.95129,30.51336,30.51336,0,0,0-3.14148-17.49811,31.50751,31.50751,0,0,0-2.07617-3.44379,30.30034,30.30034,0,0,0,12.92944-7.83667,43.72634,43.72634,0,0,0,7.66907-11.31885C243.49643,123.05629,246.1893,114.34261,245.769,105.31832ZM118.50717,16.27065a27.7768,27.7768,0,0,1,12.0697-9.863A47.46572,47.46572,0,0,1,143.12216,3.2621c8.00916-1.08477,16.28149-.69854,23.88843,2.2179a45.86474,45.86474,0,0,1,18.274,13.23279c5.06311,5.94946,9.2113,12.99566,11.00671,20.64709a30.52847,30.52847,0,0,1-2.44434,20.6994c-3.22827,6.43207-8.36084,12.28138-15.41442,14.48633-9.3357,2.91828-19.32825-.9328-25.757-7.9461a30.67679,30.67679,0,0,1-3.83094-5.25592,23.6281,23.6281,0,0,0,9.07947-10.68122,21.88119,21.88119,0,0,0,1.70667-7.45154c.08606-1.67486-2.51819-1.67022-2.60388,0-.49024,9.54615-8.624,18.274-18.23633,19.05927-9.94556.81244-19.128-6.17291-23.056-14.98865A33.19409,33.19409,0,0,1,118.50717,16.27065Zm58.09375,108.812a28.48041,28.48041,0,0,0,4.22815,11.67487,25.9266,25.9266,0,0,0-12.01025,8.64087,21.27832,21.27832,0,0,0-4.22413,12.08441c-10.0072.35376-19.92248,5.14624-25.1698,13.91382a23.53467,23.53467,0,0,0-3.15161,9.024c-3.68652-7.06256-10.24194-12.72674-18.10229-14.378a21.75763,21.75763,0,0,0-13.22608,1.44873c-4.81738-9.0404-13.80322-15.88226-24.23266-16.50732a23.33709,23.33709,0,0,0-8.70752,1.13678,1.38324,1.38324,0,0,0-.13208-.37818c-.71839-1.34881-1.37891-2.722-2.00855-4.10693a1.03338,1.03338,0,0,0-.15893-.34711A77.25315,77.25315,0,0,1,63.67123,106.421a62.44258,62.44258,0,0,1,8.56812-25.12982A58.44826,58.44826,0,0,1,94.96591,60.2239,64.94786,64.94786,0,0,1,115.6246,53.563a1.13316,1.13316,0,0,0,.61914-.28064,26.75824,26.75824,0,0,0,16.905,11.28314,21.76687,21.76687,0,0,0,13.42945-1.9458c5.17993,8.81415,14.40576,15.31189,24.84191,15.51794a23.61142,23.61142,0,0,0,3.3617-.17334c-2.2749,10.18048,1.44848,20.69281,8.39111,28.286A22.14149,22.14149,0,0,0,176.60092,125.08266ZM68.683,151.18349c.3086.61816.60571,1.24182.93042,1.85217a25.94091,25.94091,0,0,0-2.84778,1.49585c.22559-.32873.45618-.6524.66663-.99615A23.4441,23.4441,0,0,0,68.683,151.18349ZM28.829,47.86275a56.9859,56.9859,0,0,1,7.339-18.83606,43.47076,43.47076,0,0,1,20.07592-17.34,52.59882,52.59882,0,0,1,23.7732-3.81318,37.46635,37.46635,0,0,1,16.1698,4.506,30.48487,30.48487,0,0,1,12.999,14.91491,37.727,37.727,0,0,1,1.32739,3.81385,1.34047,1.34047,0,0,0,.20325.41009A37.74408,37.74408,0,0,0,111.74386,43.563a29.52139,29.52139,0,0,0,3.078,7.50811,65.36152,65.36152,0,0,0-32.0896,14.262,1.32277,1.32277,0,0,0-.32276-.23517A20.97354,20.97354,0,0,1,70.90878,45.68654c.09107-1.6745-2.51318-1.66943-2.604,0-.47718,8.773,4.70483,17.29645,12.36987,21.42487a59.75488,59.75488,0,0,0-8.39673,9.41986,57.66389,57.66389,0,0,0-3.45068,5.45331,28.54277,28.54277,0,0,1-21.96716-1.10535A33.12886,33.12886,0,0,1,32.46567,68.55037,28.56632,28.56632,0,0,1,28.829,47.86275ZM19.27182,154.64382A53.6445,53.6445,0,0,1,5.4144,134.14138a44.03345,44.03345,0,0,1,.00805-30.42249,56.31385,56.31385,0,0,1,8.373-15.53735A28.49074,28.49074,0,0,1,30.88827,77.55416a30.61341,30.61341,0,0,1,5.3606-.498c7.41748,6.72235,17.76782,10.45135,27.56274,8.94641a28.06261,28.06261,0,0,0,3.32178-.72766,71.62846,71.62846,0,0,0-6.65625,31.3797,23.42729,23.42729,0,0,0-20.43066,3.88361c-1.32276,1.02526.5321,2.856,1.84131,1.8413,5.24707-4.06671,12.40039-4.89318,18.651-2.99169.06555,1.66387.16662,3.3247.33032,4.975a76.92,76.92,0,0,0,6.3092,23.62909c-3.54175,9.82636-13.15759,14.83466-23.13159,15.73779C34.71261,164.57485,26.08249,160.9291,19.27182,154.64382Zm112.23938,59.761a27.56557,27.56557,0,0,1-12.05139,9.59339,45.37218,45.37218,0,0,1-13.1565,2.91931c-8.03979.76434-16.2655.15375-23.77563-3.01209a46.68385,46.68385,0,0,1-17.74561-13.72918c-4.9729-6.23615-8.947-13.61792-10.45935-21.496a30.01141,30.01141,0,0,1,.93286-15.29c.18445-.54413.38562-1.082.59925-1.61512.02173-.05414.10534-.25445.126-.30468.01319-.02881.16236-.37043.21436-.48664q.68371-1.523,1.49975-2.982c3.49451-6.26959,8.86011-11.81928,15.96875-13.72675,9.45313-2.5365,19.26441,1.78681,25.39649,9.04212a30.41785,30.41785,0,0,1,3.57434,5.35962A23.38066,23.38066,0,0,0,93.0289,179.193a22.29243,22.29243,0,0,0-1.91065,7.22424c-.154,1.668,2.45093,1.65747,2.604,0,.87536-9.47485,9.32544-17.75207,18.86816-18.23742,9.785-.49768,18.613,6.61236,22.31885,15.32568a28.923,28.923,0,0,1,1.62683,5.1908c.06726.36023.13391.72015.215,1.07861A33.607,33.607,0,0,1,131.5112,214.4048Zm90.2135-48.58361c.30737,5.5086-1.04663,10.85223-2.93726,15.98223-2.82824,7.6745-6.938,14.88471-13.10046,20.37354a44.93215,44.93215,0,0,1-19.22339,9.88019c-13.92541,3.37347-30.62634,2.28729-40.3833-9.47687a33.556,33.556,0,0,1-6.80994-13.01917c-.126-.76666-.27063-1.52941-.4436-2.28479-.009-.03881-.02173-.07684-.03088-.11566a21.47949,21.47949,0,0,1,.07006-7.01391c1.79432-9.84461,10.09827-16.97333,19.55665-19.25531a30.6742,30.6742,0,0,1,6.22924-.80921,24.05944,24.05944,0,0,0,5.19043,13.24384,21.52365,21.52365,0,0,0,5.56885,4.86914c1.43384.876,2.74365-1.37512,1.31433-2.24847a20.77364,20.77364,0,0,1-8.3092-24.60486c3.44055-8.7522,13.12073-13.66346,22.17126-13.71967,9.84644-.0611,19.89612,5.46948,25.679,13.33667A27.73408,27.73408,0,0,1,221.7247,165.82119Zm16.88037-38.8255a51.4134,51.4134,0,0,1-7.05957,11.88446,28.22844,28.22844,0,0,1-14.31494,9.10864,36.67252,36.67252,0,0,0-21.562-12.5296,29.1077,29.1077,0,0,0-12.24292.51568c-3.90772-5.93817-5.68726-13.41089-3.36817-20.29968a20.27815,20.27815,0,0,1,13.51807-12.51764,19.71259,19.71259,0,0,1,10.62305-.2486,1.3031,1.3031,0,0,0,.69238-2.51092,23.3464,23.3464,0,0,0-19.73108,4.16827c-6.67517-7.24768-10.22986-17.40051-7.58325-27.1325a27.79993,27.79993,0,0,0,15.97143-11.713c.55872-.82086,1.08265-1.66534,1.57679-2.52655a1.24074,1.24074,0,0,0,.96508.1391,30.00469,30.00469,0,0,1,25.12476,4.25824,50.87129,50.87129,0,0,1,14.21167,14.811,46.61728,46.61728,0,0,1,7.62842,21.28271A46.37342,46.37342,0,0,1,238.60507,126.99569Z"/><path d="M126.89291,111.81423a18.61084,18.61084,0,0,1,8.92945-5.02069,17.19829,17.19829,0,0,1,14.02172,3.103c1.35254.9925,2.65284-1.26611,1.31434-2.24847a19.93666,19.93666,0,0,0-21.9762-.8963,19.86139,19.86139,0,0,1,4.192-5.01679,18.85859,18.85859,0,0,1,16.402-3.7901c1.62964.384,2.3252-2.12616.69214-2.51092a21.62113,21.62113,0,0,0-18.40576,4.02368,22.24712,22.24712,0,0,0-7.3457,11.0899A1.31172,1.31172,0,0,0,126.89291,111.81423Z"/><path d="M91.73776,137.513l-.003-.01556C91.74277,137.78157,91.75485,137.61245,91.73776,137.513Z"/><path d="M161.69491,135.3835a14.06725,14.06725,0,0,1-12.30835-.52429,13.41677,13.41677,0,0,1-6.40673-11.24579,15.70084,15.70084,0,0,1,1.03857-5.90637c.59863-1.56677-1.91772-2.24457-2.511-.69226a17.26272,17.26272,0,0,0,0,12.2641,44.01782,44.01782,0,0,1-15.31079,8.24512c-6.77465,1.99169-14.18176,2.08569-21.19384,2.04534q-5.267-.0303-10.5149-.53643a1.3688,1.3688,0,0,0-.16479.00067,7.7542,7.7542,0,0,0-.14087-2.54383,1.31241,1.31241,0,0,0-1.60156-.90936,1.33119,1.33119,0,0,0-.90931,1.60156q.03534.157.06336.3155l-.002-.051c.00146.06519.01538.13184.02148.19678a6.18239,6.18239,0,0,1,.00586,1.08606c-.00146.01892-.01245.1076-.019.16351-.01343.07184-.0343.18872-.03894.21106a5.90165,5.90165,0,0,1-.17444.65234c-.02735.08264-.05847.16346-.08887.24469-.00806.01923-.04016.0998-.06885.15912q-.12011.24948-.26391.4867c-.09009.14929-.18848.29235-.28907.43469l-.00463.00677-.01233.01374c-.04724.05432-.09265.1101-.14026.164a6.36846,6.36846,0,0,1-.64038.62811c-.0354.03021-.07154.05939-.10767.08881-.07165.05047-.142.10315-.21484.1521q-.1952.131-.39978.2464a1.30222,1.30222,0,1,0,1.31433,2.24847,7.5992,7.5992,0,0,0,2.79321-2.75342c.10986-.1889.20825-.38287.2992-.57953a1.32533,1.32533,0,0,0,.78405.34009c2.20069.21033,4.40308.34381,6.60645.42438,6.6781,7.48755,14.87793,13.70624,24.99548,15.36224a20.73869,20.73869,0,0,0,14.74475-2.64148,18.90416,18.90416,0,0,0,7.05689-7.60376,22.07881,22.07881,0,0,0,2.30566-9.10064,15.24754,15.24754,0,0,0,5.81445,1.06854,17.68669,17.68669,0,0,0,6.37562-1.25177,1.34566,1.34566,0,0,0,.9093-1.60156A1.3094,1.3094,0,0,0,161.69491,135.3835ZM133.555,137.46035a48.05167,48.05167,0,0,0,9.10816-5.79694,15.22241,15.22241,0,0,0,4.33911,4.6969l-.1792.32086a42.43127,42.43127,0,0,1-16.67432,11.93024,41.64017,41.64017,0,0,1-9.1842,2.43622,7.68325,7.68325,0,0,1-7.33533-3.14588q-1.92627-2.68011-3.85254-5.36011l-.23144-.44628q3.19976-.08516,6.39965-.293A47.34949,47.34949,0,0,0,133.555,137.46035Z"/><path d="M93.78512,127.60237a12.21069,12.21069,0,0,0,10.88685.47089,9.02933,9.02933,0,0,0,2.88244,2.96356,10.54334,10.54334,0,0,0,8.23486,1.36774,1.30314,1.30314,0,0,0-.69226-2.511,7.88915,7.88915,0,0,1-5.62231-.74585,5.76718,5.76718,0,0,1-3.2417-4.40881,5.6752,5.6752,0,0,1,.60535-3.03217,8.67021,8.67021,0,0,1,.65039-1.08813c.04138-.05908.08459-.1167.12658-.17554l.001-.00116c.06665-.07843.13049-.15869.19946-.2351a5.86853,5.86853,0,0,1,2.65772-1.66217,6.30365,6.30365,0,0,1,2.37842-.3321,7.55345,7.55345,0,0,1,3.64892,1.04834,6.84764,6.84764,0,0,1,1.65137,1.22455c1.20923,1.16077,3.0531-.678,1.84131-1.84131a10.945,10.945,0,0,0-5.4978-2.81286,31.85135,31.85135,0,0,0-1.416-23.51319c-2.71875-5.56634-8.10547-10.58331-14.7229-9.7724-6.89844.84528-11.40112,7.22968-13.41834,13.37439a31.82588,31.82588,0,0,0,1.53711,23.56031A18.61211,18.61211,0,0,0,93.78512,127.60237ZM86.84091,98.75228c1.30823-5.38483,4.53418-11.60572,10.24976-13.30292,5.48388-1.62824,10.28173,2.16064,12.927,6.67139a7.00365,7.00365,0,0,0-1.76038-.23249c-4.38965,0-8.11365,4.126-9.50012,9.87592q5.21557,1.83582,10.431,3.67175-5.29449,2.75309-10.589,5.50623c.88648,4.35248,3.09729,7.858,5.94751,9.518a9.0505,9.0505,0,0,0-.92529,3.4292,7.08473,7.08473,0,0,0,.13635,1.76691c-5.906,2.69482-11.45813-1.16962-14.39307-6.29065C85.86752,113.26339,85.1965,105.5215,86.84091,98.75228Z"/><path d="M152.243,125.35256c2.89551,0,2.90027-4.5,0-4.5C149.3475,120.85256,149.34262,125.35256,152.243,125.35256Z"/><path d="M159.687,121.53511c2.89551,0,2.90027-4.5,0-4.5C156.79135,117.03511,156.78671,121.53511,159.687,121.53511Z"/><path d="M158.35092,129.55172c2.89551,0,2.90027-4.5,0-4.5C155.45541,125.05172,155.45053,129.55172,158.35092,129.55172Z"/><path d="M105.79574,75.974a21.87592,21.87592,0,0,0-13.11621-1.95349c-2.21154.38433-9.52807,1.65588-12.4884,7.7442a12.71249,12.71249,0,0,0-1.15112,6.593A26.361,26.361,0,0,1,105.79574,75.974Z"/><path d="M155.35043,88.01674a12.71242,12.71242,0,0,0-3.67468-5.59375c-5.13464-4.412-12.35449-2.67346-14.53674-2.14795a21.87628,21.87628,0,0,0-11.262,7.00159,26.36094,26.36094,0,0,1,29.47339.74011Z"/></g></svg>