<svg xmlns="http://www.w3.org/2000/svg" viewBox="0 0 330.64297 330.07353"><g id="Personaje"><path d="M213.55446,60.9622c-1.35632.64835-10.36047,4.77052-19.95032.43932a23.38492,23.38492,0,0,1-10.58911-9.794,62.91869,62.91869,0,0,0-41.05786,22.85286c-12.60046,15.6842-13.5404,32.90268-13.813,39.651a74.37841,74.37841,0,0,0,6.74036,33.80643q1.25208,2.88518,2.50427,5.77036a26.265,26.265,0,0,1,13.3822-.94835c13.00415,2.569,18.96375,14.60393,19.725,16.20582a22.39731,22.39731,0,0,1,10.9906-2.13235c14.35974,1.02215,21.56116,16.68466,21.88232,17.41174a26.8664,26.8664,0,0,1,28.92749-25.3298,21.61964,21.61964,0,0,1,16.8805-21.496c-.93213-1.14367-6.5326-8.25238-4.99121-17.99855a22.92905,22.92905,0,0,1,7.14416-13.14655,29.97967,29.97967,0,0,1-8.9021-15.20552,29.65922,29.65922,0,0,1,.2135-14.05966A29.6211,29.6211,0,0,1,213.55446,60.9622Z" fill="#f5c92b"/><path d="M311.22267,104.5447a46.65254,46.65254,0,0,0-5.89392-19.76432c-2.39941-4.265-14.86194-24.82248-35.36316-24.15108a38.30436,38.30436,0,0,0-9.24841,1.535,37.4686,37.4686,0,0,0,2.67835-5.96785c6.58813-19.42554-9.4712-37.31472-12.85669-40.84785A46.6659,46.6659,0,0,0,233.33351,3.97566,48.201,48.201,0,0,0,211.069,1.69592c-6.69837.85876-16.88843,2.165-24.577,10.44371a32.02056,32.02056,0,0,0-8.02368,18.44348q-.41143-1.90419-.82336-3.80846A35.8087,35.8087,0,0,0,166.36379,13.004c-9.73047-7.03742-20.254-6.72134-25.88086-6.57843A48.19924,48.19924,0,0,0,118.82534,12.07a46.66185,46.66185,0,0,0-15.2721,13.86085c-3.07678,4.391-15.94751,24.39631-6.48486,42.32957a36.87276,36.87276,0,0,0,5.58069,7.49642,27.74992,27.74992,0,0,0-9.589,1.15409c-15.59119,4.80182-22.96595,22.97661-24.896,34.84273a46.66007,46.66007,0,0,0,1.26514,20.58551,48.19652,48.19652,0,0,0,11.57251,19.157c4.358,4.46771,11.53515,11.884,23.12707,13.34979,2.62634.33209,13.6499,1.72608,22.74756-5.74989a27.37238,27.37238,0,0,0,8.00818-11.17824,76.21456,76.21456,0,0,1,.947-64.74969A31.1442,31.1442,0,0,1,125.7,85.05993a29.19456,29.19456,0,0,0,11.4469-3.75337A63.95232,63.95232,0,0,1,183.015,51.60748l-.00061-.00212c4.97095,7.65291,13.73108,12.914,22.74219,11.93229a20.18793,20.18793,0,0,0,7.79785-2.57545c5.8949,11.0435,17.26306,17.21886,28.122,15.678.72253-.10263,1.417-.24591,2.09766-.40829-4.16,9.82632-1.46412,22.08881,7.17517,30.71367h.00036a20.19121,20.19121,0,0,0-4.72656,6.71576c-3.31213,7.77423-1.3667,16.91105,3.67737,23.76663-7.09937,1.93263-13.37122,6.6154-16.14624,13.38548a20.19155,20.19155,0,0,0-1.45777,8.08173c-12.51806-.08965-23.36975,6.95358-27.19775,17.2315a22.52957,22.52957,0,0,0-1.32617,9.93894c-.0127-.04663-.02332-.09351-.03626-.14029-3.059-11.1225-13.8778-20.27863-25.37536-19.342a20.19018,20.19018,0,0,0-7.86487,2.36227c-5.5918-11.1999-16.78784-17.68258-27.68457-16.438-15.27515,1.745-21.47608,17.70478-22.26746,19.84507-7.11487,19.23871,8.4513,37.55853,11.73963,41.18264a46.65834,46.65834,0,0,0,16.8894,11.837,48.19531,48.19531,0,0,0,22.19409,2.88516c6.71912-.6759,16.94092-1.70443,24.85193-9.77069,6.32569-6.44986,9.83826-16.57657,8.57-27.18063a37.12245,37.12245,0,0,0,7.911,13.663c13.92676,15.05982,37.31152,9.484,42.032,8.19467a46.66413,46.66413,0,0,0,18.20508-9.69268,48.20224,48.20224,0,0,0,12.62817-18.47782c2.44178-6.29623,6.1565-15.87454,2.55042-26.58166a29.77456,29.77456,0,0,0-5.08386-9.12445,28.88467,28.88467,0,0,0,6.79272-2.28252c10.15271-4.95689,14.35828-14.33,17.12293-20.49135A48.19334,48.19334,0,0,0,311.22267,104.5447Z" fill="#2db092"/><path d="M284.69543,178.0132a3.97918,3.97918,0,0,0-2.50641,1.26426c-1.70154,2.09042.07269,5.85705.31732,6.36071a15.82022,15.82022,0,0,1-6.04468,3.58582c-2.561.79831-4.1867.52258-7.43762.84283a38.576,38.576,0,0,0-8.56238,1.863,26.503,26.503,0,0,1-11.05878-1.88235c-2.22753-.91788-9.19885-4.18415-10.82354-3.2941a4.71343,4.71343,0,0,0-1.35388,1.15277,4.61018,4.61018,0,0,0-.5149.91775,14.11335,14.11335,0,0,0,1.93262,11.1789c3.90936,5.67166,11.02026,6.015,11.93616,6.04468a12.89928,12.89928,0,0,0,5.844,10.67694c-.00464.23391-.01935,5.77948,4.5636,8.53506a9.78983,9.78983,0,0,0,7.59241.90564,12.11412,12.11412,0,0,0,21.72424-9.60031,14.43725,14.43725,0,0,0,7.21631-6.585c3.187-6.21393.28668-12.34439-.05945-13.04523.25861.12653,5.10437,2.43652,7.10608.44016.16461-.16419.94861-.99439.80927-3.0882C304.82885,186.06756,291.28832,176.90465,284.69543,178.0132Z" fill="#f7f5f6"/><path d="M30.65334,160.10759c.28516.82166,2.48462,6.89289,7.33777,7.82227,2.56336.49088,4.76773-.88843,9.17648-3.647,6.58722-4.12174,9.49848-8.22852,10.92469-10.70061,1.6629-2.88231,1.71673-4.25261,1.52557-5.24722-.65216-3.39273-4.65149-4.99285-5.30884-5.2453a45.98451,45.98451,0,0,0,.50562-4.92453,59.04348,59.04348,0,0,0-.26746-7.86263,31.80872,31.80872,0,0,1,1.94074-12.20039c.91815-2.40268,3.31891-7.62532,3.89782-11.802a3.29406,3.29406,0,0,0-.18835-1.77888c-.87561-2.05346-4.03619-2.655-5.76776-2.69107-5.1944-.10836-8.86554,4.63468-9.58655,5.56623a16.5233,16.5233,0,0,0-3.32257,9.12163c-6.11911-7.16456-13.21549-11.086-18.17087-9.49541a7.74736,7.74736,0,0,0-4.601,3.34293,7.8555,7.8555,0,0,0-.39047,6.26028,7.67034,7.67034,0,0,0-6.04322,1.45049,7.68006,7.68006,0,0,0-2.2062,8.32407c-5.14222.2508-7.03177,2.50584-7.52942,3.17646-4.08966,5.51108,3.01217,15.61054,3.66421,16.5168.84751,1.178,3.02988,3.12285,7.39463,7.01262,6.74221,6.00852,9.29989,7.46311,12.34054,7.66739A11.77626,11.77626,0,0,0,30.65334,160.10759Z" fill="#f7f5f6"/><path d="M227.25146,213.3669c-10.12531,13.98474-21.16394,28.37982-33.189,43.02753-18.61273,22.67215-37.16455,42.99676-55.07135,61.12369A109.89613,109.89613,0,0,1,116.02,299.92635a112.683,112.683,0,0,1-13.20337-16.046c-3.20611-4.71341-4.8092-7.07016-5.69867-9.47046-3.13629-8.46307-2.71887-22.95624,7.84735-31.62094,9.14209-7.49692,21.2865-6.86246,29.08692-3.35617,7.7398,3.479,12.16632,10.21863,14.82318,14.26376a47.86063,47.86063,0,0,1,5.3139,10.90763c6.21283-6.44266,12.59381-13.44376,19.037-21.02729,5.75562-6.7742,11.05719-13.42028,15.934-19.86532a32.06387,32.06387,0,0,0,10.457-9.748,33.12382,33.12382,0,0,0,5.32581-21.02991,34.02776,34.02776,0,0,0,22.30829,20.43323Z" fill="#f7f5f6"/><path d="M169.40288,228.16515a14.87843,14.87843,0,0,0-.4851,10.19434,14.36411,14.36411,0,0,0,3.6242,5.789c8.03882,4.75894,16.569,9.54733,25.58979,14.291q13.688,7.198,26.57324,13.121-2.07084,4.52736-4.14172,9.05471c-1.32166-.54211-9.48761-3.73993-17.37537.46274a19.21813,19.21813,0,0,0-7.34046,7.07886c-4.2741,6.96356-2.83227,14.10287-2.4049,16.21924.54992,2.723,1.62011,9.15371,6.34,10.97793a15.073,15.073,0,0,0,5.23011.70063q18.17614.28257,36.35235.565c1.01941.01584,4.15595.5682,5.75183-1.198a3.8132,3.8132,0,0,0,.87427-1.8447c1.15582-5.55111,20.43921-39.28527,19.19067-44.41a6.17926,6.17926,0,0,0-.43554-1.18317,6.84809,6.84809,0,0,0-3.39051-2.97964c-2.36425-1.086-34.13464-17.294-77.89685-39.58527a31.23346,31.23346,0,0,1-16.056,2.74631Z" fill="#f7f5f6"/><path d="M171.85427,140.11242c-1.53833,6.72632.50842,9.85864,1.269,10.84006,5.76233,7.4353,24.2229,3.05417,29.14294-5.12241.73707-1.22494,2.88855-4.80041,1.54065-7.94876a5.87229,5.87229,0,0,0-2.08239-2.48453c-3.88453-2.60016-9.30408.98682-18.05335,3.12723A56.9696,56.9696,0,0,1,171.85427,140.11242Z" fill="#f7f5f6"/><path d="M187.99929,102.99539a32.54071,32.54071,0,0,0-.17371,3.369c0,12.2099,6.73877,22.108,15.05151,22.108s15.05152-9.89808,15.05152-22.108a32.54071,32.54071,0,0,0-.17371-3.369Z" fill="#f7f5f6"/><path d="M179.6664,102.99539H149.83022c-.07666.78167-.13135,1.56353-.14136,2.34021-.10388,7.9989,3.35071,19.96282,12.17151,22.62713a14.58,14.58,0,0,0,8.569-.258,8.13151,8.13151,0,0,1,1.14185-7.428,7.98048,7.98048,0,0,1,6.23584-2.87506,31.33071,31.33071,0,0,0,1.884-14.17316C179.68373,103.15756,179.67446,103.07137,179.6664,102.99539Z" fill="#f7f5f6"/><path d="M321.54208,264.70218c-14.94116-1.77295-16.75958-3.97656-17.96008-25.45624a.2343.2343,0,0,0-.4629,0c-1.20043,21.47968-3.01892,23.68329-17.96008,25.45624a.20631.20631,0,0,0,0,.41247c14.94116,1.773,16.75965,3.97657,17.96008,25.4563a.23431.23431,0,0,0,.4629,0c1.2005-21.47973,3.01892-23.68329,17.96008-25.4563A.20631.20631,0,0,0,321.54208,264.70218Z"/><path d="M33.28305,52.53207c14.94116,1.773,16.75964,3.97657,17.96008,25.45624a.2343.2343,0,0,0,.46289,0c1.2005-21.47967,3.01892-23.68323,17.96008-25.45624a.20631.20631,0,0,0,0-.41247C54.72494,50.34665,52.90652,48.143,51.706,26.66336a.2343.2343,0,0,0-.46289,0C50.04269,48.143,48.22421,50.34665,33.28305,52.1196A.20631.20631,0,0,0,33.28305,52.53207Z"/><path d="M330.54006,228.714c-7.22534-.85742-8.10467-1.923-8.68524-12.3103a.11328.11328,0,0,0-.22381,0c-.58057,10.38726-1.4599,11.45288-8.68524,12.3103a.09976.09976,0,0,0,0,.19946c7.22534.85736,8.10467,1.923,8.68524,12.31024a.11328.11328,0,0,0,.22381,0c.58057-10.38727,1.4599-11.45288,8.68524-12.31024A.09976.09976,0,0,0,330.54006,228.714Z"/><path d="M76.44833,239.28244a.11332.11332,0,0,0,.22388,0c.5805-10.38727,1.45983-11.45288,8.68518-12.31024a.09977.09977,0,0,0,0-.19947c-7.22535-.85742-8.10468-1.923-8.68518-12.3103a.11332.11332,0,0,0-.22388,0c-.58051,10.38727-1.4599,11.45288-8.68524,12.3103a.09977.09977,0,0,0,0,.19947C74.98843,227.82956,75.86782,228.89517,76.44833,239.28244Z"/><path d="M256.44631,298.44009q.8823-1.90786,1.76453-3.81573,2.55331-5.52155,5.10663-11.043c1.70978-3.69739,3.58606-7.3609,5.13367-11.12866a6.03771,6.03771,0,0,0-1.88092-7.08631,31.20352,31.20352,0,0,0-4.82117-2.59051q-2.87138-1.47079-5.74262-2.94153-10.82253-5.54379-21.64514-11.08746l-23.08722-11.82605q6.21131-8.03166,12.252-16.19306,2.12484-2.876,4.22418-5.77087a42.1663,42.1663,0,0,0,5.38061,1.02386,57.02621,57.02621,0,0,0,19.34357-1.16681,14.65284,14.65284,0,0,0,2.817,2.63037,12.7246,12.7246,0,0,0,.23321,1.55054,12.45043,12.45043,0,0,0,4.12152,6.89826,10.75671,10.75671,0,0,0,8.41535,2.11956l.01153-.00293q.25865.33885.54157.66285c5.60559,6.38647,15.971,5.22,20.73816-1.529a13.4768,13.4768,0,0,0,2.17053-9.97131c5.52393-2.85675,9.6554-7.90509,8.91949-14.60968a17.25585,17.25585,0,0,0-.54449-2.72186c2.5788.78967,5.35236.11651,6.53125-2.98432,1.05188-2.7666.17963-5.311-1.29364-7.59668a50.65544,50.65544,0,0,0-4.02167-50.26294,50.03437,50.03437,0,0,0,4.774-7.90985c3.95477-8.01239,6.64758-16.726,6.22723-25.75036-.69519-14.92761-9.22009-29.46765-21.05487-38.428a35.53987,35.53987,0,0,0-13.24988-6.40528,34.17638,34.17638,0,0,0-14.976.10212A32.58632,32.58632,0,0,0,266.104,46.45273c-.06439-9.5354-4.316-18.639-9.92871-26.16291A50.9566,50.9566,0,0,0,237.1484,4.30838,47.357,47.357,0,0,0,213.78982.201c-10.27173.72815-21.02386,3.264-28.27539,11.0899a32.2371,32.2371,0,0,0-7.668,14.91809,33.21635,33.21635,0,0,0-9.614-13.05731,36.10317,36.10317,0,0,0-17.01215-7.32031,55.872,55.872,0,0,0-24.67914,1.67755,46.31515,46.31515,0,0,0-24.3219,17.29456,59.73469,59.73469,0,0,0-8.7528,18.97412c-2.1037,7.6073-2.03492,15.62945,1.3349,22.87a32.09807,32.09807,0,0,0,5.31347,7.945,30.67716,30.67716,0,0,0-18.07,7.741c-4.38892,3.97406-7.4054,9.08233-10.0246,14.32708-5.09808,10.20856-7.01587,21.51374-4.416,32.669A54.9823,54.9823,0,0,0,81.4927,154.25107c5.42938,5.70819,12.269,10.07953,19.88709,11.62909A32.82436,32.82436,0,0,1,80.0046,167.54a43.89754,43.89754,0,0,1-17.31152-9.48438,47.32853,47.32853,0,0,1-3.49817-3.37115,9.86046,9.86046,0,0,0,1.92-5.1037c.15448-3.49805-2.66143-5.689-5.6275-6.874.11426-.31366.21979-.63129.30493-.95722.74-2.832.43958-6.10181.29639-8.98492a27.04052,27.04052,0,0,1,.07593-5.77063,59.66662,59.66662,0,0,1,1.73785-7.24817c1.00079-3.387,2.17481-6.71771,3.2945-10.06622.58154-1.7392,1.51739-3.8902.68573-5.697-1.07172-2.32824-3.83588-3.03961-6.17444-3.20221a13.05835,13.05835,0,0,0-7.88086,1.96076,15.25126,15.25126,0,0,0-6.99884,11.19525,37.363,37.363,0,0,0-8.14807-6.2757c-3.45124-2.02935-7.5235-2.905-11.29419-1.20935a8.16591,8.16591,0,0,0-4.54554,8.72657,7.483,7.483,0,0,0-4.79382,1.32226,7.69493,7.69493,0,0,0-3.0531,8.80927,7.84908,7.84908,0,0,0-1.07538.07867A9.5567,9.5567,0,0,0,.91,130.3284c-1.464,3.00867-.67346,6.618.54169,9.579,1.49481,3.64233,4.1062,6.70154,6.80267,9.51654a76.9316,76.9316,0,0,0,10.06494,9.34735c3.0343,2.19568,6.49841,3.77087,10.31049,3.37433.51013-.053,1.01849-.12762,1.52594-.20685,1.217,3.27167,3.44177,6.44843,7.09985,7.1203a9.91867,9.91867,0,0,0,4.91266-.44354,62.65557,62.65557,0,0,0,20.42084,17.01117,59.73323,59.73323,0,0,0,55.02349-.10034c.69684,8.26263,4.33179,16.20129,9.01557,22.94622a50.62315,50.62315,0,0,0,18.78479,16.70221,47.41854,47.41854,0,0,0,22.18194,4.68757,16.53015,16.53015,0,0,0,3.61414,14.09783.9444.9444,0,0,0,.1441.13416q-7.98669,9.3252-16.54809,18.13953a55.07475,55.07475,0,0,0-5.56873-10.50055,43.23737,43.23737,0,0,0-7.8872-9.20728,30.14694,30.14694,0,0,0-24.55152-6.3468,26.90377,26.90377,0,0,0-20.272,16.47913,31.36546,31.36546,0,0,0-.34107,22.30316c1.38153,3.57123,3.80225,6.73242,5.95081,9.86487,2.16333,3.154,4.49267,6.196,6.9538,9.12329,1.07891,1.28326,2.19409,2.53393,3.32525,3.76953-25.9107,3.30627-42.54736,8.4209-42.54736,14.16412,0,9.97,50.10187,18.05237,111.9057,18.05237s111.90576-8.08234,111.90576-18.05237C293.67843,306.54288,279.29568,301.74521,256.44631,298.44009ZM250.27481,259.82q5.08,2.6022,10.16,5.20434c2.36542,1.21167,6.64661,2.44263,5.78766,5.93994a29.81774,29.81774,0,0,1-2.23535,4.9925q-1.25061,2.70445-2.50122,5.40881-2.397,5.18354-4.79395,10.36694-5.37433,11.622-10.74872,23.24408H199.67056c-5.67865-7.03924-7.81342-17.351-2.90906-25.39093a20.206,20.206,0,0,1,7.91779-7.47949,18.75261,18.75261,0,0,1,13.74859-1.0791,25.65193,25.65193,0,0,1,13.54279,9.9552c.96185,1.35559,3.221.05633,2.24841-1.31427a29.45506,29.45506,0,0,0-11.653-9.84363q1.64043-3.63034,3.28088-7.26074a1.32656,1.32656,0,0,0-.4671-1.78137q-14.63-7.3907-29.26026-14.78125,6.86885-8.41233,13.5315-16.98993Q229.963,249.41559,250.27481,259.82Zm-33.8227-53.19922a33.91545,33.91545,0,0,1-9.3584-12.69873c-3.218-7.47626-2.87493-15.81562,1.8302-22.59241,4.95752-7.14044,13.50525-10.90772,22.02778-11.22778a23.40334,23.40334,0,0,0,10.8059,18.11163c1.43384.8761,2.74359-1.37512,1.31427-2.24841a20.87752,20.87752,0,0,1-9.5888-18.35285c.2406-7.28424,4.77289-13.40893,11.05542-16.81531,13.75476-7.45788,31.47888-.574,39.41345,12.20569a30.8817,30.8817,0,0,1,3.3927,23.6521,7.54,7.54,0,0,0-4.05792.62451,5.72822,5.72822,0,0,0-2.41773,8.2959,18.55193,18.55193,0,0,1-3.01867,1.77552,21.07949,21.07949,0,0,1-7.2602,1.55627,29.77707,29.77707,0,0,0-7.86407,1.33392c-.1106.03986-.21881.08881-.329.13056a33.10153,33.10153,0,0,1-12.918-1.4964c-2.1897-.71674-4.23-1.79315-6.40192-2.55072-1.64807-.57483-4.087-1.2699-5.75818-.42627-1.765.89111-2.25347,3.676-2.46777,5.44263A13.03889,13.03889,0,0,0,235.143,196.11a14.97523,14.97523,0,0,0,3.65454,6.4787,16.44446,16.44446,0,0,0,10.0379,4.83063,1.11822,1.11822,0,0,0,.7284-.1333,12.07617,12.07617,0,0,0,1.382,5.20117C239.36581,214.9122,225.89559,214.39749,216.45211,206.62076Zm-31.93457-40.55982a21.7578,21.7578,0,0,0-13.22613,1.44879c-4.81732-9.04052-13.80323-15.88232-24.23267-16.50732a23.33687,23.33687,0,0,0-8.70764,1.13672,1.38083,1.38083,0,0,0-.13208-.37811c-.71826-1.34882-1.37872-2.72193-2.00848-4.10682a1.03394,1.03394,0,0,0-.15888-.34735,77.2527,77.2527,0,0,1-6.03393-40.86749,62.44112,62.44112,0,0,1,8.56817-25.12982,58.44707,58.44707,0,0,1,22.72638-21.06738,64.94948,64.94948,0,0,1,20.65881-6.66083,1.13343,1.13343,0,0,0,.61915-.28064,26.75837,26.75837,0,0,0,16.90509,11.28314A21.76692,21.76692,0,0,0,212.92465,62.638c5.17993,8.81421,14.4057,15.312,24.84192,15.51794a23.61174,23.61174,0,0,0,3.36169-.17334c-2.275,10.18055,1.44861,20.69281,8.39124,28.286a22.14143,22.14143,0,0,0-6.57215,18.83246,28.485,28.485,0,0,0,4.24408,11.69861c-.72211.2569-1.44061.53363-2.15057.85162C237.8547,140.87,232.183,147.31,231.08956,155.2471a22.509,22.509,0,0,0-.18127,2.24792c-8.2038.29181-16.3476,3.51551-21.94281,9.64557a25.12767,25.12767,0,0,0-6.338,13.31391C198.94247,173.38473,192.38345,167.71341,184.51754,166.06094ZM249.67788,205.245a1.34194,1.34194,0,0,0-.84241-.42968,13.18809,13.18809,0,0,1-11.05224-8.93689,10.18833,10.18833,0,0,1-.42932-3.02515,10.44137,10.44137,0,0,1,.33526-2.61413c.23749-.90949.39576-1.98627,1.42932-2.06775,1.88123-.14832,3.94623.89129,5.62177,1.62091a42.21339,42.21339,0,0,0,5.33289,1.98614,34.84535,34.84535,0,0,0,7.38616,1.24127A18.11805,18.11805,0,0,0,249.67788,205.245Zm53.19281-7.85607c-1.66852.89349-3.61951-.45795-4.721-1.65229a1.22189,1.22189,0,0,0-.23938-.22351,1.146,1.146,0,0,0-1.52972.11078,1.21784,1.21784,0,0,0-.33215,1.63312c2.81427,4.90411,2.45666,11.07037-1.854,14.983a18.4023,18.4023,0,0,1-4.61236,3.01386,1.47191,1.47191,0,0,0-.242.12066,21.18078,21.18078,0,0,1-9.99652,1.80841c-1.67279-.1131-1.66577,2.49134,0,2.604a23.496,23.496,0,0,0,9.71021-1.52,10.93782,10.93782,0,0,1-9.23334,11.968c-6.75964.98719-13.26984-4.96673-11.31867-11.96777a12.73141,12.73141,0,0,1,5.97883-7.5246,1.303,1.303,0,0,0-1.31427-2.24847,15.57379,15.57379,0,0,0-6.84876,8.08081,11.77156,11.77156,0,0,0,.30859,8.99408c-4.52649.2384-8.10833-3.54883-8.73333-8.03473-.67981-4.87884,2.38012-9.49377,5.613-12.85565,1.16187-1.20819-.67694-3.052-1.84124-1.84125-3.00446,3.12427-5.60938,7.04755-6.272,11.317a10.1685,10.1685,0,0,1-3.20312-8.1239,15.46491,15.46491,0,0,1,5.21728-9.72974,18.47042,18.47042,0,0,1,5.60327-3.36994c.02082-.002.04181-.00262.06263-.00463a1.335,1.335,0,0,0,.72979-.29523c.0871-.02948.17121-.06976.25861-.0979,2.68487-.865,5.37042-.87818,8.15131-1.17841a20.9483,20.9483,0,0,0,11.43078-4.65118,1.03177,1.03177,0,0,0,.35486-1.25519,1.23824,1.23824,0,0,0-.35486-.58612,3.15757,3.15757,0,0,1,1.05731-5.37585c1.78077-.703,3.958.07318,5.64753.72595a22.84256,22.84256,0,0,1,4.50457,2.41937,32.54389,32.54389,0,0,1,6.09961,5.43085c1.50177,1.69647,3.40564,3.81109,3.36371,6.19592C304.29672,195.34573,303.94381,196.8143,302.87069,197.389ZM262.43637,63.35159a30.00542,30.00542,0,0,1,25.12481,4.25824,50.86976,50.86976,0,0,1,14.21161,14.811,46.61574,46.61574,0,0,1,7.62848,21.28271,46.37276,46.37276,0,0,1-4.44983,23.31037,51.40876,51.40876,0,0,1-7.05945,11.88452,28.22958,28.22958,0,0,1-14.34082,9.1159,36.73728,36.73728,0,0,0-14.423-10.46,30.97682,30.97682,0,0,0-19.34589-1.546c-3.91449-5.94061-5.6994-13.42-3.37836-20.31482A20.27793,20.27793,0,0,1,259.922,103.17587a19.71244,19.71244,0,0,1,10.62311-.24866,1.30309,1.30309,0,0,0,.69226-2.51092,23.34634,23.34634,0,0,0-19.731,4.16827c-6.675-7.24762-10.22979-17.40057-7.58325-27.1325a27.79982,27.79982,0,0,0,15.97138-11.713c.55871-.82086,1.08264-1.6654,1.5769-2.52661A1.2402,1.2402,0,0,0,262.43637,63.35159ZM184.8536,16.28891a27.7757,27.7757,0,0,1,12.06977-9.863,47.464,47.464,0,0,1,12.54528-3.14557c8.0091-1.08477,16.2815-.69854,23.88837,2.2179a45.86373,45.86373,0,0,1,18.274,13.23285c5.06311,5.9494,9.2113,12.9956,11.00671,20.64709a30.52716,30.52716,0,0,1-2.4444,20.69934c-3.22821,6.43207-8.36084,12.28144-15.41436,14.48633-9.33564,2.91834-19.32813-.93274-25.7569-7.9461a30.6762,30.6762,0,0,1-3.83093-5.25592,23.62744,23.62744,0,0,0,9.0794-10.68116,21.88051,21.88051,0,0,0,1.70673-7.4516c.08594-1.6748-2.51825-1.67016-2.604,0-.49012,9.54615-8.624,18.27411-18.23621,19.05933-9.94556.81244-19.12811-6.17291-23.056-14.98871A33.19374,33.19374,0,0,1,184.8536,16.28891ZM95.17538,47.88107a56.98773,56.98773,0,0,1,7.339-18.83612,43.47079,43.47079,0,0,1,20.07593-17.34,52.59859,52.59859,0,0,1,23.77319-3.81311,37.464,37.464,0,0,1,16.16974,4.506,30.48412,30.48412,0,0,1,12.99914,14.91485,37.70468,37.70468,0,0,1,1.32734,3.81385,1.34213,1.34213,0,0,0,.2033.41015,37.74729,37.74729,0,0,0,1.02735,12.0445,29.51882,29.51882,0,0,0,3.078,7.50811A65.36218,65.36218,0,0,0,149.0787,65.35141a1.31984,1.31984,0,0,0-.32282-.23523,20.97372,20.97372,0,0,1-11.50067-19.41132c.09107-1.67456-2.51318-1.66943-2.604,0-.47711,8.773,4.70477,17.29645,12.36993,21.42487a59.75518,59.75518,0,0,0-8.39685,9.4198,57.66329,57.66329,0,0,0-3.45062,5.45331,28.54232,28.54232,0,0,1-21.9671-1.10535A33.12946,33.12946,0,0,1,98.812,68.56863,28.56678,28.56678,0,0,1,95.17538,47.88107ZM71.76083,134.1597a44.0343,44.0343,0,0,1,.00806-30.42255A56.31432,56.31432,0,0,1,80.14205,88.1998,28.49032,28.49032,0,0,1,97.23483,77.57242a30.62017,30.62017,0,0,1,5.36059-.49811c7.41742,6.72241,17.76783,10.45148,27.56269,8.94647a28.04784,28.04784,0,0,0,3.32159-.7276,71.63121,71.63121,0,0,0-6.65613,31.3797,23.42713,23.42713,0,0,0-20.43066,3.88361c-1.32276,1.0252.5321,2.856,1.84131,1.84124,5.24707-4.06665,12.40045-4.89306,18.651-2.99169.06549,1.66394.16669,3.3247.33038,4.975a76.91934,76.91934,0,0,0,6.30927,23.629c-3.54169,9.82642-13.15766,14.83472-23.13172,15.73785-9.334.84522-17.96423-2.80053-24.7749-9.08587A53.64553,53.64553,0,0,1,71.76083,134.1597Zm-49.6164-25.19159c2.74006-1.46356,5.95862-.84009,8.5741.57434a38.39856,38.39856,0,0,1,7.05023,5.06763c2.15741,1.91809,4.22174,4.37744,4.08484,7.43438-.18085,4.039-3.86041,5.34272-7.2868,4.54291a20.807,20.807,0,0,0-3.25128-3.56323,36.21369,36.21369,0,0,0-11.162-7.11267c-.1825-.06745-.36347-.1192-.54517-.17853C18.92813,113.14645,19.65707,110.29672,22.14443,108.96811ZM11.82992,125.39462a5.08261,5.08261,0,0,1,1.53131-6.64606,5.49935,5.49935,0,0,1,5.3172-.60449,28.42438,28.42438,0,0,1,8.86011,5.12757c2.5733,2.06024,4.83472,4.19543,6.20123,7.26587,1.7536,3.94006-1.92309,7.298-5.77551,7.03192-.02625-.00183-.0484.00274-.07385.00225a30.74559,30.74559,0,0,0-2.16883-2.46258,51.395,51.395,0,0,0-4.4881-4.369,25.37416,25.37416,0,0,0-6.19567-3.8291,26.99767,26.99767,0,0,0-3.07984-1.154A1.39025,1.39025,0,0,0,11.82992,125.39462Zm20.90155,36.01605a21.25068,21.25068,0,0,0,9.46607-4.9909c1.22094-1.15289-.62281-2.99188-1.84131-1.84125-2.88648,2.72565-6.4571,3.97357-10.30024,4.73224a11.07087,11.07087,0,0,1-7.92865-1.21,35.323,35.323,0,0,1-7.57067-6.05921,68.53041,68.53041,0,0,1-8.562-9.29492,17.0296,17.0296,0,0,1-3.2232-7.89917,5.86339,5.86339,0,0,1,3.64386-6.28534c2.93329-1.38666,5.97418-.13269,8.70422,1.2403,3.45111,1.73559,6.13788,4.3703,8.76081,7.148,1.27081,1.34582,2.99469,2.95025,3.19476,4.90436a3.68634,3.68634,0,0,1-1.56568,3.48083c-1.82611,1.00031-4.80584-.12-6.58679-.78863a25.73664,25.73664,0,0,1-6.04114-3.38172c-1.35614-.98791-2.65692,1.27039-1.31427,2.24848a28.731,28.731,0,0,0,5.49646,3.15661.91664.91664,0,0,0,.08143.14545,24.79811,24.79811,0,0,1,2.14563,3.35162c.30651.57752.58709,1.16742.849,1.76642l.01856.04327q.04733.11445.09357.22937.09429.23475.18371.47138c.11926.31555.231.63367.33789.95361a1.3023,1.3023,0,1,0,2.51093-.6922,26.4207,26.4207,0,0,0-2.23664-4.91424,10.9818,10.9818,0,0,0,3.96216.25427c3.54969-.51141,5.41309-4.56134,4.40137-7.808-.02374-.07624-.05749-.14808-.0838-.22321,3.47308-.34113,6.83777-2.82318,7.43182-6.39178a7.99622,7.99622,0,0,0-.60522-4.3349c3.37671.11853,6.64068-1.37446,7.86548-4.89972a9.00694,9.00694,0,0,0-.6615-7.08332,1.28061,1.28061,0,0,0,.03686-.43866,12.77926,12.77926,0,0,1,4.72638-11.30212,10.70868,10.70868,0,0,1,6.84387-2.345,9.14516,9.14516,0,0,1,2.88349.44348c.82434.28973,1.65594.96619,1.75683,1.52014a5.542,5.542,0,0,1-.236,1.49494c-.3703,1.37182-.86389,2.71344-1.32147,4.05761-.95142,2.79474-1.8985,5.59333-2.72784,8.42731-1.11268,3.80182-2.1637,7.75348-1.93952,11.74554a47.56752,47.56752,0,0,1,.07617,9.168c-.40484,2.86322-2.38269,5.15808-4.54773,6.92542-1.29876,1.06024.5531,2.89288,1.84131,1.84131A16.8138,16.8138,0,0,0,54.326,145.037c2.02637.73712,4.22614,2.04742,4.18744,4.39544-.049,2.9784-2.89233,5.67658-4.85809,7.6081a75.27827,75.27827,0,0,1-6.2981,5.63739c-2.25085,1.76043-4.99084,3.63781-7.92059,3.90057C36.0408,166.883,33.86111,164.30984,32.73147,161.41067Zm116.14258,62.513a46.68417,46.68417,0,0,1-17.74542-13.72918c-4.973-6.23615-8.94709-13.61786-10.45942-21.496a30.01207,30.01207,0,0,1,.93287-15.29c.18444-.54407.38556-1.08191.59924-1.61512.02173-.05426.10559-.25512.1261-.305.014-.03076.16223-.37048.21429-.48633q.68354-1.523,1.4997-2.982c3.4945-6.26953,8.86-11.81928,15.96875-13.72675,9.45312-2.5365,19.26428,1.78681,25.39642,9.04218a30.411,30.411,0,0,1,3.5744,5.35962,23.38208,23.38208,0,0,0-9.60571,10.51617,22.29712,22.29712,0,0,0-1.91052,7.22431c-.15406,1.668,2.45086,1.65747,2.604,0,.87531-9.47492,9.32538-17.75214,18.8681-18.23749,9.785-.49762,18.61316,6.61236,22.31891,15.32574a28.52716,28.52716,0,0,1,1.3147,3.84564,25.7117,25.7117,0,0,0,.68176,3.42652c.00611.02228.01447.04413.02057.0664a33.60894,33.60894,0,0,1-5.41516,23.5608,27.56518,27.56518,0,0,1-12.05133,9.59332,45.37306,45.37306,0,0,1-13.15649,2.91931C164.60989,227.7001,156.38424,227.08957,148.87405,223.92367Zm23.9353,17.89454c-.01745-.02594-.18219-.2453-.22479-.30457q-.39835-.55325-.75134-1.13739a14.457,14.457,0,0,1-1.41584-3.07385,13.03422,13.03422,0,0,1-.10907-7.5473,54.147,54.147,0,0,0,14.91657-2.82386q-5.90616,7.7352-12.19049,15.16779Q172.92041,241.96,172.80935,241.81821Zm-70.69647,38.34094a27.81857,27.81857,0,0,1-4.26819-8.58612,30.20388,30.20388,0,0,1-.741-10.31342,25.10476,25.10476,0,0,1,12.89093-20.03985,27.50594,27.50594,0,0,1,23.93494-.41535c7.54346,3.54206,12.955,10.95429,16.63123,18.22632a46.649,46.649,0,0,1,2.4923,5.94135,1.3168,1.3168,0,0,0,2.17615.57452,400.68085,400.68085,0,0,0,34.91962-40.83106,28.71369,28.71369,0,0,0,6.98535-5.321A33.81217,33.81217,0,0,0,206.06191,197.77a38.20594,38.20594,0,0,0,5.625,7.93127,31.85825,31.85825,0,0,0,13.42511,8.47309q-18.88,25.92407-39.53576,50.48657-11.1027,13.19229-22.69666,25.96039-5.4645,6.018-11.03546,11.93823-2.79693,2.97235-5.62024,5.91986c-1.70862,1.78363-3.35248,3.79126-5.22918,5.39746-1.898,1.62433-4.235,1.31085-6.16913-.01819-2.27259-1.56164-4.48529-3.21643-6.6391-4.93774a123.09,123.09,0,0,1-10.14588-9.06494A128.32983,128.32983,0,0,1,102.11288,280.15915Zm61.123,13.92358q8.19753-8.98425,16.16021-18.179,7.63174-8.82367,15.02948-17.84607,14.30218,7.22489,28.60437,14.44983-1.43673,3.17953-2.87347,6.35913c-.23669-.08008-.4646-.17871-.70441-.25189a21.36976,21.36976,0,0,0-17.16546,1.84234,22.13708,22.13708,0,0,0-10.03333,13.45667q-5.17932-.07782-10.48065-.08277Q172.29522,293.831,163.23593,294.08273Z"/><path d="M219.0151,106.13132c-.0061-.984-.0564-1.99555-.15149-3.01966a1.4895,1.4895,0,0,0-.04016-.36706c-.7486-7.24365-3.81189-15.05219-10.42084-18.51306a12.0554,12.0554,0,0,0-10.0827-.60236,17.20412,17.20412,0,0,0-8.23529,7.654c-4.56177,7.9596-4.89307,18.51923-1.35895,26.91687,2.82721,6.7179,9.31177,13.06543,17.18085,10.83783C215.31613,126.37424,218.96127,114.82468,219.0151,106.13132ZM190.905,95.56851c2.23328-5.73437,7.64612-11.81311,14.44159-9.79535,3.468,1.02979,6.07941,3.90436,7.80371,6.97a25.61148,25.61148,0,0,1,2.938,9.0351H189.2767A28.8357,28.8357,0,0,1,190.905,95.56851Zm16.43134,30.08057c-6.113,3.38165-12.17395-.86621-15.16852-6.27735-.37353-.67492-.70325-1.37451-1.01068-2.0849a6.66563,6.66563,0,0,0,3.17578,1.26648,6.1491,6.1491,0,0,0,2.90607-.33984c2.73443-1.05615,4.03613-4.08728,4.66046-6.36438q-3.85254-2.00326-7.705-4.00659,4.13984-1.45725,8.27967-2.91443c-.02112-.17438-.06256-.36646-.08905-.54584h13.97064q.05018.87451.05542,1.74909C216.36733,113.2023,213.9949,121.96561,207.33633,125.64908Z"/><path d="M172.50912,131.32968a10.53688,10.53688,0,0,0,8.22992,1.36688,1.30309,1.30309,0,0,0-.6922-2.51092,7.88371,7.88371,0,0,1-5.61786-.7453,6.30308,6.30308,0,0,1-2.91492-3.07654,1.44071,1.44071,0,0,0-.0653-.19464,4.691,4.691,0,0,1-.25879-1.13385,5.66907,5.66907,0,0,1,.60479-3.02973,8.666,8.666,0,0,1,.64991-1.08734c.04156-.05926.08465-.117.12671-.17578l.00061-.00067c.06659-.07837.13049-.15863.19946-.235A5.86239,5.86239,0,0,1,175.427,118.846a6.29524,6.29524,0,0,1,2.3764-.33185,7.54713,7.54713,0,0,1,3.64606,1.04755,6.839,6.839,0,0,1,1.6502,1.22351c1.20911,1.16076,3.053-.678,1.84131-1.84125a10.93882,10.93882,0,0,0-5.49365-2.811A31.81815,31.81815,0,0,0,178.032,92.63595c-2.7898-5.7033-8.303-10.70355-15.05994-9.71978-6.84259.99627-11.2533,7.53961-13.17554,13.66791a31.699,31.699,0,0,0,1.88086,23.65448,17.99357,17.99357,0,0,0,7.56977,7.91986,12.172,12.172,0,0,0,10.387.218A9.02438,9.02438,0,0,0,172.50912,131.32968Zm-10.5874-45.51562c5.519-1.71467,10.39874,2.07263,13.06152,6.63775a25.68253,25.68253,0,0,1,3.15979,9.32642H151.29116c.107-.72748.23383-1.44946.39191-2.15961C152.91177,94.10013,156.09689,87.62375,161.92172,85.81406Zm-7.33515,34.28375a23.2732,23.2732,0,0,1-1.37463-2.67542,6.63343,6.63343,0,0,0,2.99091,1.13092,6.14906,6.14906,0,0,0,2.90606-.33984c2.7301-1.0545,4.03174-4.07733,4.65729-6.35321q-3.86325-2.00884-7.72644-4.01776,4.15164-1.46138,8.30322-2.92273c-.02087-.17182-.06177-.3609-.08783-.53754h14.14673a30.53929,30.53929,0,0,1-1.65625,11.591,8.85483,8.85483,0,0,0-5.422,2.29821,8.96331,8.96331,0,0,0-2.7453,5.9148,7.08061,7.08061,0,0,0,.13367,1.75043C163.09439,128.471,157.61611,125.122,154.58657,120.09781Z"/><path d="M196.64706,133.78348a51.64607,51.64607,0,0,0-6.60022,1.6969c-3.55145.97424-7.12653,2.05822-10.74725,2.7417a39.77617,39.77617,0,0,1-5.31488.61364c-2.28681.11878-4.401.17548-6.33265-1.22857-1.3573-.98651-2.6582,1.27166-1.31427,2.24847a8.56479,8.56479,0,0,0,3.73883,1.48462,13.01334,13.01334,0,0,0,.47339,8.444,9.76082,9.76082,0,0,0,7.13373,5.84222c5.97229,1.43756,12.85687.01868,18.23718-2.77887a17.99857,17.99857,0,0,0,7.15039-6.36566c1.39563-2.27881,2.42377-5.26959,1.89283-7.94751C204.21438,134.7532,200.0657,133.32382,196.64706,133.78348Zm-6.99786,4.49676q2.02908,6.39579,4.058,12.79151a26.33755,26.33755,0,0,1-9.53528,2.40655q-1.02987-6.61917-2.05975-13.23822c.18-.04315.35992-.08142.5401-.12652C184.99118,139.52817,187.32217,138.91153,189.6492,138.28024Zm-15.67475,12.345c-1.98382-2.52514-2.17981-6.14361-1.22131-9.11425,1.155-.02008,2.31634-.1258,3.44311-.2403,1.14307-.11615,2.26606-.28216,3.38172-.488q.99078,6.368,1.9815,12.73584C178.83731,153.42721,175.71853,152.84518,173.97445,150.62527Zm27.96839-7.83441a12.94846,12.94846,0,0,1-4.54352,6.072c-.439.33161-.90088.6341-1.3675.92951q-1.9346-6.09832-3.86926-12.19684c.10431-.02912.20917-.05621.31342-.08539,2.04083-.57135,4.20489-1.45813,6.3443-1.20453a4.04162,4.04162,0,0,1,3.52246,2.46173A6.72462,6.72462,0,0,1,201.94284,142.79086Z"/><path d="M214.75,130.92673c-2.8955,0-2.90033,4.5,0,4.5C217.64553,135.42673,217.65029,130.92673,214.75,130.92673Z"/><path d="M221.371,130.32248c2.89557,0,2.90033-4.5,0-4.5C218.47549,125.82248,218.47067,130.32248,221.371,130.32248Z"/><path d="M221.51522,133.9429c-2.89557,0-2.90039,4.5,0,4.5C224.41073,138.4429,224.41555,133.9429,221.51522,133.9429Z"/><path d="M148.69833,127.74222c-2.89551,0-2.90033,4.5,0,4.5C151.5939,132.24222,151.59866,127.74222,148.69833,127.74222Z"/><path d="M154.55953,133.70358c-2.8955,0-2.90033,4.5,0,4.5C157.4551,138.20358,157.45986,133.70358,154.55953,133.70358Z"/><path d="M146.515,134.82022c-2.89551,0-2.90033,4.5,0,4.5C149.41055,139.32022,149.41531,134.82022,146.515,134.82022Z"/><path d="M202.86227,76.40915A26.86257,26.86257,0,0,1,218.162,83.30209a12.7123,12.7123,0,0,0-2.92645-6.019c-4.52606-5.03448-11.9093-4.23675-14.141-3.9956A21.87637,21.87637,0,0,0,189.02725,78.786,26.6087,26.6087,0,0,1,202.86227,76.40915Z"/><path d="M178.41464,78.786a21.87641,21.87641,0,0,0-12.06726-5.49853c-2.23169-.24115-9.615-1.03888-14.141,3.9956a12.71263,12.71263,0,0,0-2.92652,6.019A26.361,26.361,0,0,1,178.41464,78.786Z"/></g></svg>