<svg xmlns="http://www.w3.org/2000/svg" viewBox="0 0 245.88817 230.00476"><g id="Personaje"><path d="M147.23574,61.03983c-1.35632.64834-10.36047,4.77052-19.95031.43931a23.38484,23.38484,0,0,1-10.58912-9.794A62.91872,62.91872,0,0,0,75.63845,74.538C63.038,90.22217,62.09805,107.44064,61.82546,114.189a74.37858,74.37858,0,0,0,6.74036,33.80643q1.25208,2.88518,2.50427,5.77035a26.26529,26.26529,0,0,1,13.38221-.94835c13.00415,2.569,18.96374,14.60393,19.725,16.20583a22.39719,22.39719,0,0,1,10.9906-2.13235c14.35974,1.02215,21.56116,16.68466,21.88233,17.41174a26.86638,26.86638,0,0,1,28.92749-25.3298,21.61964,21.61964,0,0,1,16.88049-21.496c-.93213-1.14366-6.53259-8.25238-4.99121-17.99855a22.929,22.929,0,0,1,7.14416-13.14654,29.97972,29.97972,0,0,1-8.9021-15.20552,29.65924,29.65924,0,0,1,.21351-14.05967,29.62112,29.62112,0,0,1-29.0868-16.02671Z" fill="#f5c92b"/><ellipse cx="136.4705" cy="106.7501" rx="15.05146" ry="22.10802" fill="#f7f5f6"/><path d="M111.40043,117.78741a31.33044,31.33044,0,0,0,1.884-14.17312c-.32129-3.10411-1.14527-11.06468-7.17737-15.87522a12.56992,12.56992,0,0,0-7.70642-3.121,11.34616,11.34616,0,0,0-5.35376,1.33848c-5.829,2.95548-9.65931,11.64745-9.76465,19.76471-.10388,7.99894,3.35071,19.96283,12.17151,22.62719a14.58017,14.58017,0,0,0,8.569-.258,8.13153,8.13153,0,0,1,1.14184-7.428A7.98061,7.98061,0,0,1,111.40043,117.78741Z" fill="#f7f5f6"/><path d="M244.904,104.62233A46.65288,46.65288,0,0,0,239.01,84.858c-2.39942-4.265-14.86194-24.82248-35.36316-24.15107a38.30412,38.30412,0,0,0-9.24842,1.535,37.46778,37.46778,0,0,0,2.67835-5.96785c6.58813-19.42553-9.47119-37.31472-12.85669-40.84784A46.6661,46.6661,0,0,0,167.0148,4.05328a48.20106,48.20106,0,0,0-22.26453-2.27973c-6.69836.85875-16.88843,2.165-24.577,10.44371a32.02053,32.02053,0,0,0-8.02368,18.44348q-.41143-1.90421-.82336-3.80846A35.8086,35.8086,0,0,0,100.04507,13.0816C90.3146,6.04418,79.791,6.36025,74.16421,6.50317a48.19909,48.19909,0,0,0-21.65759,5.64444,46.66173,46.66173,0,0,0-15.2721,13.86085C34.15774,30.39944,21.287,50.40477,30.74966,68.338a36.873,36.873,0,0,0,5.58069,7.49641,27.75,27.75,0,0,0-9.589,1.1541c-15.59119,4.80182-22.96594,22.97661-24.896,34.84273A46.66009,46.66009,0,0,0,3.1105,132.41678a48.19659,48.19659,0,0,0,11.57251,19.157c4.358,4.46771,11.53515,11.884,23.12707,13.34979,2.62635.33209,13.64991,1.72607,22.74756-5.74989a27.37228,27.37228,0,0,0,8.00818-11.17824,76.21458,76.21458,0,0,1,.947-64.7497,31.1439,31.1439,0,0,1-10.13159,1.89182,29.1945,29.1945,0,0,0,11.4469-3.75337,63.95232,63.95232,0,0,1,45.86816-29.69908l-.00061-.00213c4.971,7.65291,13.73108,12.914,22.74219,11.9323a20.18787,20.18787,0,0,0,7.79785-2.57545c5.8949,11.0435,17.26306,17.21885,28.122,15.678.72254-.10263,1.417-.24591,2.09766-.40829-4.16,9.82632-1.46411,22.0888,7.17517,30.71367h.00036a20.19131,20.19131,0,0,0-4.72656,6.71575c-3.31213,7.77424-1.3667,16.91106,3.67737,23.76664-7.09936,1.93263-13.37122,6.6154-16.14624,13.38548a20.19154,20.19154,0,0,0-1.45776,8.08173c-12.51807-.08965-23.36975,6.95358-27.19776,17.2315a22.52955,22.52955,0,0,0-1.32617,9.93894c-.01269-.04663-.02331-.09351-.03625-.14029-3.059-11.1225-13.87781-20.27863-25.37537-19.342a20.19006,20.19006,0,0,0-7.86487,2.36227c-5.5918-11.1999-16.78784-17.68259-27.68457-16.438-15.27515,1.745-21.47607,17.70477-22.26745,19.84506C47.11038,191.669,62.67654,209.98885,65.96487,213.613a46.65847,46.65847,0,0,0,16.8894,11.837,48.19563,48.19563,0,0,0,22.1941,2.88516c6.71911-.6759,16.94091-1.70444,24.85192-9.77069,6.32569-6.44986,9.83826-16.57657,8.56995-27.18063a37.1226,37.1226,0,0,0,7.911,13.663c13.92676,15.05981,37.31152,9.484,42.032,8.19467a46.664,46.664,0,0,0,18.20508-9.69269A48.20216,48.20216,0,0,0,219.24649,185.071c2.44177-6.29623,6.15649-15.87454,2.55041-26.58166a29.77452,29.77452,0,0,0-5.08386-9.12446,28.88465,28.88465,0,0,0,6.79272-2.28251c10.15271-4.9569,14.35828-14.33,17.12293-20.49135A48.19359,48.19359,0,0,0,244.904,104.62233Z" fill="#f05b31"/><path d="M134.06689,150.129a16.25667,16.25667,0,0,0-8.66062-1.48566,7.0047,7.0047,0,0,0-3.47205,1.15372,8.93449,8.93449,0,0,0-2.49194,3.6838,3.38082,3.38082,0,0,0-.42031,1.54165,3.42472,3.42472,0,0,0,1.66832,2.26776,5.44824,5.44824,0,0,0,4.26741,1.488,10.161,10.161,0,0,0,3.26615-.32829,9.47415,9.47415,0,0,0,1.38543-.62009,8.337,8.337,0,0,0,2.42353-1.66969,8.82789,8.82789,0,0,0,1.08582-1.62712l1.36382-2.41347" fill="#f7f5f6"/><path d="M245.76321,105.32769C245.068,90.4,236.54312,75.86,224.70828,66.89965a35.53844,35.53844,0,0,0-13.24976-6.40527,34.17693,34.17693,0,0,0-14.97607.10211,32.58531,32.58531,0,0,0,3.26928-14.15265c-.06433-9.5354-4.31591-18.639-9.92871-26.1629A50.955,50.955,0,0,0,170.79617,4.29949,47.35689,47.35689,0,0,0,147.43765.19213c-10.27185.72815-21.02393,3.264-28.27552,11.0899a32.239,32.239,0,0,0-7.668,14.918,33.215,33.215,0,0,0-9.6139-13.05725A36.10318,36.10318,0,0,0,84.86819,5.8225,55.87235,55.87235,0,0,0,60.189,7.50005a46.31538,46.31538,0,0,0-24.3219,17.29456,59.733,59.733,0,0,0-8.75281,18.97412c-2.10376,7.6073-2.03491,15.62945,1.335,22.87a32.09506,32.09506,0,0,0,5.31348,7.94495,30.677,30.677,0,0,0-18.07007,7.741C11.30374,86.2987,8.28726,91.407,5.668,96.65172c-5.098,10.20856-7.01587,21.51374-4.41589,32.669a54.9832,54.9832,0,0,0,13.88831,24.92139c7.13989,7.50665,16.71508,12.71515,27.298,12.21216a36.0791,36.0791,0,0,0,16.08728-4.44007c-.08594.11133-.17688.21784-.26147.33032a34.17,34.17,0,0,0-7.11145,19.16883c-.34729,9.68561,3.68664,19.12152,9.12316,26.95032A50.62416,50.62416,0,0,0,79.06069,225.166a47.6922,47.6922,0,0,0,23.24878,4.67114c10.34217-.45618,21.04651-2.67877,28.47254-10.45148a33.822,33.822,0,0,0,8.92944-21.68109c.40576.76886.83008,1.5296,1.29346,2.2702a33.36969,33.36969,0,0,0,18.26526,14.40839c7.88562,2.51056,16.47229,2.37585,24.545.90027a49.63649,49.63649,0,0,0,21.79675-9.661,47.45769,47.45769,0,0,0,13.86121-18.49555,57.04216,57.04216,0,0,0,4.68188-15.95135,30.5132,30.5132,0,0,0-3.14135-17.49811,31.528,31.528,0,0,0-2.07617-3.44379,30.30012,30.30012,0,0,0,12.92932-7.83667,43.72019,43.72019,0,0,0,7.66906-11.31884C243.49075,123.06566,246.18362,114.352,245.76321,105.32769ZM118.50137,16.28a27.77612,27.77612,0,0,1,12.0697-9.863,47.465,47.465,0,0,1,12.54541-3.1455c8.009-1.08478,16.28149-.69855,23.88831,2.21789a45.86411,45.86411,0,0,1,18.274,13.23285c5.06311,5.9494,9.21131,12.99561,11.00672,20.647a30.52645,30.52645,0,0,1-2.44446,20.69941C190.61294,66.50072,185.48025,72.35,178.42678,74.555c-9.33569,2.91828-19.32812-.9328-25.75683-7.9461a30.67746,30.67746,0,0,1-3.83106-5.25592,23.62727,23.62727,0,0,0,9.07947-10.68122,21.87861,21.87861,0,0,0,1.70667-7.45153c.08605-1.67481-2.51819-1.67017-2.604,0-.49,9.54614-8.6239,18.274-18.23608,19.05926-9.94556.81244-19.12818-6.17291-23.05615-14.98865A33.19373,33.19373,0,0,1,118.50137,16.28Zm58.09375,108.81207a28.48218,28.48218,0,0,0,4.22815,11.67481,25.92735,25.92735,0,0,0-12.01026,8.64087,21.27824,21.27824,0,0,0-4.22412,12.08441c-10.00708.35376-19.92236,5.14624-25.16968,13.91382a23.53517,23.53517,0,0,0-3.15173,9.02411c-3.6864-7.06263-10.24194-12.72681-18.10217-14.37806a21.75747,21.75747,0,0,0-13.22608,1.4488c-4.81738-9.04053-13.80322-15.88233-24.23266-16.50739a23.33864,23.33864,0,0,0-8.70777,1.13678,1.37818,1.37818,0,0,0-.13208-.37817c-.71826-1.34882-1.37866-2.72193-2.00842-4.10682a1.03486,1.03486,0,0,0-.15881-.34722,77.24945,77.24945,0,0,1-6.03394-40.86756,62.44,62.44,0,0,1,8.56812-25.12982A58.44732,58.44732,0,0,1,94.96,60.23327a64.94954,64.94954,0,0,1,20.65893-6.66083,1.13353,1.13353,0,0,0,.61914-.28064,26.75812,26.75812,0,0,0,16.905,11.28308,21.76639,21.76639,0,0,0,13.42932-1.9458c5.17993,8.81421,14.40564,15.31189,24.84192,15.51794a23.61142,23.61142,0,0,0,3.3617-.17334c-2.275,10.18055,1.4486,20.69281,8.39123,28.286A22.14122,22.14122,0,0,0,176.59512,125.09209ZM68.67727,151.1928c.30847.61823.60559,1.24182.93042,1.85224a25.9293,25.9293,0,0,0-2.8479,1.49591c.22559-.32874.4563-.65247.6665-.99622A23.44507,23.44507,0,0,0,68.67727,151.1928ZM28.82315,47.87212a56.98848,56.98848,0,0,1,7.339-18.83606,43.47089,43.47089,0,0,1,20.07593-17.34,52.59867,52.59867,0,0,1,23.7732-3.81317,37.46484,37.46484,0,0,1,16.16967,4.506A30.48377,30.48377,0,0,1,109.1802,27.30382a37.7287,37.7287,0,0,1,1.32727,3.81385,1.34318,1.34318,0,0,0,.20325.41015,37.75057,37.75057,0,0,0,1.02734,12.0445,29.5218,29.5218,0,0,0,3.07813,7.50812A65.362,65.362,0,0,0,82.72647,65.34252a1.31926,1.31926,0,0,0-.32288-.23523A20.97383,20.97383,0,0,1,70.903,45.69591c.09106-1.6745-2.51318-1.66943-2.60388,0-.4773,8.773,4.70459,17.29645,12.36987,21.42493a59.75636,59.75636,0,0,0-8.397,9.4198A57.664,57.664,0,0,0,68.82144,81.994,28.54278,28.54278,0,0,1,46.85427,80.8886,33.13091,33.13091,0,0,1,32.45974,68.55974,28.56749,28.56749,0,0,1,28.82315,47.87212ZM19.266,154.65319A53.64464,53.64464,0,0,1,5.40859,134.15075a44.03351,44.03351,0,0,1,.00818-30.42249,56.31083,56.31083,0,0,1,8.37305-15.53735A28.49009,28.49009,0,0,1,30.88259,77.56353a30.61443,30.61443,0,0,1,5.3606-.49811c7.41748,6.72235,17.76782,10.45142,27.56274,8.94647a28.05917,28.05917,0,0,0,3.32154-.72766,71.63174,71.63174,0,0,0-6.65613,31.3797,23.42714,23.42714,0,0,0-20.43067,3.88367c-1.32275,1.02521.53211,2.85589,1.84131,1.84125,5.24707-4.06672,12.40052-4.89307,18.651-2.9917.06543,1.66394.16675,3.3247.33033,4.975a76.92235,76.92235,0,0,0,6.30932,23.629c-3.54175,9.82648-13.15771,14.83478-23.13171,15.73792C34.70681,164.58428,26.07669,160.93847,19.266,154.65319Zm112.23938,59.761a27.56472,27.56472,0,0,1-12.05127,9.59338,45.374,45.374,0,0,1-13.1565,2.91931c-8.04.76434-16.26562.15375-23.77588-3.01208A46.6841,46.6841,0,0,1,64.77639,210.1856c-4.973-6.23615-8.947-13.61792-10.45947-21.496a30.01407,30.01407,0,0,1,.93286-15.29c.18457-.54413.38562-1.082.59937-1.61512.02172-.05426.10547-.25512.126-.305.01392-.03064.16236-.37042.21436-.48633q.68353-1.523,1.49975-2.982c3.49439-6.26959,8.85987-11.81928,15.96875-13.72675,9.45313-2.5365,19.26429,1.78681,25.39637,9.04212a30.40729,30.40729,0,0,1,3.57434,5.35968A23.3832,23.3832,0,0,0,93.023,179.20232a22.2983,22.2983,0,0,0-1.9104,7.22431c-.15405,1.6679,2.45081,1.65741,2.604,0,.87524-9.47492,9.32544-17.75214,18.868-18.23749,9.785-.49768,18.61316,6.61236,22.319,15.32568a28.92386,28.92386,0,0,1,1.62695,5.192c.06714.35956.13379.71887.2146,1.07672A33.60693,33.60693,0,0,1,131.5054,214.41418Zm90.2135-48.58362c.30749,5.5086-1.04663,10.85223-2.93714,15.98224-2.82837,7.6745-6.93811,14.8847-13.10058,20.37353a44.93147,44.93147,0,0,1-19.22339,9.88019c-13.92542,3.37347-30.62634,2.28729-40.3833-9.47687a33.557,33.557,0,0,1-6.80982-13.019c-.126-.76672-.27075-1.52954-.44372-2.285-.00891-.03894-.02185-.07709-.03089-.116a21.47408,21.47408,0,0,1,.07007-7.01361c1.79444-9.84461,10.09839-16.97333,19.55664-19.25531a30.67469,30.67469,0,0,1,6.22925-.80914,24.06033,24.06033,0,0,0,5.19043,13.24377,21.52365,21.52365,0,0,0,5.56885,4.86914c1.43384.876,2.74365-1.37512,1.31421-2.24847a20.774,20.774,0,0,1-8.30908-24.60486c3.44067-8.7522,13.12072-13.66345,22.17138-13.71967,9.84632-.06109,19.896,5.46949,25.67884,13.33667A27.73426,27.73426,0,0,1,221.7189,165.83056Zm16.88025-38.8255a51.40444,51.40444,0,0,1-7.05933,11.88452,28.231,28.231,0,0,1-14.31494,9.10864,36.673,36.673,0,0,0-21.562-12.52966,29.10887,29.10887,0,0,0-12.24317.51568c-3.90747-5.93817-5.687-13.41082-3.368-20.29968a20.278,20.278,0,0,1,13.51807-12.51764,19.71312,19.71312,0,0,1,10.62317-.24859,1.30307,1.30307,0,0,0,.69214-2.51093,23.34622,23.34622,0,0,0-19.731,4.16827c-6.675-7.24768-10.22974-17.40057-7.58325-27.1325a27.79974,27.79974,0,0,0,15.97143-11.71295c.55872-.82087,1.08252-1.66541,1.57691-2.52662a1.24014,1.24014,0,0,0,.965.1391A30.00506,30.00506,0,0,1,221.209,67.60094a50.86934,50.86934,0,0,1,14.21155,14.811,46.61617,46.61617,0,0,1,7.62854,21.28277A46.37232,46.37232,0,0,1,238.59915,127.00506Z"/><path d="M152.82852,106.75011c-.04993-8.06317-2.96277-17.93829-10.641-21.9591a12.08629,12.08629,0,0,0-10.10865-.60376,17.25035,17.25035,0,0,0-8.25659,7.67419c-4.57422,7.98132-4.90625,18.56989-1.36255,26.99048,2.83447,6.73529,9.33582,13.1,17.22547,10.86658C149.12,127.04772,152.77444,115.46648,152.82852,106.75011ZM141.122,126.32677c-6.13232,3.39234-12.21277-.86816-15.21692-6.29657-3.93432-7.10937-4.19091-16.36572-1.26684-23.87408,2.24048-5.75269,7.67041-11.8501,14.48743-9.82593,3.47888,1.033,6.09851,3.91632,7.82824,6.99158a27.70454,27.70454,0,0,1,3.27075,13.42834C150.18069,113.84252,147.80081,122.63213,141.122,126.32677Z"/><path d="M113.75369,130.87664a7.90807,7.90807,0,0,1-5.63672-.74774,6.326,6.326,0,0,1-2.92456-3.086,1.43192,1.43192,0,0,0-.06592-.19672,4.71066,4.71066,0,0,1-.25964-1.13812,5.68845,5.68845,0,0,1,.60705-3.04028,8.68878,8.68878,0,0,1,.65174-1.09046c.04174-.05957.0852-.1178.12756-.17688l.00073-.00079c.06665-.07861.13086-.15906.2-.23566a5.88253,5.88253,0,0,1,2.6648-1.66644,6.32655,6.32655,0,0,1,2.38415-.333,7.57231,7.57231,0,0,1,3.65833,1.051,6.8791,6.8791,0,0,1,1.65576,1.2276c1.209,1.16076,3.053-.678,1.84119-1.84125a10.96638,10.96638,0,0,0-5.5116-2.81891A31.90522,31.90522,0,0,0,111.72879,93.218c-2.79688-5.7179-8.32422-10.732-15.09864-9.74579-6.86084.99884-11.28332,7.55975-13.21069,13.70435a31.78579,31.78579,0,0,0,1.886,23.71911,18.0414,18.0414,0,0,0,7.59,7.94123,12.20309,12.20309,0,0,0,10.41614.217,9.04575,9.04575,0,0,0,2.88379,2.96325,10.56317,10.56317,0,0,0,8.25049,1.37036A1.30308,1.30308,0,0,0,113.75369,130.87664ZM88.21658,120.75829c-3.63208-6.02337-4.425-13.74591-2.91223-20.54046,1.23254-5.53565,4.42761-12.03138,10.27038-13.84662,5.53858-1.72071,10.4292,2.08008,13.103,6.65844,4.07788,6.98243,4.41382,16.03345,1.76709,23.59394a8.8773,8.8773,0,0,0-5.43774,2.30389,8.9858,8.9858,0,0,0-2.752,5.92914,7.092,7.092,0,0,0,.1344,1.75745C96.7532,129.15868,91.25613,125.79931,88.21658,120.75829Z"/><path d="M127.13235,135.09106c-1.7832-1.01551-4.80493-2.41095-6.72607-.97382l-.01465.01343a1.43571,1.43571,0,0,0-.2489.19012,3.10678,3.10678,0,0,0-.84754,2.1662,20.2101,20.2101,0,0,1-.48852,3.71191c-.55835,2.09589-1.70716,3.97864-2.2721,6.08674a13.12184,13.12184,0,0,0-.00012,7.8128,9.46437,9.46437,0,0,0,5.1897,5.39142,9.96094,9.96094,0,0,0,12.22216-3.52179c2.4983-3.82434,1.72706-9.90253-.11669-13.84912A16.16924,16.16924,0,0,0,127.13235,135.09106Zm-4.0846,22.14807a6.99118,6.99118,0,0,1-2.57116-1.72315l.04614-.12286c.00977-.02625.01379-.03839.01917-.05383.01086-.02155.02294-.04554.04211-.08521.20508-.42395.4165-.84064.66089-1.24377a9.26959,9.26959,0,0,1,2.61889-2.88984,8.13982,8.13982,0,0,1,8.97364-.05517,10.21738,10.21738,0,0,1-.42176,2.11035C131.17544,156.939,126.60122,158.655,123.04775,157.23913Z"/><path d="M147.678,133.30529c-2.8955,0-2.90039,4.5,0,4.5C150.57351,137.80529,150.57827,133.30529,147.678,133.30529Z"/><path d="M154.906,129.05718c-2.89551,0-2.90039,4.5,0,4.5C157.80154,133.55718,157.80642,129.05718,154.906,129.05718Z"/><path d="M154.03079,137.1549c-2.89551,0-2.90027,4.5,0,4.5C156.92642,141.6549,156.93118,137.1549,154.03079,137.1549Z"/><path d="M83.83743,140.186c-2.89551,0-2.90027,4.5,0,4.5C86.73306,144.686,86.73782,140.186,83.83743,140.186Z"/><path d="M85.70022,132.01153c-2.89551,0-2.90039,4.5,0,4.5C88.59573,136.51153,88.60049,132.01153,85.70022,132.01153Z"/><path d="M90.99539,138.20019c-2.89551,0-2.90027,4.5,0,4.5C93.89089,142.70019,93.89578,138.20019,90.99539,138.20019Z"/><path d="M93.298,106.42931q5.3767-1.89258,10.75342-3.78521C102.8981,96.592,99.26834,92.16869,94.9617,92.16869c-5.23414,0-9.4773,6.52832-9.4773,14.58142,0,8.053,4.24316,14.58136,9.4773,14.58136,4.054,0,7.50366-3.92352,8.85766-9.43109Q98.55856,109.16488,93.298,106.42931Z"/><path d="M133.02786,92.16869c-5.23413,0-9.4773,6.52832-9.4773,14.58142,0,8.053,4.24317,14.58136,9.4773,14.58136,4.05884,0,7.51172-3.93292,8.8623-9.4508q-5.24157-2.72571-10.4834-5.45136l10.71314-3.77105C140.96951,96.599,137.33779,92.16869,133.02786,92.16869Z"/><path d="M149.55227,76.901a21.87645,21.87645,0,0,0-13.16785-1.56824,26.36115,26.36115,0,0,1,22.55213,18.9903,12.71209,12.71209,0,0,0,.625-6.66351C158.3085,81.00664,151.58474,77.85393,149.55227,76.901Z"/><path d="M85.33108,80.48669a26.60872,26.60872,0,0,1,13.05725-5.15394A21.87645,21.87645,0,0,0,85.22048,76.901c-2.03247.95294-8.75622,4.10565-10.00927,10.75855a12.71209,12.71209,0,0,0,.625,6.66351A26.86279,26.86279,0,0,1,85.33108,80.48669Z"/></g></svg>