<svg xmlns="http://www.w3.org/2000/svg" viewBox="0 0 245.88817 230.00476"><g id="Personaje"><path d="M146.92056,60.80394c-1.35632.64834-10.36047,4.77052-19.95031.43931a23.3847,23.3847,0,0,1-10.58911-9.794A62.9188,62.9188,0,0,0,75.32327,74.30207c-12.60046,15.68421-13.5404,32.90268-13.813,39.65105a74.37846,74.37846,0,0,0,6.74035,33.80643q1.25208,2.88516,2.50428,5.77035a26.26523,26.26523,0,0,1,13.3822-.94835c13.00415,2.569,18.96374,14.60393,19.725,16.20583a22.39719,22.39719,0,0,1,10.9906-2.13235c14.35974,1.02215,21.56116,16.68466,21.88233,17.41174a26.8664,26.8664,0,0,1,28.92749-25.3298,21.61964,21.61964,0,0,1,16.88049-21.496c-.93213-1.14366-6.53259-8.25238-4.99121-17.99855a22.929,22.929,0,0,1,7.14417-13.14654,29.97958,29.97958,0,0,1-8.9021-15.20552,29.65927,29.65927,0,0,1,.2135-14.05967,29.62112,29.62112,0,0,1-29.0868-16.02671Z" fill="#f5c92b"/><path d="M244.58878,104.38644a46.65288,46.65288,0,0,0-5.89392-19.76433c-2.39942-4.265-14.86194-24.82248-35.36316-24.15107a38.30412,38.30412,0,0,0-9.24842,1.535,37.46778,37.46778,0,0,0,2.67835-5.96785c6.58813-19.42553-9.47119-37.31472-12.85669-40.84784A46.6661,46.6661,0,0,0,166.69962,3.81739a48.20115,48.20115,0,0,0-22.26453-2.27974c-6.69836.85876-16.88843,2.16505-24.577,10.44372a32.02053,32.02053,0,0,0-8.02368,18.44348q-.41143-1.9042-.82336-3.80846A35.8086,35.8086,0,0,0,99.72989,12.84571C89.99942,5.80828,79.47586,6.12436,73.849,6.26728a48.19919,48.19919,0,0,0-21.65759,5.64444,46.66173,46.66173,0,0,0-15.2721,13.86085c-3.07678,4.391-15.94751,24.39631-6.48486,42.32957a36.873,36.873,0,0,0,5.58069,7.49641,27.75,27.75,0,0,0-9.589,1.1541C10.835,81.55447,3.46024,99.72926,1.53018,111.59538a46.66009,46.66009,0,0,0,1.26514,20.58551,48.19672,48.19672,0,0,0,11.57251,19.157c4.358,4.46771,11.53516,11.884,23.12708,13.34979,2.62634.33209,13.6499,1.72607,22.74755-5.74989a27.37219,27.37219,0,0,0,8.00818-11.17824,76.21458,76.21458,0,0,1,.947-64.7497,31.14384,31.14384,0,0,1-10.13159,1.89182A29.1945,29.1945,0,0,0,70.513,81.1483a63.95236,63.95236,0,0,1,45.86817-29.69909l-.00061-.00212c4.97094,7.65291,13.73107,12.914,22.74218,11.9323a20.188,20.188,0,0,0,7.79785-2.57545c5.8949,11.0435,17.26307,17.21885,28.122,15.67805.72254-.10263,1.417-.24591,2.09766-.40829-4.16,9.82632-1.46411,22.0888,7.17517,30.71367h.00037a20.1912,20.1912,0,0,0-4.72657,6.71575c-3.31213,7.77424-1.3667,16.91106,3.67737,23.76664-7.09936,1.93263-13.37121,6.6154-16.14624,13.38548a20.19154,20.19154,0,0,0-1.45776,8.08173c-12.51807-.08965-23.36975,6.95358-27.19776,17.2315a22.52955,22.52955,0,0,0-1.32617,9.93894c-.01269-.04663-.02331-.09351-.03625-.14029-3.059-11.1225-13.87781-20.27863-25.37537-19.342a20.19012,20.19012,0,0,0-7.86487,2.36227c-5.59179-11.19991-16.78784-17.68259-27.68457-16.438-15.27514,1.745-21.47607,17.70477-22.26745,19.84506-7.11487,19.23871,8.45129,37.55854,11.73962,41.18265a46.65856,46.65856,0,0,0,16.8894,11.837,48.19563,48.19563,0,0,0,22.1941,2.88516c6.71911-.6759,16.94091-1.70444,24.85193-9.77069,6.32568-6.44986,9.83825-16.57657,8.56994-27.18064a37.12258,37.12258,0,0,0,7.911,13.663c13.92676,15.05981,37.31153,9.484,42.032,8.19467a46.66388,46.66388,0,0,0,18.20508-9.69269,48.202,48.202,0,0,0,12.62818-18.47781c2.44177-6.29623,6.15649-15.87454,2.55041-26.58167a29.77459,29.77459,0,0,0-5.08386-9.12445,28.88465,28.88465,0,0,0,6.79272-2.28251c10.15271-4.9569,14.35828-14.33,17.12293-20.49135A48.19344,48.19344,0,0,0,244.58878,104.38644Z" fill="#2db092"/><path d="M105.13248,140.26224c-1.53833,6.72632.50842,9.85864,1.269,10.84006,5.76233,7.4353,24.2229,3.05417,29.14295-5.12241.73706-1.22494,2.88855-4.80041,1.54065-7.94876a5.87229,5.87229,0,0,0-2.0824-2.48453c-3.88452-2.60016-9.30408.98682-18.05335,3.12723A56.9695,56.9695,0,0,1,105.13248,140.26224Z" fill="#f7f5f6"/><path d="M121.2775,103.1452a32.5409,32.5409,0,0,0-.17371,3.369c0,12.2099,6.73877,22.108,15.05152,22.108s15.05151-9.89807,15.05151-22.108a32.5409,32.5409,0,0,0-.17371-3.369Z" fill="#f7f5f6"/><path d="M112.94461,103.1452H83.10843c-.07666.78168-.13135,1.56354-.14136,2.34021-.10388,7.99891,3.35071,19.96283,12.17151,22.62714a14.58,14.58,0,0,0,8.569-.258,8.13149,8.13149,0,0,1,1.14185-7.428,7.98048,7.98048,0,0,1,6.23584-2.87506,31.33071,31.33071,0,0,0,1.884-14.17316C112.962,103.30737,112.95267,103.22119,112.94461,103.1452Z" fill="#f7f5f6"/><path d="M245.769,105.315c-.69519-14.92767-9.22009-29.46765-21.05481-38.4281a35.54323,35.54323,0,0,0-13.25-6.40527,34.17689,34.17689,0,0,0-14.97583.10211,32.58517,32.58517,0,0,0,3.26917-14.15265c-.06433-9.5354-4.316-18.63891-9.92859-26.16284a50.95725,50.95725,0,0,0-19.027-15.98144A47.3562,47.3562,0,0,0,147.44339.17944c-10.27173.72809-21.02392,3.264-28.27539,11.08985a32.2353,32.2353,0,0,0-7.668,14.918,33.21736,33.21736,0,0,0-9.614-13.05713A36.10313,36.10313,0,0,0,84.87381,5.80982,55.87086,55.87086,0,0,0,60.19474,7.48737a46.31482,46.31482,0,0,0-24.3219,17.29455A59.73259,59.73259,0,0,0,27.12,43.756c-2.10364,7.6073-2.03491,15.62946,1.33484,22.87A32.10185,32.10185,0,0,0,33.76834,74.571a30.67691,30.67691,0,0,0-18.06994,7.7409C11.30948,86.286,8.293,91.39429,5.67386,96.639.57572,106.84754-1.342,118.15277,1.25785,129.308a54.981,54.981,0,0,0,13.88842,24.92145c7.1399,7.50666,16.71485,12.71515,27.29785,12.21216a36.0786,36.0786,0,0,0,16.08716-4.44006c-.08593.11133-.17675.21783-.26147.33032a34.16988,34.16988,0,0,0-7.11133,19.16882c-.34741,9.68561,3.68677,19.12152,9.12317,26.95032a50.62408,50.62408,0,0,0,18.78479,16.70227,47.69236,47.69236,0,0,0,23.24878,4.67114c10.342-.45617,21.04639-2.67877,28.47241-10.45147a33.82152,33.82152,0,0,0,8.92957-21.6811c.40564.76886.82995,1.52955,1.29345,2.27015a33.3694,33.3694,0,0,0,18.26526,14.40844c7.8855,2.5105,16.47229,2.37586,24.54505.90027a49.63713,49.63713,0,0,0,21.79675-9.66107,47.45817,47.45817,0,0,0,13.86108-18.49554,57.03808,57.03808,0,0,0,4.682-15.9513,30.51331,30.51331,0,0,0-3.14148-17.49811,31.50737,31.50737,0,0,0-2.07617-3.44378,30.30034,30.30034,0,0,0,12.92944-7.83667,43.72993,43.72993,0,0,0,7.66919-11.31885C243.49649,123.053,246.18924,114.3393,245.769,105.315ZM118.50711,16.26734a27.77677,27.77677,0,0,1,12.06971-9.863A47.46565,47.46565,0,0,1,143.1221,3.25879c8.00916-1.08478,16.2815-.69855,23.88843,2.2179a45.863,45.863,0,0,1,18.27405,13.23278c5.06311,5.94947,9.2113,12.99567,11.00671,20.6471A30.52842,30.52842,0,0,1,193.847,60.056c-3.22827,6.432-8.36084,12.28137-15.41443,14.48633-9.3357,2.91827-19.32813-.9328-25.757-7.94617a30.68223,30.68223,0,0,1-3.83093-5.25592,23.628,23.628,0,0,0,9.07947-10.68115,21.87842,21.87842,0,0,0,1.70666-7.45154c.08606-1.67486-2.51819-1.67023-2.60388,0-.49024,9.54614-8.624,18.274-18.23633,19.05927-9.94556.81244-19.12805-6.17292-23.05591-14.98865A33.19376,33.19376,0,0,1,118.50711,16.26734Zm58.09375,108.812a28.48051,28.48051,0,0,0,4.22815,11.67486,25.92645,25.92645,0,0,0-12.01013,8.64087,21.27755,21.27755,0,0,0-4.22424,12.08441c-10.0072.35376-19.92249,5.14624-25.1698,13.91382a23.53687,23.53687,0,0,0-3.15161,9.02411c-3.68653-7.06262-10.242-12.72681-18.1023-14.37811A21.75715,21.75715,0,0,0,104.945,167.4881c-4.81738-9.04047-13.80335-15.88226-24.23279-16.50732a23.33711,23.33711,0,0,0-8.70752,1.13678,1.38222,1.38222,0,0,0-.13208-.37818c-.71838-1.34888-1.3789-2.722-2.00867-4.10705a1.0355,1.0355,0,0,0-.15856-.34687,77.25225,77.25225,0,0,1-6.03418-40.86773A62.44266,62.44266,0,0,1,72.23929,81.2879,58.44834,58.44834,0,0,1,94.96585,60.22058a64.94819,64.94819,0,0,1,20.65869-6.66089,1.13311,1.13311,0,0,0,.61915-.28057,26.7582,26.7582,0,0,0,16.905,11.28308,21.76686,21.76686,0,0,0,13.42945-1.9458c5.17993,8.81414,14.40576,15.31189,24.84192,15.51794a23.61275,23.61275,0,0,0,3.36169-.17334c-2.2749,10.18048,1.44849,20.69281,8.39111,28.28589A22.142,22.142,0,0,0,176.60086,125.07935Zm-107.918,26.10083c.3086.61822.60572,1.24182.93042,1.85217a25.94277,25.94277,0,0,0-2.8479,1.49591c.22559-.32873.4563-.65247.66675-.99622A23.443,23.443,0,0,0,68.68289,151.18018ZM28.82889,47.85944a56.986,56.986,0,0,1,7.339-18.83606,43.47081,43.47081,0,0,1,20.07593-17.34A52.59879,52.59879,0,0,1,80.017,7.87024a37.46566,37.46566,0,0,1,16.1698,4.506,30.48493,30.48493,0,0,1,12.999,14.91492,37.671,37.671,0,0,1,1.3274,3.81384,1.33937,1.33937,0,0,0,.20324.41,37.74457,37.74457,0,0,0,1.02735,12.04461,29.52091,29.52091,0,0,0,3.078,7.50812,65.36165,65.36165,0,0,0-32.0896,14.26209,1.32022,1.32022,0,0,0-.32275-.23523A20.97376,20.97376,0,0,1,70.90872,45.68323c.09107-1.6745-2.51318-1.66943-2.604,0-.47705,8.773,4.70483,17.29651,12.36987,21.42493a59.75394,59.75394,0,0,0-8.39672,9.4198,57.65658,57.65658,0,0,0-3.45069,5.45324A28.5425,28.5425,0,0,1,46.86,80.87592,33.12893,33.12893,0,0,1,32.46561,68.54706,28.56637,28.56637,0,0,1,28.82889,47.85944ZM19.27176,154.6405A53.64581,53.64581,0,0,1,5.41434,134.13806a44.03428,44.03428,0,0,1,.00806-30.42254,56.31183,56.31183,0,0,1,8.37317-15.53736A28.4903,28.4903,0,0,1,30.88834,77.55084a30.6144,30.6144,0,0,1,5.36059-.4981c7.41736,6.72235,17.76783,10.45141,27.56263,8.94647a28.06288,28.06288,0,0,0,3.32177-.72766,71.62839,71.62839,0,0,0-6.65625,31.3797,23.42736,23.42736,0,0,0-20.43066,3.8836c-1.32275,1.02527.5321,2.856,1.84131,1.84131,5.24707-4.06671,12.40039-4.89319,18.651-2.9917.06555,1.66388.16663,3.32471.33032,4.975a76.91977,76.91977,0,0,0,6.30921,23.629c-3.54175,9.82641-13.15748,14.83471-23.1316,15.73785C34.71268,164.57153,26.08243,160.92578,19.27176,154.6405Zm112.23938,59.761a27.56548,27.56548,0,0,1-12.05139,9.59338,45.3718,45.3718,0,0,1-13.15649,2.91932c-8.0398.76434-16.26551.15374-23.77564-3.01209a46.68337,46.68337,0,0,1-17.74548-13.72919c-4.973-6.23614-8.94715-13.61792-10.45935-21.496a30.01,30.01,0,0,1,.93286-15.29c.18432-.54413.3855-1.082.59912-1.61511.02173-.0542.10547-.25452.126-.30469.0133-.029.16235-.37048.21447-.48663q.68354-1.523,1.49964-2.982c3.4945-6.26959,8.8601-11.81927,15.96875-13.72674,9.45312-2.5365,19.2644,1.7868,25.39648,9.04211a30.42025,30.42025,0,0,1,3.57434,5.35962,23.38085,23.38085,0,0,0-9.60559,10.51618,22.29613,22.29613,0,0,0-1.91064,7.2243c-.15406,1.668,2.45092,1.65747,2.604,0,.87537-9.47485,9.32544-17.75207,18.86817-18.23743,9.785-.49768,18.61315,6.61237,22.31884,15.32569a28.92415,28.92415,0,0,1,1.62708,5.192c.06726.35962.13366.71894.21472,1.07679A33.60751,33.60751,0,0,1,131.51114,214.40149Zm90.2135-48.58362c.30738,5.50861-1.04663,10.85224-2.93725,15.98224-2.82825,7.6745-6.938,14.88471-13.10047,20.37354a44.9324,44.9324,0,0,1-19.22326,9.88018c-13.92554,3.37348-30.62647,2.2873-40.38343-9.47686a33.55587,33.55587,0,0,1-6.80993-13.019c-.12574-.76672-.27051-1.52954-.44361-2.28491-.00891-.03894-.02173-.07709-.03088-.116a21.4774,21.4774,0,0,1,.07007-7.01361c1.79431-9.8446,10.09826-16.97332,19.55664-19.25531a30.67429,30.67429,0,0,1,6.22925-.8092,24.05944,24.05944,0,0,0,5.19043,13.24384,21.5236,21.5236,0,0,0,5.56884,4.86914c1.43384.876,2.74366-1.37513,1.31433-2.24848a20.77342,20.77342,0,0,1-8.30908-24.60486c3.44043-8.75225,13.12061-13.66345,22.17115-13.71966,9.84643-.0611,19.89611,5.46948,25.679,13.33667A27.73311,27.73311,0,0,1,221.72464,165.81787Zm16.88037-38.8255a51.413,51.413,0,0,1-7.05957,11.88446,28.22849,28.22849,0,0,1-14.31494,9.10871,36.67262,36.67262,0,0,0-21.562-12.52967,29.10753,29.10753,0,0,0-12.24292.51563c-3.90771-5.93817-5.68726-13.41083-3.36816-20.29962a20.27811,20.27811,0,0,1,13.51806-12.51764,19.71262,19.71262,0,0,1,10.62305-.2486,1.3031,1.3031,0,0,0,.69238-2.51092,23.34648,23.34648,0,0,0-19.73108,4.16827c-6.67517-7.24768-10.22973-17.40057-7.58325-27.13251a27.8,27.8,0,0,0,15.97144-11.713c.55871-.82086,1.08264-1.66534,1.57678-2.52655a1.24075,1.24075,0,0,0,.96509.1391,30.00458,30.00458,0,0,1,25.12475,4.25824,50.87113,50.87113,0,0,1,14.21167,14.811,46.616,46.616,0,0,1,7.62842,21.28272A46.37338,46.37338,0,0,1,238.605,126.99237Z"/><path d="M106.16263,131.39465a10.53713,10.53713,0,0,0,8.23,1.36683,1.30312,1.30312,0,0,0-.69238-2.51093,7.88318,7.88318,0,0,1-5.61768-.74524,6.30409,6.30409,0,0,1-2.91479-3.0758,1.45137,1.45137,0,0,0-.06555-.1955,4.68739,4.68739,0,0,1-.25867-1.13379,5.66958,5.66958,0,0,1,.60474-3.02972,8.66038,8.66038,0,0,1,.6499-1.08734c.0415-.05909.08471-.11683.12646-.17548l.00086-.00092c.06653-.07843.13049-.15863.19946-.235a5.86213,5.86213,0,0,1,2.65552-1.66083,6.29391,6.29391,0,0,1,2.37634-.33179,7.54585,7.54585,0,0,1,3.646,1.04749,6.84066,6.84066,0,0,1,1.65039,1.22357c1.209,1.16077,3.053-.678,1.84118-1.84131a10.9389,10.9389,0,0,0-5.49365-2.811,31.8184,31.8184,0,0,0-1.41528-23.49707c-2.78992-5.70331-8.303-10.70355-15.05994-9.71973C89.783,83.97742,85.3721,90.52075,83.45,96.649a31.69867,31.69867,0,0,0,1.88086,23.65448,17.99319,17.99319,0,0,0,7.56983,7.91992,12.17206,12.17206,0,0,0,10.387.218A9.02416,9.02416,0,0,0,106.16263,131.39465ZM95.57523,85.879c5.519-1.71466,10.39868,2.07269,13.06152,6.63782a25.68278,25.68278,0,0,1,3.15979,9.32641H84.94461c.10706-.72748.23389-1.44946.392-2.1596C86.56522,94.165,89.75028,87.68866,95.57523,85.879ZM88.24,120.16272a23.276,23.276,0,0,1-1.37451-2.67529,6.63326,6.63326,0,0,0,2.99085,1.13086,6.14943,6.14943,0,0,0,2.90612-.33985c2.73-1.0545,4.03174-4.07733,4.65723-6.35321q-3.86316-2.00885-7.72644-4.01776,4.15155-1.46136,8.30322-2.92273c-.02087-.17181-.06176-.361-.08777-.53759h14.14673a30.54041,30.54041,0,0,1-1.65625,11.591,8.855,8.855,0,0,0-5.42212,2.29822,8.96334,8.96334,0,0,0-2.74524,5.91485,7.07694,7.07694,0,0,0,.13367,1.75037C96.74784,128.536,91.26956,125.187,88.24,120.16272Z"/><path d="M152.477,102.80957c-.74866-7.24365-3.81189-15.05224-10.42077-18.51306a12.05566,12.05566,0,0,0-10.08277-.60242,17.20429,17.20429,0,0,0-8.23535,7.65406c-4.56177,7.95965-4.89307,18.51928-1.35889,26.91693,2.82715,6.71783,9.31177,13.06537,17.18091,10.83777,9.40955-2.6637,13.05469-14.21326,13.10852-22.90656-.0061-.984-.05639-1.99554-.15149-3.01965A1.48984,1.48984,0,0,0,152.477,102.80957ZM124.5585,95.63349c2.23328-5.73444,7.64612-11.81318,14.44153-9.79535,3.468,1.02972,6.07947,3.90429,7.80371,6.96991a25.61006,25.61006,0,0,1,2.938,9.03515H122.93021A28.83561,28.83561,0,0,1,124.5585,95.63349Zm16.43128,30.0805c-6.113,3.38171-12.17383-.86615-15.16846-6.27728-.37353-.67493-.70325-1.37451-1.01074-2.0849a6.66627,6.66627,0,0,0,3.17578,1.26648,6.14928,6.14928,0,0,0,2.90613-.33985c2.7345-1.05615,4.03613-4.08728,4.66052-6.36438q-3.85254-2.00326-7.70508-4.00659,4.14-1.45724,8.27979-2.91443c-.02124-.17437-.06262-.36651-.08911-.54589h13.97058q.05018.87459.05554,1.74914C150.02078,113.26721,147.64847,122.03052,140.98978,125.714Z"/><path d="M130.30057,133.84839a51.64773,51.64773,0,0,0-6.60022,1.6969c-3.55139.97424-7.12659,2.05823-10.74719,2.74176a39.76549,39.76549,0,0,1-5.31494.61359c-2.28687.11877-4.401.17547-6.33265-1.22852-1.35729-.98657-2.6582,1.27161-1.31433,2.24841a8.56544,8.56544,0,0,0,3.7389,1.48468,13.01323,13.01323,0,0,0,.47338,8.444,9.76092,9.76092,0,0,0,7.13367,5.84217c5.97241,1.43762,12.85693.01867,18.23731-2.77887a17.99872,17.99872,0,0,0,7.15026-6.36566c1.39563-2.27881,2.42383-5.26954,1.89295-7.94745C137.868,134.81812,133.71927,133.38873,130.30057,133.84839Zm-6.9978,4.49677q2.029,6.39578,4.05786,12.7915a26.33633,26.33633,0,0,1-9.53528,2.40655q-1.02978-6.61908-2.05969-13.23822c.17993-.04315.35986-.08136.54-.12646C118.64456,139.59308,120.97562,138.9765,123.30277,138.34516Zm-15.67481,12.345c-1.98388-2.52515-2.17981-6.14356-1.22131-9.1142,1.155-.02008,2.31628-.12579,3.44311-.2403,1.14307-.11615,2.266-.28222,3.38172-.488q.9906,6.36786,1.98144,12.73584C112.49076,153.49219,109.3721,152.9101,107.628,150.69019Zm27.96839-7.83441a12.94764,12.94764,0,0,1-4.54358,6.072c-.439.3316-.90088.634-1.36743.92944q-1.9347-6.09841-3.86927-12.19684c.10437-.02911.20911-.05621.31336-.08539,2.04089-.57129,4.205-1.45813,6.34436-1.20446a4.04169,4.04169,0,0,1,3.52246,2.46167A6.72556,6.72556,0,0,1,135.59635,142.85578Z"/><path d="M148.40348,130.99164c-2.89551,0-2.90027,4.5,0,4.5C151.29911,135.49164,151.30374,130.99164,148.40348,130.99164Z"/><path d="M155.02445,130.38739c2.89563,0,2.90039-4.5,0-4.5C152.12894,125.88739,152.12418,130.38739,155.02445,130.38739Z"/><path d="M155.16873,134.00781c-2.8955,0-2.90039,4.5,0,4.5C158.06424,138.50781,158.069,134.00781,155.16873,134.00781Z"/><path d="M82.35184,127.80713c-2.89551,0-2.90039,4.5,0,4.5C85.24735,132.30713,85.25223,127.80713,82.35184,127.80713Z"/><path d="M88.21305,133.7685c-2.89551,0-2.90027,4.5,0,4.5C91.10868,138.2685,91.11331,133.7685,88.21305,133.7685Z"/><path d="M80.16849,134.88513c-2.89551,0-2.90039,4.5,0,4.5C83.064,139.38513,83.06888,134.88513,80.16849,134.88513Z"/><path d="M136.51566,76.47412a26.862,26.862,0,0,1,15.2998,6.89295,12.71153,12.71153,0,0,0-2.92651-6.019c-4.52588-5.03448-11.90918-4.23669-14.14087-3.9956A21.877,21.877,0,0,0,122.6807,78.851,26.60907,26.60907,0,0,1,136.51566,76.47412Z"/><path d="M112.06815,78.851a21.87655,21.87655,0,0,0-12.06726-5.49853c-2.23181-.24109-9.615-1.03888-14.141,3.9956a12.71166,12.71166,0,0,0-2.92652,6.019A26.36119,26.36119,0,0,1,112.06815,78.851Z"/></g></svg>