<svg xmlns="http://www.w3.org/2000/svg" viewBox="0 0 330.64297 330.07353"><g id="Personaje"><path d="M213.65152,60.88331c-1.35632.64834-10.36047,4.77052-19.95032.43931a23.38486,23.38486,0,0,1-10.58911-9.794,62.91869,62.91869,0,0,0-41.05786,22.85286c-12.60046,15.6842-13.5404,32.90268-13.813,39.651a74.37858,74.37858,0,0,0,6.74036,33.80643q1.25208,2.88518,2.50427,5.77035a26.26517,26.26517,0,0,1,13.3822-.94834c13.00415,2.569,18.96375,14.60392,19.725,16.20582a22.39719,22.39719,0,0,1,10.9906-2.13235c14.35974,1.02215,21.56116,16.68466,21.88232,17.41174a26.8664,26.8664,0,0,1,28.92749-25.3298,21.61967,21.61967,0,0,1,16.8805-21.496c-.93213-1.14366-6.53259-8.25238-4.99121-17.99855a22.92907,22.92907,0,0,1,7.14416-13.14654,29.97967,29.97967,0,0,1-8.9021-15.20552,29.65922,29.65922,0,0,1,.2135-14.05966,29.62114,29.62114,0,0,1-29.08679-16.02672Z" fill="#f5c92b"/><path d="M311.31973,104.46581a46.65261,46.65261,0,0,0-5.89392-19.76433c-2.39941-4.265-14.86194-24.82248-35.36316-24.15107a38.30467,38.30467,0,0,0-9.24841,1.535,37.46778,37.46778,0,0,0,2.67835-5.96785c6.58813-19.42553-9.4712-37.31472-12.85669-40.84784A46.6659,46.6659,0,0,0,233.43057,3.89677,48.201,48.201,0,0,0,211.16605,1.617c-6.69837.85875-16.88843,2.165-24.577,10.44371a32.02053,32.02053,0,0,0-8.02368,18.44348q-.41143-1.90419-.82336-3.80846a35.8087,35.8087,0,0,0-11.28113-13.77068c-9.73047-7.03742-20.254-6.72135-25.88086-6.57843a48.19924,48.19924,0,0,0-21.65759,5.64444,46.66185,46.66185,0,0,0-15.2721,13.86085c-3.07678,4.391-15.94751,24.39631-6.48486,42.32957a36.87254,36.87254,0,0,0,5.58069,7.49641,27.75023,27.75023,0,0,0-9.589,1.1541c-15.59119,4.80182-22.96595,22.97661-24.896,34.84273a46.66009,46.66009,0,0,0,1.26514,20.58551,48.19652,48.19652,0,0,0,11.57251,19.157c4.358,4.46771,11.53515,11.884,23.12707,13.34979,2.62634.33209,13.6499,1.72607,22.74756-5.74989a27.37238,27.37238,0,0,0,8.00818-11.17824,76.21458,76.21458,0,0,1,.947-64.7497A31.1439,31.1439,0,0,1,125.797,84.981a29.19456,29.19456,0,0,0,11.4469-3.75337,63.95232,63.95232,0,0,1,45.86816-29.69908l-.00061-.00212c4.97095,7.6529,13.73108,12.914,22.74219,11.93229a20.18793,20.18793,0,0,0,7.79785-2.57545c5.8949,11.0435,17.26306,17.21885,28.122,15.678.72253-.10263,1.417-.24591,2.09766-.40829-4.16,9.82632-1.46412,22.0888,7.17517,30.71367h.00036a20.19111,20.19111,0,0,0-4.72656,6.71576c-3.31213,7.77423-1.3667,16.91105,3.67737,23.76663-7.09937,1.93263-13.37122,6.6154-16.14624,13.38548a20.19155,20.19155,0,0,0-1.45777,8.08173c-12.51806-.08965-23.36975,6.95358-27.19775,17.2315a22.52955,22.52955,0,0,0-1.32617,9.93894c-.0127-.04663-.02332-.09351-.03626-.14029-3.059-11.1225-13.8778-20.27863-25.37536-19.342a20.19,20.19,0,0,0-7.86487,2.36227c-5.5918-11.1999-16.78784-17.68259-27.68457-16.438-15.27515,1.745-21.47607,17.70478-22.26746,19.84506-7.11486,19.23871,8.4513,37.55854,11.73963,41.18265a46.65834,46.65834,0,0,0,16.8894,11.837,48.1956,48.1956,0,0,0,22.19409,2.88516c6.71912-.6759,16.94092-1.70444,24.85193-9.77069,6.32569-6.44986,9.83826-16.57657,8.57-27.18063a37.12245,37.12245,0,0,0,7.911,13.663c13.92676,15.05982,37.31152,9.484,42.032,8.19467a46.664,46.664,0,0,0,18.20508-9.69269,48.20207,48.20207,0,0,0,12.62817-18.47781c2.44178-6.29623,6.1565-15.87454,2.55042-26.58166a29.77456,29.77456,0,0,0-5.08386-9.12445,28.88512,28.88512,0,0,0,6.79272-2.28252c10.15271-4.9569,14.35828-14.33,17.12293-20.49135A48.19336,48.19336,0,0,0,311.31973,104.46581Z" fill="#f05b31"/><path d="M284.79249,177.93431a3.97916,3.97916,0,0,0-2.50641,1.26425c-1.70154,2.09043.07269,5.85706.31732,6.36072a15.82022,15.82022,0,0,1-6.04468,3.58582c-2.561.79831-4.1867.52258-7.43762.84283a38.57616,38.57616,0,0,0-8.56238,1.863A26.50287,26.50287,0,0,1,249.5,189.96861c-2.22754-.91787-9.19886-4.18414-10.82355-3.29409a4.71326,4.71326,0,0,0-1.35388,1.15277,4.61018,4.61018,0,0,0-.5149.91775,14.11335,14.11335,0,0,0,1.93262,11.1789c3.90936,5.67166,11.02026,6.015,11.93616,6.04467a12.89924,12.89924,0,0,0,5.844,10.67694c-.00464.23392-.01935,5.77948,4.5636,8.53507a9.78988,9.78988,0,0,0,7.59241.90564,12.11412,12.11412,0,0,0,21.72424-9.60031,14.43729,14.43729,0,0,0,7.21631-6.585c3.187-6.21392.28668-12.34439-.05945-13.04522.25861.12652,5.10437,2.43652,7.10608.44015.16461-.16418.94861-.99438.80927-3.08819C304.92591,185.98866,291.38538,176.82576,284.79249,177.93431Z" fill="#f7f5f6"/><path d="M30.7504,160.0287c.28516.82166,2.48462,6.89289,7.33777,7.82227,2.56336.49087,4.76773-.88843,9.17648-3.647,6.58722-4.12173,9.49848-8.22851,10.92469-10.7006,1.6629-2.88231,1.71673-4.25261,1.52557-5.24723-.65216-3.39273-4.65149-4.99284-5.30884-5.2453a45.98393,45.98393,0,0,0,.50562-4.92453,59.04339,59.04339,0,0,0-.26746-7.86262,31.80876,31.80876,0,0,1,1.94074-12.2004c.91815-2.40267,3.31891-7.62532,3.89782-11.802a3.2941,3.2941,0,0,0-.18835-1.77889c-.87561-2.05345-4.03619-2.65495-5.76776-2.69107-5.1944-.10835-8.86554,4.63469-9.58655,5.56624a16.52328,16.52328,0,0,0-3.32257,9.12163c-6.11911-7.16457-13.21548-11.086-18.17087-9.49541a7.74731,7.74731,0,0,0-4.601,3.34293,7.8555,7.8555,0,0,0-.39047,6.26028A7.67034,7.67034,0,0,0,12.412,117.9975a7.68,7.68,0,0,0-2.2062,8.32406c-5.14222.25081-7.03177,2.50585-7.52942,3.17647-4.08966,5.51108,3.01217,15.61054,3.66421,16.5168.84751,1.178,3.02988,3.12285,7.39463,7.01262,6.74221,6.00852,9.29989,7.46311,12.34054,7.66739A11.77644,11.77644,0,0,0,30.7504,160.0287Z" fill="#f7f5f6"/><path d="M227.34852,213.288c-10.12531,13.98474-21.16394,28.37982-33.189,43.02753-18.61273,22.67215-37.16455,42.99676-55.07135,61.12368a109.89571,109.89571,0,0,1-22.97107-17.59176,112.68357,112.68357,0,0,1-13.20337-16.046c-3.20611-4.71341-4.8092-7.07016-5.69867-9.47046-3.13629-8.46307-2.71887-22.95624,7.84735-31.62094,9.14209-7.49692,21.2865-6.86246,29.08692-3.35617,7.73981,3.479,12.16632,10.21863,14.82318,14.26376a47.86079,47.86079,0,0,1,5.3139,10.90762c6.21283-6.44265,12.59381-13.44375,19.037-21.02728,5.75562-6.7742,11.05719-13.42029,15.934-19.86532a32.064,32.064,0,0,0,10.457-9.748,33.12383,33.12383,0,0,0,5.32581-21.02991A34.02776,34.02776,0,0,0,227.34852,213.288Z" fill="#f7f5f6"/><path d="M169.5,228.08626a14.87833,14.87833,0,0,0-.48511,10.19433,14.36409,14.36409,0,0,0,3.6242,5.789c8.03882,4.75894,16.569,9.54733,25.58979,14.291q13.688,7.198,26.57324,13.121-2.07084,4.52737-4.14172,9.05472c-1.32166-.54211-9.48761-3.73993-17.37537.46274a19.218,19.218,0,0,0-7.34045,7.07886c-4.27411,6.96356-2.83228,14.10287-2.40491,16.21923.54992,2.723,1.62012,9.15372,6.34,10.97794a15.07281,15.07281,0,0,0,5.23011.70062q18.17615.28259,36.35235.565c1.01941.01583,4.15595.5682,5.75183-1.198a3.81323,3.81323,0,0,0,.87427-1.8447c1.15582-5.55112,20.43921-39.28528,19.19067-44.41a6.17894,6.17894,0,0,0-.43554-1.18317,6.84809,6.84809,0,0,0-3.39051-2.97964c-2.36425-1.086-34.13464-17.294-77.89685-39.58527a31.23372,31.23372,0,0,1-16.056,2.74631Z" fill="#f7f5f6"/><ellipse cx="202.81632" cy="106.75342" rx="15.03113" ry="22.07816" fill="#f7f5f6"/><path d="M177.73378,117.84456a30.24745,30.24745,0,0,0,2.0315-11.09114c0-12.19343-6.72968-22.07815-15.03113-22.07815-8.30151,0-15.03113,9.88472-15.03113,22.07815s6.72962,22.07816,15.03113,22.07816a10.93891,10.93891,0,0,0,5.57715-1.56969,7.83415,7.83415,0,0,1,7.42248-9.41733Z" fill="#f7f5f6"/><path d="M185.42658,155.69936a12.0262,12.0262,0,0,1,3.38021-5.24049,9.50057,9.50057,0,0,1,5.44324-1.81464,9.27224,9.27224,0,0,1,5.93371,1.488.667.667,0,0,1,.33738.67869,7.60642,7.60642,0,0,1-4.29149,6.79313,9.11558,9.11558,0,0,1-4.59166.72988,16.22067,16.22067,0,0,1-4.5433-1.14488" fill="#f7f5f6"/><path d="M321.53564,264.6966c-14.94116-1.77295-16.75958-3.97657-17.96-25.45624a.23433.23433,0,0,0-.463,0c-1.20044,21.47967-3.01886,23.68329-17.96,25.45624a.20631.20631,0,0,0,0,.41247c14.94116,1.773,16.75958,3.97656,17.96,25.4563a.23434.23434,0,0,0,.463,0c1.20044-21.47974,3.01886-23.68329,17.96-25.4563A.20631.20631,0,0,0,321.53564,264.6966Z"/><path d="M33.27667,52.52649c14.94116,1.773,16.75958,3.97656,17.96008,25.45624a.2343.2343,0,0,0,.46289,0c1.20044-21.47968,3.01892-23.68323,17.96009-25.45624a.20631.20631,0,0,0,0-.41247c-14.94117-1.77295-16.75965-3.97657-17.96009-25.45624a.2343.2343,0,0,0-.46289,0C50.03625,48.13745,48.21783,50.34107,33.27667,52.114A.20631.20631,0,0,0,33.27667,52.52649Z"/><path d="M330.53369,228.70838c-7.22534-.85743-8.10474-1.923-8.68524-12.31031a.11332.11332,0,0,0-.22388,0c-.58051,10.38727-1.4599,11.45288-8.68518,12.31031a.09976.09976,0,0,0,0,.19946c7.22528.85736,8.10467,1.923,8.68518,12.31024a.11332.11332,0,0,0,.22388,0c.5805-10.38727,1.4599-11.45288,8.68524-12.31024A.09977.09977,0,0,0,330.53369,228.70838Z"/><path d="M76.44189,239.27686a.11332.11332,0,0,0,.22388,0c.58056-10.38727,1.4599-11.45288,8.68524-12.31024a.09977.09977,0,0,0,0-.19947c-7.22534-.85742-8.10468-1.923-8.68524-12.3103a.11332.11332,0,0,0-.22388,0c-.5805,10.38727-1.45984,11.45288-8.68518,12.3103a.09977.09977,0,0,0,0,.19947C74.98205,227.824,75.86139,228.88959,76.44189,239.27686Z"/><path d="M256.43994,298.43451q.88229-1.90786,1.76452-3.81573,2.55332-5.52155,5.10657-11.043c1.70978-3.69739,3.58606-7.3609,5.13367-11.12867a6.03767,6.03767,0,0,0-1.88086-7.0863,31.20413,31.20413,0,0,0-4.82123-2.59051q-2.87127-1.47079-5.74255-2.94153-10.82264-5.54379-21.6452-11.08747l-23.08722-11.826q6.21131-8.03164,12.25195-16.193,2.12493-2.876,4.22424-5.77087a42.16646,42.16646,0,0,0,5.38062,1.02386,57.0265,57.0265,0,0,0,19.34356-1.16681,14.65344,14.65344,0,0,0,2.817,2.63037,12.723,12.723,0,0,0,.23322,1.55054,12.45,12.45,0,0,0,4.12152,6.89825,10.7566,10.7566,0,0,0,8.41534,2.11957l.01148-.00293q.2586.33883.54156.66284c5.60565,6.38648,15.97107,5.22,20.73822-1.529a13.47674,13.47674,0,0,0,2.17047-9.97131c5.52393-2.85675,9.65546-7.90509,8.9195-14.60968a17.257,17.257,0,0,0-.5445-2.72186c2.5788.78973,5.35242.11651,6.53131-2.98432,1.05182-2.7666.17963-5.311-1.29364-7.59668a50.65555,50.65555,0,0,0-4.02166-50.26294,50.02575,50.02575,0,0,0,4.77392-7.90985c3.95477-8.01239,6.64758-16.726,6.2273-25.75036-.69525-14.92762-9.22016-29.46766-21.05494-38.428a35.53964,35.53964,0,0,0-13.24981-6.40528,34.17745,34.17745,0,0,0-14.976.10211,32.58518,32.58518,0,0,0,3.26922-14.15264c-.06439-9.53541-4.316-18.639-9.92865-26.16291A50.95679,50.95679,0,0,0,237.142,4.3028,47.35662,47.35662,0,0,0,213.78344.19544c-10.27172.72815-21.02392,3.264-28.27539,11.0899a32.23705,32.23705,0,0,0-7.668,14.918,33.21645,33.21645,0,0,0-9.61389-13.05725,36.10338,36.10338,0,0,0-17.01221-7.32031,55.872,55.872,0,0,0-24.67913,1.67755A46.315,46.315,0,0,0,102.213,24.79791,59.73193,59.73193,0,0,0,93.46014,43.772c-2.10376,7.60729-2.035,15.62945,1.3349,22.87a32.09857,32.09857,0,0,0,5.31348,7.94495,30.67724,30.67724,0,0,0-18.07,7.741C77.64959,86.302,74.63305,91.41028,72.01385,96.655c-5.098,10.20856-7.01587,21.51373-4.416,32.669a54.98286,54.98286,0,0,0,13.88842,24.92144c5.42933,5.7082,12.269,10.07947,19.887,11.629a32.8239,32.8239,0,0,1-21.37518,1.65992,43.89846,43.89846,0,0,1-17.31153-9.48438,47.3468,47.3468,0,0,1-3.49817-3.37115,9.86111,9.86111,0,0,0,1.92-5.1037c.15448-3.49805-2.6615-5.689-5.62757-6.874.11426-.31366.21979-.63128.30494-.95721.74-2.832.43957-6.10181.29644-8.98493a27.03661,27.03661,0,0,1,.07587-5.77063,59.68161,59.68161,0,0,1,1.73791-7.24816c1.00074-3.387,2.17481-6.71772,3.2945-10.06623.58148-1.73919,1.51733-3.8902.68567-5.697-1.07166-2.32825-3.83582-3.03961-6.17438-3.20221a13.05816,13.05816,0,0,0-7.88086,1.96076,15.25076,15.25076,0,0,0-6.9989,11.19519,37.35533,37.35533,0,0,0-8.14807-6.27564c-3.45117-2.02936-7.5235-2.905-11.29413-1.20935a8.16593,8.16593,0,0,0-4.54559,8.72656,7.48292,7.48292,0,0,0-4.79376,1.32227,7.69493,7.69493,0,0,0-3.05311,8.80926,7.85055,7.85055,0,0,0-1.07537.07868,9.55669,9.55669,0,0,0-7.00855,4.94031c-1.46393,3.00866-.6734,6.618.54175,9.579,1.49475,3.64233,4.10614,6.70154,6.80261,9.51654a76.93341,76.93341,0,0,0,10.065,9.34735c3.03424,2.19568,6.49842,3.77087,10.31049,3.37433.51013-.053,1.01849-.12763,1.52594-.20685,1.217,3.27167,3.44177,6.44842,7.09985,7.1203a9.91843,9.91843,0,0,0,4.9126-.44354,62.65579,62.65579,0,0,0,20.4209,17.01117,59.7332,59.7332,0,0,0,55.02344-.10035c.69677,8.26264,4.33178,16.2013,9.01562,22.94623a50.62339,50.62339,0,0,0,18.78479,16.70221,47.41845,47.41845,0,0,0,22.182,4.68756,16.53012,16.53012,0,0,0,3.61413,14.09784.94462.94462,0,0,0,.144.1341q-7.9867,9.32519-16.5481,18.13958a55.07109,55.07109,0,0,0-5.56866-10.50055,43.2376,43.2376,0,0,0-7.88721-9.20727,30.14707,30.14707,0,0,0-24.55158-6.3468,26.90385,26.90385,0,0,0-20.272,16.47912A31.36581,31.36581,0,0,0,96.178,274.956c1.38153,3.57122,3.8023,6.73242,5.9508,9.86486,2.16333,3.15406,4.49274,6.196,6.95386,9.12329,1.07892,1.28327,2.19409,2.53394,3.32526,3.76954-25.91071,3.30627-42.54737,8.42089-42.54737,14.16412,0,9.97,50.10187,18.05237,111.9057,18.05237s111.90576-8.08234,111.90576-18.05237C293.67205,306.53729,279.2893,301.73963,256.43994,298.43451Zm-6.17157-38.62012q5.08,2.60222,10.16,5.20435c2.36548,1.21167,6.64667,2.44263,5.78766,5.93994a29.81243,29.81243,0,0,1-2.23535,4.99249q-1.25052,2.70447-2.50116,5.40882-2.397,5.18354-4.79395,10.36694-5.37441,11.622-10.74878,23.24408H199.66412c-5.67859-7.03925-7.81342-17.351-2.909-25.39093a20.20618,20.20618,0,0,1,7.91773-7.47949,18.75264,18.75264,0,0,1,13.74859-1.0791,25.65187,25.65187,0,0,1,13.54279,9.9552c.96191,1.35559,3.221.05633,2.24847-1.31427a29.45573,29.45573,0,0,0-11.653-9.84363q1.64045-3.63034,3.28088-7.26074a1.32661,1.32661,0,0,0-.4671-1.78138q-14.63022-7.39068-29.26031-14.78125,6.86883-8.41223,13.53155-16.98993Q229.95651,249.41,250.26837,259.81439Zm-33.82269-53.19922a33.91511,33.91511,0,0,1-9.35834-12.69873c-3.218-7.47625-2.87494-15.81561,1.83014-22.5924,4.95764-7.14044,13.50531-10.90772,22.02783-11.22779a23.40345,23.40345,0,0,0,10.80585,18.11164c1.43383.8761,2.74365-1.37512,1.31427-2.24842a20.87749,20.87749,0,0,1-9.58881-18.35284c.24066-7.28424,4.773-13.40894,11.05548-16.81531,13.7547-7.45788,31.47882-.574,39.41339,12.20569a30.88172,30.88172,0,0,1,3.39276,23.6521,7.54,7.54,0,0,0-4.058.62451,5.72824,5.72824,0,0,0-2.41766,8.2959,18.55112,18.55112,0,0,1-3.01874,1.77551,21.07908,21.07908,0,0,1-7.26019,1.55628,29.77756,29.77756,0,0,0-7.86408,1.33392c-.11066.03986-.21881.08881-.329.13056a33.10236,33.10236,0,0,1-12.91791-1.4964c-2.18969-.71674-4.23-1.79316-6.402-2.55072-1.64807-.57483-4.087-1.2699-5.75812-.42627-1.76508.89111-2.25348,3.676-2.46777,5.44262a13.03632,13.03632,0,0,0,.2918,4.76935,14.97521,14.97521,0,0,0,3.65455,6.4787,16.44425,16.44425,0,0,0,10.0379,4.83063,1.11819,1.11819,0,0,0,.72839-.1333,12.07621,12.07621,0,0,0,1.382,5.20117C239.35937,214.90662,225.88922,214.39191,216.44568,206.61517Zm-31.93457-40.55981a21.75754,21.75754,0,0,0-13.22608,1.44873c-4.81732-9.04053-13.80322-15.88226-24.23273-16.50726a23.33638,23.33638,0,0,0-8.70758,1.13672,1.38056,1.38056,0,0,0-.13208-.37812c-.71832-1.34887-1.37884-2.722-2.0086-4.107a1.03425,1.03425,0,0,0-.15869-.34693,77.25293,77.25293,0,0,1-6.03406-40.86767A62.44112,62.44112,0,0,1,138.57946,81.304,58.44774,58.44774,0,0,1,161.3059,60.23657a64.94934,64.94934,0,0,1,20.65876-6.66082,1.133,1.133,0,0,0,.61914-.28064,26.75852,26.75852,0,0,0,16.90509,11.28314,21.76684,21.76684,0,0,0,13.42932-1.94586c5.18005,8.81421,14.40576,15.31195,24.842,15.51794a23.61321,23.61321,0,0,0,3.36169-.17334c-2.275,10.18054,1.44849,20.69281,8.39118,28.286A22.14135,22.14135,0,0,0,242.941,125.0954a28.48626,28.48626,0,0,0,4.244,11.69867c-.7221.2569-1.44055.53357-2.15051.85156-7.18622,3.21875-12.85791,9.65875-13.95135,17.59589a22.48811,22.48811,0,0,0-.18122,2.24792c-8.20367.29187-16.34765,3.51551-21.94281,9.64557a25.12782,25.12782,0,0,0-6.338,13.31391C198.93615,173.37915,192.377,167.70783,184.51111,166.05536Zm65.1604,39.18408a1.342,1.342,0,0,0-.84241-.42969,13.18822,13.18822,0,0,1-11.05231-8.93688,10.1886,10.1886,0,0,1-.42926-3.02515,10.44192,10.44192,0,0,1,.33527-2.61414c.23742-.90948.39569-1.98626,1.42926-2.06775,1.88128-.14831,3.94623.8913,5.62176,1.62091a42.21273,42.21273,0,0,0,5.33295,1.98615,34.84489,34.84489,0,0,0,7.38611,1.24127A18.11794,18.11794,0,0,0,249.67151,205.23944Zm53.19274-7.85608c-1.66851.8935-3.61944-.45794-4.72094-1.65228a1.22335,1.22335,0,0,0-.2395-.22357,1.146,1.146,0,0,0-1.52961.11084,1.21785,1.21785,0,0,0-.33221,1.63312c2.81433,4.90411,2.45672,11.07037-1.854,14.983a18.40168,18.40168,0,0,1-4.61224,3.01385,1.47243,1.47243,0,0,0-.24219.12073,21.18018,21.18018,0,0,1-9.99646,1.80835c-1.67273-.1131-1.66577,2.49133,0,2.604a23.49516,23.49516,0,0,0,9.71027-1.52,10.93786,10.93786,0,0,1-9.2334,11.968c-6.75958.98718-13.26977-4.96673-11.31866-11.96777a12.73142,12.73142,0,0,1,5.97888-7.5246,1.303,1.303,0,0,0-1.31427-2.24847,15.57329,15.57329,0,0,0-6.84876,8.08081,11.77133,11.77133,0,0,0,.30854,8.99408c-4.52643.2384-8.10834-3.54883-8.73334-8.03473-.67975-4.87885,2.38019-9.49378,5.6131-12.85565,1.16186-1.20819-.677-3.052-1.84131-1.84125-3.00446,3.12427-5.60932,7.04754-6.272,11.31695a10.16866,10.16866,0,0,1-3.20319-8.1239,15.4652,15.4652,0,0,1,5.21729-9.72973,18.46986,18.46986,0,0,1,5.60333-3.36994c.02081-.002.04181-.00262.06262-.00464a1.335,1.335,0,0,0,.7298-.29522c.08709-.02948.1712-.06977.2586-.0979,2.68488-.865,5.37036-.87818,8.15125-1.17841a20.94819,20.94819,0,0,0,11.43078-4.65118,1.03183,1.03183,0,0,0,.35505-1.25476,1.23744,1.23744,0,0,0-.355-.58655,3.15759,3.15759,0,0,1,1.05725-5.37586c1.78076-.70294,3.95807.07318,5.64752.726a22.84339,22.84339,0,0,1,4.50464,2.41937,32.54577,32.54577,0,0,1,6.09961,5.43085c1.50177,1.69647,3.40558,3.81109,3.3637,6.19592C304.29034,195.34015,303.93744,196.80872,302.86425,197.38336ZM262.43,63.346a30.00546,30.00546,0,0,1,25.12482,4.25824,50.86949,50.86949,0,0,1,14.21154,14.811,46.61579,46.61579,0,0,1,7.62854,21.28272,46.374,46.374,0,0,1-4.44982,23.31036,51.4108,51.4108,0,0,1-7.05945,11.88452,28.22914,28.22914,0,0,1-14.34082,9.11591,36.7376,36.7376,0,0,0-14.4231-10.46,30.9765,30.9765,0,0,0-19.34582-1.546c-3.91456-5.94061-5.69941-13.42-3.37842-20.31482a20.27809,20.27809,0,0,1,13.51813-12.51764,19.71219,19.71219,0,0,1,10.6231-.24866,1.30309,1.30309,0,0,0,.69226-2.51092,23.34646,23.34646,0,0,0-19.731,4.16827c-6.67511-7.24768-10.2298-17.40051-7.58326-27.13251a27.79991,27.79991,0,0,0,15.97144-11.713c.55872-.82086,1.08258-1.6654,1.57684-2.52661A1.24062,1.24062,0,0,0,262.43,63.346ZM184.84723,16.28333a27.77591,27.77591,0,0,1,12.0697-9.863,47.46515,47.46515,0,0,1,12.54529-3.14557c8.00915-1.08478,16.28149-.69855,23.88836,2.2179a45.86366,45.86366,0,0,1,18.27411,13.23285c5.06305,5.9494,9.21124,12.9956,11.00672,20.64709A30.52727,30.52727,0,0,1,260.187,60.072c-3.22827,6.43207-8.36084,12.28144-15.41437,14.48633-9.33569,2.91834-19.32819-.93274-25.757-7.94611a30.67863,30.67863,0,0,1-3.83093-5.25592,23.62762,23.62762,0,0,0,9.07947-10.68115,21.879,21.879,0,0,0,1.70666-7.4516c.086-1.6748-2.51819-1.67016-2.60394,0-.49017,9.54614-8.624,18.27411-18.23627,19.05933-9.94555.81244-19.12805-6.17291-23.056-14.98871A33.19374,33.19374,0,0,1,184.84723,16.28333ZM95.169,47.87549a56.98634,56.98634,0,0,1,7.339-18.83612,43.47051,43.47051,0,0,1,20.07593-17.34,52.59862,52.59862,0,0,1,23.77319-3.81311,37.46434,37.46434,0,0,1,16.16974,4.506A30.48455,30.48455,0,0,1,175.526,27.30713a37.72256,37.72256,0,0,1,1.32733,3.81384,1.34019,1.34019,0,0,0,.20325.4101,37.744,37.744,0,0,0,1.02734,12.04455,29.52091,29.52091,0,0,0,3.078,7.50812,65.36238,65.36238,0,0,0-32.0896,14.262,1.32045,1.32045,0,0,0-.32281-.23517,20.97375,20.97375,0,0,1-11.50073-19.41132c.09112-1.67456-2.51313-1.66943-2.60395,0-.47711,8.773,4.70472,17.29639,12.36988,21.42487a59.75387,59.75387,0,0,0-8.39679,9.4198,57.66654,57.66654,0,0,0-3.45063,5.4533,28.54247,28.54247,0,0,1-21.96716-1.10534A33.12976,33.12976,0,0,1,98.80566,68.56305,28.56678,28.56678,0,0,1,95.169,47.87549ZM71.75439,134.15412a44.034,44.034,0,0,1,.00812-30.42255,56.31377,56.31377,0,0,1,8.37311-15.53735A28.49053,28.49053,0,0,1,97.22839,77.56683a30.6214,30.6214,0,0,1,5.36066-.4981c7.41742,6.72241,17.76776,10.45147,27.56262,8.94647a28.05143,28.05143,0,0,0,3.32165-.7276,71.63088,71.63088,0,0,0-6.65612,31.3797,23.42714,23.42714,0,0,0-20.43067,3.8836c-1.32281,1.02521.53211,2.856,1.84125,1.84125,5.24713-4.06665,12.40051-4.89319,18.65106-2.9917.06549,1.66388.16663,3.32471.33032,4.975a76.921,76.921,0,0,0,6.30927,23.62909c-3.54181,9.82642-13.15765,14.83465-23.13165,15.73779-9.33411.84522-17.96424-2.80054-24.77491-9.08587A53.64567,53.64567,0,0,1,71.75439,134.15412ZM22.13806,108.96253c2.74005-1.46357,5.95862-.84009,8.57409.57434a38.401,38.401,0,0,1,7.05018,5.06762c2.15741,1.91809,4.2218,4.37745,4.0849,7.43439-.18091,4.039-3.86054,5.34271-7.28687,4.54291a20.80619,20.80619,0,0,0-3.25128-3.56323,36.21247,36.21247,0,0,0-11.16193-7.11267c-.18249-.06745-.36346-.11927-.54516-.17859C18.92169,113.14081,19.65063,110.29114,22.13806,108.96253ZM11.82348,125.389a5.08263,5.08263,0,0,1,1.53138-6.64606,5.49934,5.49934,0,0,1,5.31719-.60449,28.42347,28.42347,0,0,1,8.86005,5.12756c2.5733,2.06025,4.83478,4.19544,6.2013,7.26587,1.7536,3.94007-1.92316,7.298-5.77558,7.03192-.0263-.00183-.0484.00275-.07385.00226a30.74509,30.74509,0,0,0-2.16876-2.46258,51.4104,51.4104,0,0,0-4.4881-4.369,25.37476,25.37476,0,0,0-6.19574-3.8291,26.99578,26.99578,0,0,0-3.07984-1.15412A1.38958,1.38958,0,0,0,11.82348,125.389ZM32.725,161.40509a21.25025,21.25025,0,0,0,9.46607-4.9909c1.221-1.1529-.62274-2.99189-1.84125-1.84125-2.88647,2.72565-6.45715,3.97357-10.30023,4.73224a11.07112,11.07112,0,0,1-7.92871-1.21,35.32124,35.32124,0,0,1-7.57062-6.05921A68.53529,68.53529,0,0,1,5.98822,142.741,17.02959,17.02959,0,0,1,2.765,134.84186a5.86352,5.86352,0,0,1,3.64392-6.28534c2.93323-1.38666,5.97412-.13269,8.70416,1.2403,3.45118,1.73559,6.13788,4.3703,8.76081,7.148,1.27087,1.34582,2.99469,2.95025,3.19482,4.90435A3.68634,3.68634,0,0,1,25.50305,145.33c-1.82611,1.0003-4.80585-.12-6.58685-.78864a25.73721,25.73721,0,0,1-6.04108-3.38171c-1.3562-.98792-2.65692,1.27039-1.31427,2.24847a28.73051,28.73051,0,0,0,5.4964,3.15656.91493.91493,0,0,0,.08142.14551,24.79163,24.79163,0,0,1,2.14563,3.35162c.30658.57751.58716,1.16742.84906,1.76642l.01733.0404q.04807.1161.09473.23224.0944.23475.18378.47138c.1192.31555.231.63366.33783.95361a1.30229,1.30229,0,1,0,2.51092-.6922,26.42131,26.42131,0,0,0-2.23663-4.91424,10.98178,10.98178,0,0,0,3.96216.25427c3.54974-.51142,5.41314-4.56134,4.40142-7.80805-.02374-.07623-.05749-.14807-.0838-.2232,3.47309-.34113,6.83771-2.82318,7.43183-6.39179a7.99627,7.99627,0,0,0-.60529-4.3349c3.37671.11859,6.64069-1.37445,7.86548-4.89972a9.00692,9.00692,0,0,0-.6615-7.08331,1.28037,1.28037,0,0,0,.03687-.43866A12.77926,12.77926,0,0,1,48.11493,105.692a10.70833,10.70833,0,0,1,6.84387-2.345,9.14451,9.14451,0,0,1,2.88342.44348c.8244.28973,1.656.96618,1.7569,1.52014a5.54276,5.54276,0,0,1-.236,1.49493c-.37037,1.37183-.864,2.71344-1.32154,4.05762-.95141,2.79474-1.89843,5.59332-2.72784,8.42731-1.11261,3.80182-2.1637,7.75348-1.93952,11.74554a47.56272,47.56272,0,0,1,.07624,9.168c-.40491,2.86322-2.38269,5.15808-4.54773,6.92542-1.29883,1.06024.553,2.89288,1.84131,1.8413a16.8149,16.8149,0,0,0,3.57544-3.93933c2.02636.73713,4.22613,2.04743,4.1875,4.39545-.049,2.97839-2.89234,5.67658-4.8581,7.60809a75.2746,75.2746,0,0,1-6.29809,5.63739c-2.25092,1.76044-4.99085,3.63782-7.92066,3.90058C36.03442,166.87744,33.85473,164.30426,32.725,161.40509Zm116.14264,62.513a46.6839,46.6839,0,0,1-17.74548-13.72918c-4.973-6.23615-8.94708-13.61786-10.45941-21.496a30.01265,30.01265,0,0,1,.93286-15.29c.18445-.54406.38562-1.08191.5993-1.61511.02173-.05426.10553-.25513.1261-.305.014-.03076.16223-.37048.21424-.48633q.68352-1.523,1.49969-2.982c3.49451-6.26954,8.86-11.81928,15.96881-13.72675,9.45306-2.5365,19.26428,1.7868,25.39642,9.04218a30.41654,30.41654,0,0,1,3.57435,5.35961,23.382,23.382,0,0,0-9.60566,10.51618,22.29435,22.29435,0,0,0-1.91052,7.2243c-.15411,1.668,2.45087,1.65747,2.60394,0,.87537-9.47491,9.32544-17.75213,18.86811-18.23748,9.78509-.49762,18.61316,6.61236,22.319,15.32574a28.53607,28.53607,0,0,1,1.31469,3.84558,25.71077,25.71077,0,0,0,.68171,3.42658c.0061.02246.01452.04443.02069.06683a33.60977,33.60977,0,0,1-5.41523,23.56036,27.56566,27.56566,0,0,1-12.05139,9.59333,45.37212,45.37212,0,0,1-13.15649,2.91931C164.60351,227.69452,156.37787,227.084,148.86767,223.91809Zm23.93543,17.89472c-.01728-.02564-.18231-.24543-.225-.30475q-.39825-.55326-.75128-1.13739a14.45447,14.45447,0,0,1-1.41589-3.07385,13.03458,13.03458,0,0,1-.109-7.54731,54.14645,54.14645,0,0,0,14.9165-2.82385q-5.90616,7.7352-12.19049,15.16779Q172.914,241.95437,172.8031,241.81281Zm-70.6966,38.34076a27.81868,27.81868,0,0,1-4.26819-8.58612,30.20388,30.20388,0,0,1-.741-10.31342,25.10478,25.10478,0,0,1,12.89093-20.03986,27.50582,27.50582,0,0,1,23.93487-.41534c7.54352,3.542,12.95508,10.95428,16.63129,18.22632a46.65818,46.65818,0,0,1,2.49231,5.94134,1.31675,1.31675,0,0,0,2.17609.57453,400.68494,400.68494,0,0,0,34.91973-40.83112,28.71416,28.71416,0,0,0,6.98523-5.321,33.81216,33.81216,0,0,0,8.9278-21.62445,38.20864,38.20864,0,0,0,5.625,7.93121,31.85765,31.85765,0,0,0,13.42505,8.47308q-18.87983,25.92408-39.53577,50.48658-11.10269,13.19229-22.69665,25.96038-5.46442,6.018-11.0354,11.93824-2.797,2.97234-5.62031,5.91986c-1.70855,1.78363-3.35247,3.79126-5.22918,5.39746-1.89789,1.62433-4.235,1.31085-6.16907-.01819-2.27258-1.56165-4.48529-3.21643-6.63916-4.93774a123.08567,123.08567,0,0,1-10.14581-9.065A128.32625,128.32625,0,0,1,102.1065,280.15357Zm61.123,13.92358q8.19763-8.98425,16.16028-18.179,7.63174-8.82366,15.02942-17.84613,14.30219,7.22489,28.60437,14.44989-1.43675,3.17953-2.87348,6.35914c-.23669-.08008-.4646-.17872-.7044-.2519a21.36964,21.36964,0,0,0-17.16541,1.84235,22.13713,22.13713,0,0,0-10.03333,13.45666q-5.17932-.07782-10.48065-.08276Q172.28884,293.82544,163.22949,294.07715Z"/><path d="M219.17437,106.75342c-.05-8.06311-2.9627-17.93829-10.641-21.95911a12.08622,12.08622,0,0,0-10.10858-.60376,17.25055,17.25055,0,0,0-8.25665,7.6742c-4.57422,7.98138-4.90637,18.56994-1.36261,26.99048,2.83453,6.73535,9.33581,13.1,17.22552,10.86657C215.46582,127.051,219.12036,115.46985,219.17437,106.75342Zm-11.70654,19.57666c-6.13232,3.39233-12.21277-.8681-15.21692-6.29657-3.93438-7.10931-4.19092-16.36566-1.26684-23.874,2.24041-5.75269,7.67041-11.8501,14.48742-9.82593,3.47882,1.033,6.09851,3.91632,7.82825,6.99151a27.70327,27.70327,0,0,1,3.27063,13.42835C216.52642,113.84583,214.1466,122.63544,207.46783,126.33008Z"/><path d="M180.09948,130.88a7.9077,7.9077,0,0,1-5.63671-.74775,6.326,6.326,0,0,1-2.92408-3.08465,1.44122,1.44122,0,0,0-.06646-.19849,4.70434,4.70434,0,0,1-.25959-1.13769,5.68923,5.68923,0,0,1,.607-3.04029,8.70053,8.70053,0,0,1,.65179-1.09045c.04169-.05945.08509-.11743.12732-.17658l.001-.00109c.06671-.07862.1308-.15906.2-.23566a5.883,5.883,0,0,1,2.66473-1.66644,6.3268,6.3268,0,0,1,2.38416-.33295,7.57261,7.57261,0,0,1,3.65832,1.051,6.8765,6.8765,0,0,1,1.65571,1.2276c1.2091,1.16077,3.053-.678,1.8413-1.84124a10.96713,10.96713,0,0,0-5.51165-2.81891,31.90506,31.90506,0,0,0-1.41767-23.565c-2.79693-5.718-8.32416-10.73206-15.09875-9.74579-6.86084.99878-11.28321,7.55975-13.21057,13.70428a31.78557,31.78557,0,0,0,1.88592,23.71912,18.041,18.041,0,0,0,7.59,7.94122,12.20294,12.20294,0,0,0,10.41607.217,9.046,9.046,0,0,0,2.88385,2.96326,10.56349,10.56349,0,0,0,8.25061,1.37042A1.30313,1.30313,0,0,0,180.09948,130.88ZM154.56231,120.7616c-3.63195-6.02338-4.42492-13.74591-2.91211-20.54047,1.23243-5.53564,4.42768-12.03137,10.27045-13.84662,5.53839-1.7207,10.42914,2.08008,13.103,6.65845,4.07776,6.98242,4.41369,16.03345,1.767,23.594a8.8769,8.8769,0,0,0-5.43763,2.3039,8.98486,8.98486,0,0,0-2.752,5.92908,7.09509,7.09509,0,0,0,.1344,1.7575C163.09912,129.16205,157.602,125.80267,154.56231,120.7616Z"/><path d="M193.47815,135.09436c-1.78327-1.0155-4.80494-2.41095-6.72608-.97381l-.01477.01348a1.43218,1.43218,0,0,0-.24872.19007,3.1069,3.1069,0,0,0-.84759,2.1662,20.20411,20.20411,0,0,1-.48847,3.71191c-.55841,2.09589-1.70721,3.9787-2.27215,6.08673a13.1233,13.1233,0,0,0-.00012,7.81281,9.46481,9.46481,0,0,0,5.18969,5.39148,9.96127,9.96127,0,0,0,12.22229-3.52179c2.49823-3.8244,1.727-9.90253-.1167-13.84919A16.16981,16.16981,0,0,0,193.47815,135.09436Zm-4.0846,22.14807a6.99081,6.99081,0,0,1-2.57123-1.72314l.04615-.12287c.00976-.02612.01373-.0382.0191-.05358.011-.02161.02313-.04566.04236-.08545.205-.42389.41632-.84058.66076-1.24378a9.26917,9.26917,0,0,1,2.619-2.88983,8.14,8.14,0,0,1,8.97364-.05518,10.22593,10.22593,0,0,1-.42182,2.11036C197.5213,156.94232,192.947,158.65827,189.39355,157.24243Z"/><path d="M214.0238,133.3086c-2.89557,0-2.90033,4.5,0,4.5C216.91931,137.8086,216.92413,133.3086,214.0238,133.3086Z"/><path d="M221.25183,129.06049c-2.89551,0-2.90033,4.5,0,4.5C224.1474,133.56049,224.15216,129.06049,221.25183,129.06049Z"/><path d="M220.37671,137.1582c-2.89557,0-2.90033,4.5,0,4.5C223.27221,141.6582,223.277,137.1582,220.37671,137.1582Z"/><path d="M150.18335,140.18927c-2.89557,0-2.90033,4.5,0,4.5C153.07885,144.68927,153.08368,140.18927,150.18335,140.18927Z"/><path d="M152.046,132.01483c-2.89557,0-2.90033,4.5,0,4.5C154.94153,136.51483,154.94635,132.01483,152.046,132.01483Z"/><path d="M157.34124,138.20349c-2.8955,0-2.90033,4.5,0,4.5C160.23681,142.70349,160.24157,138.20349,157.34124,138.20349Z"/><path d="M159.64386,106.43262q5.37671-1.89258,10.75341-3.78522c-1.15332-6.05212-4.78308-10.4754-9.08972-10.4754-5.23419,0-9.47735,6.52832-9.47735,14.58142,0,8.053,4.24316,14.58136,9.47735,14.58136,4.054,0,7.5036-3.92352,8.85761-9.43109Q164.90445,109.16819,159.64386,106.43262Z"/><path d="M199.37371,92.172c-5.23413,0-9.47729,6.52832-9.47729,14.58142,0,8.053,4.24316,14.58136,9.47729,14.58136,4.05884,0,7.51172-3.93292,8.86231-9.45081q-5.24159-2.72571-10.4834-5.45135l10.71314-3.77106C207.31537,96.6023,203.68365,92.172,199.37371,92.172Z"/><path d="M225.28241,94.32636a12.71285,12.71285,0,0,0,.62506-6.66352c-1.25318-6.65283-7.97693-9.8056-10.00934-10.75854a21.876,21.876,0,0,0-13.16791-1.56818,26.36116,26.36116,0,0,1,22.55219,18.99024Z"/><path d="M151.67688,80.49005a26.60787,26.60787,0,0,1,13.05725-5.15393,21.87583,21.87583,0,0,0-13.16785,1.56818c-2.03241.95294-8.75622,4.10571-10.00934,10.75854a12.71285,12.71285,0,0,0,.62506,6.66352A26.86264,26.86264,0,0,1,151.67688,80.49005Z"/></g></svg>