<svg xmlns="http://www.w3.org/2000/svg" viewBox="0 0 245.88817 230.00476"><g id="Personaje"><path d="M147.23574,61.04c-1.35632.64834-10.36047,4.77052-19.95031.43931a23.38479,23.38479,0,0,1-10.58912-9.794A62.91882,62.91882,0,0,0,75.63845,74.5381c-12.60046,15.68421-13.5404,32.90268-13.813,39.65105a74.37858,74.37858,0,0,0,6.74036,33.80643q1.25208,2.88516,2.50427,5.77035a26.26517,26.26517,0,0,1,13.38221-.94835c13.00415,2.569,18.96374,14.60393,19.725,16.20583a22.39718,22.39718,0,0,1,10.9906-2.13236c14.35974,1.02216,21.56116,16.68467,21.88233,17.41175A26.86638,26.86638,0,0,1,165.97769,158.973a21.61964,21.61964,0,0,1,16.88049-21.496c-.93213-1.14366-6.53259-8.25238-4.99121-17.99855a22.929,22.929,0,0,1,7.14416-13.14654,29.97972,29.97972,0,0,1-8.9021-15.20552,29.65923,29.65923,0,0,1,.21351-14.05967A29.62112,29.62112,0,0,1,147.23574,61.04Z" fill="#f5c92b"/><ellipse cx="137.85439" cy="108.26583" rx="15.05146" ry="22.10802" fill="#f7f5f6"/><path d="M112.81545,119.31009a31.33037,31.33037,0,0,0,1.884-14.17311c-.32129-3.10411-1.14527-11.06468-7.17737-15.87523a12.56986,12.56986,0,0,0-7.70642-3.121,11.34619,11.34619,0,0,0-5.35376,1.33848c-5.829,2.95548-9.6593,11.64745-9.76465,19.76471-.10388,7.99893,3.35071,19.96283,12.17151,22.62718a14.58008,14.58008,0,0,0,8.569-.258,8.13153,8.13153,0,0,1,1.14185-7.428A7.9806,7.9806,0,0,1,112.81545,119.31009Z" fill="#f7f5f6"/><path d="M244.904,104.62247A46.65288,46.65288,0,0,0,239.01,84.85814c-2.39942-4.265-14.86194-24.82248-35.36316-24.15108a38.30434,38.30434,0,0,0-9.24842,1.535,37.46778,37.46778,0,0,0,2.67835-5.96785c6.58813-19.42553-9.47119-37.31472-12.85669-40.84784A46.6661,46.6661,0,0,0,167.0148,4.05342a48.20115,48.20115,0,0,0-22.26453-2.27974c-6.69836.85876-16.88843,2.16505-24.577,10.44371a32.02059,32.02059,0,0,0-8.02368,18.44349q-.41143-1.9042-.82336-3.80846a35.8086,35.8086,0,0,0-11.28113-13.77068C90.3146,6.04431,79.791,6.36039,74.16421,6.50331a48.199,48.199,0,0,0-21.65759,5.64444A46.66173,46.66173,0,0,0,37.23452,26.0086c-3.07678,4.391-15.94751,24.39631-6.48486,42.32957a36.873,36.873,0,0,0,5.58069,7.49641,27.75,27.75,0,0,0-9.589,1.1541C11.15017,81.7905,3.77542,99.96529,1.84536,111.83141A46.66009,46.66009,0,0,0,3.1105,132.41692a48.19659,48.19659,0,0,0,11.57251,19.157c4.358,4.46771,11.53515,11.884,23.12707,13.34979,2.62635.33209,13.64991,1.72607,22.74756-5.74989a27.37228,27.37228,0,0,0,8.00818-11.17824,76.21458,76.21458,0,0,1,.947-64.7497A31.1439,31.1439,0,0,1,59.38125,85.1377a29.19466,29.19466,0,0,0,11.4469-3.75337,63.95236,63.95236,0,0,1,45.86816-29.69909l-.00061-.00212c4.971,7.65291,13.73108,12.914,22.74219,11.9323A20.188,20.188,0,0,0,147.23574,61.04c5.8949,11.0435,17.26306,17.21885,28.122,15.67805.72254-.10263,1.417-.24591,2.09766-.40829-4.16,9.82632-1.46411,22.0888,7.17517,30.71366h.00036a20.19145,20.19145,0,0,0-4.72656,6.71576c-3.31213,7.77423-1.3667,16.91106,3.67737,23.76664-7.09936,1.93263-13.37122,6.6154-16.14624,13.38548a20.19153,20.19153,0,0,0-1.45776,8.08172c-12.51807-.08964-23.36975,6.95359-27.19776,17.23151a22.5295,22.5295,0,0,0-1.32617,9.93893c-.01269-.04663-.02331-.0935-.03625-.14028-3.059-11.1225-13.87781-20.27863-25.37537-19.342a20.19006,20.19006,0,0,0-7.86487,2.36227c-5.5918-11.19991-16.78784-17.68259-27.68457-16.438-15.27515,1.745-21.47607,17.70477-22.26745,19.84506-7.11487,19.23871,8.45129,37.55854,11.73962,41.18265a46.65847,46.65847,0,0,0,16.8894,11.837,48.19563,48.19563,0,0,0,22.1941,2.88516c6.71911-.6759,16.94091-1.70444,24.85192-9.77069,6.32569-6.44986,9.83826-16.57657,8.56995-27.18064a37.12267,37.12267,0,0,0,7.911,13.663c13.92676,15.05981,37.31152,9.484,42.032,8.19467a46.664,46.664,0,0,0,18.20508-9.69269,48.20225,48.20225,0,0,0,12.62818-18.47781c2.44177-6.29624,6.15649-15.87454,2.55041-26.58167A29.77459,29.77459,0,0,0,216.713,149.365a28.88465,28.88465,0,0,0,6.79272-2.28251c10.15271-4.9569,14.35828-14.33,17.12293-20.49135A48.19359,48.19359,0,0,0,244.904,104.62247Z" fill="#fc95bb"/><path d="M154.19448,108.21894c-.04992-8.05054-2.95825-17.9101-10.62439-21.92463a12.06837,12.06837,0,0,0-10.0935-.603,17.2243,17.2243,0,0,0-8.24439,7.66247,27.69477,27.69477,0,0,0-2.72558,6.7536,7.62346,7.62346,0,0,0-2.51026,2.17249,7.7436,7.7436,0,0,0-1.27417,5.337,10.164,10.164,0,0,0,3.26148,6.219,30.38172,30.38172,0,0,0,1.88818,6.4657c2.8302,6.72516,9.32178,13.07983,17.19946,10.84985C150.49148,128.48474,154.14053,116.92194,154.19448,108.21894Zm-11.69043,19.54241c-6.12109,3.38611-12.19018-.867-15.18884-6.2854a24.91514,24.91514,0,0,1-2.08569-5.06378,27.78064,27.78064,0,0,0,5.751,2.75592c.584-.21905,7.61829-2.94482,10.8219-7.53949l-7.58862-3.31384q4.42218-1.95447,8.84436-3.90893a6.82555,6.82555,0,0,0-.40674-1.02747c-.166-.33051-1.98559-3.82428-5.4414-3.89917a6.56742,6.56742,0,0,0-6.1626,5.05646,6.69885,6.69885,0,0,0-5.63989-5.02c.1958-.63324.4049-1.26044.64331-1.87256,2.2362-5.74207,7.65625-11.82855,14.46069-9.80811,3.47266,1.03107,6.0874,3.90931,7.814,6.979a27.65449,27.65449,0,0,1,3.265,13.405C151.54666,115.29889,149.17117,124.07318,142.50405,127.76135Z"/><path d="M245.76321,105.32782c-.69519-14.92767-9.22009-29.46765-21.05493-38.428a35.53875,35.53875,0,0,0-13.24976-6.40527,34.17783,34.17783,0,0,0-14.97607.102A32.58522,32.58522,0,0,0,199.75173,46.444c-.06433-9.5354-4.31591-18.639-9.92871-26.1629A50.95509,50.95509,0,0,0,170.79617,4.29962,47.35689,47.35689,0,0,0,147.43765.19226c-10.27185.72815-21.02393,3.264-28.27552,11.08991a32.23877,32.23877,0,0,0-7.668,14.91809,33.215,33.215,0,0,0-9.6139-13.05731A36.1032,36.1032,0,0,0,84.86819,5.82263,55.87235,55.87235,0,0,0,60.189,7.50019a46.31536,46.31536,0,0,0-24.3219,17.29455,59.733,59.733,0,0,0-8.75281,18.97412c-2.10376,7.6073-2.03491,15.62946,1.335,22.87a32.095,32.095,0,0,0,5.31348,7.94494,30.67742,30.67742,0,0,0-18.07007,7.741C11.30374,86.29883,8.28726,91.40711,5.668,96.65186c-5.098,10.20855-7.01587,21.51373-4.41589,32.669a54.98315,54.98315,0,0,0,13.88831,24.92139c7.13989,7.50665,16.71508,12.71515,27.298,12.21216a36.07876,36.07876,0,0,0,16.0874-4.44013c-.08606.11133-.17688.2179-.26159.33045a34.16965,34.16965,0,0,0-7.11145,19.16876c-.34729,9.68561,3.68664,19.12152,9.12316,26.95032a50.62364,50.62364,0,0,0,18.78479,16.70227,47.6922,47.6922,0,0,0,23.24878,4.67114c10.34217-.45618,21.04651-2.67877,28.47254-10.45148a33.822,33.822,0,0,0,8.92944-21.68109c.40576.76886.83008,1.52961,1.29346,2.27021a33.36971,33.36971,0,0,0,18.26526,14.40838c7.88562,2.51056,16.47229,2.37586,24.545.90027a49.63637,49.63637,0,0,0,21.79675-9.661A47.45773,47.45773,0,0,0,219.47317,187.127a57.04232,57.04232,0,0,0,4.68188-15.95136,30.51323,30.51323,0,0,0-3.14135-17.49811,31.52688,31.52688,0,0,0-2.07617-3.44378,30.30078,30.30078,0,0,0,12.92932-7.83661,43.72056,43.72056,0,0,0,7.66906-11.31891C243.49075,123.0658,246.18362,114.35211,245.76321,105.32782ZM118.50137,16.28015a27.77562,27.77562,0,0,1,12.0697-9.863,47.46319,47.46319,0,0,1,12.54541-3.14557c8.009-1.08478,16.28149-.69855,23.88831,2.21789a45.86411,45.86411,0,0,1,18.274,13.23285c5.06311,5.94941,9.21131,12.99561,11.00672,20.6471a30.52629,30.52629,0,0,1-2.44446,20.69934c-3.22815,6.43207-8.36084,12.28137-15.41431,14.48633-9.33569,2.91833-19.32812-.9328-25.75683-7.94611a30.67707,30.67707,0,0,1-3.83106-5.25592,23.62714,23.62714,0,0,0,9.07947-10.68115,21.87932,21.87932,0,0,0,1.70667-7.4516c.08605-1.67481-2.51819-1.67017-2.604,0-.49,9.54614-8.6239,18.27411-18.23608,19.05926-9.94556.8125-19.12818-6.17291-23.05615-14.98864A33.19375,33.19375,0,0,1,118.50137,16.28015Zm58.09375,108.81208a28.48214,28.48214,0,0,0,4.22815,11.6748A25.92735,25.92735,0,0,0,168.813,145.4079a21.27826,21.27826,0,0,0-4.22412,12.08441c-10.00708.35376-19.92236,5.14624-25.16968,13.91388a23.53522,23.53522,0,0,0-3.15173,9.02411c-3.6864-7.06262-10.24194-12.72687-18.10217-14.37811a21.75747,21.75747,0,0,0-13.22608,1.44879c-4.81738-9.04053-13.80322-15.88233-24.23266-16.50739a23.33762,23.33762,0,0,0-8.70777,1.13678,1.37818,1.37818,0,0,0-.13208-.37817c-.71826-1.34882-1.37866-2.72192-2.00842-4.10681a1.03491,1.03491,0,0,0-.15881-.34723,77.24942,77.24942,0,0,1-6.03394-40.86755,62.44008,62.44008,0,0,1,8.56812-25.12983A58.44739,58.44739,0,0,1,94.96,60.2334a64.95129,64.95129,0,0,1,20.65893-6.66083,1.13353,1.13353,0,0,0,.61914-.28064,26.75812,26.75812,0,0,0,16.905,11.28308,21.76626,21.76626,0,0,0,13.42932-1.9458c5.18006,8.81421,14.40564,15.31189,24.84192,15.518a23.61289,23.61289,0,0,0,3.3617-.17334c-2.275,10.18054,1.4486,20.69281,8.39123,28.286A22.14121,22.14121,0,0,0,176.59512,125.09223ZM68.67727,151.19293c.30847.61823.60559,1.24183.93042,1.85224a25.9293,25.9293,0,0,0-2.8479,1.49591c.22559-.32874.4563-.65247.6665-.99622A23.44507,23.44507,0,0,0,68.67727,151.19293ZM28.82315,47.87226a56.98882,56.98882,0,0,1,7.339-18.83606,43.47086,43.47086,0,0,1,20.07593-17.34,52.59962,52.59962,0,0,1,23.7732-3.81317,37.46484,37.46484,0,0,1,16.16967,4.506A30.48379,30.48379,0,0,1,109.1802,27.304a37.72852,37.72852,0,0,1,1.32727,3.81384,1.34324,1.34324,0,0,0,.20325.41016,37.75054,37.75054,0,0,0,1.02734,12.04449,29.52165,29.52165,0,0,0,3.07813,7.50812A65.362,65.362,0,0,0,82.72647,65.34265a1.31926,1.31926,0,0,0-.32288-.23523A20.97375,20.97375,0,0,1,70.903,45.69605c.09106-1.6745-2.51318-1.66938-2.60388,0-.4773,8.773,4.70459,17.29651,12.36987,21.42492a59.75636,59.75636,0,0,0-8.397,9.4198,57.664,57.664,0,0,0-3.45056,5.45331,28.54282,28.54282,0,0,1-21.96717-1.10534A33.131,33.131,0,0,1,32.45974,68.55988,28.56751,28.56751,0,0,1,28.82315,47.87226ZM19.266,154.65332A53.64473,53.64473,0,0,1,5.40859,134.15094a44.03365,44.03365,0,0,1,.00818-30.42254A56.31088,56.31088,0,0,1,13.78982,88.191,28.49014,28.49014,0,0,1,30.88259,77.56366a30.62116,30.62116,0,0,1,5.3606-.49811C43.66067,83.78791,54.011,87.517,63.80593,86.012a28.05917,28.05917,0,0,0,3.32154-.72766,71.63176,71.63176,0,0,0-6.65613,31.37976,23.42712,23.42712,0,0,0-20.43067,3.8836c-1.32275,1.02521.53211,2.8559,1.84131,1.84125,5.24707-4.06671,12.40052-4.89307,18.651-2.9917.06543,1.66394.16675,3.32471.33033,4.975a76.92287,76.92287,0,0,0,6.30932,23.629c-3.54175,9.82647-13.15759,14.83471-23.13171,15.73785C34.70681,164.58441,26.07669,160.93866,19.266,154.65332Zm112.23938,59.761a27.565,27.565,0,0,1-12.05127,9.59332,45.37334,45.37334,0,0,1-13.1565,2.91931c-8.04.76435-16.26562.15381-23.77588-3.01208a46.6839,46.6839,0,0,1-17.74536-13.72919c-4.973-6.23614-8.947-13.61792-10.45947-21.496a30.01407,30.01407,0,0,1,.93286-15.29c.18457-.54407.38562-1.08191.59937-1.61511.02172-.05426.10547-.25513.126-.305.014-.03077.16236-.37049.21436-.48633q.68353-1.523,1.49975-2.982c3.49439-6.26959,8.85987-11.81927,15.96875-13.72674,9.45313-2.5365,19.26429,1.7868,25.39637,9.04211a30.40766,30.40766,0,0,1,3.57434,5.35968A23.38317,23.38317,0,0,0,93.023,179.20246a22.29865,22.29865,0,0,0-1.9104,7.2243c-.15405,1.668,2.45081,1.65747,2.604,0,.87524-9.47491,9.32544-17.75214,18.868-18.23749,9.785-.49768,18.61316,6.61237,22.319,15.32569a28.91265,28.91265,0,0,1,1.62695,5.19189c.06714.35962.13379.719.2146,1.07684A33.60714,33.60714,0,0,1,131.5054,214.41437Zm90.2135-48.58368c.30749,5.50861-1.04663,10.85223-2.93714,15.98224-2.82837,7.6745-6.93811,14.8847-13.10058,20.37353a44.93136,44.93136,0,0,1-19.22339,9.88019c-13.92542,3.37348-30.62634,2.2873-40.3833-9.47686a33.557,33.557,0,0,1-6.80982-13.019c-.126-.76672-.27075-1.52954-.44372-2.285-.00891-.03894-.02185-.07709-.03089-.116a21.47409,21.47409,0,0,1,.07007-7.01361c1.79444-9.8446,10.09839-16.97333,19.55664-19.25531a30.6754,30.6754,0,0,1,6.22925-.80914,24.0603,24.0603,0,0,0,5.19043,13.24377,21.52346,21.52346,0,0,0,5.56885,4.86914c1.43384.876,2.74365-1.37512,1.31421-2.24847a20.774,20.774,0,0,1-8.30908-24.60486c3.44067-8.7522,13.12072-13.66345,22.17138-13.7196,9.84632-.06116,19.896,5.46942,25.67884,13.33661A27.73426,27.73426,0,0,1,221.7189,165.83069Zm16.88025-38.8255a51.40444,51.40444,0,0,1-7.05933,11.88452,28.231,28.231,0,0,1-14.31494,9.10864,36.673,36.673,0,0,0-21.562-12.52966,29.10871,29.10871,0,0,0-12.24317.51569c-3.90747-5.93817-5.687-13.41083-3.368-20.29962a20.27794,20.27794,0,0,1,13.51807-12.5177,19.713,19.713,0,0,1,10.62317-.2486,1.30307,1.30307,0,0,0,.69214-2.51093,23.3464,23.3464,0,0,0-19.731,4.16828c-6.675-7.24762-10.22974-17.40058-7.58325-27.13251a27.79969,27.79969,0,0,0,15.97143-11.71295c.55872-.82086,1.08264-1.66541,1.57691-2.52661a1.24027,1.24027,0,0,0,.965.1391A30.00553,30.00553,0,0,1,221.209,67.60108a50.86918,50.86918,0,0,1,14.21155,14.811,46.61625,46.61625,0,0,1,7.62854,21.28278A46.3723,46.3723,0,0,1,238.59915,127.00519Z"/><path d="M115.8738,134.81439a1.3031,1.3031,0,0,0-.69226-2.51092,7.89333,7.89333,0,0,1-5.62573-.74634,6.31292,6.31292,0,0,1-2.91894-3.0805,1.43537,1.43537,0,0,0-.06556-.19544,4.70237,4.70237,0,0,1-.25915-1.13568,5.67668,5.67668,0,0,1,.60571-3.03418,8.679,8.679,0,0,1,.65076-1.08862c.04138-.05908.08447-.11682.12646-.1756l.00122-.00134c.06665-.07849.13062-.15882.19971-.23523a5.871,5.871,0,0,1,2.6593-1.66321,6.30829,6.30829,0,0,1,2.37976-.33228,7.55755,7.55755,0,0,1,3.65113,1.049,6.85645,6.85645,0,0,1,1.65258,1.22522c1.209,1.16077,3.053-.678,1.84119-1.8413a10.95016,10.95016,0,0,0-5.5011-2.81427,31.85486,31.85486,0,0,0-1.41638-23.52552c-2.79285-5.70941-8.31189-10.71545-15.07617-9.73065-6.85022.99732-11.26575,7.548-13.19031,13.68317q-.22266.70989-.41113,1.434a7.61132,7.61132,0,0,0-2.53418,2.18524,7.74335,7.74335,0,0,0-1.27405,5.337,10.15614,10.15614,0,0,0,3.25256,6.21015,29.14555,29.14555,0,0,0,2.84986,8.5152,18.01349,18.01349,0,0,0,7.57825,7.92877,12.185,12.185,0,0,0,10.39917.21759,9.03372,9.03372,0,0,0,2.87878,2.95746A10.54749,10.54749,0,0,0,115.8738,134.81439ZM89.68911,122.20288a24.3863,24.3863,0,0,1-2.504-5.79,27.77563,27.77563,0,0,0,5.74988,2.75525c.58386-.21905,7.61829-2.94482,10.8219-7.53949l-7.58862-3.31384q4.422-1.95447,8.84424-3.90893a6.82911,6.82911,0,0,0-.40674-1.02747c-.166-.33051-1.9856-3.82428-5.44141-3.89917a6.56765,6.56765,0,0,0-6.1626,5.05646,6.699,6.699,0,0,0-5.64025-5.02008c1.52258-4.94422,4.59533-10.06232,9.67248-11.63971,5.52832-1.71753,10.40991,2.07647,13.07886,6.64642,4.07055,6.96991,4.40588,16.00464,1.7644,23.55182a8.86415,8.86415,0,0,0-5.42859,2.3006,8.97243,8.97243,0,0,0-2.74817,5.92077,7.09437,7.09437,0,0,0,.134,1.7533C98.209,130.58753,92.72293,127.23413,89.68911,122.20288Z"/><path d="M125.25393,138.15924a10.11364,10.11364,0,0,0-2.23718,1.15064,38.21377,38.21377,0,0,1-4.42908,2.19726c-1.20044.49988-2.44116.87262-3.65454,1.33411a3.81086,3.81086,0,0,0-1.70752,1.13055,1.28648,1.28648,0,0,0-.25781.35755,1.39585,1.39585,0,0,0-.1294.33722,6.545,6.545,0,0,0,.575,4.94055,18.286,18.286,0,0,0,3.76855,5.35339c2.49243,2.4986,6.73706,4.95209,9.54211,1.49829,2.42615-2.98706,2.91016-7.61474,2.77967-11.32177C129.42556,142.916,128.83084,137.16986,125.25393,138.15924Z"/><path d="M146.22219,134.77936c-2.8955,0-2.90039,4.5,0,4.5C149.1177,139.27936,149.12246,134.77936,146.22219,134.77936Z"/><path d="M153.67,129.96c-2.89551,0-2.90027,4.5,0,4.5C156.56545,134.46,156.57034,129.96,153.67,129.96Z"/><path d="M152.33328,137.98072c-2.89563,0-2.90039,4.5,0,4.5C155.22879,142.48072,155.23355,137.98072,152.33328,137.98072Z"/><path d="M81.90457,137.225c-2.89551,0-2.90027,4.5,0,4.5C84.80007,141.725,84.805,137.225,81.90457,137.225Z"/><path d="M87.70449,131.19007c-2.8955,0-2.90027,4.5,0,4.5C90.60012,135.69007,90.60476,131.19007,87.70449,131.19007Z"/><path d="M89.05007,139.20941c-2.8955,0-2.90026,4.5,0,4.5C91.94558,143.70941,91.95046,139.20941,89.05007,139.20941Z"/><path d="M91.73428,79.8244a26.60884,26.60884,0,0,1,13.95349-1.53485,21.87615,21.87615,0,0,0-13.11621-1.95349c-2.21167.38434-9.5282,1.65589-12.48853,7.7442a12.71387,12.71387,0,0,0-1.15112,6.593A26.8631,26.8631,0,0,1,91.73428,79.8244Z"/><path d="M144.77749,76.33606a21.87658,21.87658,0,0,0-13.11633,1.95349A26.36086,26.36086,0,0,1,158.417,90.67328a12.71265,12.71265,0,0,0-1.15113-6.593C154.30569,77.992,146.989,76.7204,144.77749,76.33606Z"/></g></svg>