<svg xmlns="http://www.w3.org/2000/svg" viewBox="0 0 330.64297 330.07353"><g id="Personaje"><path d="M213.55333,61.04873c-1.35632.64834-10.36047,4.77052-19.95031.43931a23.38484,23.38484,0,0,1-10.58912-9.794A62.91869,62.91869,0,0,0,141.956,74.54687c-12.60046,15.6842-13.5404,32.90267-13.813,39.651a74.37846,74.37846,0,0,0,6.74035,33.80643q1.25208,2.88517,2.50427,5.77035a26.26519,26.26519,0,0,1,13.38221-.94834c13.00415,2.569,18.96374,14.60392,19.725,16.20582a22.39719,22.39719,0,0,1,10.9906-2.13235c14.35974,1.02215,21.56116,16.68466,21.88233,17.41174a26.8664,26.8664,0,0,1,28.92749-25.3298,21.61964,21.61964,0,0,1,16.88049-21.496c-.93213-1.14366-6.53259-8.25238-4.99121-17.99855a22.929,22.929,0,0,1,7.14416-13.14654,29.97972,29.97972,0,0,1-8.9021-15.20552,29.65924,29.65924,0,0,1,.21351-14.05967,29.62112,29.62112,0,0,1-29.0868-16.02671Z" fill="#f5c92b"/><path d="M179.12331,116.87777a31.33037,31.33037,0,0,0,1.884-14.17311c-.32129-3.10411-1.14527-11.06468-7.17737-15.87523a12.56986,12.56986,0,0,0-7.70642-3.121A11.34619,11.34619,0,0,0,160.7698,85.047c-5.829,2.95548-9.6593,11.64745-9.76465,19.76471-.10388,7.99893,3.35071,19.96283,12.17151,22.62718a14.58,14.58,0,0,0,8.569-.258,8.13151,8.13151,0,0,1,1.14184-7.428A7.98063,7.98063,0,0,1,179.12331,116.87777Z" fill="#f7f5f6"/><path d="M311.22155,104.63123a46.65288,46.65288,0,0,0-5.89392-19.76433c-2.39942-4.265-14.86194-24.82248-35.36316-24.15107a38.30412,38.30412,0,0,0-9.24842,1.535A37.46778,37.46778,0,0,0,263.3944,56.283c6.58813-19.42553-9.47119-37.31472-12.85669-40.84784A46.6661,46.6661,0,0,0,233.33239,4.06218a48.20106,48.20106,0,0,0-22.26453-2.27973c-6.69836.85875-16.88843,2.165-24.577,10.44371a32.02053,32.02053,0,0,0-8.02368,18.44348q-.41144-1.90421-.82336-3.80846A35.8086,35.8086,0,0,0,166.36266,13.0905c-9.73047-7.03742-20.254-6.72135-25.88086-6.57843a48.19909,48.19909,0,0,0-21.65759,5.64444,46.66173,46.66173,0,0,0-15.2721,13.86085c-3.07678,4.391-15.94751,24.39631-6.48486,42.32957a36.873,36.873,0,0,0,5.58069,7.49641,27.75,27.75,0,0,0-9.589,1.1541C77.46776,81.79926,70.093,99.97405,68.163,111.84017a46.66009,46.66009,0,0,0,1.26514,20.58551,48.19659,48.19659,0,0,0,11.57251,19.157c4.358,4.46771,11.53516,11.884,23.12707,13.34979,2.62635.33209,13.64991,1.72607,22.74756-5.74989a27.37228,27.37228,0,0,0,8.00818-11.17824,76.21458,76.21458,0,0,1,.947-64.7497,31.14384,31.14384,0,0,1-10.13159,1.89182,29.1945,29.1945,0,0,0,11.4469-3.75337A63.95232,63.95232,0,0,1,183.0139,51.694l-.00061-.00213c4.97095,7.65291,13.73108,12.914,22.74219,11.9323a20.18787,20.18787,0,0,0,7.79785-2.57545c5.8949,11.0435,17.26307,17.21885,28.122,15.67805.72254-.10263,1.417-.24591,2.09766-.40829-4.16,9.82632-1.46411,22.0888,7.17517,30.71367h.00037a20.1912,20.1912,0,0,0-4.72657,6.71575c-3.31213,7.77424-1.3667,16.91106,3.67737,23.76664C242.79992,139.44718,236.52807,144.13,233.753,150.9a20.19154,20.19154,0,0,0-1.45776,8.08173c-12.51807-.08965-23.36975,6.95358-27.19776,17.2315a22.52955,22.52955,0,0,0-1.32617,9.93894c-.01269-.04663-.02331-.09351-.03625-.14029-3.059-11.1225-13.87781-20.27863-25.37537-19.342a20.19006,20.19006,0,0,0-7.86487,2.36227c-5.59179-11.1999-16.78784-17.68259-27.68457-16.438-15.27514,1.745-21.47607,17.70478-22.26745,19.84506-7.11487,19.23871,8.45129,37.55854,11.73962,41.18265a46.65834,46.65834,0,0,0,16.8894,11.837A48.19563,48.19563,0,0,0,171.366,228.344c6.71911-.6759,16.94091-1.70444,24.85192-9.77069,6.32569-6.44986,9.83826-16.57657,8.57-27.18063a37.1226,37.1226,0,0,0,7.911,13.663c13.92676,15.05981,37.31152,9.484,42.032,8.19467a46.66388,46.66388,0,0,0,18.20508-9.69269,48.202,48.202,0,0,0,12.62818-18.47781c2.44177-6.29623,6.15649-15.87454,2.55041-26.58166a29.77452,29.77452,0,0,0-5.08386-9.12446,28.88465,28.88465,0,0,0,6.79272-2.28251c10.15271-4.9569,14.35828-14.33,17.12293-20.49135A48.19357,48.19357,0,0,0,311.22155,104.63123Z" fill="#fa8632"/><path d="M284.6943,178.09973a3.97916,3.97916,0,0,0-2.50641,1.26425c-1.70154,2.09043.07269,5.85706.31732,6.36072a15.82022,15.82022,0,0,1-6.04468,3.58582c-2.561.7983-4.1867.52258-7.43762.84283a38.57627,38.57627,0,0,0-8.56238,1.863,26.5029,26.5029,0,0,1-11.05877-1.88236c-2.22754-.91787-9.19886-4.18414-10.82355-3.2941a4.71338,4.71338,0,0,0-1.35388,1.15278,4.61043,4.61043,0,0,0-.51489.91775,14.11331,14.11331,0,0,0,1.93261,11.17889c3.90937,5.67167,11.02027,6.015,11.93616,6.04468a12.89924,12.89924,0,0,0,5.844,10.67694c-.00463.23392-.01934,5.77948,4.5636,8.53507a9.78988,9.78988,0,0,0,7.59241.90564,12.11412,12.11412,0,0,0,21.72424-9.60031,14.43729,14.43729,0,0,0,7.21631-6.585c3.187-6.21392.28668-12.34439-.05945-13.04522.25861.12652,5.10437,2.43652,7.10608.44015.16461-.16418.94861-.99438.80927-3.08819C304.82772,186.15408,291.28719,176.99118,284.6943,178.09973Z" fill="#f7f5f6"/><path d="M30.65222,160.19412c.28515.82166,2.48461,6.89288,7.33776,7.82227,2.56336.49087,4.76773-.88843,9.17649-3.647,6.58722-4.12173,9.49847-8.22851,10.92468-10.7006,1.6629-2.88231,1.71674-4.25261,1.52557-5.24723-.65216-3.39273-4.65149-4.99284-5.30883-5.2453a45.9844,45.9844,0,0,0,.50561-4.92453,59.04339,59.04339,0,0,0-.26746-7.86262,31.80876,31.80876,0,0,1,1.94074-12.2004c.91815-2.40268,3.31891-7.62532,3.89783-11.802a3.29412,3.29412,0,0,0-.18836-1.77889c-.87561-2.05345-4.03619-2.655-5.76776-2.69107-5.1944-.10835-8.86554,4.63469-9.58655,5.56624a16.52328,16.52328,0,0,0-3.32257,9.12163c-6.11911-7.16457-13.21548-11.086-18.17087-9.49541a7.74727,7.74727,0,0,0-4.601,3.34293,7.8555,7.8555,0,0,0-.39047,6.26028,7.67032,7.67032,0,0,0-6.04321,1.45049,7.68,7.68,0,0,0-2.20621,8.32406c-5.14221.25081-7.03177,2.50585-7.52942,3.17647-4.08966,5.51108,3.01218,15.61054,3.66422,16.5168.8475,1.178,3.02987,3.12285,7.39462,7.01262,6.74222,6.00851,9.29989,7.4631,12.34054,7.66739A11.77653,11.77653,0,0,0,30.65222,160.19412Z" fill="#f7f5f6"/><path d="M267.1806,269.25345a6.17744,6.17744,0,0,0-.43555-1.18317,6.84832,6.84832,0,0,0-3.3905-2.97967c-1.91156-.878-23.0509-11.64393-54.2041-27.51526q9.49675-12.22779,18.09985-24.12195A34.02776,34.02776,0,0,1,204.942,193.02017a33.12387,33.12387,0,0,1-5.3258,21.02991,32.06425,32.06425,0,0,1-10.457,9.748c-.64661.85455-1.32068,1.72149-1.9823,2.58294-.57386-.2923-1.14112-.58124-1.71924-.87573a31.23341,31.23341,0,0,1-16.056,2.74634,14.8783,14.8783,0,0,0-.48511,10.19433,14.36416,14.36416,0,0,0,3.62421,5.789c.04162.02465.08508.04931.12671.074-6.25324,7.33148-12.44629,14.12549-18.47937,20.38171a47.86036,47.86036,0,0,0-5.31391-10.90759c-2.65686-4.04517-7.08337-10.78473-14.82318-14.26379-7.80041-3.50629-19.94482-4.14075-29.08691,3.3562-10.56622,8.66467-10.98364,23.15783-7.84735,31.62091.88946,2.40033,2.49255,4.75708,5.69867,9.47046a112.68034,112.68034,0,0,0,13.20337,16.046,109.896,109.896,0,0,0,22.97107,17.59179c17.90679-18.127,36.45861-38.45153,55.07135-61.12371l.073-.08973c1.3285.71192,2.64582,1.42469,3.99628,2.13483q13.688,7.198,26.57324,13.121-2.07083,4.52738-4.14172,9.05469c-1.32166-.54211-9.48761-3.73993-17.37537.46277a19.21787,19.21787,0,0,0-7.34045,7.07886c-4.27411,6.96356-2.83228,14.10284-2.40491,16.21923.54993,2.723,1.62012,9.15369,6.34,10.97791a15.07228,15.07228,0,0,0,5.2301.70062q18.17614.28263,36.35236.56507c1.01941.0158,4.15594.56817,5.75183-1.198a3.81339,3.81339,0,0,0,.87427-1.84473C249.14575,308.11233,268.42913,274.37814,267.1806,269.25345Z" fill="#f7f5f6"/><path d="M173.364,141.13405a92.71266,92.71266,0,0,1,6.33008,8.40457,7.85966,7.85966,0,0,0,2.30475,2.39748,8.18206,8.18206,0,0,0,4.72515,1.04742,30.00417,30.00417,0,0,0,10.29148-2.39882,38.4947,38.4947,0,0,0,15.31546-10.40564c.99826-1.17621,1.90088-2.42972,2.80231-3.6817-2.70951-1.23038-4.12684-4.15491-5.93766-6.51631a.83261.83261,0,0,0-.35894-.31323c-.35947-.12323-.67652.2456-.92359.53431a14.84637,14.84637,0,0,1-3.01953,2.10065,15.57066,15.57066,0,0,0-1.99332,1.709,24.385,24.385,0,0,1-6.31485,3.63991C193.25564,139.0798,184.7825,140.93367,173.364,141.13405Z" fill="#f7f5f6"/><path d="M321.541,264.70218c-14.94116-1.77295-16.75958-3.97656-17.96008-25.45624a.2343.2343,0,0,0-.46289,0c-1.20044,21.47968-3.01892,23.68329-17.96009,25.45624a.20631.20631,0,0,0,0,.41247c14.94117,1.773,16.75965,3.97657,17.96009,25.4563a.23431.23431,0,0,0,.46289,0c1.2005-21.47973,3.01892-23.68329,17.96008-25.4563A.20631.20631,0,0,0,321.541,264.70218Z"/><path d="M33.28192,52.53207C48.22308,54.305,50.04156,56.50864,51.242,77.98831a.2343.2343,0,0,0,.46289,0C52.90539,56.50864,54.72381,54.305,69.665,52.53207a.20631.20631,0,0,0,0-.41247c-14.94116-1.773-16.75958-3.97656-17.96008-25.45624a.2343.2343,0,0,0-.46289,0C50.04156,48.143,48.22308,50.34665,33.28192,52.1196A.20631.20631,0,0,0,33.28192,52.53207Z"/><path d="M330.53894,228.714c-7.22534-.85742-8.10468-1.923-8.68524-12.3103a.11329.11329,0,0,0-.22382,0c-.58057,10.38726-1.4599,11.45288-8.68524,12.3103a.09976.09976,0,0,0,0,.19946c7.22534.85736,8.10467,1.923,8.68524,12.31024a.11329.11329,0,0,0,.22382,0c.58056-10.38727,1.4599-11.45288,8.68524-12.31024A.09976.09976,0,0,0,330.53894,228.714Z"/><path d="M76.4472,239.28244a.11332.11332,0,0,0,.22388,0c.5805-10.38727,1.45984-11.45288,8.68518-12.31024a.09977.09977,0,0,0,0-.19947c-7.22534-.85742-8.10468-1.923-8.68518-12.3103a.11332.11332,0,0,0-.22388,0c-.5805,10.38727-1.4599,11.45288-8.68524,12.3103a.09977.09977,0,0,0,0,.19947C74.9873,227.82956,75.8667,228.89517,76.4472,239.28244Z"/><path d="M256.44519,298.44009q.88229-1.90786,1.76452-3.81573,2.55332-5.52155,5.10663-11.043c1.70978-3.69739,3.58606-7.3609,5.13367-11.12866a6.03771,6.03771,0,0,0-1.88092-7.08631,31.20352,31.20352,0,0,0-4.82117-2.59051q-2.87136-1.47079-5.74261-2.94159-10.82255-5.5437-21.64515-11.0874L211.273,236.92081q6.21129-8.03166,12.25195-16.19306,2.12484-2.876,4.22418-5.77087a42.16646,42.16646,0,0,0,5.38062,1.02386,57.02616,57.02616,0,0,0,19.34356-1.16681,14.65313,14.65313,0,0,0,2.817,2.63037,12.7246,12.7246,0,0,0,.23321,1.55054,12.45039,12.45039,0,0,0,4.12153,6.89826,10.75669,10.75669,0,0,0,8.41534,2.11956l.01154-.00293q.25863.33885.54156.66285c5.60559,6.38647,15.971,5.22,20.73816-1.529a13.4768,13.4768,0,0,0,2.17053-9.97131c5.52393-2.85675,9.6554-7.90509,8.9195-14.60968a17.257,17.257,0,0,0-.5445-2.72186c2.5788.78967,5.35236.11651,6.53125-2.98432,1.05188-2.7666.17963-5.311-1.29364-7.59668a50.65544,50.65544,0,0,0-4.02167-50.26294,50.03437,50.03437,0,0,0,4.774-7.90985c3.95477-8.01239,6.64758-16.726,6.22724-25.75036-.6952-14.92768-9.2201-29.46765-21.05488-38.428a35.5399,35.5399,0,0,0-13.24987-6.40528,34.17733,34.17733,0,0,0-14.976.10206,32.58611,32.58611,0,0,0,3.26929-14.15259c-.06439-9.5354-4.316-18.639-9.92871-26.16291A50.9566,50.9566,0,0,0,237.14727,4.30838,47.357,47.357,0,0,0,213.78869.201C203.517.92917,192.76483,3.465,185.5133,11.29092a32.2372,32.2372,0,0,0-7.668,14.91809,33.21635,33.21635,0,0,0-9.61395-13.05731,36.10317,36.10317,0,0,0-17.01215-7.32031A55.872,55.872,0,0,0,126.5401,7.50894,46.31511,46.31511,0,0,0,102.2182,24.8035a59.73449,59.73449,0,0,0-8.75281,18.97412c-2.1037,7.6073-2.03491,15.62945,1.3349,22.87a32.0981,32.0981,0,0,0,5.31348,7.945,30.67719,30.67719,0,0,0-18.07,7.741c-4.38892,3.97406-7.4054,9.08233-10.0246,14.32708-5.09808,10.20856-7.01587,21.51374-4.41595,32.669a54.98219,54.98219,0,0,0,13.88836,24.92145c5.42939,5.70819,12.26905,10.07953,19.88709,11.62909A32.82433,32.82433,0,0,1,80.00348,167.54,43.89751,43.89751,0,0,1,62.692,158.05563a47.33247,47.33247,0,0,1-3.49817-3.37115,9.86056,9.86056,0,0,0,1.92-5.1037c.15448-3.49805-2.66144-5.689-5.62751-6.874.11426-.31366.21979-.63129.30494-.95722.74-2.832.43957-6.10181.29638-8.98492a27.04052,27.04052,0,0,1,.07593-5.77063,59.67035,59.67035,0,0,1,1.73785-7.24817c1.0008-3.387,2.17481-6.71771,3.2945-10.06622.58154-1.7392,1.51739-3.8902.68573-5.697-1.07172-2.32824-3.83588-3.03961-6.17444-3.20221a13.05837,13.05837,0,0,0-7.88086,1.96076,15.25126,15.25126,0,0,0-6.99884,11.19525,37.36271,37.36271,0,0,0-8.14807-6.2757c-3.45123-2.02935-7.5235-2.905-11.29419-1.20935a8.1659,8.1659,0,0,0-4.54553,8.72657,7.48306,7.48306,0,0,0-4.79383,1.32226,7.695,7.695,0,0,0-3.0531,8.80927,7.8492,7.8492,0,0,0-1.07538.07867A9.55672,9.55672,0,0,0,.90887,130.3284c-1.464,3.00867-.67346,6.618.54169,9.579,1.49481,3.64233,4.1062,6.70154,6.80267,9.51654a76.93223,76.93223,0,0,0,10.06494,9.34735c3.0343,2.19568,6.49842,3.77081,10.31049,3.37433.51013-.053,1.01849-.12762,1.52594-.20685,1.217,3.27167,3.44177,6.44843,7.09985,7.1203a9.91867,9.91867,0,0,0,4.91266-.44354A62.65557,62.65557,0,0,0,62.588,185.62674a59.73326,59.73326,0,0,0,55.0235-.10034c.69683,8.26263,4.33178,16.20129,9.01556,22.94622a50.62331,50.62331,0,0,0,18.78479,16.70221,47.41856,47.41856,0,0,0,22.182,4.68757,16.53011,16.53011,0,0,0,3.61413,14.09783.94493.94493,0,0,0,.14411.13416q-7.9867,9.3252-16.5481,18.13953a55.07419,55.07419,0,0,0-5.56873-10.50055,43.23708,43.23708,0,0,0-7.8872-9.20728,30.14694,30.14694,0,0,0-24.55152-6.3468,26.90377,26.90377,0,0,0-20.272,16.47913,31.36546,31.36546,0,0,0-.34106,22.30316c1.38153,3.57123,3.80224,6.73242,5.9508,9.86487,2.16333,3.154,4.49268,6.196,6.9538,9.12329,1.07892,1.28326,2.19409,2.53393,3.32525,3.76953-25.9107,3.30627-42.54736,8.4209-42.54736,14.16412,0,9.97,50.10187,18.05237,111.9057,18.05237s111.90576-8.08234,111.90576-18.05237C293.6773,306.54288,279.29455,301.74521,256.44519,298.44009ZM250.27368,259.82q5.08,2.6022,10.16,5.20434c2.36542,1.21167,6.64661,2.44263,5.78766,5.93994a29.81774,29.81774,0,0,1-2.23535,4.9925q-1.25061,2.70445-2.50122,5.40881-2.39694,5.18344-4.79395,10.36694-5.37432,11.622-10.74872,23.24408H199.66943c-5.67865-7.03924-7.81342-17.351-2.90906-25.39093a20.206,20.206,0,0,1,7.91779-7.47949,18.75261,18.75261,0,0,1,13.74859-1.0791,25.65193,25.65193,0,0,1,13.54279,9.9552c.96185,1.35559,3.221.05633,2.24841-1.31427a29.45506,29.45506,0,0,0-11.653-9.84363q1.64044-3.63034,3.28088-7.26074a1.32655,1.32655,0,0,0-.4671-1.78137q-14.63-7.3907-29.26025-14.78125,6.86883-8.41233,13.53149-16.98993Q229.96185,249.4155,250.27368,259.82ZM216.451,206.62076a33.91534,33.91534,0,0,1-9.3584-12.69873c-3.218-7.47626-2.87494-15.81562,1.8302-22.59241,4.95752-7.14044,13.50525-10.90772,22.02777-11.22778a23.40333,23.40333,0,0,0,10.80591,18.11163c1.43383.8761,2.74359-1.37512,1.31427-2.24841a20.8775,20.8775,0,0,1-9.58881-18.35285c.2406-7.28424,4.77289-13.40893,11.05542-16.81531,13.75476-7.45788,31.47888-.574,39.41345,12.20569a30.8817,30.8817,0,0,1,3.3927,23.6521,7.54,7.54,0,0,0-4.05792.62451,5.72822,5.72822,0,0,0-2.41772,8.2959,18.55245,18.55245,0,0,1-3.01868,1.77552,21.08087,21.08087,0,0,1-7.26019,1.55627,29.77715,29.77715,0,0,0-7.86408,1.33392c-.11059.03986-.21881.08881-.329.13056a33.10153,33.10153,0,0,1-12.918-1.4964c-2.18969-.71674-4.23-1.79315-6.40191-2.55072-1.64808-.57483-4.087-1.2699-5.75818-.42627-1.765.89111-2.25348,3.676-2.46778,5.44263a13.0391,13.0391,0,0,0,.29181,4.76934,14.97523,14.97523,0,0,0,3.65454,6.4787,16.44446,16.44446,0,0,0,10.03791,4.83063,1.11819,1.11819,0,0,0,.72839-.1333,12.07617,12.07617,0,0,0,1.382,5.20117C239.36468,214.9122,225.89447,214.39749,216.451,206.62076Zm-31.93458-40.55982a21.7578,21.7578,0,0,0-13.22613,1.44879c-4.81732-9.04052-13.80322-15.88232-24.23267-16.50732a23.3369,23.3369,0,0,0-8.70764,1.13672,1.3805,1.3805,0,0,0-.13208-.37811c-.71826-1.34882-1.37872-2.72193-2.00848-4.10682a1.03375,1.03375,0,0,0-.15888-.34735,77.2529,77.2529,0,0,1-6.03393-40.86749,62.44112,62.44112,0,0,1,8.56817-25.12982,58.44714,58.44714,0,0,1,22.72638-21.06738A64.94945,64.94945,0,0,1,181.97,53.58133a1.13343,1.13343,0,0,0,.61914-.28064A26.75828,26.75828,0,0,0,199.4942,64.58377a21.76646,21.76646,0,0,0,13.42932-1.9458c5.17993,8.81421,14.4057,15.312,24.84192,15.51794a23.61174,23.61174,0,0,0,3.36169-.17334c-2.275,10.18055,1.44861,20.69281,8.39124,28.286a22.14143,22.14143,0,0,0-6.57215,18.83246,28.48509,28.48509,0,0,0,4.24408,11.69861c-.7221.2569-1.44061.53363-2.15057.85162-7.18616,3.21875-12.85785,9.65876-13.95129,17.59589a22.506,22.506,0,0,0-.18128,2.24792c-8.20379.29181-16.34759,3.51551-21.94281,9.64557a25.12782,25.12782,0,0,0-6.338,13.31391C198.94134,173.38473,192.38232,167.71341,184.51641,166.06094ZM249.67675,205.245a1.34194,1.34194,0,0,0-.8424-.42968,13.18809,13.18809,0,0,1-11.05225-8.93689,10.18866,10.18866,0,0,1-.42932-3.02515,10.44139,10.44139,0,0,1,.33527-2.61413c.23748-.90949.39575-1.98627,1.42932-2.06775,1.88122-.14832,3.94623.89129,5.62176,1.62091a42.21339,42.21339,0,0,0,5.33289,1.98614,34.84544,34.84544,0,0,0,7.38617,1.24127A18.11807,18.11807,0,0,0,249.67675,205.245Zm53.19281-7.85607c-1.66851.89349-3.6195-.45795-4.721-1.65229a1.22245,1.22245,0,0,0-.23938-.22351,1.146,1.146,0,0,0-1.52973.11078,1.21784,1.21784,0,0,0-.33215,1.63312c2.81427,4.90411,2.45666,11.07037-1.854,14.983a18.4023,18.4023,0,0,1-4.61236,3.01386,1.47191,1.47191,0,0,0-.242.12066,21.18074,21.18074,0,0,1-9.99652,1.80841c-1.67279-.1131-1.66577,2.49134,0,2.604a23.496,23.496,0,0,0,9.71021-1.52,10.9378,10.9378,0,0,1-9.23334,11.968c-6.75964.98719-13.26984-4.96673-11.31866-11.96777a12.73115,12.73115,0,0,1,5.97882-7.5246,1.303,1.303,0,0,0-1.31427-2.24847,15.57383,15.57383,0,0,0-6.84876,8.08081,11.77156,11.77156,0,0,0,.3086,8.99408c-4.52649.2384-8.10834-3.54883-8.73334-8.03473-.67981-4.87884,2.38013-9.49377,5.613-12.85565,1.16186-1.20819-.67694-3.052-1.84125-1.84125-3.00446,3.12427-5.60938,7.04755-6.272,11.317a10.1685,10.1685,0,0,1-3.20312-8.1239,15.46492,15.46492,0,0,1,5.21729-9.72974,18.4703,18.4703,0,0,1,5.60327-3.36994c.02081-.002.04181-.00262.06262-.00463a1.335,1.335,0,0,0,.7298-.29523c.08709-.02948.1712-.06976.2586-.0979,2.68488-.865,5.37042-.87818,8.15131-1.17841A20.9483,20.9483,0,0,0,283.642,186.7034a1.03176,1.03176,0,0,0,.35486-1.25519,1.23808,1.23808,0,0,0-.35486-.58612,3.15757,3.15757,0,0,1,1.05732-5.37585c1.78076-.703,3.958.07318,5.64752.72595a22.84292,22.84292,0,0,1,4.50458,2.41937,32.54389,32.54389,0,0,1,6.09961,5.43085c1.50177,1.69647,3.40563,3.81109,3.3637,6.19592C304.29559,195.34573,303.94268,196.8143,302.86956,197.389ZM262.43524,63.35159a30.00546,30.00546,0,0,1,25.12482,4.25824,50.86985,50.86985,0,0,1,14.2116,14.811,46.61538,46.61538,0,0,1,7.62848,21.28271,46.37266,46.37266,0,0,1-4.44983,23.31037,51.40872,51.40872,0,0,1-7.05944,11.88452,28.22962,28.22962,0,0,1-14.34082,9.1159,36.73731,36.73731,0,0,0-14.423-10.46,30.97681,30.97681,0,0,0-19.34589-1.546c-3.91449-5.94061-5.6994-13.42-3.37835-20.31482a20.2779,20.2779,0,0,1,13.51806-12.51764,19.71244,19.71244,0,0,1,10.62311-.24866,1.30309,1.30309,0,0,0,.69226-2.51092,23.34632,23.34632,0,0,0-19.731,4.16827c-6.675-7.24762-10.2298-17.40057-7.58326-27.1325a27.79979,27.79979,0,0,0,15.97138-11.713c.55871-.82086,1.08264-1.6654,1.5769-2.52661A1.24021,1.24021,0,0,0,262.43524,63.35159ZM184.85247,16.28891a27.77576,27.77576,0,0,1,12.06977-9.863,47.464,47.464,0,0,1,12.54529-3.14557c8.00909-1.08477,16.28149-.69854,23.88836,2.2179a45.86366,45.86366,0,0,1,18.27405,13.23285c5.06311,5.9494,9.2113,12.9956,11.00671,20.64709a30.52721,30.52721,0,0,1-2.44439,20.69934c-3.22821,6.43207-8.36084,12.28144-15.41437,14.48633-9.33563,2.91834-19.32813-.93274-25.7569-7.9461a30.6762,30.6762,0,0,1-3.83093-5.25592,23.62752,23.62752,0,0,0,9.07941-10.68116,21.8805,21.8805,0,0,0,1.70672-7.4516c.08594-1.6748-2.51825-1.67016-2.604,0-.49011,9.54615-8.624,18.27411-18.23621,19.05933-9.94555.81244-19.12811-6.17291-23.056-14.98871A33.19377,33.19377,0,0,1,184.85247,16.28891ZM95.17425,47.88107a56.98773,56.98773,0,0,1,7.339-18.83612,43.47079,43.47079,0,0,1,20.07593-17.34,52.59861,52.59861,0,0,1,23.77319-3.81311,37.464,37.464,0,0,1,16.16974,4.506,30.48418,30.48418,0,0,1,12.99915,14.91485,37.70708,37.70708,0,0,1,1.32733,3.81385,1.34192,1.34192,0,0,0,.20331.41015,37.74714,37.74714,0,0,0,1.02734,12.0445,29.51882,29.51882,0,0,0,3.078,7.50811,65.36222,65.36222,0,0,0-32.08966,14.26209,1.32,1.32,0,0,0-.32281-.23523A20.97372,20.97372,0,0,1,137.25409,45.7048c.09106-1.6745-2.51319-1.66937-2.604,0-.47711,8.773,4.70477,17.29651,12.36994,21.42493a59.75468,59.75468,0,0,0-8.39685,9.4198,57.66339,57.66339,0,0,0-3.45063,5.45331,28.54232,28.54232,0,0,1-21.9671-1.10535A33.12951,33.12951,0,0,1,98.81091,68.56863,28.56678,28.56678,0,0,1,95.17425,47.88107ZM71.7597,134.1597a44.0343,44.0343,0,0,1,.00806-30.42255A56.31409,56.31409,0,0,1,80.14093,88.1998,28.49,28.49,0,0,1,97.2337,77.57242a30.6202,30.6202,0,0,1,5.3606-.49811c7.41742,6.72241,17.76782,10.45148,27.56268,8.94647a28.06094,28.06094,0,0,0,3.32165-.72766,71.63017,71.63017,0,0,0-6.65618,31.37976,23.42715,23.42715,0,0,0-20.43067,3.88361c-1.32275,1.0252.53211,2.85589,1.84131,1.84124,5.24707-4.06665,12.40045-4.89306,18.651-2.99169.06549,1.66394.16669,3.3247.33038,4.975a76.91962,76.91962,0,0,0,6.30927,23.629c-3.54169,9.82642-13.15765,14.83472-23.13171,15.73785-9.33405.84522-17.96424-2.80053-24.77491-9.08587A53.64553,53.64553,0,0,1,71.7597,134.1597ZM22.14331,108.96811c2.74005-1.46356,5.95862-.84009,8.57409.57434a38.399,38.399,0,0,1,7.05024,5.06763c2.15741,1.91809,4.22174,4.37738,4.08483,7.43438-.18084,4.039-3.86041,5.34272-7.2868,4.54291a20.80619,20.80619,0,0,0-3.25128-3.56323,36.21345,36.21345,0,0,0-11.162-7.11267c-.18249-.06745-.36346-.1192-.54516-.17853C18.927,113.14645,19.65594,110.29672,22.14331,108.96811ZM11.82879,125.39462a5.08262,5.08262,0,0,1,1.53131-6.64606,5.49952,5.49952,0,0,1,5.3172-.60455,28.4256,28.4256,0,0,1,8.86011,5.12763c2.5733,2.06024,4.83472,4.19543,6.20123,7.26587,1.7536,3.94006-1.92309,7.298-5.77551,7.03192-.02624-.00183-.0484.00274-.07385.00225a30.74745,30.74745,0,0,0-2.16882-2.46258,51.395,51.395,0,0,0-4.4881-4.369,25.3744,25.3744,0,0,0-6.19568-3.8291,26.99767,26.99767,0,0,0-3.07984-1.154A1.38989,1.38989,0,0,0,11.82879,125.39462Zm20.90155,36.01605a21.252,21.252,0,0,0,9.46607-4.9909c1.22094-1.153-.62281-2.99188-1.84131-1.84125-2.88648,2.72565-6.45709,3.97357-10.30023,4.73224a11.07086,11.07086,0,0,1-7.92865-1.21,35.323,35.323,0,0,1-7.57068-6.05921,68.53034,68.53034,0,0,1-8.562-9.29492,17.02951,17.02951,0,0,1-3.22321-7.89917,5.8634,5.8634,0,0,1,3.64386-6.28534c2.93329-1.38666,5.97418-.13269,8.70422,1.2403,3.45112,1.73559,6.13788,4.3703,8.76081,7.148,1.27081,1.34582,2.99469,2.95025,3.19476,4.90436a3.68635,3.68635,0,0,1-1.56567,3.48083c-1.82611,1.00031-4.80585-.12-6.58679-.78863a25.73644,25.73644,0,0,1-6.04114-3.38172c-1.35614-.98791-2.65692,1.27039-1.31427,2.24848a28.73067,28.73067,0,0,0,5.49646,3.15661.91658.91658,0,0,0,.08142.14545,24.79811,24.79811,0,0,1,2.14563,3.35162c.30652.57752.5871,1.16742.849,1.76642l.01855.04327q.04734.11445.09357.22937.09431.23475.18371.47138c.11927.31549.231.63367.3379.95361a1.30229,1.30229,0,1,0,2.51092-.6922,26.42131,26.42131,0,0,0-2.23663-4.91424,10.98178,10.98178,0,0,0,3.96216.25427c3.54968-.51141,5.41308-4.56134,4.40136-7.808-.02374-.07624-.05749-.14808-.0838-.22321,3.47308-.34113,6.83777-2.82318,7.43183-6.39178a7.99688,7.99688,0,0,0-.60523-4.3349c3.37665.11853,6.64069-1.37446,7.86548-4.89972a9.00694,9.00694,0,0,0-.6615-7.08332,1.28035,1.28035,0,0,0,.03687-.43866,12.77923,12.77923,0,0,1,4.72637-11.30212,10.70873,10.70873,0,0,1,6.84388-2.345,9.14514,9.14514,0,0,1,2.88348.44348c.82434.28973,1.656.96619,1.75684,1.52014a5.54252,5.54252,0,0,1-.236,1.49494c-.3703,1.37182-.86389,2.71344-1.32147,4.05761-.95141,2.79474-1.8985,5.59333-2.72784,8.42731-1.11267,3.80182-2.1637,7.75348-1.93952,11.74554a47.56753,47.56753,0,0,1,.07618,9.168c-.40485,2.86322-2.38269,5.15808-4.54773,6.92542-1.29877,1.06024.5531,2.89288,1.84131,1.84131a16.81424,16.81424,0,0,0,3.5755-3.93933c2.02636.73712,4.22613,2.04742,4.18743,4.39544-.049,2.9784-2.89233,5.67658-4.85809,7.6081a75.27814,75.27814,0,0,1-6.29809,5.63739c-2.25086,1.76043-4.99085,3.63781-7.9206,3.90057C36.03967,166.883,33.86,164.30984,32.73034,161.41067Zm116.14258,62.513a46.68417,46.68417,0,0,1-17.74542-13.72918c-4.973-6.23615-8.94708-13.61786-10.45941-21.496a30.012,30.012,0,0,1,.93286-15.29c.18445-.54407.38556-1.08191.59924-1.61512.02173-.05426.10559-.25512.1261-.305.014-.03076.16223-.37048.21429-.48633q.68353-1.523,1.4997-2.982c3.49451-6.26953,8.86-11.81928,15.96875-13.72675,9.45312-2.5365,19.26428,1.78681,25.39642,9.04218a30.41044,30.41044,0,0,1,3.5744,5.35962,23.38208,23.38208,0,0,0-9.60571,10.51617,22.29737,22.29737,0,0,0-1.91052,7.22431c-.154,1.668,2.45087,1.65747,2.604,0,.87531-9.47492,9.32538-17.75214,18.86811-18.23749,9.785-.49762,18.61316,6.61236,22.31891,15.32574a28.52851,28.52851,0,0,1,1.31469,3.84564,25.71015,25.71015,0,0,0,.68177,3.42652c.0061.02228.01446.04413.02056.0664a33.60894,33.60894,0,0,1-5.41516,23.5608,27.56512,27.56512,0,0,1-12.05133,9.59332,45.373,45.373,0,0,1-13.15649,2.91931C164.60876,227.7001,156.38311,227.08957,148.87292,223.92367Zm23.9353,17.89454c-.01745-.02594-.18219-.2453-.22479-.30457q-.39834-.55325-.75134-1.13739a14.45649,14.45649,0,0,1-1.41583-3.07385,13.03405,13.03405,0,0,1-.10907-7.5473,54.147,54.147,0,0,0,14.91656-2.82386q-5.90616,7.7352-12.19049,15.16779Q172.91927,241.96,172.80822,241.81821Zm-70.69647,38.34088a27.8176,27.8176,0,0,1-4.26819-8.58606,30.20363,30.20363,0,0,1-.741-10.31342,25.10471,25.10471,0,0,1,12.89093-20.03985,27.50592,27.50592,0,0,1,23.93493-.41535c7.54346,3.54206,12.955,10.95429,16.63123,18.22632a46.6454,46.6454,0,0,1,2.49231,5.94135,1.31679,1.31679,0,0,0,2.17614.57452,400.68085,400.68085,0,0,0,34.91962-40.83106,28.71349,28.71349,0,0,0,6.98535-5.321,33.81239,33.81239,0,0,0,8.92774-21.62457,38.20877,38.20877,0,0,0,5.625,7.93133,31.85819,31.85819,0,0,0,13.42511,8.47309q-18.88,25.92407-39.53577,50.48657-11.10269,13.19229-22.69665,25.96033-5.46452,6.01812-11.03547,11.93829-2.79693,2.97235-5.62024,5.91986c-1.70861,1.78363-3.35247,3.79126-5.22918,5.39746-1.898,1.62433-4.235,1.31085-6.16913-.01819-2.27258-1.56164-4.48529-3.21643-6.6391-4.93774a123.08818,123.08818,0,0,1-10.14587-9.06494A128.32748,128.32748,0,0,1,102.11175,280.15909Zm61.12305,13.92364q8.19754-8.98425,16.16022-18.179,7.63175-8.82367,15.02948-17.84607,14.30219,7.22489,28.60437,14.44983-1.43675,3.17953-2.87348,6.35913c-.23669-.08008-.4646-.17871-.7044-.25189a21.36978,21.36978,0,0,0-17.16547,1.84234,22.13712,22.13712,0,0,0-10.03333,13.45667q-5.17932-.07782-10.48065-.08277Q172.29409,293.831,163.2348,294.08273Z"/><path d="M193.23834,111.83255a18.61028,18.61028,0,0,1,8.92932-5.02075,17.19863,17.19863,0,0,1,14.02185,3.103c1.35236.9925,2.65277-1.26611,1.31427-2.24841a19.93653,19.93653,0,0,0-21.97626-.8963,19.86313,19.86313,0,0,1,4.192-5.01685,18.859,18.859,0,0,1,16.402-3.7901c1.62976.384,2.32525-2.12616.69226-2.51092A21.62125,21.62125,0,0,0,198.408,99.47586a22.24679,22.24679,0,0,0-7.34577,11.0899A1.31181,1.31181,0,0,0,193.23834,111.83255Z"/><path d="M214.23675,147.19656a22.0761,22.0761,0,0,0,2.30567-9.10064,15.24932,15.24932,0,0,0,5.81445,1.06854,17.68685,17.68685,0,0,0,6.37567-1.25171,1.346,1.346,0,0,0,.90936-1.60162,1.30956,1.30956,0,0,0-1.60162-.90937,14.0669,14.0669,0,0,1-12.30829-.52429,13.41679,13.41679,0,0,1-6.40686-11.24573,15.70124,15.70124,0,0,1,1.03864-5.90643c.59869-1.56677-1.91779-2.24451-2.51093-.6922a17.26153,17.26153,0,0,0-.00006,12.264,44.01693,44.01693,0,0,1-15.31091,8.24512c-6.77466,1.9917-14.18171,2.08569-21.19373,2.04541q-5.26712-.03032-10.51495-.53644a1.37,1.37,0,0,0-.16486.00067,7.75776,7.75776,0,0,0-.14068-2.54388,1.31251,1.31251,0,0,0-1.60163-.90937,1.33127,1.33127,0,0,0-.90936,1.60163q.03543.15692.06335.31543l-.00183-.051c.00135.06513.01532.13178.02136.19672a6.1947,6.1947,0,0,1,.006,1.08612c-.00159.01886-.01258.107-.019.163-.01342.07172-.03448.18909-.03912.21149a5.88971,5.88971,0,0,1-.1745.6524c-.02728.08265-.05835.1634-.08874.24457-.00788.01886-.04017.09973-.06885.15918q-.1203.24948-.26392.4867c-.09021.14929-.18847.29236-.28906.43469l-.00464.00677-.01239.0138c-.04718.05432-.09265.11-.14032.16394a6.3557,6.3557,0,0,1-.64032.62817c-.0354.03015-.07153.05933-.10754.08875-.07178.05053-.142.10315-.215.15216q-.195.13092-.39978.24634a1.3022,1.3022,0,1,0,1.31427,2.24847,7.59865,7.59865,0,0,0,2.79334-2.75342c.10992-.1889.20813-.38287.29913-.57953a1.32553,1.32553,0,0,0,.78406.34009c2.20062.21033,4.40307.34381,6.60638.42438,6.67816,7.48761,14.87805,13.70624,24.99561,15.36224a20.738,20.738,0,0,0,14.74463-2.64148A18.90314,18.90314,0,0,0,214.23675,147.19656Zm-14.33642-9.718a48.05349,48.05349,0,0,0,9.10815-5.79694,15.224,15.224,0,0,0,4.33911,4.6969l-.17908.32092a42.43315,42.43315,0,0,1-16.67437,11.93024,41.63968,41.63968,0,0,1-9.18421,2.43622,7.68333,7.68333,0,0,1-7.33532-3.14588q-1.92627-2.68011-3.8526-5.36016l-.23145-.44629q3.2-.08516,6.39972-.293A47.34936,47.34936,0,0,0,199.90033,137.47861Z"/><path d="M158.08313,137.53128l-.00312-.01556C158.08807,137.7999,158.10022,137.63071,158.08313,137.53128Z"/><path d="M160.13049,127.62064a12.21048,12.21048,0,0,0,10.88684.47088,9.02837,9.02837,0,0,0,2.88245,2.96362,10.54308,10.54308,0,0,0,8.2348,1.36768,1.3031,1.3031,0,0,0-.69226-2.51093,7.88938,7.88938,0,0,1-5.62226-.74584,5.76718,5.76718,0,0,1-3.24163-4.40882,5.673,5.673,0,0,1,.60528-3.03222,8.67809,8.67809,0,0,1,.65033-1.08808c.04163-.05932.085-.11731.127-.17615l.00055-.00061c.06658-.07843.13055-.15869.19958-.2351a5.86685,5.86685,0,0,1,2.65772-1.66211,6.30164,6.30164,0,0,1,2.37823-.3321,7.55181,7.55181,0,0,1,3.64893,1.04834,6.84883,6.84883,0,0,1,1.65155,1.22449c1.2091,1.16077,3.053-.678,1.8413-1.84131a10.94624,10.94624,0,0,0-5.49792-2.8128,31.85194,31.85194,0,0,0-1.41589-23.51319c-2.71875-5.56634-8.10553-10.58337-14.723-9.77246-6.89837.84534-11.40118,7.22968-13.41827,13.37445a31.826,31.826,0,0,0,1.53705,23.56025A18.61293,18.61293,0,0,0,160.13049,127.62064Zm-6.94415-28.8501c1.30816-5.38483,4.53405-11.60572,10.24975-13.30286,5.48371-1.62829,10.28156,2.16058,12.927,6.67139a7.00528,7.00528,0,0,0-1.76043-.23249c-4.38965,0-8.11371,4.126-9.50006,9.87592q5.21549,1.83582,10.431,3.67175-5.29451,2.75308-10.58893,5.50623c.88641,4.35242,3.09717,7.858,5.94739,9.518a9.048,9.048,0,0,0-.92524,3.42914,7.085,7.085,0,0,0,.13636,1.767c-5.906,2.69482-11.45826-1.16962-14.39313-6.29065C152.21276,113.28171,151.54181,105.53976,153.18634,98.77054Z"/><path d="M218.58831,125.37082c2.89551,0,2.90033-4.5,0-4.5C215.69275,120.87082,215.688,125.37082,218.58831,125.37082Z"/><path d="M226.03228,121.55337c2.89557,0,2.90033-4.5,0-4.5C223.13678,117.05337,223.132,121.55337,226.03228,121.55337Z"/><path d="M224.69622,129.57c2.89551,0,2.90033-4.5,0-4.5C221.80066,125.07,221.79589,129.57,224.69622,129.57Z"/><path d="M172.14111,75.99222a21.87673,21.87673,0,0,0-13.11627-1.95349c-2.21155.38433-9.52814,1.65588-12.48841,7.7442a12.71261,12.71261,0,0,0-1.15112,6.593,26.36121,26.36121,0,0,1,26.7558-12.38373Z"/><path d="M221.6958,88.035a12.713,12.713,0,0,0-3.67469-5.59375c-5.13464-4.412-12.35455-2.67346-14.53686-2.14795a21.87628,21.87628,0,0,0-11.2619,7.00159,26.36133,26.36133,0,0,1,29.47345.74011Z"/></g></svg>