<svg id="Signo" xmlns="http://www.w3.org/2000/svg" viewBox="0 0 359.14879 157.041"><g id="Edición_Horizontal" data-name="Edición Horizontal"><path d="M357.6242,77.80592a161.893,161.893,0,0,0-3.96875-19.165,148.2538,148.2538,0,0,0-5.32886-16.11255A47.476,47.476,0,0,0,339.64415,27.973c-.06512-.072-.13006-.1441-.19549-.21509-.06543-.07232-.13086-.14489-.19666-.2163-.06512-.072-.13006-.14411-.19549-.21509-.06543-.07233-.13086-.1449-.19666-.21631-.06555-.07245-.131-.145-.19684-.21643-.06482-.07166-.12957-.14356-.19476-.2143-.06543-.07232-.13086-.14489-.19665-.2163-.06513-.072-.13007-.14411-.1955-.21509-.06543-.07233-.13086-.1449-.19666-.21631-.0653-.07221-.13055-.14459-.19616-.21576-.06525-.07214-.13037-.14441-.196-.21558-.06512-.072-.13006-.1441-.19549-.21508-.06543-.07233-.13086-.1449-.19666-.21631-.06512-.072-.13006-.14411-.19549-.21509-.06568-.07263-.13135-.14545-.19739-.2171-.065-.0719-.13-.14392-.19537-.21485-.06513-.072-.13007-.1441-.1955-.21508-.06543-.07233-.13086-.1449-.19665-.21631-.06513-.072-.13007-.14411-.1955-.21509-.06567-.07257-.13129-.14533-.19733-.217-.06488-.07166-.12964-.14362-.19482-.21436-.06543-.07232-.13086-.14489-.19666-.2163-.06512-.072-.13006-.14411-.19549-.21509-.06549-.07239-.131-.145-.19678-.21643-.06531-.07215-.13037-.14441-.196-.21558-.06525-.07214-.13056-.14459-.19617-.21576-.06531-.07214-.13037-.14441-.196-.21557-.06513-.072-.13007-.14411-.1955-.21509-.06543-.07233-.13086-.1449-.19666-.21631-.0653-.07221-.13055-.14459-.19616-.21576-.06525-.07214-.13037-.14441-.196-.21558-.06512-.072-.13006-.1441-.19549-.21508-.06549-.07239-.131-.145-.19678-.21644-.06506-.07189-.12994-.144-.19531-.2149-.06574-.07269-.13141-.14545-.19745-.21716-.065-.0719-.13-.14392-.19537-.21485-.06513-.072-.13007-.1441-.1955-.21508-.06543-.07233-.13086-.1449-.19665-.21631-.06513-.072-.13007-.14411-.1955-.21509-.06567-.07257-.13129-.14533-.19733-.217-.06488-.07166-.12964-.14362-.19482-.21436-.06549-.07238-.131-.145-.19678-.21643-.06506-.0719-.12994-.144-.19531-.2149-.06549-.07245-.131-.14508-.19684-.21649-.06531-.07215-.13037-.14441-.196-.21558-.06525-.07214-.13056-.14459-.19617-.21576-.06531-.07214-.13037-.14441-.196-.21558-.06513-.072-.13007-.1441-.1955-.21508-.06543-.07233-.13086-.1449-.19665-.21631-.06531-.07221-.13056-.14459-.19617-.21576a26.67348,26.67348,0,0,0-4.85791-4.26788,31.29332,31.29332,0,0,0-17.77429-5.40332,33.318,33.318,0,0,0-11.9173,2.1643,29.49838,29.49838,0,0,0-10.9444,7.7002,52.96816,52.96816,0,0,0-8.26916,12.62158q-.0575-.06236-.11542-.12451c-.06525-.07135-.12879-.14356-.19489-.21442-.06585-.072-.12994-.14471-.19659-.21625-.06549-.07159-.12921-.144-.19556-.21515-.06585-.072-.12994-.14471-.19659-.21624-.06568-.07178-.1297-.14447-.19623-.21582-.06561-.07172-.12958-.14435-.196-.21564-.06543-.07153-.12922-.14392-.19544-.215-.06586-.072-.13-.14489-.19672-.21643-.06542-.07153-.12921-.14392-.19543-.215-.066-.07221-.13037-.14533-.19733-.21711-.06543-.07147-.12915-.14379-.19537-.21484-.06549-.07159-.12921-.144-.19556-.21515-.06585-.072-.12994-.14471-.19659-.21625-.06549-.07159-.12921-.144-.19556-.21514-.066-.07221-.13043-.14515-.19726-.21692-.06525-.07135-.12879-.14356-.19489-.21442-.06586-.072-.13-.14484-.19671-.21637-.06543-.07153-.12922-.14392-.19544-.215-.06586-.072-.13-.14489-.19672-.21643-.06561-.07177-.12957-.14434-.196-.21563-.06561-.07178-.12964-.14441-.19611-.2157-.06561-.07178-.12951-.14429-.196-.21558-.06549-.07159-.12921-.144-.19556-.21515-.06585-.072-.12994-.14471-.19659-.21624-.06567-.07178-.1297-.14447-.19623-.21582-.06561-.07172-.12958-.14435-.196-.21564-.06543-.07153-.12922-.14392-.19544-.215-.06586-.072-.13-.14489-.19671-.21643-.06543-.07153-.12922-.14392-.19544-.215-.066-.07221-.13037-.14533-.19733-.21711-.06543-.07147-.12915-.14379-.19537-.21484-.06549-.07159-.12921-.144-.19556-.21515-.06585-.072-.12994-.14471-.19659-.21625-.06549-.07159-.12921-.144-.19556-.21514-.066-.07221-.13043-.14515-.19726-.21692-.06525-.07135-.12879-.14356-.19489-.21442-.06585-.072-.13-.14484-.19671-.21637-.06543-.07153-.12922-.14392-.19544-.215-.06586-.072-.13-.14489-.19672-.21643-.06561-.07177-.12957-.14434-.196-.21563-.06561-.07178-.12964-.14441-.19611-.2157-.06561-.07178-.12951-.14429-.196-.21558-.06549-.07159-.12921-.144-.19556-.21515-.06585-.072-.12994-.14471-.19659-.21624-.06567-.07178-.1297-.14447-.19623-.21582a33.23988,33.23988,0,0,0-4.36981-3.98023c-7.61566-5.80981-18.80792-8.63354-34.21735-8.63354a87.10172,87.10172,0,0,0-13.979,1.12963,44.26121,44.26121,0,0,0-13.25232,4.303,29.1937,29.1937,0,0,0-10.69025,9.64868,31.77892,31.77892,0,0,0-2.33716,4.03217,35.74,35.74,0,0,0-4.14746-6.07953c-.0559-.06537-.11389-.12-.17-.18439l-.02606-.03131c-.05573-.06512-.11341-.11956-.16937-.18371l-.02668-.032c-.05591-.06536-.11389-.12-.17-.18438l-.02606-.03131c-.05573-.06513-.11341-.11957-.16938-.18372l-.02667-.032c-.05591-.06537-.11389-.12-.17-.18439l-.02606-.03131c-.05591-.06531-.11377-.11993-.16993-.18427l-.02612-.03137c-.05591-.06537-.11389-.12-.17-.18438l-.02606-.03132c-.05573-.06512-.11341-.11956-.16938-.18371l-.02667-.032c-.05591-.06537-.11389-.12-.17-.18439l-.02607-.03131c-.05572-.06513-.1134-.11957-.16937-.18372l-.02667-.032c-.05609-.06555-.1142-.12042-.17053-.185l-.02558-.03064c-.0559-.06537-.11389-.12-.17-.18438l-.02606-.03132c-.05573-.06512-.11341-.11956-.16937-.18371l-.02668-.032c-.05591-.06537-.11389-.12-.17-.18439l-.02606-.03131c-.05573-.06513-.11341-.11957-.16938-.18372l-.02667-.032c-.05609-.06555-.11419-.12042-.17053-.185l-.02557-.03064c-.05573-.06512-.11341-.11957-.16938-.18371l-.02667-.032c-.05591-.06536-.11389-.12-.17-.18438l-.02607-.03131c-.05572-.06513-.1134-.11957-.16937-.18372l-.02667-.032c-.05591-.06537-.11389-.12-.17-.18439l-.02607-.03131c-.0559-.06531-.11377-.11993-.16992-.18427l-.02612-.03137c-.05591-.06537-.11389-.12-.17-.18439l-.02607-.03131c-.0559-.06536-.11389-.12-.17-.18438l-.02606-.03131c-.05573-.06513-.11341-.11957-.16938-.18372l-.02667-.032c-.05591-.06537-.11389-.12-.17-.18439l-.02606-.03131c-.05591-.06531-.11377-.11993-.16993-.18427l-.02612-.03137c-.05591-.06537-.11389-.12-.17-.18439l-.02606-.03131c-.05573-.06512-.11341-.11956-.16938-.18371l-.02667-.032c-.05591-.06537-.11389-.12-.17-.18439l-.02607-.03131c-.05572-.06513-.1134-.11957-.16937-.18372l-.02667-.032c-.05609-.06555-.1142-.12042-.17053-.185l-.02558-.03064c-.0559-.06537-.11389-.12-.17-.18439l-.02606-.03131c-.05573-.06512-.11341-.11956-.16937-.18371l-.02668-.032c-.05591-.06537-.11389-.12-.17-.18439l-.02606-.03131c-.05573-.06513-.11341-.11957-.16938-.18372l-.02667-.032c-.05609-.06555-.11419-.12042-.17053-.185l-.02557-.03064c-.05573-.06512-.11341-.11957-.16938-.18371l-.02667-.032c-.05591-.06537-.11389-.12-.17-.18438l-.02606-.03131c-.05573-.06513-.11341-.11957-.16938-.18372l-.02667-.032c-.05591-.06537-.11389-.12-.17-.18439l-.02607-.03131c-.0559-.06531-.11377-.11994-.16992-.18427l-.02612-.03137c-.05591-.06537-.11389-.12-.17-.18439l-.02607-.03131c-.0559-.06537-.11389-.12-.17-.18438l-.02606-.03131c-.05573-.06513-.11341-.11957-.16938-.18372l-.02667-.032c-.05591-.06537-.11389-.12-.17-.18439l-.02606-.03131c-.05591-.06531-.11377-.11994-.16993-.18427l-.02612-.03137c-.05591-.06537-.11389-.12-.17-.18439l-.02606-.03131c-.05573-.06512-.11341-.11956-.16938-.18371l-.02667-.032c-.05591-.06536-.11389-.12-.17-.18438l-.02607-.03131c-.05572-.06513-.1134-.11957-.16937-.18372l-.02667-.032c-.05609-.06555-.1142-.12042-.17053-.185l-.02558-.03064a27.9644,27.9644,0,0,0-9.904-7.37012A28.28925,28.28925,0,0,0,153.14989.02491c-.69324,0-1.39514.02515-2.08618.07447-3.78821.27-10.12878.72216-15.33594,5.73193a18.502,18.502,0,0,0-2.20953,2.56244c-.03693-.04193-.0766-.081-.11383-.12256-.01373-.01581-.02655-.03235-.04035-.0481-.05053-.0578-.10516-.11114-.15631-.16827-.01355-.01556-.02618-.03186-.03979-.04742-.05048-.05774-.1051-.11109-.15619-.16816-.01355-.01562-.02625-.03192-.03986-.04748C128.79711,3.0171,122.5302.49318,114.84874.49293a34.1237,34.1237,0,0,0-6.97845.70557,27.96793,27.96793,0,0,0-11.1842,5.22607,28.83338,28.83338,0,0,0-8.11823,10.5957,29.52628,29.52628,0,0,0-2.7984,9.0691A50.36367,50.36367,0,0,0,67.78051,13.4607C58.66845,9.51686,47.42955,7.51735,34.376,7.51735c-11.196,0-19.38428,1.71923-25.03266,5.25561C3.25988,16.58082.04412,22.12721.04412,28.81251A14.2641,14.2641,0,0,0,3.54955,38.508c.06232.0736.13153.14257.19562.21508.06256.07386.132.14319.19635.21595.06244.07373.13165.14282.1958.21545.06256.07385.132.14319.19635.21594.06256.07386.132.14325.19629.216.06231.0736.13153.14257.19562.21508.06256.07392.132.14325.19635.216.06243.07373.13165.14276.1958.21539.06256.07391.132.14325.19635.216.0625.0738.13183.143.196.21564.0625.07379.1319.14307.19611.2157.06244.07373.13165.14276.1958.21539.06256.07385.132.14319.19635.21594.0625.0738.13183.14307.1961.21576.0625.0738.13184.143.196.21564.0625.07379.1319.14307.1961.2157.06244.07373.13166.14276.19581.21539.06256.07392.132.14325.19635.216.06243.07373.13165.14276.1958.21539.06262.074.13214.14337.19653.21625.06232.0736.13153.14257.19562.21508.06256.07392.132.14325.19635.216.06244.07373.13165.14276.1958.21539.06256.07385.132.14319.19635.21594.06256.07386.132.14325.19629.216.06231.0736.13153.14257.19561.21508.06257.07392.132.14325.19636.216.06243.07373.13165.14276.1958.21539.06256.07391.132.14325.19635.216.0625.0738.13183.143.196.21564.0625.07379.1319.14307.19611.2157.06244.07373.13165.14276.1958.21539.06256.07386.132.14319.19635.21595.06244.07373.13165.14282.1958.21545.06268.074.13214.14331.19653.21619.06244.07367.13178.14288.19592.21545.06244.07373.13166.14276.19581.21539.06256.07392.132.14325.19635.216.06243.07373.13165.14276.1958.21539.06262.074.13214.14337.19653.21625.06232.07361.13153.14258.19562.21509.06256.07391.132.14324.19635.216.06244.07373.13165.14276.1958.21539.06256.07385.132.14319.19635.21594.0625.0738.13177.143.196.2157.0625.07379.1319.143.19611.21564.0625.07379.13183.14307.1961.21576.06244.07373.13166.14276.19581.21539.06256.07392.132.14325.19635.216.06243.07373.13165.14276.1958.21539a14.488,14.488,0,0,0,1.616,1.60144c-.2453,3.43359-.403,6.99548-.468,10.63251-.08857,4.83911.04559,9.57226.39862,14.06591.10022,1.283.217,2.53516.34955,3.748a19.402,19.402,0,0,0-7.88044,4.44678,17.23534,17.23534,0,0,0-5.2583,13.13208,16.51109,16.51109,0,0,0,2.661,8.70044,11.34258,11.34258,0,0,0,.9068,1.17767c.06091.074.13251.14215.19556.215.06116.07428.133.14294.19635.21606.061.074.13263.1424.1958.21533.06116.07428.133.14295.19635.21607.061.07416.13293.1427.19611.2157.06091.07409.13262.14239.19574.21527.06115.07434.133.14288.19635.21606.061.07416.13281.14252.196.21558.0611.07422.13293.14276.19617.21582.061.074.13263.14239.1958.21533.06116.07428.133.14288.19629.216.06109.07422.13287.14264.1961.2157.061.0741.13269.1424.19586.2154.0611.07428.133.14288.19629.216.061.07416.13282.14252.19605.21558.0611.07421.13293.14276.19617.21582.061.07409.13263.14239.1958.21533.06109.07428.133.14288.19629.216.061.0741.13269.1424.1958.21533.06121.0744.13318.14307.19659.21631.061.07416.13281.14252.19592.21546.061.07409.13269.14245.19587.21545.06115.07428.133.14282.19628.21594.061.0741.13269.14246.19587.21546.06121.07434.13317.143.19653.21618.06091.074.13257.14221.19556.215.06115.07428.133.14294.19635.21606.061.07422.13293.14264.1961.2157.061.0741.13269.14246.19586.21546.06116.07428.133.14282.19629.21594.061.0741.13263.14239.1958.21533.0611.07428.133.14288.19629.216.061.0741.13269.14246.19586.2154.06122.07434.13312.143.19654.21624.061.07416.13281.14252.19592.21546.061.0741.13263.14239.1958.21533.0611.07428.133.14288.19629.216.061.0741.13269.14246.19586.2154.0611.07428.133.14288.19629.216.061.0741.13269.14246.19586.21539.0611.07428.13294.14283.19623.216.06116.07434.13306.14282.19641.216.06092.074.13251.14227.19562.21509.06116.07428.133.14288.19635.21606.06091.0741.13263.1424.1958.21533.0611.07428.13294.14283.19623.216.061.07415.13275.14245.19586.21539.0611.07428.133.14288.19629.216.061.07416.13275.14246.19586.2154.0611.07428.133.14288.19629.216a16.9224,16.9224,0,0,0,8.201,5.03772c3.69244,1.16675,8.64636,1.73413,15.14343,1.73413.93311,0,1.853-.02447,2.773-.049v17.6676a15.0441,15.0441,0,0,0,15,15H303.01366a15.0441,15.0441,0,0,0,15-15V114.79579c.05042.05584.10162.11035.15161.16675.06342.07428.13135.14251.19586.21539.06366.07452.13154.143.19629.216.06342.07428.13135.14252.19587.2154.06372.07458.13171.14312.19653.21624.06335.07428.13116.14234.19562.21509.06359.07452.13159.143.19629.216.06341.07428.13134.14252.19586.2154.0636.07452.13159.143.19629.216.06359.07446.13165.14294.19635.21594.06335.07428.13116.14234.19561.21509.06366.07452.13153.143.19629.216.06342.07428.13135.14252.19586.2154.06366.07452.13154.143.19629.216.06342.07428.13135.14252.19587.21539a15.33985,15.33985,0,0,0,1.34436,1.39606c3.6314,3.301,8.46362,4.97461,14.36291,4.97461,7.01068,0,12.59863-2.25342,16.6087-6.69751,3.90345-4.32642,5.88263-10.91968,5.88263-19.59717A140.14165,140.14165,0,0,0,357.6242,77.80592Z"/><path d="M309.16387,79.07521l.022-.00061v.00012h0c-.00244.345-.01074.68524-.01074,1.03216q0,6.29481.52411,12.19648.916,9.18164,5.24634,13.115,4.32787,3.9342,11.67187,3.93408,8.78448,0,13.639-5.3772,4.85019-5.37561,4.85235-16.91742A135.48569,135.48569,0,0,0,343.66649,67.386a157.14438,157.14438,0,0,0-3.86883-18.68823,143.59222,143.59222,0,0,0-5.18024-15.67212Q329.764,20.96119,322.74859,16.239a27.237,27.237,0,0,0-15.54065-4.72167,29.19888,29.19888,0,0,0-10.492,1.90185,25.44364,25.44364,0,0,0-9.44232,6.68848,52.01907,52.01907,0,0,0-8.52484,13.57348,139.76314,139.76314,0,0,0-5.57349,14.22925q-2.55706,7.67213-4.52453,15.279-1.96712,7.60657-3.08222,14.36011c-.07727.46778-.148.92456-.21722,1.37866-.29236-.38916-.58112-.779-.90174-1.16333q-5.45544-6.53173-17.9823-11.51611v-.53918a26.9455,26.9455,0,0,0,12.18982-3.3003,22.44555,22.44555,0,0,0,8.68872-8.688,27.28967,27.28967,0,0,0,3.233-13.73968,24.68385,24.68385,0,0,0-10.23731-20.60883q-10.2387-7.81091-31.79-7.813a82.70279,82.70279,0,0,0-13.33514,1.07739A40.077,40.077,0,0,0,203.161,16.54371a25.13063,25.13063,0,0,0-9.227,8.352c-2.218,3.20264-4.15027,7.85083-5.8042,13.908a15.75762,15.75762,0,0,0-8.24451-2.741c-.10748-.00379-.28247-.00849-.50921-.00885l-.02246-.00019c-.16529,0-.36817.004-.58558.01093-.04815.00152-.099.00372-.14947.00573-.23.00922-.47852.02222-.75232.04364l-.02057.00135c-.27142.02154-.56879.0534-.87561.09112-.0733.009-.14789.01886-.2229.029-.32257.04334-.65637.09333-1.00684.15906l-.79272.00684.00006-.00012h-.00006a19.11423,19.11423,0,0,0,1.54718-2.98365,15.179,15.179,0,0,0,1.09857-5.40789c.155-7.64716-5.16553-14.27076-6.4873-15.81562a23.85821,23.85821,0,0,0-8.45661-6.30078l-.10534-.0451-.0857-.03656c-.0318-.01337-.07269-.02979-.10846-.04462-.05078-.021-.1018-.042-.16046-.06561-.04443-.01783-.09637-.03784-.14526-.057-.062-.02423-.12537-.04889-.1944-.075-.05572-.02112-.11682-.04352-.17706-.06567-.07282-.0268-.14832-.05414-.22754-.08228-.06818-.02417-.13983-.049-.21271-.07391-.08337-.02863-.17059-.05774-.26-.08716-.07745-.02551-.15649-.05109-.23834-.077-.09747-.03088-.20026-.06207-.30389-.09338-.08374-.02527-.16712-.05054-.25483-.07593-.11572-.03351-.23815-.06689-.36065-.10028-.08576-.02338-.16919-.04688-.25818-.07007-.14215-.03711-.2923-.0733-.44245-.10956-.07873-.019-.15356-.03845-.23437-.05713q-.348-.08037-.7215-.15557c-.05926-.01191-.1231-.0224-.18335-.034-.19439-.03748-.391-.07428-.595-.10858-.10052-.01691-.20611-.03168-.309-.04767-.17206-.0268-.34454-.05328-.52276-.07727-.11536-.0155-.23462-.02887-.35254-.04309-.173-.02082-.34735-.041-.5257-.05872-.12646-.01257-.25568-.02325-.3847-.03418q-.26688-.02252-.54047-.04-.20178-.01263-.40753-.02215c-.18573-.00873-.37427-.01483-.56445-.01953-.13941-.00342-.279-.00653-.42078-.00769-.123-.001-.24927.00158-.3739.00238-.52991.00348-1.07044.01812-1.62964.0581-3.44434.24561-8.68414.61939-12.84741,4.62476a15.5081,15.5081,0,0,0-3.55732,5.35565c-.07183.17706-.13549.3587-.20178.53925a17.75956,17.75956,0,0,0-.9295,3.68835l-.09937-.33008a17.275,17.275,0,0,0-3.75244-7.54248c-.24792-.28357-.5039-.55151-.76452-.80981-.08313-.0824-.16907-.159-.25342-.23889-.181-.17151-.36347-.34-.54969-.50025-.10076-.08673-.203-.17-.30517-.25348q-.26569-.21706-.537-.42071c-.10516-.07862-.21057-.15668-.317-.23212-.18994-.1347-.38208-.26318-.57562-.38824-.098-.0633-.19507-.12873-.29382-.18964-.23871-.1471-.48016-.28583-.72321-.41925-.05438-.02991-.10785-.063-.16247-.09229q-.45054-.24087-.90906-.4516c-.07819-.03607-.15723-.06793-.23572-.10278-.22839-.1015-.45746-.19983-.6878-.2912-.10724-.04254-.21491-.08185-.32245-.12225-.20459-.07684-.40943-.15088-.61481-.22022q-.17092-.05768-.3421-.11206-.30853-.098-.61743-.185c-.10742-.0304-.21485-.06183-.32227-.0904-.23346-.06213-.46667-.11883-.69958-.17266-.07685-.01777-.15393-.03791-.23072-.05475q-.4682-.103-.93292-.18573c-.045-.00794-.08929-.01386-.13421-.02155q-.39423-.06756-.78431-.122c-.09906-.01367-.19714-.025-.29571-.03741-.20667-.02613-.41254-.05054-.61658-.07141-.10614-.01087-.21155-.02063-.31689-.03009q-.29389-.02646-.58313-.04633c-.1034-.00708-.20691-.01434-.30933-.0202-.20178-.0116-.40088-.02021-.59851-.02741-.08539-.003-.17187-.00738-.25635-.0097-.27148-.00745-.53937-.01172-.80133-.0119L114.847,4.493c-.35827,0-.70367.00806-1.04119.01953-.06672.00226-.13392.00434-.19977.007-.321.013-.63282.02985-.93091.05066-.051.00354-.09979.00769-.15009.01141-.281.02094-.5523.04438-.80926.07013-.02838.00287-.05866.00531-.08673.00824-.27307.02814-.52881.05841-.77075.08942-.04645.00592-.09253.0119-.13776.01794-.23346.031-.4552.06244-.65424.09345l-.04724.00763q-.28975.04558-.52472.08777l-.06384.01117c-.15723.02838-.29462.05462-.40851.07733l-.0473.00952c-.10516.02124-.19623.0404-.25562.05328A23.85984,23.85984,0,0,0,99.162,9.56617a24.64347,24.64347,0,0,0-6.94617,9.095c-.41956.93268-.90265,2.01252-1.33618,3.21058-.05414.14965-.10681.30157-.15912.455-.19208.56293-.36853,1.15088-.52216,1.76154q-.11571.46-.21051.93658-.06161.30981-.11309.626a16.0805,16.0805,0,0,0-.21406,2.43268c-.00018.0227-.00231.04461-.00238.06732a14.61157,14.61157,0,0,0,.53894,4.01465,15.8119,15.8119,0,0,0,3.88422,6.6372h-.00012l.00012.00013-.02429-.0008c-.36627-.02295-.73035-.031-1.09265-.0296a16.10724,16.10724,0,0,0-1.64881.09589c-.12329.01318-.24566.02917-.3681.0451a15.5651,15.5651,0,0,0-1.61652.28711,38.30735,38.30735,0,0,0-3.45623-6.45093Q79.1624,22.74868,66.1917,17.1316,53.22042,11.5176,34.376,11.51735q-15.489,0-22.90992,4.646-7.424,4.64685-7.422,12.64911a10.08436,10.08436,0,0,0,4.25976,8.64813c2.6128,1.8999,6.59009,2.91455,11.89881,3.06641v.00012h0q-.61671,3.35816-.99262,7.51709-.58062,6.45521-.70971,13.55273-.03242,1.775-.02454,3.5174.0239,5.22738.41156,10.16388.29691,3.80089.76935,7.03638h0v.00012q-6.47379,1.37-9.48126,4.32178A13.317,13.317,0,0,0,6.10961,96.8329,12.46832,12.46832,0,0,0,8.11,103.41566q1.86951,2.8407,6.77668,4.38794,4.90329,1.54944,13.93963,1.54883a81.71342,81.71342,0,0,0,26.07215-3.93628,60.686,60.686,0,0,0,20.19909-11.1001A49.48056,49.48056,0,0,0,85.6942,81.88978a15.65717,15.65717,0,0,0,7.841,2.74756c.053.00336.124.00745.20739.01154l.03113.00134c.07172.00336.15607.00653.24683.00934l.087.00238c.08954.00232.18854.00378.293.00476l.09412.00091c.04694.00019.102-.001.15155-.00116.19263-.00073.40619-.00531.63477-.01361.05126-.00183.09887-.00274.15173-.00512.26257-.0116.54883-.031.848-.05671.07141-.00616.1452-.01355.21851-.02069.32086-.03112.65368-.06842,1.00506-.12078l.02948-.00495c.339-.051.69367-.11761,1.05365-.19275.08344-.01739.16657-.0346.2508-.0534.36822-.08234.74371-.17743,1.12457-.28986.06525-.01923.13122-.04217.19672-.06244q.52285-.16149,1.0523-.3667c.06775-.0263.13532-.04974.20313-.07721.38519-.15613.76977-.33441,1.15136-.53027.0846-.04346.16858-.08972.25275-.13525a12.70985,12.70985,0,0,0,1.15985-.69886l.004-.00256-.00018.00024.00018-.00012a19.80153,19.80153,0,0,0-3.6499,6.41846,18.8801,18.8801,0,0,0-.98877,5.90674c-.07233,8.23657,4.987,14.85876,5.50683,15.51892a23.85778,23.85778,0,0,0,8.19245,6.64087c.10925.05279.27148.13.4812.22375l.08356.0365c.08252.03638.16772.07373.26342.11426.043.01819.09308.03827.13868.05719.0899.03729.18042.07471.28033.11444.05689.02264.12055.04651.18054.06976.09809.038.1966.07611.303.11554.07129.02643.149.05365.22394.08051.10657.03827.21356.07647.32745.11542.08161.02789.16877.056.254.08416.11792.03882.23682.0777.36157.11664.09272.02893.19025.05756.28675.08643.12549.03747.25226.07489.38391.11187.10461.02936.21338.05829.32178.08722.13494.036.2716.07178.41235.10675.11389.02832.23114.05579.34875.08332.14338.0335.28876.0664.4375.09845.12348.02655.24958.05224.37665.07757q.22971.04578.467.08869.19685.03543.39911.06842.24243.03973.49256.0755.20928.03012.42327.05749c.171.02173.34528.04126.52094.05994.14539.01544.29144.03033.44.04352.1803.016.36414.02911.54883.0415.15216.01019.3045.0202.4596.02777.189.00922.38177.01465.575.01972.1571.00415.3139.00848.47375.0097.31317.00232.629.00171.95227-.00812,3.45148-.105,8.70215-.26465,13.02545-4.09668a16.942,16.942,0,0,0,5.36554-12.463,18.62518,18.62518,0,0,0-.10669-2.179v-.00013l.19812.89112a19.0581,19.0581,0,0,0,3.59082,6.97461l.0077.00872c.23236.28113.47271.547.71752.80378.0799.0838.16236.16229.24347.24359.17212.17242.34607.34112.52344.50244.09509.08649.19116.17053.2876.2539q.25983.2244.52624.43378c.09546.0752.19056.15149.28717.22388.20289.152.40888.29645.61646.43664.07159.04841.14185.10029.214.14728q.41885.27283.84827.51551c.07012.03967.14172.07489.21221.1134.22022.12018.44147.23663.66486.34576.10376.05072.20831.09827.31274.14667q.29224.1355.58716.25989c.10974.046.21955.09137.32972.135.20355.08056.40783.15625.61267.229.098.03479.19561.07141.29382.10449q.41547.1399.83276.2602c.02436.007.04865.01544.073.02234.30188.08551.60413.16192.906.23291.09857.02319.197.04315.29541.06481.20581.04529.41137.08869.61645.12775.11395.02173.22772.04193.34137.06177q.29042.05071.579.09363c.11029.01642.22077.03332.33057.04809.21045.02838.41955.05286.62787.0755.08667.00946.17413.02082.26037.0293q.43258.04266.8573.07056c.07373.00482.14575.00732.21906.01153.2124.01221.42364.02283.632.03.10626.00366.21087.0058.316.00824.175.00409.34887.00708.5205.008q.1441.00083.28644.00024c.3208-.00134.6369-.00641.94293-.01721.04236-.00153.08277-.004.12482-.00562q.41438-.01638.807-.04254c.07251-.0047.14569-.00915.217-.01428.28058-.0202.5534-.04309.81463-.0686.05652-.00556.11023-.01154.16584-.01728q.33518-.03451.646-.07293c.05445-.00672.111-.01319.16425-.02q.34689-.0446.65765-.09149c.05542-.00831.108-.01667.16162-.025.17536-.02722.34265-.0545.49732-.08117.03051-.00525.06421-.01062.09393-.01587.17261-.03034.32819-.05945.47119-.0871l.12586-.02466c.11761-.02338.22729-.04565.31976-.06531l.03369-.007a23.86172,23.86172,0,0,0,9.57282-4.4248,24.64409,24.64409,0,0,0,6.97839-9.07007,25.5348,25.5348,0,0,0,2.503-8.01367q1.499,9.17249,5.09973,13.314,3.70377,4.24366,10.30451,4.24317,8.89032,0,12.46-4.647,3.56717-4.648,3.5697-13.403a60.62989,60.62989,0,0,0-.53906-7.67767q-.53981-4.17334-1.34693-8.01465a53.69545,53.69545,0,0,0-1.75091-6.5332h.00006l-.00006-.00013h.53833q6.46563,14.95167,11.98889,23.37085,5.52155,8.41992,11.51636,11.85376a26.46706,26.46706,0,0,0,13.403,3.43457q8.35053,0,13.20075-4.3103a14.56772,14.56772,0,0,0,1.44543-1.50537,11.57577,11.57577,0,0,0,1.88709,3.03857q3.9342,4.39527,11.41009,4.39356a21.147,21.147,0,0,0,9.63861-1.967,14.52713,14.52713,0,0,0,6.09833-5.83594,26.34648,26.34648,0,0,0,3.01685-9.63916q1.0479-4.98341,1.83551-11.148c.07928-.62012.13769-1.24658.20294-1.87085l.02417.00165c.87219.072,1.73565.12311,2.5946.16321.26172.0122.52161.01989.78211.02917q.95323.03378,1.89544.04071c.25757.00189.51563.00531.77191.00421C307.5,79.12678,308.33629,79.112,309.16387,79.07521ZM61.48125,59.53151a20.86159,20.86159,0,0,1-1.67847,8.7124,13.71438,13.71438,0,0,1-4.51727,5.6792A10.72257,10.72257,0,0,1,48.961,75.9236q-3.61542,0-4.90436-4.58252-1.292-4.57911-1.29132-14.64942v-.00012a90.97185,90.97185,0,0,1,.38776-9.61548q.38736-3.41784,1.48382-4.71118a3.62445,3.62445,0,0,1,2.90466-1.29053,11.132,11.132,0,0,1,5.35584,1.355A14.32925,14.32925,0,0,1,57.35027,46.237a18.61077,18.61077,0,0,1,3.03345,5.80859,24.0596,24.0596,0,0,1,1.09753,7.48584v.00013Zm93.835.98559q0,7.63-4.86248,11.51709-4.86393,3.88989-12.40729,3.88941-9.22322,0-14.25122-5.18653a17.129,17.129,0,0,1-5.03076-12.355V58.382a15.259,15.259,0,0,1,4.77887-11.36475q4.779-4.65087,12.99469-4.65234,9.21908,0,14.00024,5.415a18.63638,18.63638,0,0,1,4.778,12.73706v.00012ZM243.3687,41.32862q0,6.73755-3.90643,10.17017a14.54114,14.54114,0,0,1-9.96777,3.43457q-7.40964,0-11.4491-4.58008a15.93425,15.93425,0,0,1-4.04157-10.90991v-.00012a14.15931,14.15931,0,0,1,3.83924-10.03589q3.83926-4.10669,10.43963-4.10791,7.40644,0,11.2475,4.78149a17.43074,17.43074,0,0,1,3.8385,11.24756v.00012Zm54.85559,14.9751a7.45335,7.45335,0,0,1-3.08215-6.09839v-.00012a11.54562,11.54562,0,0,1,.85266-4.262,13.82233,13.82233,0,0,1,2.36041-3.93433,12.201,12.201,0,0,1,3.60639-2.88525,9.91183,9.91183,0,0,1,4.72149-1.115,10.42149,10.42149,0,0,1,4.7215,1.04956,11.58114,11.58114,0,0,1,3.541,2.68823,12.43828,12.43828,0,0,1,2.22955,3.60645,10.227,10.227,0,0,1,.78656,3.80346v.00013a8.723,8.723,0,0,1-3.08222,6.88476q-3.08257,2.69019-8.45874,2.689A12.87075,12.87075,0,0,1,298.22429,56.30372Z" fill="#fff"/><path d="M72.61944,141.04023l-8.05488-.02105.00214-.81391h0l.00171-.67035.0047-1.80572,5.73529.01513a1.83583,1.83583,0,0,0,1.38086-.51367,2.35133,2.35133,0,0,0,.50586-1.67578,3.9269,3.9269,0,0,0-.55908-2.07031l-7.05176-.01819.00537-2.06775h-.00031l.0022-.84723,6.61334.01715a1.7976,1.7976,0,0,0,1.38038-.52929,2.40951,2.40951,0,0,0,.50585-1.69141,3.93408,3.93408,0,0,0-.55908-2.06934l-10.34228-.02734a2.70778,2.70778,0,0,0-2.92285,2.9082l-.02558,9.95508-.0086,3.30274a2.70431,2.70431,0,0,0,2.90771,2.92089l9.15137.02442a1.83583,1.83583,0,0,0,1.38086-.51367,2.352,2.352,0,0,0,.50537-1.67578,4.17009,4.17009,0,0,0-.169-1.22266A3.8034,3.8034,0,0,0,72.61944,141.04023Z" fill="#fff"/><path d="M89.03154,126.86933a13.89776,13.89776,0,0,0-5.686-1.0957q-1.19093-.00292-2.69531.13379a13.0589,13.0589,0,0,0-2.85352.57324,2.78617,2.78617,0,0,0-.97314.57617,1.34734,1.34734,0,0,0-.37891,1.01856l-.0376,14.63574a2.33356,2.33356,0,0,0,1.71778,2.293,11.22564,11.22564,0,0,0,2.835.63379q1.582.16113,2.64795.16309a12.8915,12.8915,0,0,0,5.53466-1.09766,8.26008,8.26008,0,0,0,3.69092-3.3291A10.79944,10.79944,0,0,0,94.16436,135.8a10.55551,10.55551,0,0,0-1.34912-5.62988A8.325,8.325,0,0,0,89.03154,126.86933Zm-1.8833,13.14258a4.69759,4.69759,0,0,1-3.498,1.37012c-.27149-.001-.57959-.0166-.92432-.04883s-.63184-.06933-.86133-.1123l.02783-10.90723c.314-.04.62207-.07129.92481-.09082s.60058-.03027.89355-.0293a4.90794,4.90794,0,0,1,2.55274.64942,4.26853,4.26853,0,0,1,1.67187,1.89941,7.30581,7.30581,0,0,1,.58741,3.13672A5.65423,5.65423,0,0,1,87.14824,140.01191Z" fill="#fff"/><path d="M102.11748,126.54316a3.73552,3.73552,0,0,0-2.25537-.53906,9.78167,9.78167,0,0,0-1.42627.10547c-.49121.07324-.8623.12891-1.11328.16992l-.03223,12.44238h.00031l-.011,4.2627a2.59494,2.59494,0,0,0,.65283,2.02344,3.48545,3.48545,0,0,0,2.28662.58593,11.26088,11.26088,0,0,0,1.47364-.09082,8.87285,8.87285,0,0,0,1.06543-.18457l.03613-13.82129h-.00018l.0075-2.88378A2.50838,2.50838,0,0,0,102.11748,126.54316Z" fill="#fff"/><path d="M120.69854,140.4123a14.739,14.739,0,0,1-1.71.77832,6.0511,6.0511,0,0,1-2.1792.33985,5.13432,5.13432,0,0,1-3.86719-1.45117,5.80547,5.80547,0,0,1-1.38428-4.20313,7.31352,7.31352,0,0,1,.58838-3.05566,4.27891,4.27891,0,0,1,1.69727-1.9375,5.13756,5.13756,0,0,1,2.7124-.667,5.77508,5.77508,0,0,1,2.16162.38184,9.02253,9.02253,0,0,1,1.72168.91211,3.28812,3.28812,0,0,0,.94287-.95215,2.46237,2.46237,0,0,0,.41064-1.39453,2.42133,2.42133,0,0,0-.7163-1.72559,4.93949,4.93949,0,0,0-2.06495-1.19628,10.59827,10.59827,0,0,0-3.25878-.44727,10.4624,10.4624,0,0,0-4.939,1.16309,8.80908,8.80908,0,0,0-3.56641,3.40625,12.38914,12.38914,0,0,0,.01807,11.206,8.33129,8.33129,0,0,0,3.65869,3.2998,12.06572,12.06572,0,0,0,5.1211,1.07911,10.79132,10.79132,0,0,0,2.5083-.24512,9.79505,9.79505,0,0,0,1.59961-.49707,2.82677,2.82677,0,0,0,1.28808-1,2.41485,2.41485,0,0,0,.3794-1.31445,3.33483,3.33483,0,0,0-.29444-1.44336A2.79306,2.79306,0,0,0,120.69854,140.4123Z" fill="#fff"/><path d="M129.57256,126.61348a3.73545,3.73545,0,0,0-2.25537-.53907,9.78754,9.78754,0,0,0-1.42627.10645c-.49121.07226-.86231.12793-1.11328.16992l-.03223,12.44238h.00031l-.01105,4.2627a2.59247,2.59247,0,0,0,.65283,2.02246,3.47407,3.47407,0,0,0,2.28662.58594,11.095,11.095,0,0,0,1.47364-.09082,8.4943,8.4943,0,0,0,1.06543-.18457l.03613-13.82129h-.00019l.00751-2.88379A2.50968,2.50968,0,0,0,129.57256,126.61348Z" fill="#fff"/><path d="M144.02422,125.14668l3.13867-1.80957a3.31877,3.31877,0,0,0,1.17822-1.04688,2.19589,2.19589,0,0,0,.30079-1.1123,2.01831,2.01831,0,0,0-.73291-1.584,3.02013,3.02013,0,0,0-2.05127-.64843l-3.64258,2.81152a1.73659,1.73659,0,0,0-.61328.76563,2.50627,2.50627,0,0,0-.11133.7373,1.70827,1.70827,0,0,0,.63916,1.31836A2.80007,2.80007,0,0,0,144.02422,125.14668Z" fill="#fff"/><path d="M148.34453,127.03828a11.52384,11.52384,0,0,0-10.07617-.02637,8.70957,8.70957,0,0,0-3.56641,3.3916,10.69387,10.69387,0,0,0-1.33007,5.49707,10.97973,10.97973,0,0,0,1.2705,5.51954,8.4681,8.4681,0,0,0,3.51661,3.4248,11.75467,11.75467,0,0,0,10.186.02637,8.56584,8.56584,0,0,0,3.55078-3.40723,10.884,10.884,0,0,0,1.31494-5.51172,10.69948,10.69948,0,0,0-1.30224-5.50488A8.68281,8.68281,0,0,0,148.34453,127.03828Zm-1.9458,13.1582a3.81261,3.81261,0,0,1-3.10644,1.40235,3.85575,3.85575,0,0,1-3.11524-1.41895,8.26074,8.26074,0,0,1,.022-8.49316,4.12246,4.12246,0,0,1,6.22168.03222,8.32822,8.32822,0,0,1-.022,8.47754Z" fill="#fff"/><path d="M172.94805,126.74141a3.36911,3.36911,0,0,0-2.19238-.55469,10.6208,10.6208,0,0,0-1.41065.08984c-.46.0625-.80517.11328-1.03467.15527l-.01269,4.95215q-.0044,1.66114.00635,3.50977c.00634,1.068.06384,2.23859.15594,3.47809l-.14911.03265c-.18652-.50293-.36865-.96191-.54492-1.38086q-.26587-.627-.52979-1.22363-.26513-.59619-.57666-1.22461l-3.11767-6.33887a2.99647,2.99647,0,0,0-1.67285-1.64941,6.7812,6.7812,0,0,0-2.2085-.36621,5.924,5.924,0,0,0-1.94385.30859,2.61874,2.61874,0,0,0-1.35009.93652l-.019,7.27149.00025-.00006-.02222,8.49322a2.513,2.513,0,0,0,.62207,1.96094,3.36732,3.36732,0,0,0,2.19238.55469,10.66371,10.66371,0,0,0,1.42676-.0918q.7046-.09082,1.01856-.15332l.01318-4.9834q.00292-1.12793.00586-2.30371.00292-1.1748-.041-2.49121c-.022-.66937-.06433-1.37048-.11664-2.08844l.20063-.0434q.31128.75439.56054,1.38184.249.627.51416,1.207.2644.58008.57666,1.24024l3.08643,6.33886a3.03841,3.03841,0,0,0,1.688,1.665,7.53317,7.53317,0,0,0,4.18408.10449,3.2141,3.2141,0,0,0,1.271-.65429l.01953-7.61621h-.00006l.022-8.55567A2.51482,2.51482,0,0,0,172.94805,126.74141Z" fill="#fff"/><path d="M199.13018,134.12715l-5.29639-.01367a1.83655,1.83655,0,0,0-1.3335.498,2.196,2.196,0,0,0-.521,1.62793,4.03924,4.03924,0,0,0,.16894,1.19238,4.91548,4.91548,0,0,0,.3584.90918l3.35352.00879-.00781,3.00879a5.8488,5.8488,0,0,1-.8003.26367,4.58784,4.58784,0,0,1-1.20654.13868,5.761,5.761,0,0,1-2.72559-.63379,4.41542,4.41542,0,0,1-1.85986-1.90137,6.66263,6.66263,0,0,1-.666-3.15137,6.072,6.072,0,0,1,.71338-2.99121,4.95067,4.95067,0,0,1,1.99512-1.96972,6.02194,6.02194,0,0,1,2.94775-.69727,7.88032,7.88032,0,0,1,2.72559.44531,11.86418,11.86418,0,0,1,1.97217.915,3.30208,3.30208,0,0,0,.94287-.9541,2.51572,2.51572,0,0,0-.36768-3.19824,5.24412,5.24412,0,0,0-2.23779-1.19629,12.41413,12.41413,0,0,0-3.43066-.43262,12.75036,12.75036,0,0,0-5.50342,1.14649,9.27862,9.27862,0,0,0-3.92676,3.40527,10.01953,10.01953,0,0,0-1.47168,5.54394,10.37473,10.37473,0,0,0,1.42676,5.73926,8.44333,8.44333,0,0,0,3.894,3.27051,13.97576,13.97576,0,0,0,5.46582,1.04785,15.25167,15.25167,0,0,0,3.33887-.36719,9.55529,9.55529,0,0,0,2.55664-.87109,3.56233,3.56233,0,0,0,1.09961-.90723,2.44586,2.44586,0,0,0,.34814-1.44043l.01709-6.45605a1.79835,1.79835,0,0,0-1.96972-1.97949Z" fill="#fff"/><path d="M218.8416,140.885q-.64086-.84815-1.3584-1.75781c-.21014-.26667-.41015-.54224-.61615-.81244a7.25219,7.25219,0,0,0,2.30024-2.0362,5.70957,5.70957,0,0,0,1.08984-3.41308,6.06907,6.06907,0,0,0-2.18115-4.91113q-2.18994-1.83986-6.51465-1.84961a24.83477,24.83477,0,0,0-3.00879.16406,11.78405,11.78405,0,0,0-2.47754.542,2.7876,2.7876,0,0,0-.97314.57715,1.3473,1.3473,0,0,0-.37891,1.01855l-.02289,8.93164H204.7l-.01514,5.92383a2.5963,2.5963,0,0,0,.65284,2.02344,3.48537,3.48537,0,0,0,2.28662.58594,11.4353,11.4353,0,0,0,1.47363-.09082,8.64062,8.64062,0,0,0,1.06543-.18555l.01593-6.11084,1.666.00433,2.64819,4.29987a6.37456,6.37456,0,0,0,1.29687,1.57031,3.5108,3.5108,0,0,0,3.91748.01074,3.0253,3.0253,0,0,0,1.14844-1.6582,15.11977,15.11977,0,0,0-.84326-1.25683Q219.482,141.73359,218.8416,140.885Zm-8.70166-10.27148c.2295-.041.44873-.07227.65821-.0918.20849-.01953.44873-.03027.7207-.0293a3.89464,3.89464,0,0,1,2.42725.61719,2.16583,2.16583,0,0,1,.76367,1.80371,2.0818,2.0818,0,0,1-.85108,1.7998,3.58906,3.58906,0,0,1-2.16406.60547l-1.56689-.0039Z" fill="#fff"/><path d="M237.57256,127.26875a11.51509,11.51509,0,0,0-10.07617-.02637A8.70951,8.70951,0,0,0,223.93,130.634a10.69127,10.69127,0,0,0-1.33008,5.49707,10.98219,10.98219,0,0,0,1.27051,5.51953,8.468,8.468,0,0,0,3.5166,3.42481,11.76365,11.76365,0,0,0,10.186.02637,8.56584,8.56584,0,0,0,3.55078-3.40723,10.88653,10.88653,0,0,0,1.31494-5.51172,10.69692,10.69692,0,0,0-1.30225-5.50488A8.68273,8.68273,0,0,0,237.57256,127.26875Zm-1.9458,13.1582a3.809,3.809,0,0,1-3.10645,1.40137,3.85493,3.85493,0,0,1-3.11523-1.418,8.26074,8.26074,0,0,1,.022-8.49316,4.12059,4.12059,0,0,1,6.22168.03222,8.32822,8.32822,0,0,1-.022,8.47754Z" fill="#fff"/><path d="M259.60527,127.32539a11.52384,11.52384,0,0,0-10.07617-.02637,8.70948,8.70948,0,0,0-3.5664,3.3916,10.69377,10.69377,0,0,0-1.33008,5.49707,10.97963,10.97963,0,0,0,1.27051,5.51954,8.46808,8.46808,0,0,0,3.5166,3.4248,11.75467,11.75467,0,0,0,10.186.02637,8.56407,8.56407,0,0,0,3.55127-3.40723,10.894,10.894,0,0,0,1.31494-5.51172,10.70908,10.70908,0,0,0-1.30224-5.50488A8.68986,8.68986,0,0,0,259.60527,127.32539Zm-1.9458,13.1582a3.8126,3.8126,0,0,1-3.10644,1.40235,3.85862,3.85862,0,0,1-3.11524-1.41895,8.26071,8.26071,0,0,1,.022-8.49316,4.12246,4.12246,0,0,1,6.22168.03222,8.32523,8.32523,0,0,1-.022,8.47754Z" fill="#fff"/><path d="M283.45586,127.24531a3.60781,3.60781,0,0,0-1.97314-.52148,5.21614,5.21614,0,0,0-1.4419.18359,7.08531,7.08531,0,0,0-1.22363.46777q-.53907,2.28663-1.14014,4.62012-.602,2.33351-1.1875,4.55664-.58593,2.2251-1.15429,4.166l-.18848-.001q-.93237-3.04248-1.78662-5.85058-.85547-2.80518-1.69287-5.87989a3.0057,3.0057,0,0,0-1.07715-1.79,3.30789,3.30789,0,0,0-1.89453-.50586,4.408,4.408,0,0,0-1.77246.35547,4.10073,4.10073,0,0,0-1.27051.7959q.40137,1.63184.978,3.55957.57348,1.9292,1.25878,3.875.68482,1.94385,1.36915,3.76367.68554,1.8208,1.27685,3.26368.59106,1.44286,1.02783,2.32226a2.38093,2.38093,0,0,0,1.29834,1.084,5.88086,5.88086,0,0,0,2.24024.39746,6.861,6.861,0,0,0,2.022-.27735,3.8385,3.8385,0,0,0,1.36523-.65429,11.23945,11.23945,0,0,0,.91309-1.65918q.56763-1.18946,1.21338-2.78614.64746-1.5952,1.29394-3.36523.64746-1.76953,1.18457-3.44531.53614-1.67431.85352-2.99121a9.40646,9.40646,0,0,0,.31836-1.97266A1.86787,1.86787,0,0,0,283.45586,127.24531Z" fill="#fff"/><path d="M300.763,142.53828a3.76852,3.76852,0,0,0-.38867-.91016l-8.05506-.02105.00214-.81488h.00018l.00635-2.4751,5.73584.01514a1.83338,1.83338,0,0,0,1.37988-.51465,2.347,2.347,0,0,0,.50586-1.67481,3.8319,3.8319,0,0,0-.16992-1.19238,3.87144,3.87144,0,0,0-.38867-.87793l-7.052-.01819.0075-2.915,6.61286.01715a1.80223,1.80223,0,0,0,1.38086-.52929,2.41118,2.41118,0,0,0,.50488-1.69141,3.86073,3.86073,0,0,0-.168-1.19141,3.98775,3.98775,0,0,0-.38965-.8789l-10.34277-.02637a2.70576,2.70576,0,0,0-2.92285,2.90723l-.00574,2.22558h-.00012l-.02832,11.03223a2.70438,2.70438,0,0,0,2.90723,2.92188l9.15136.02343a1.83081,1.83081,0,0,0,1.38086-.51269,2.34973,2.34973,0,0,0,.50586-1.67578A4.15316,4.15316,0,0,0,300.763,142.53828Z" fill="#fff"/></g></svg>