<?xml version="1.0" encoding="UTF-8"?>
<svg id="Capa_2" data-name="Capa 2" xmlns="http://www.w3.org/2000/svg" viewBox="0 0 410.22 368.9">
  <g id="ELEMENTOS">
    <path d="M410.13,308.71c.13-.25.07-.6.07-1.07,0-.05,0-.09,0-.13,0-.05,0-.09,0-.13,0-10.56-7.98-19.24-18.23-20.38,10.26-1.13,18.23-9.82,18.23-20.38,0-.05,0-.09,0-.13,0-.05,0-.09,0-.13,0-.45-.03-.91-.08-1.37-.56-7.14-4.77-13.25-10.77-16.46-2.1-1.4-4.34-2.36-6.59-2.67,9.87-1.49,17.44-9.97,17.44-20.25,0-11.33-9.18-20.51-20.51-20.51,11.33,0,20.51-9.18,20.51-20.51s-9.18-20.51-20.51-20.51c11.33,0,20.51-9.18,20.51-20.51s-9.18-20.51-20.51-20.51c11.33,0,20.51-9.18,20.51-20.51s-8.6-19.88-19.41-20.45c1.56,0,3.13-.31,4.68-.9,8.17-2.4,14.21-9.74,14.67-18.58.03-.37.06-.73.06-1.09,0-2.12-.32-4.17-.92-6.1-.4-1.28-.92-2.51-1.55-3.68-.32-.58-.66-1.15-1.03-1.69-3.69-5.46-9.93-9.04-17.01-9.04,7.08,0,13.32-3.59,17.01-9.04.37-.55.71-1.11,1.03-1.69.63-1.16,1.15-2.39,1.55-3.68.6-1.93.92-3.97.92-6.1,0-.29.07-.65-.05-.99-.52-10.86-9.47-19.52-20.46-19.52s-20.51,9.18-20.51,20.51c0-11.33-9.18-20.51-20.51-20.51s-20.51,9.18-20.51,20.51c0-11.33-9.18-20.51-20.51-20.51s-20.51,9.18-20.51,20.51c0-11.33-9.18-20.51-20.51-20.51s-20.51,9.18-20.51,20.51c0-11.33-9.18-20.51-20.51-20.51s-20.51,9.18-20.51,20.51c0-11.33-9.18-20.51-20.51-20.51s-20.51,9.18-20.51,20.51c0-11.33-9.18-20.51-20.51-20.51s-20.51,9.18-20.51,20.51c0-11.33-9.18-20.51-20.51-20.51s-20.51,9.18-20.51,20.51c0-11.33-9.18-20.51-20.51-20.51s-20.51,9.18-20.51,20.51C41.04,9.18,31.86,0,20.53,0S.59,8.65.07,19.52c-.12.34-.05.71-.05.99,0,2.12.32,4.17.92,6.1.4,1.28.92,2.52,1.55,3.68.32.58.66,1.15,1.03,1.69,3.69,5.46,9.93,9.04,17.01,9.04-7.08,0-13.32,3.59-17.01,9.04-.37.55-.71,1.11-1.03,1.69-.63,1.16-1.15,2.39-1.55,3.68-.6,1.93-.92,3.97-.92,6.1,0,.36.02.72.06,1.09.45,8.59,6.17,15.77,14.01,18.37,1.63.7,3.3,1.1,4.94,1.13C8.4,82.89.02,91.73.02,102.55s9.18,20.51,20.51,20.51C9.2,123.05.02,132.24.02,143.56s9.18,20.51,20.51,20.51C9.2,164.07.02,173.25.02,184.58s9.18,20.51,20.51,20.51C9.2,205.09.02,214.27.02,225.6c0,10.37,7.71,18.92,17.7,20.29-1.92.27-3.83,1-5.65,2.06-6.64,3.02-11.38,9.46-11.96,17.08-.05.44-.08.89-.08,1.32,0,.04,0,.09,0,.13s0,.09,0,.13c0,10.56,7.98,19.24,18.23,20.38C8,288.13.02,296.81.02,307.37c0,.05,0,.09,0,.13s0,.09,0,.13c0,.39.02.66.06.87.59,10.79,9.51,19.37,20.45,19.37C9.2,327.88.02,337.06.02,348.39s9.18,20.51,20.51,20.51,20.51-9.18,20.51-20.51h0c.11,11.24,9.24,20.31,20.5,20.31s20.4-9.08,20.5-20.31h0c.11,11.24,9.24,20.31,20.5,20.31s20.4-9.08,20.5-20.31h0c.1,11.24,9.24,20.31,20.5,20.31s20.4-9.08,20.5-20.31h0c.1,11.24,9.24,20.31,20.5,20.31s20.4-9.08,20.5-20.31h0c.1,11.24,9.24,20.31,20.5,20.31s20.4-9.08,20.5-20.31h0c.11,11.24,9.24,20.31,20.5,20.31s20.4-9.08,20.5-20.31h0c.11,11.24,9.24,20.31,20.5,20.31s20.4-9.08,20.5-20.31h0c.11,11.24,9.24,20.31,20.5,20.31s20.4-9.08,20.5-20.31h0c0,11.33,9.18,20.51,20.51,20.51s20.51-9.18,20.51-20.51-9.18-20.51-20.51-20.51c10.87,0,19.75-8.47,20.44-19.17Z"/>
  </g>
</svg>