<?xml version="1.0" encoding="UTF-8"?>
<svg id="Capa_2" data-name="Capa 2" xmlns="http://www.w3.org/2000/svg" viewBox="0 0 419.64 734.51">
  <g id="ELEMENTOS">
    <path d="M419.64,252.07c0-11.3-9.13-20.68-20.43-20.98,11.08-1.21,19.39-10.88,18.96-21.89-.43-10.82-9.18-19.71-20.11-20.3,12.6-3.31,19.5-16.45,15.81-27.54-3.24-9.74-14.04-16.07-25.16-13.84,11.54-6.03,15.33-20.37,9.27-30.35-5.33-8.79-17.29-12.54-27.62-7.87,9.92-8.44,10.44-23.28,2.3-31.67-7.16-7.38-19.66-8.38-28.7-1.51,7.81-10.45,5-25.04-4.79-31.41-8.61-5.59-21-3.79-28.29,4.89,5.27-11.92-.72-25.51-11.68-29.53-9.63-3.54-21.3.96-26.49,11.04,2.47-12.78-6.38-24.68-17.96-26.16-10.19-1.31-20.58,5.7-23.38,16.69-.42-13.02-11.7-22.67-23.33-21.54-10.22.99-18.8,10.13-19.08,21.47-3.31-12.6-16.45-19.5-27.54-15.81-9.74,3.24-16.06,14.03-13.84,25.15-6.03-11.53-20.37-15.32-30.35-9.26-8.78,5.33-12.54,17.28-7.88,27.62-8.44-9.92-23.28-10.43-31.67-2.29-7.38,7.16-8.38,19.66-1.52,28.7-10.45-7.81-25.04-5-31.4,4.8-5.59,8.61-3.79,21,4.89,28.3-11.92-5.27-25.51.71-29.54,11.68-3.54,9.63.96,21.31,11.04,26.5-12.78-2.48-24.68,6.37-26.17,17.96-1.31,10.2,5.7,20.59,16.7,23.38C9.47,188.41-.22,198.51,0,210.12c.21,10.87,9.06,20.22,20.43,20.98C9.14,231.39,0,240.77,0,252.07c0,11.3,9.13,20.68,20.43,20.98C9.14,273.34,0,282.72,0,294.02c0,11.3,9.13,20.68,20.43,20.97C9.14,315.29,0,324.67,0,335.97c0,11.3,9.13,20.68,20.43,20.97C9.14,357.24,0,366.62,0,377.92c0,11.3,9.13,20.68,20.43,20.97C9.14,399.19,0,408.57,0,419.87c0,11.3,9.13,20.68,20.43,20.97C9.14,441.14,0,450.52,0,461.82c0,11.3,9.13,20.68,20.43,20.97C9.14,483.09,0,492.47,0,503.77c0,11.3,9.13,20.68,20.43,20.98C9.14,525.04,0,534.42,0,545.72c0,11.3,9.13,20.68,20.43,20.98C9.14,566.99,0,576.37,0,587.67c0,11.3,9.13,20.68,20.43,20.98C9.14,608.94,0,618.32,0,629.62c0,11.3,9.13,20.68,20.43,20.98-11.46.33-20.56,9.87-20.43,20.98.13,11.53,10.16,21.06,22.06,20.47-12.21-.19-22.16,9.77-22.06,21.48.11,13.14,12.74,20.99,20.99,20.99,11.48,0,20.81-9.22,20.98-20.66.17,11.44,9.5,20.66,20.98,20.66s20.81-9.22,20.98-20.67c.17,11.44,9.5,20.67,20.98,20.67,11.48,0,20.81-9.22,20.98-20.67.17,11.44,9.5,20.67,20.98,20.67,11.48,0,20.81-9.22,20.98-20.67.17,11.44,9.5,20.67,20.98,20.67,11.48,0,20.81-9.22,20.98-20.67.17,11.44,9.5,20.67,20.98,20.67,11.48,0,20.81-9.22,20.98-20.66.17,11.44,9.5,20.66,20.98,20.66,11.48,0,20.81-9.22,20.98-20.67.17,11.44,9.5,20.67,20.98,20.67,11.48,0,20.81-9.22,20.98-20.66.17,11.44,9.5,20.66,20.98,20.66,11.48,0,20.81-9.22,20.98-20.67.17,11.44,9.5,20.67,20.98,20.67,8.17,0,21-7.61,20.99-20.99,0-11.22-9.1-20.61-20.43-20.97,11.3-.3,20.43-9.67,20.43-20.98,0-11.3-9.13-20.68-20.43-20.97,11.3-.3,20.43-9.67,20.43-20.98,0-11.3-9.13-20.68-20.43-20.97,11.3-.3,20.43-9.67,20.43-20.98,0-11.3-9.13-20.68-20.43-20.97,11.3-.3,20.43-9.67,20.43-20.98,0-11.3-9.13-20.68-20.43-20.97,11.3-.3,20.43-9.67,20.43-20.98,0-11.3-9.13-20.68-20.43-20.98,11.3-.3,20.43-9.67,20.43-20.97,0-11.3-9.13-20.68-20.43-20.98,11.3-.3,20.43-9.67,20.43-20.97,0-11.3-9.13-20.68-20.43-20.98,11.3-.3,20.43-9.67,20.43-20.98,0-11.3-9.13-20.68-20.43-20.98,11.3-.3,20.43-9.67,20.43-20.98,0-11.3-9.13-20.68-20.43-20.98,11.3-.3,20.43-9.67,20.43-20.98,0-11.3-9.13-20.68-20.43-20.98,11.3-.3,20.43-9.67,20.43-20.98Z"/>
  </g>
</svg>