<?xml version="1.0" encoding="UTF-8"?>
<svg id="Capa_2" data-name="Capa 2" xmlns="http://www.w3.org/2000/svg" viewBox="0 0 419.64 482.58">
  <g id="ELEMENTOS">
    <path d="M419.64,251.78c0-11.51-9.47-20.98-20.98-20.98,11.51-.12,20.9-9.57,20.98-20.98.08-11.55-9.41-21.19-21.06-21.27,11.29-3.08,18.16-14.46,15.8-25.42-2.21-10.26-11.97-17.63-22.88-16.89,8.83-6.12,11.94-17.83,7.36-27.46-4.52-9.48-15.32-14.45-25.54-11.7,6.92-8.02,7.12-19.91.54-28.09-6.71-8.32-18.67-10.57-28.02-5.19,5.48-9.39,3.18-21.44-5.2-28.03-8.67-6.82-21.44-5.89-29.18,2.29,4.14-10.54-.62-22.54-10.6-27.29-10.33-4.92-23.11-.56-28.36,9.93,2.54-11.46-4.76-22.91-15.99-25.45-11.49-2.6-23.23,5-25.53,16.79.47-11.96-9.25-22.05-21.16-22.05s-21.62,10.09-21.16,22.05c-2.31-11.79-14.04-19.39-25.53-16.79-11.23,2.54-18.53,13.98-15.99,25.45-5.25-10.49-18.03-14.85-28.36-9.93-9.98,4.75-14.75,16.75-10.6,27.29-7.74-8.18-20.51-9.11-29.18-2.29-8.38,6.59-10.68,18.64-5.2,28.03-9.36-5.38-21.32-3.13-28.02,5.19-6.58,8.17-6.38,20.07.54,28.09-10.22-2.75-21.02,2.22-25.54,11.7-4.59,9.63-1.47,21.33,7.36,27.46-10.9-.74-20.66,6.63-22.88,16.89-2.36,10.96,4.51,22.34,15.8,25.42C9.41,188.63-.08,198.27,0,209.82c.08,11.41,9.47,20.86,20.98,20.98C9.47,230.8,0,240.27,0,251.78c0,11.51,9.47,20.98,20.98,20.98C9.47,272.77,0,282.24,0,293.75c0,11.51,9.47,20.98,20.98,20.98C9.47,314.73,0,324.2,0,335.71c0,11.51,9.47,20.98,20.98,20.98C9.47,356.69,0,366.16,0,377.67c0,11.51,9.47,20.98,20.98,20.98C9.47,398.66,0,408.13,0,419.64c0,11.51,9.47,20.98,20.98,20.98C9.47,440.62,0,450.09,0,461.6c0,13.45,12.85,20.98,20.98,20.98,11.59,0,20.98-9.39,20.98-20.98,0,11.59,9.39,20.98,20.98,20.98s20.98-9.39,20.98-20.98c0,11.59,9.39,20.98,20.98,20.98s20.98-9.39,20.98-20.98c0,11.59,9.39,20.98,20.98,20.98s20.98-9.39,20.98-20.98c0,11.59,9.39,20.98,20.98,20.98s20.98-9.39,20.98-20.98c0,11.59,9.39,20.98,20.98,20.98s20.98-9.39,20.98-20.98c0,11.59,9.39,20.98,20.98,20.98s20.98-9.39,20.98-20.98c0,11.59,9.39,20.98,20.98,20.98s20.98-9.39,20.98-20.98c0,11.59,9.39,20.98,20.98,20.98s20.98-9.39,20.98-20.98h0c0,11.59,9.39,20.98,20.98,20.98s20.98-9.47,20.98-20.98-9.47-20.98-20.98-20.98c11.51,0,20.98-9.47,20.98-20.98s-9.47-20.98-20.98-20.98c11.51,0,20.98-9.47,20.98-20.98s-9.47-20.98-20.98-20.98c11.51,0,20.98-9.47,20.98-20.98s-9.47-20.98-20.98-20.98c11.51,0,20.98-9.47,20.98-20.98s-9.47-20.98-20.98-20.98c11.51,0,20.98-9.47,20.98-20.98Z"/>
  </g>
</svg>