<?xml version="1.0" encoding="UTF-8"?>
<svg id="Capa_2" data-name="Capa 2" xmlns="http://www.w3.org/2000/svg" viewBox="0 0 66.68 118.59">
  <defs>
    <style>
      .cls-1 {
        fill: #060000;
      }
    </style>
  </defs>
  <g id="ELEMENTOS">
    <g>
      <path class="cls-1" d="M60.64,43.2c-24.76,2.94-27.78,6.59-29.77,42.19-.02.44-.74.44-.77,0-1.99-35.6-5-39.25-29.77-42.19-.44-.05-.44-.63,0-.68,24.76-2.94,27.78-6.59,29.77-42.19.02-.44.74-.44.77,0,1.99,35.6,5,39.25,29.77,42.19.44.05.44.63,0,.68Z"/>
      <path class="cls-1" d="M66.54,100.72c-10.41,1.24-11.68,2.77-12.51,17.74-.01.18-.31.18-.32,0-.84-14.97-2.1-16.5-12.51-17.74-.19-.02-.19-.27,0-.29,10.41-1.24,11.68-2.77,12.51-17.74.01-.18.31-.18.32,0,.84,14.97,2.1,16.5,12.51,17.74.19.02.19.27,0,.29Z"/>
    </g>
  </g>
</svg>