<?xml version="1.0" encoding="UTF-8"?>
<svg id="Capa_2" data-name="Capa 2" xmlns="http://www.w3.org/2000/svg" viewBox="0 0 94.11 81.79">
  <defs>
    <style>
      .cls-1 {
        fill: #f5c92b;
      }

      .cls-2 {
        fill: #f05b31;
      }
    </style>
  </defs>
  <g id="ELEMENTOS">
    <g>
      <path class="cls-2" d="M13.41,33.34c-1.84-7.89.88-15.98,6.91-20.61,6.89-5.29,14.97-3.65,16.19-3.39.93-.87,10.2-9.28,22.89-6.76,10.13,2.01,15.41,9.59,16.45,11.14,1.19.25,11.77,2.62,15.87,11.97,4.05,9.25.1,21.53-10.33,28.23-1.9,9.05-8.58,15.91-16.7,17.3-7.65,1.31-13.65-2.75-15.06-3.76-.52,3.24-1.14,6.68-3.36,9.1-2.94,3.21-7.77,3.67-12.12,3.72-5.83.07-12.66-.79-15.59-5.82-1.52-2.61-1.6-5.79-1.52-8.81-1.84-.17-5.75-.81-9.3-3.73C2.84,57.91-.2,50.48,2.3,43.52c2.7-7.52,10.23-9.91,11.11-10.18Z"/>
      <path class="cls-1" d="M26.6,47.91c-1.52-6.4,2.44-13.15,8-16.67,5.56-3.52,12.37-4.41,18.94-4.63.32-.01.64-.02.94.07.41.13.74.43,1.03.75,2.46,2.72,2.33,7.38-.27,9.97-.35.34-.72.65-1.1.96-.57.46-1.14.93-1.72,1.39-.9.73-1.87,1.49-3.02,1.66-.78.11-1.58-.07-2.37.04-1.39.18-2.53,1.24-3.19,2.48-.66,1.23-.9,2.64-1.14,4.01-2.11-.33-4.31-.06-6.28.76-.62.26-1.23.58-1.9.67-.55.07-1.11-.01-1.65-.1-1.95-.31-3.9-.62-5.84-.93"/>
      <path d="M93.06,25.59c-1.74-6.04-5.99-10.99-12.17-12.69-.99-.27-2.01-.46-3.03-.57-3.3-4.75-8-8.5-13.39-10.6-7.99-3.1-16.94-1.87-24.24,2.41-1.59.93-3.13,2-4.53,3.21-.83-.49-1.71-.86-2.64-1.06-3.87-.84-7.85.69-11.03,2.84-3.6,2.44-6.75,5.79-8.77,9.67-2.2,4.23-3,9.04-2.61,13.77-3.88,1.37-7.44,3.77-9.17,7.61-3.04,6.73-1.11,15.41,3.52,20.94,2.34,2.8,5.43,4.88,8.78,6.28.33.14.69.12,1.02,0,.07,1,.21,1.99.46,2.97,1.26,4.82,4.9,8.46,9.5,10.17,3.23,1.2,6.79,1.4,10.2,1.16,3.85-.27,7.82-.87,11.04-3.18,2.65-1.9,4.29-4.4,5.16-7.19.2.17.44.32.7.42,6.46,2.62,13.47,2.4,19.82-.4,6.01-2.65,11.5-7.94,11.29-14.96-.01-.4-.04-.79-.08-1.18,4.35-3.27,7.79-7.56,9.65-12.72,1.91-5.31,2.1-11.48.54-16.9ZM40.96,8.09c2.66-1.72,5.56-3.02,8.65-3.75,7.6-1.8,15.59.47,21.32,5.71.82.75,1.52,1.47,2.17,2.21-.28.02-.57.04-.85.07-3.33.35-6.64,1-9.67,2.47-3.32,1.61-6,4.34-7.07,7.92-.18.59-.29,1.18-.37,1.78-.3-.43-.78-.72-1.46-.72-.69,0-1.38.03-2.07.06-.23-3.63.75-7.39,2.74-10.54.54-.86.18-2.07-.67-2.57-.9-.53-2.02-.19-2.57.67-2.41,3.82-3.46,8.27-3.19,12.72-1.12.13-2.24.3-3.34.52-.18-3.28-.93-6.49-2.35-9.46-.87-1.83-2.1-3.8-3.62-5.45.7-.57,1.38-1.04,2.34-1.66ZM48.51,40.06c-.97-.2-1.98-.19-3.02.12-2.93.89-3.85,3.58-4.15,6.29-.6-.17-1.23-.3-1.88-.31-1.71-.05-3.14.56-4.36,1.51-2.45-1.21-4.92-1.35-7.25-.74-.65-5.42,2.38-10.86,6.65-14.1,5.44-4.13,12.53-5.21,19.18-5.29.64,0,1.1-.28,1.41-.67.14,1.54.63,3.03,1.49,4.33-.93,1.29-1.48,2.83-1.43,4.59-.23.04-.47.08-.7.13-2.45.56-4.48,2.14-5.94,4.14ZM15.57,22.76c1.29-3.57,3.76-6.66,6.63-9.1,2.36-2.01,5.48-3.9,8.69-3.88,3.55.02,6.01,3.42,7.57,6.24,1.58,2.85,2.33,6.09,2.42,9.34,0,.07.02.14.03.2-1.8.55-3.55,1.25-5.22,2.13-.01-.09-.03-.17-.06-.26-1.64-4.6-5.31-8.21-9.95-9.76-.93-.31-2.09.36-2.31,1.31-.24,1.04.31,1.97,1.31,2.31.24.08.48.17.72.26.02,0,.02,0,.03.01.11.05.23.1.34.16.44.21.87.44,1.29.7.22.13.43.27.64.42.09.06.17.12.26.18.07.05.14.1.2.15-.06-.05-.12-.09-.18-.14.42.21.82.69,1.15,1.01.35.34.68.7.99,1.08.04.04.32.39.13.16-.19-.22.05.07.08.12.15.21.3.42.44.63.28.43.53.87.76,1.33.08.16.19.35.26.54,0,.02.02.06.04.12.05.14.11.28.16.42.15.41.43.78.78,1.03-.4.29-.8.59-1.19.9-.87.7-1.67,1.49-2.42,2.32-.13-.08-.27-.15-.44-.19-4.66-1.42-9.62-1.87-14.42-.93-.14-2.99.22-5.96,1.25-8.8ZM14.76,63.78c.06.03.09.04.12.05,0,0,0,0,0,0-.04-.02-.08-.04-.12-.06ZM14.89,63.82c-.19-.09-.67-.3-.79-.36-.54-.26-1.07-.55-1.58-.86-1.33-.8-2.56-1.73-3.66-2.82-1.97-1.95-3.43-4.32-4.2-6.98-.86-2.97-1.24-6.24-.44-9.27,1.2-4.55,5.09-6.77,9.37-7.96,4.36-1.2,8.92-.9,13.24.29-1.16,1.92-2,4.02-2.44,6.2-.26-.15-.56-.24-.89-.24-4.46-.04-8.76,1.62-12.1,4.54-.74.65-.71,2,0,2.65.79.73,1.86.69,2.65,0,.18-.16.36-.31.54-.46.02-.02.03-.02.05-.04.09-.07.19-.14.28-.21.39-.28.79-.53,1.2-.77.41-.24.83-.46,1.26-.66.05-.02.44-.19.46-.2.16-.07.33-.13.49-.19.86-.31,1.76-.56,2.66-.72.05,0,.45-.07.5-.08.2-.02.4-.04.59-.06.47-.04.95-.05,1.42-.05.18,0,.36-.04.53-.09,0,1,.09,2,.28,3-2.97,1.82-5.48,4.74-7.07,7.84-1.19,2.32-2.02,4.9-2.34,7.51ZM44.82,74.67c-2.43,2.25-5.81,2.95-9,3.21-2.39.2-4.83.28-7.2-.17-3.54-.68-6.78-2.41-8.63-5.61-2.07-3.57-1.79-7.88-.48-11.66,1.77-5.1,7.04-11.62,12.87-9.82-.02.03-.05.06-.07.1-3.78,5.43-5.79,12-5.91,18.59-.04,2.41,3.71,2.41,3.75,0,.09-4.87,1.33-9.68,3.69-13.95.67-1.21,1.47-2.75,2.52-3.9.12-.1.22-.21.31-.33.37-.36.77-.67,1.21-.89,1.94-.98,4.03.32,5.3,1.78,2.68,3.06,4.34,7.78,4.87,11.77.52,3.9-.23,8.12-3.23,10.89ZM71.51,67.28c-5.87,3.13-12.53,3.36-18.67.86-.34-.14-.7-.12-1.04,0,.64-5.88-1.5-12.42-4.68-17.1-.67-.98-1.45-1.9-2.35-2.68.13-.23.21-.51.23-.83.1-1.7.28-4.04,2.52-3.84,2.22.2,3.96,2.48,5.39,3.95,3.41,3.5,6.71,7.36,7.88,12.22.57,2.34,4.18,1.35,3.62-1-1.5-6.21-5.99-11.12-10.43-15.47-.61-.6-1.28-1.19-2-1.7.45-.54.97-1.02,1.59-1.4.25-.15.5-.29.76-.42.04-.02-.18.05.15-.06.22-.07.43-.14.65-.2,2.08-.56,4.34-.24,6.4.22,3.12.7,6.08,1.81,8.83,3.42,4.18,2.44,7.34,6.01,8.51,10.77,1.46,5.95-2.36,10.6-7.35,13.26ZM89.37,40.07c-.81,2.82-2.22,5.49-4.09,7.76-.94,1.14-2.19,2.38-3.3,3.34-2.78-7.9-11.09-12.96-19.13-14.87-1.31-.31-2.66-.55-4.02-.66-.14-1.33.84-2.68,1.84-3.44,1.48-1.13,3.49-1.45,5.3-1.55,4.3-.25,8.64.22,12.83,1.21,2.35.55,3.35-3.06,1-3.62-5.21-1.23-10.91-1.93-16.24-1.08-1.48.24-2.91.75-4.16,1.49-.84-1.6-.76-3.54-.17-5.26.85-2.51,2.92-4.22,5.24-5.34,2.43-1.18,5.23-1.7,7.9-1.97,2.38-.24,4.81-.24,7.14.34,10.18,2.55,12.4,14.84,9.85,23.65Z"/>
    </g>
  </g>
</svg>