<?xml version="1.0" encoding="UTF-8"?>
<svg id="Capa_2" data-name="Capa 2" xmlns="http://www.w3.org/2000/svg" viewBox="0 0 124.25 92.62">
  <defs>
    <style>
      .cls-1 {
        fill: #fa8632;
      }

      .cls-2 {
        fill: #f5c92b;
      }
    </style>
  </defs>
  <g id="ELEMENTOS">
    <g>
      <path class="cls-1" d="M48.66,27.16c-.73-1.66-4.79-10.43-14.65-13.84-.08-.03-.21-.07-.39-.13-1.08-.36-10.24-3.23-19.02,1.84-3.51,2.03-5.61,4.54-6.4,5.57-.96,1.25-4.67,6.18-4.69,12.84-.01,5.23,2.27,7.43.62,11.57-.8,2-1.57,2.09-2.21,4.06-1.08,3.31-.02,6.55,1.33,9.78,3.96,9.46,6.4,15.29,13.07,19.77,2.28,1.53,6.23,4.11,11.88,4.29,3.9.12,7-.95,8.82-1.75,4.55,4.86,9.2,7.07,11.97,8.1,9.42,3.5,22.91,3.06,30.7-5.38,2.82-3.05,4.19-6.38,4.9-8.72,16.15,5.93,31.07,2.68,35.89-5.64,3.21-5.54,1.76-13.02,1.36-15.03-1.69-8.7-7.07-14.08-9.16-15.96.46-1.58.94-4.01.49-6.85-.35-2.25-.94-4.03-4.29-8.66-3.15-4.35-6.29-8.69-9.44-13.04-3.53-4.87-4.13-5.3-5.14-5.95-5.08-3.3-11.13-2.02-12.35-1.74-6.86,1.61-10.68,7.01-13.42,10.89-3.32,4.69-4.82,9.21-5.55,12-2.11-.25-5.01-.35-8.37.25-2.37.42-4.37,1.09-5.95,1.74Z"/>
      <path class="cls-2" d="M62.6,52.64c-2.37-1.39-5.02-2.28-7.75-2.6-1.16-.14-2.36-.17-3.46-.58-.93-.35-1.73-.94-2.57-1.47-2.33-1.48-4.95-2.5-7.67-2.97-.02-3.33-1.53-6.62-4.05-8.8-.24-.21-.51-.44-.53-.76-.02-.3.17-.56.37-.79,3.22-3.78,7.87-6.16,12.7-7.29s9.87-1.1,14.82-.67c3.48.3,7.11.86,9.94,2.9,1.36.98,2.47,2.25,3.52,3.55,1.22,1.51,2.39,3.07,3.25,4.81,1.4,2.83,1.93,5.99,2.44,9.11.04.27.09.57-.03.82-.13.27-.42.43-.69.56-1.38.7-2.76,1.39-4.14,2.09-.24.12-.49.25-.76.24-.39-.01-.71-.29-1.02-.53-3.6-2.92-9.3-2.84-12.8.19"/>
      <path d="M124.14,58.06c-.25-3.53-.91-7.07-2.22-10.37-1.6-4.01-4.08-7.4-7.28-9.94.5-4.83-.22-10-3.21-13.95-1.43-1.89-3.04-3.6-4.32-5.6-1.85-2.89-3.01-6.12-4.79-9.04-2.95-4.82-7.98-8.1-13.57-8.94-5.98-.9-11.63,1.08-16.14,5.05-5.64,4.97-8.56,12.08-11.25,18.92-4.06-.37-8.22.03-12.15,1.09-.03-.17-.08-.35-.17-.53-4.45-9.22-14.22-15.65-24.6-14.91-10.66.76-19.88,8.84-22.44,19.16-1.2,4.82-.95,10.03.61,14.75,0,.03.02.04.03.07C1.09,45.52.1,47.6.01,50.16c-.13,3.73.91,7.76,2.04,11.3,2.28,7.13,6.37,13.76,12.48,18.2,6.25,4.54,14.63,6.5,22.1,4.27.48.62,1.01,1.22,1.59,1.78,4.02,3.85,9.57,5.46,14.94,6.32,9.05,1.46,19.81.45,26.88-5.89,2.62-2.34,4.36-5.25,5.4-8.41,5.99,2.96,12.78,3.9,19.4,2.86,6.79-1.07,14.85-4.64,17.82-11.27,1.57-3.52,1.75-7.47,1.48-11.27ZM87.21,3.78c4.64.38,9.12,2.97,11.64,6.89,1.68,2.62,2.74,5.58,4.32,8.26,1.26,2.14,2.77,4.07,4.37,5.96,2.59,3.07,3.53,6.68,3.49,10.51-1.39-.72-2.87-1.32-4.44-1.77-8.38-2.39-17.04-.4-24.85,2.94-1.23-2.1-2.76-4.01-4.54-5.67.06-.07.12-.14.17-.23,2.9-4.88,7.68-8.44,13.18-9.85,2.34-.6,1.35-4.22-1-3.62-6.34,1.63-11.9,5.78-15.29,11.37-1.74-1.17-3.64-2.15-5.72-2.87-1.11-.38-2.24-.69-3.39-.94,3.86-9.67,9.81-21.99,22.06-20.98ZM76.61,35.54c1.66,1.97,2.94,4.31,3.77,6.74.35,1.01.63,2.04.85,3.09.08.39.15.77.22,1.16,0,0,0,0,0,.01-1.11.48-2.2,1.05-3.25,1.71-.18.11-.32.24-.44.38,0,0-.01-.01-.02-.02-4.68-3.06-11.34-2.87-15.39.99-2.93-1.19-6.05-1.89-9.22-1.69-2.64-2.6-5.91-4.11-9.41-4.54-.01-2.68-1.33-5.29-3.38-7.09-.56-.49-1.17-.89-1.79-1.25,5-4.22,11.39-6.9,18.03-7.14,7.51-.28,15,1.71,20.03,7.65ZM11.31,19.88c6.35-6.46,16.1-8.2,24.2-4.02,4.5,2.32,7.97,6.06,10.2,10.58-.7.27-1.39.56-2.06.88-.85.4-1.68.84-2.49,1.31-.1-.11-.21-.21-.34-.3-6.62-4.75-15.23-6.22-23.08-4.08-2.33.63-1.34,4.25,1,3.62,6.53-1.78,13.46-.65,19.11,2.97-1.14.85-2.25,1.75-3.28,2.72-1.66-.33-3.39-.41-5.08-.28-8.13.6-16.68,3.58-23.58,7.89-.04.03-.08.05-.12.08-1.96-7.57-.04-15.7,5.52-21.37ZM19.18,78.18c-5.53-3.06-9.51-8.15-12.06-13.86-1.3-2.9-2.19-6-2.8-9.11-.58-2.97-1.3-6.46,1.01-8.87,2.22-2.32,5.54-3.75,8.43-5.04,3.27-1.46,6.71-2.56,10.19-3.36,3.62-.83,7.67-1.59,11.29-.37,2.44.83,4.7,3.11,4.72,5.74-.76.07-1.52.19-2.28.36-5.4,1.19-10.21,3.9-14.07,7.85-1.69,1.73.96,4.38,2.65,2.65,3.26-3.34,7.22-5.64,11.77-6.73,1.15-.28,2.28-.44,3.42-.48.16.02.32,0,.48-.01,1.32,0,2.64.2,3.95.67.89.32,1.72.76,2.5,1.28-1.92.69-3.72,1.7-5.36,2.98-4.96,3.87-8.34,9.9-9.5,16.06-.8,4.25-.57,8.75,1.14,12.65-5.23,1.23-10.76.22-15.48-2.4ZM79.4,81.38c-5.55,7.12-15.98,8.11-24.32,7.16-.12-.01-.24-.03-.36-.04-.01,0-.02,0-.03,0-.15-.02-.31-.04-.46-.07-.63-.1-1.26-.22-1.89-.34-2.45-.47-4.92-1.1-7.17-2.18-2.67-1.28-5.03-3.11-6.53-5.71-1.22-2.12-1.77-4.57-1.83-7-.23-9.3,6.21-20.07,15.59-21.42.05,0,.1-.01.15-.02,1.65-.22,3.38-.15,5.19.27.78.18,1.55.42,2.3.69-1.13,2.11-1.84,4.51-2.39,6.78-.83,3.37-1.3,6.85-1.45,10.32-.1,2.25-.04,4.5.13,6.74.18,2.39,3.94,2.41,3.75,0-.52-6.78.03-13.88,2.47-20.28.4-1.05.91-2.06,1.52-3,.31-.47.03-.13.41-.54.16-.18.33-.35.5-.51,1.9-1.78,4.67-2.35,7.19-1.85,6.5,1.28,8.7,7.61,9.99,13.32,1.35,6,1.17,12.64-2.77,17.69ZM120.12,65.06c-1.39,6.56-7.86,9.99-13.91,11.45-6.67,1.61-13.83.7-19.87-2.53.4-2.66.39-5.4.01-8.09-.72-5.17-2.17-10.79-5.69-14.73,7.4-4.32,16.89-3.74,23.45,1.7,1.84,1.53,4.51-1.11,2.65-2.65-6.16-5.11-14.29-6.82-21.77-4.88-.35-1.88-.89-3.69-1.6-5.42,6.06-2.6,12.83-4.39,19.43-3.28,6.38,1.07,11.76,4.58,14.72,10.4,1.39,2.73,2.21,5.78,2.62,8.81.41,3,.58,6.25-.05,9.23Z"/>
    </g>
  </g>
</svg>