<?xml version="1.0" encoding="UTF-8"?>
<svg id="Capa_2" data-name="Capa 2" xmlns="http://www.w3.org/2000/svg" viewBox="0 0 183.36 146.73">
  <defs>
    <style>
      .cls-1 {
        fill: #fc95bb;
      }

      .cls-2 {
        fill: #2db092;
      }

      .cls-3 {
        fill: #f5c92b;
      }
    </style>
  </defs>
  <g id="ELEMENTOS">
    <g>
      <g>
        <path class="cls-2" d="M37.41,68.57c3.47,9.7,12.42,16.02,21.67,15.72,12.83-.41,20.3-13.37,20.42-15.63,0-.17.01-1.01.58-1.55.86-.81,2.44-.41,2.9-.31,3.91.87,12-.55,15.4-1.88,4.66-1.81,7.06-5.96,8.82-9.01,1.22-2.11,6.05-10.46,2.68-20.13-3.03-8.71-10.6-12.45-12.19-13.19-1.03-2.59-2.92-6.44-6.37-10.19-2.49-2.71-10.13-10.09-21.17-10.46-4.58-.16-12.11.81-15.62,3.59-.5.39-2.15,1.63-4.56,2.35-1.26.38-2.6.39-3.91.28-1.22-.1-2.42-.29-3.62-.54-3.78-.77-9.04-1.89-10.23-2.06-6.76-.96-13.17,5.05-16.49,8.16-1.02.95-6.82,6.52-9.35,15.2-.74,2.54-1.02,5.28-1.92,10-.52,2.7-1.04,5.42-.94,8.17.16,4.26,1.8,8.31,3.73,12.11,1.81,3.56,3.53,6.65,7.18,8.86,2.5,1.51,4.77,1.9,6.8,2.22,3.01.48,8.82.92,16.18-1.72Z"/>
        <path class="cls-3" d="M79.93,32.54c-2.93-4.89-6.93-9.19-11.82-12.13-4.89-2.94-10.68-4.46-16.36-3.93-4.33.4-8.69,2.1-11.55,5.39-2.85,3.29-3.87,8.32-1.79,12.14,1.9,3.49,5.79,5.31,9.42,6.91,2.38-1.05,4.81-2.11,7.39-2.47s5.39.08,7.38,1.76c.23.19.45.4.73.49.71.22,1.38-.4,1.96-.87,2.99-2.44,8.18-1.21,9.75,2.32.34.77.78,1.78,1.62,1.7.27-.03.52-.18.75-.32,1.46-.93,2.92-1.85,4.38-2.78.38-.24.78-.52.91-.94.21-.74-.5-1.39-1.01-1.96-.98-1.11-1.4-2.69-1.09-4.14"/>
        <path d="M112.06,33.52c-1.54-4.15-4.3-7.64-8.23-9.75-1.61-.86-3.32-1.45-5.07-1.8-2.26-5.89-5.94-11.25-10.92-15.16C80.28.88,70.52-1.12,61.15.59c-5.17.94-10.1,3.05-14.46,5.96-4.3-2.05-9.06-3.09-13.81-2.82-8.85.5-16.24,5.24-22.17,11.53-5.09,5.4-8.83,12.97-6.75,20.49,0,.03.02.05.03.07-.91,1.24-1.69,2.58-2.31,4.02-5.85,13.61,4.47,29.83,18.38,32.77,5.01,1.06,10.69.81,15.51-1.02.19-.07.35-.17.5-.28.12.31.23.63.36.93,2.79,6.67,8.52,11.67,15.6,13.35,10.96,2.6,23.27-2.58,28.36-12.83.54-1.09.99-2.2,1.35-3.34,3.99.61,8.24.31,12.09-.7,8.06-2.11,14.6-7.97,17.69-15.68,2.42-6.02,2.81-13.36.54-19.49ZM72.71,4.11c7.86,1.35,14.73,5.88,19.13,12.52.89,1.34,1.69,2.75,2.39,4.2.15.31.26.56.37.78-1.08.04-2.17.17-3.25.4-4.45.95-8.64,3.65-11.34,7.33-1.49-2.14-3.2-4.15-5.09-5.94,1.99-3.23,2.63-7.17,1.51-10.87-.28-.94-1.33-1.63-2.31-1.31-.95.31-1.61,1.3-1.31,2.31.13.42.23.84.31,1.27.02.09.03.17.04.26,0,.02,0,.03,0,.05.02.22.04.43.05.65.02.44.02.87-.01,1.31-.01.17-.03.34-.05.51-.01.07-.05.32-.06.38-.08.4-.17.8-.29,1.19-.06.21-.13.42-.21.62-.02.05-.14.33-.17.41-.12.26-.26.51-.4.77-3.42-2.61-7.32-4.55-11.61-5.47-.99-.21-2-.35-3.02-.45-1.97-2.48-4.36-4.64-7.02-6.39,6.69-3.93,14.59-5.86,22.32-4.53ZM77.49,41.62c-1.23-1.78-2.8-3.42-4.86-4.2-2.82-1.07-6.14-.3-8.59,1.31-.42.28-.82.58-1.2.9-.05-.06-.09-.11-.15-.17-4.14-3.72-9.64-3.16-14.32-.91-2.25-.56-4.48-1.72-6.21-3.36-.16-.34-.43-.61-.76-.79-.75-.86-1.37-1.83-1.79-2.9-1.86-4.76,2.69-9.21,6.61-11.1,8.28-4,18.63-1.1,25.38,5,2.6,2.35,4.79,5.08,6.6,8.07-.24,2.04.39,4.08,1.75,5.86-.9.65-1.73,1.41-2.47,2.29ZM12.81,18.49c1.83-2.04,3.84-4.04,6.06-5.67,3.69-2.7,7.95-4.67,12.52-5.23,4.98-.61,10,.41,14.42,2.71.16.13.34.24.54.3.29.16.58.3.87.47,1.84,1.1,3.53,2.44,5.07,3.93-2.83.27-5.61.99-8.12,2.24-.69.34-1.37.75-2.04,1.2-3.75-3.34-9.18-4.44-13.96-2.74-.95.34-1.59,1.28-1.31,2.31.25.92,1.35,1.65,2.31,1.31.75-.27,1.52-.45,2.3-.59.02,0,.03,0,.05,0,.01,0,.03,0,.07,0,.16-.02.31-.03.47-.04.33-.02.67-.03,1-.03.7,0,1.23.06,1.85.19,1.38.29,2.42.73,3.59,1.5.2.13.39.27.58.41.05.04.11.09.14.11,0,0,0,0,.01.01-1.67,1.74-2.96,3.82-3.5,6.08-6.51-2.11-13.73-2.17-20.16.3-3.07,1.18-5.97,2.89-8.42,5.08-.39-5.1,2.29-10.09,5.65-13.84ZM34.57,67.96c-3.36,1.28-7.12,1.68-10.68,1.42-6.45-.47-12.37-3.91-16.06-9.22-3.36-4.85-5.07-11.09-3.43-16.88,1.52-5.36,5.78-9.42,10.7-11.77,6.43-3.08,13.86-2.99,20.49-.65.01.08.02.16.03.24.21,1.1.6,2.16,1.12,3.15-5.04.9-9.48,4.6-11.26,9.46-.35.95.39,2.05,1.31,2.31,1.04.29,1.96-.35,2.31-1.31,0,0,.11-.28.12-.33.05-.12.1-.23.16-.35.14-.28.28-.56.44-.83.17-.3.36-.58.56-.86.02-.02.14-.19.19-.26.05-.06.19-.23.2-.25.43-.5.89-.97,1.39-1.39.4-.34.74-.6,1.36-.98.51-.31,1.04-.6,1.59-.84.07-.02.32-.12.32-.12.15-.05.29-.11.44-.15.3-.1.6-.18.9-.26.33-.08.67-.15,1.01-.21.04,0,.07-.01.09-.02,0,0,.02,0,.06,0,.16-.02.31-.03.47-.04.35-.02.69-.03,1.04-.02,1.41,1.36,3.09,2.48,4.85,3.3-.21.16-.43.33-.63.5-5.44,4.55-8.89,11.43-9.32,18.5-.16,2.57.08,5.22.67,7.76-.14.02-.29.05-.45.11ZM67.28,80.38c-1.84.88-3.82,1.5-5.82,1.86-.19.04-.39.06-.58.09-.06,0-.36.05-.49.06-.97.1-1.94.13-2.91.11-6-.13-11.93-2.81-15.44-7.79-2.55-3.62-3.8-8.02-3.96-12.35-.17-4.65,1.19-9.21,3.73-13.1,1.69-2.58,4.17-5.18,7.06-6.88.53-.05.96-.31,1.27-.68,2.02-.95,4.19-1.43,6.41-1.15,1.3.16,2.52.68,3.49,1.56.12.11.24.19.36.26-1.19,1.74-2.04,3.74-2.61,5.81-1.17,4.26-1.58,8.82-1.69,13.23-.06,2.29,0,4.57.17,6.85.17,2.39,3.92,2.41,3.75,0-.3-4.08-.25-8.17.18-12.23.37-3.53.89-7.36,2.62-10.52,1.43-2.63,4.1-4.99,7.27-4.82.4.02.78.11,1.17.21.09.02.18.06.27.09.02,0,.02,0,.03,0,.03.02.06.04.1.07.76.48,1.2.8,1.84,1.5,1.02,1.12,1.77,2.49,2.42,3.85.13.26.24.53.37.8.04.1.06.14.08.17,0,.03.03.08.08.2.62,1.54,1.15,3.11,1.59,4.72,1.29,4.77,1.75,9.88.5,14.71-1.54,5.96-5.74,10.71-11.26,13.36ZM108.15,51.36c-2.41,6.49-7.92,11.53-14.54,13.49-2.81.83-5.73,1.15-8.66,1.05-.56-.02-1.12-.06-1.68-.11-.22-.02-.45-.05-.67-.07.62-3.76.45-7.64-.26-11.42-.58-3.06-1.49-6.24-2.85-9.14.06-.07.13-.15.19-.24,4.03-6.21,12.7-5.03,18.23-1.65,2.06,1.26,3.95-1.98,1.89-3.24-3.6-2.2-7.67-3.32-11.89-3.25-1.61.03-3.13.32-4.57.82-.06-.09-.12-.18-.19-.26-.84-.93-1.35-2.05-1.35-3.32,0-.06,0-.1,0-.12,0,.02,0,.03.01,0,.05-.22.1-.44.18-.65.22-.57.57-1.11.92-1.6,2.17-3.04,5.62-5.15,9.23-5.98,3.43-.78,7.06-.23,10.11,1.51,3.32,1.89,5.48,4.92,6.59,8.55,1.54,5.04,1.12,10.72-.7,15.63Z"/>
      </g>
      <g>
        <path class="cls-1" d="M71.83,81.3c-.25-2.26-.38-5.55.28-9.41.43-2.52,2.09-11.37,9.76-18.5,2.78-2.59,8.96-8.32,16.96-7.46,2.61.28,4.69,1.19,6.08,1.95,1.74-1.69,11.51-10.84,26.37-10.29,17.98.66,27.79,14.95,28.76,16.41,3.89.51,9.34,1.94,13.86,6.11,9.91,9.12,9.14,25.62,3.9,36.33-3.49,7.12-8.79,11.36-11.92,13.47.25,6.8-2.05,11.18-3.24,13.08-5.98,9.57-18.71,12.1-27.99,10.21-5.45-1.11-9.41-3.68-11.7-5.44-.19,2.13-1.01,8-5.67,12.45-5.92,5.65-13.86,5.01-18.51,4.63-4.51-.36-13.23-1.07-17.9-8.03-2.74-4.08-2.88-8.51-2.77-10.78-2.77-.67-10.39-2.92-15.68-10.14-4.51-6.16-8.12-17.03-2.71-25.78,3.7-5.99,9.87-8.14,12.11-8.81Z"/>
        <path class="cls-3" d="M91.3,100.88c-2.09-8.8,3.35-18.07,10.99-22.91,7.64-4.84,16.99-6.06,26.03-6.37.44-.01.88-.03,1.3.1.56.17,1.02.59,1.42,1.03,3.37,3.74,3.2,10.14-.38,13.7-.47.47-1,.89-1.52,1.32-.79.64-1.57,1.28-2.36,1.91-1.24,1.01-2.57,2.05-4.15,2.28-1.07.15-2.18-.09-3.25.05-1.9.25-3.48,1.71-4.38,3.4-.9,1.7-1.24,3.62-1.57,5.52-2.9-.45-5.92-.09-8.62,1.04-.85.36-1.69.79-2.61.91-.75.1-1.52-.02-2.27-.14-2.68-.43-5.35-.85-8.03-1.28"/>
        <path d="M182,70.55c-2.27-8.07-7.88-14.74-16.12-17.07-1.47-.42-2.98-.69-4.5-.85-4.45-6.54-10.9-11.72-18.27-14.56-10.83-4.18-22.88-2.53-32.77,3.27-2.28,1.34-4.5,2.89-6.48,4.66-1.28-.84-2.68-1.46-4.23-1.74-5.21-.93-10.44,1.23-14.65,4.17-4.83,3.38-9.05,7.97-11.67,13.27-2.83,5.74-3.82,12.2-3.21,18.55,0,0,0,.01,0,.02-5.37,1.75-10.28,4.96-12.68,10.21-2.5,5.47-2.27,11.78-.78,17.49,1.24,4.73,3.74,9.01,7.27,12.41,3.32,3.2,7.44,5.68,11.83,7.12.09,1.34.29,2.67.63,3.98,1.68,6.46,6.54,11.34,12.74,13.59,4.33,1.58,9.08,1.84,13.64,1.52,5.01-.35,10.14-1.1,14.41-3.97,4.1-2.76,6.45-6.55,7.52-10.77,7.77,3.81,16.64,4.72,24.93,1.94,8.08-2.71,16.55-8.62,18.14-17.57.34-1.91.36-3.82.14-5.71.12-.04.24-.1.35-.18,5.79-4.33,10.4-10.06,12.91-16.89,2.64-7.19,2.94-15.54.87-22.91ZM110.75,45.49c3.76-2.41,7.87-4.23,12.23-5.23,10.61-2.43,21.73.78,29.72,8.08,1.5,1.37,2.77,2.73,3.92,4.16-.87.03-1.74.09-2.6.18-4.39.46-8.76,1.31-12.77,3.22-4.43,2.11-8.01,5.66-9.5,10.4-.35,1.12-.57,2.29-.65,3.45-1.98-.48-3.99-.81-6.01-.98-.57-5.51.8-11.14,3.75-15.82,1.29-2.05-1.95-3.93-3.24-1.89-3.32,5.26-4.74,11.44-4.26,17.59-2.02.03-4.02.24-6,.6-.2-4.54-1.23-9.02-3.21-13.12-1.34-2.77-3.18-5.25-5.25-7.53-.05-.06-.1-.11-.16-.16,1.26-1.1,2.44-1.93,4.04-2.96ZM121.64,90.96c-2.06-.36-4.21-.24-5.98.83-2.8,1.69-3.7,4.88-3.6,7.98-.48-.17-.98-.31-1.5-.41-2.89-.53-5.45.3-7.55,1.99-3.31-1.74-6.88-2.02-10.26-1.08.18-5.48,1.73-10.92,4.75-15.52,4.56-6.94,12.43-11.26,20.61-12.16,4.49-.49,8.97-.06,13.3,1.14.35,1.48.97,2.89,1.88,4.15-1.55,2-2.28,4.39-2.03,6.94-.32.04-.64.08-.95.14-3.64.67-6.64,2.98-8.67,6.01ZM75.48,66.06c1.84-5.04,5.3-9.41,9.37-12.84,3.33-2.81,7.65-5.4,12.14-5.45,5.22-.05,8.82,4.65,11.15,8.82,2.26,4.05,3.35,8.66,3.48,13.28,0,.09.02.17.03.25-1.87.56-3.7,1.26-5.47,2.15-.83.41-1.62.87-2.4,1.35-1.66-6.72-7.15-12.04-13.93-13.64-.98-.23-2.03.31-2.31,1.31-.26.95.32,2.07,1.31,2.31.4.09.8.2,1.19.33.28.09.55.18.82.28.11.04.52.21.59.23.69.3,1.36.64,2,1.03.78.47,1.37.88,1.95,1.38,2.8,2.4,4.46,5.58,5.04,9.16-1.83,1.51-3.46,3.23-4.89,5.11-6.17-2.17-12.8-3.14-19.31-2.25-.82.11-1.64.26-2.46.43-.32-4.49.15-8.99,1.71-13.24ZM75.79,123.58c-.66-.25-1.22-.49-1.91-.82-1.94-.93-3.82-2.06-5.51-3.41-3.47-2.78-6.3-6.48-7.65-10.74-1.41-4.44-2.05-9.39-.84-13.95.81-3.07,2.55-5.88,5.14-7.76,2.73-1.99,6.21-3.19,9.47-3.91,6.29-1.39,12.84-.6,18.92,1.37-1.46,2.52-2.59,5.25-3.32,8.12-6.99.02-13.7,2.45-19.19,6.77-.8.63-.66,2,0,2.65.79.79,1.85.63,2.65,0,.03-.02.08-.06.11-.08.09-.07.19-.14.28-.21.26-.19.53-.38.79-.57.57-.39,1.16-.77,1.76-1.12,1.4-.82,2.87-1.53,4.4-2.08,2.74-.98,5.58-1.51,8.47-1.6-.27,1.86-.4,3.75-.37,5.62-.67.39-1.32.82-1.95,1.3-3.26,2.49-6,5.8-7.9,9.43-1.76,3.37-2.97,7.16-3.34,11ZM116.82,138.16c-3.46,3.2-8.25,4.22-12.8,4.6-3.44.28-6.92.38-10.32-.3-4.96-.98-9.47-3.49-12.07-7.96-2.98-5.11-2.61-11.33-.69-16.75,2.69-7.6,10.78-17.12,19.44-13.51-4.38,5.84-7.18,13-8.19,20.2-.27,1.94-.43,3.88-.47,5.84-.04,2.41,3.71,2.41,3.75,0,.11-6.83,1.87-13.57,5.18-19.56.95-1.73,2.1-3.88,3.59-5.5.17-.13.32-.29.44-.47.6-.58,1.25-1.07,1.97-1.41,2.94-1.39,6.08.54,7.99,2.73,2.21,2.53,3.71,5.9,4.86,9.03.91,2.48,1.68,5.08,2,7.71.67,5.53-.44,11.43-4.68,15.34ZM150.74,129.4c-8.34,3.47-17.49,2.87-25.42-1.4,0,0-.02,0-.02-.01.58-7.52-2.16-15.78-6-21.84-.9-1.43-1.99-2.79-3.25-3.93.03-.22.03-.46-.02-.71-.71-3.24.06-7.3,4.16-6.95,3.28.28,6.14,2.02,8.38,4.34,2.24,2.33,4.07,5.11,5.74,7.87,1.97,3.26,3.5,6.72,4.66,10.34.73,2.29,4.35,1.31,3.62-1-2.08-6.49-5.36-12.49-9.59-17.82-2.04-2.58-4.52-4.83-7.55-6.16.78-.98,1.7-1.85,2.8-2.49.95-.56,1.26-.67,2.48-.95,2.94-.68,6.09-.21,8.98.46,4.76,1.11,9.33,2.91,13.44,5.56,5.82,3.75,10.41,9.69,11.08,16.77.82,8.64-6.15,14.87-13.49,17.92ZM178.27,90.15c-1.14,4.01-3.13,7.8-5.77,11.02-1.05,1.29-2.2,2.5-3.42,3.63-.65.6-1.39,1.24-2.04,1.75-1.6-5.12-4.98-9.76-9.14-13.03-4.81-3.78-10.56-6.34-16.48-7.82-2.11-.53-4.28-.92-6.46-1.03,0-.12-.01-.25-.03-.37-.31-2.16,1.12-4.32,2.77-5.57,2.13-1.63,4.99-2.12,7.6-2.28,6-.37,12.09.3,17.93,1.68,2.35.56,3.35-3.06,1-3.62-6.93-1.64-14.51-2.57-21.6-1.53-2.3.34-4.6,1.06-6.54,2.34-1.51-2.34-1.55-5.34-.72-8.01,1.11-3.57,3.83-6.13,7.09-7.82,3.43-1.78,7.38-2.59,11.2-3.01,3.29-.37,6.66-.43,9.91.29,7.24,1.6,12.34,6.88,14.55,13.83,1.99,6.27,1.96,13.24.17,19.55Z"/>
      </g>
    </g>
  </g>
</svg>