<?xml version="1.0" encoding="UTF-8"?>
<svg id="Capa_2" data-name="Capa 2" xmlns="http://www.w3.org/2000/svg" viewBox="0 0 755.1 419.64">
  <g id="ELEMENTOS">
    <path d="M755.1,356.68c0-11.48-9.22-20.81-20.67-20.98,11.44-.17,20.67-9.5,20.67-20.98s-9.22-20.81-20.67-20.98c11.44-.17,20.67-9.5,20.67-20.98,0-11.48-9.22-20.81-20.67-20.98,11.44-.17,20.67-9.5,20.67-20.98s-9.19-20.77-20.6-20.98c0,0,0,0,0,0,11.41-.21,20.6-9.52,20.6-20.98s-9.22-20.81-20.66-20.98c11.44-.17,20.66-9.5,20.66-20.98s-9.22-20.81-20.67-20.98c11.44-.17,20.67-9.5,20.67-20.98s-9.22-20.81-20.66-20.98c11.44-.17,20.66-9.5,20.66-20.98s-9.22-20.81-20.67-20.98c11.44-.17,20.67-9.5,20.67-20.98C755.1,12.82,747.49-.01,734.11,0c-11.22,0-20.61,9.1-20.97,20.43C712.84,9.13,703.46,0,692.16,0s-20.68,9.13-20.98,20.43C670.89,9.13,661.51,0,650.21,0s-20.68,9.13-20.97,20.43C628.94,9.13,619.56,0,608.26,0s-20.68,9.13-20.97,20.43C586.99,9.13,577.61,0,566.31,0s-20.68,9.13-20.98,20.43C545.04,9.13,535.66,0,524.36,0s-20.56,9.03-20.96,20.24c-.37-10.51-8.59-19.1-18.87-20.13-.7-.07-1.4-.11-2.12-.11-11.24,0-20.56,9.03-20.96,20.24-.37-10.51-8.59-19.1-18.87-20.13-.7-.07-1.4-.11-2.12-.11-11.24,0-20.56,9.03-20.96,20.24-.37-10.51-8.59-19.1-18.87-20.13-.7-.07-1.4-.11-2.12-.11-11.24,0-20.56,9.03-20.96,20.24-.37-10.51-8.59-19.1-18.87-20.13-.7-.07-1.4-.11-2.12-.11-11.24,0-20.56,9.03-20.96,20.24-.37-10.51-8.59-19.1-18.87-20.13-.7-.07-1.4-.11-2.12-.11-11.24,0-20.56,9.03-20.96,20.24-.37-10.51-8.59-19.1-18.87-20.13-.7-.07-1.4-.11-2.12-.11s-1.36.04-2.02.11c-.07,0-.14.02-.21.03-.59.06-1.18.15-1.76.27-.11.02-.22.05-.32.07-.55.12-1.08.25-1.61.41-.1.03-.2.06-.31.09-.55.17-1.09.37-1.62.59-.06.03-.13.05-.2.08-2.43,1.02-4.63,2.49-6.5,4.31-.04.03-.07.07-.1.1-.42.41-.82.84-1.2,1.29-.06.07-.11.14-.17.2-.36.43-.71.88-1.03,1.34-.05.07-.1.14-.15.21-.35.5-.68,1.02-.98,1.55-.01.02-.03.04-.04.07-.9,1.58-1.61,3.28-2.07,5.08v.11c-.37,1.46-.6,2.98-.64,4.54C251.42,9.14,242.04,0,230.74,0s-20.68,9.13-20.98,20.43C209.47,9.14,200.09,0,188.79,0s-20.68,9.13-20.97,20.43C167.52,9.14,158.14,0,146.84,0s-20.68,9.13-20.97,20.43C125.57,9.14,116.19,0,104.89,0s-20.68,9.13-20.98,20.43C83.59,8.97,74.05-.12,62.94,0c-11.11.13-20.36,9.45-20.49,20.78C41.95,9.16,32.29-.09,20.99,0,7.85.12,0,12.74,0,20.99c0,11.48,9.22,20.81,20.66,20.98-11.44.17-20.66,9.5-20.66,20.98s9.22,20.81,20.67,20.98c-11.44.17-20.67,9.5-20.67,20.98s9.22,20.81,20.67,20.98c-11.44.17-20.67,9.5-20.67,20.98s9.22,20.81,20.67,20.98c-11.44.17-20.67,9.5-20.67,20.98s9.22,20.81,20.67,20.98c-11.44.17-20.67,9.5-20.67,20.98s9.22,20.81,20.66,20.98c-11.44.17-20.66,9.5-20.66,20.98s9.22,20.81,20.67,20.98c-11.44.17-20.67,9.5-20.67,20.98s9.22,20.81,20.66,20.98c-11.44.17-20.66,9.5-20.66,20.98s9.22,20.81,20.67,20.98C9.22,377.84,0,387.17,0,398.65c0,8.17,7.61,21,20.99,20.99,11.22,0,20.61-9.1,20.97-20.43.3,11.3,9.67,20.43,20.98,20.43,11.3,0,20.68-9.13,20.97-20.43.3,11.3,9.67,20.43,20.98,20.43s20.68-9.13,20.97-20.43c.3,11.3,9.67,20.43,20.98,20.43s20.68-9.13,20.97-20.43c.3,11.3,9.67,20.43,20.97,20.43s20.68-9.13,20.97-20.43c.3,11.3,9.67,20.43,20.98,20.43s20.68-9.13,20.98-20.43c.04,1.56.27,3.08.64,4.54v.1c.12.46.26.91.41,1.36.01.04.02.07.03.11.42,1.25.96,2.45,1.6,3.58.05.09.1.17.15.25.27.46.55.91.86,1.35.08.12.17.24.26.36.29.4.59.78.9,1.16.1.12.2.24.3.35.33.38.67.74,1.03,1.1.09.09.18.19.28.28.42.41.86.79,1.31,1.16.03.03.06.05.09.08,1.01.81,2.09,1.53,3.24,2.15.08.05.17.08.26.13.47.25.95.47,1.44.68.15.07.31.13.47.19.43.17.87.33,1.31.47.19.06.38.12.57.18.42.12.85.23,1.28.33.21.05.42.1.63.14.43.08.87.14,1.32.2.21.03.42.06.63.08.53.05,1.07.07,1.62.08.11,0,.23.02.34.02,11.24,0,20.56-9.03,20.96-20.24.37,10.51,8.59,19.1,18.87,20.13.7.07,1.4.11,2.12.11,11.24,0,20.56-9.03,20.96-20.24.37,10.51,8.59,19.1,18.87,20.13.7.07,1.4.11,2.12.11,11.24,0,20.56-9.03,20.96-20.24.37,10.51,8.59,19.1,18.87,20.13.7.07,1.4.11,2.12.11,11.24,0,20.56-9.03,20.96-20.24.37,10.51,8.59,19.1,18.87,20.13.7.07,1.4.11,2.12.11,11.24,0,20.56-9.03,20.96-20.24.37,10.51,8.59,19.1,18.87,20.13.7.07,1.4.11,2.12.11,11.24,0,20.56-9.03,20.96-20.24.4,11.21,9.72,20.24,20.96,20.24s19.6-8.13,20.83-18.54c.07-.35.15-.71.21-1.07.72,10.91,9.89,19.61,20.91,19.61s20.68-9.13,20.98-20.43c.3,11.3,9.67,20.43,20.98,20.43s20.68-9.13,20.98-20.43c.3,11.3,9.67,20.43,20.97,20.43s20.68-9.13,20.98-20.43c.33,11.46,9.87,20.56,20.97,20.43,11.12-.13,20.36-9.45,20.49-20.78.5,11.62,10.16,20.87,21.46,20.78,13.14-.11,20.99-12.74,20.99-20.99,0-11.48-9.22-20.81-20.67-20.98,11.44-.17,20.67-9.5,20.67-20.98Z"/>
  </g>
</svg>