<?xml version="1.0" encoding="UTF-8"?><svg id="Capa_1" xmlns="http://www.w3.org/2000/svg" viewBox="0 0 615.81 1070.15"><g id="Calle_de_acceso"><line x1="306.93" y1="1068.32" x2="1.84" y2="932.44" fill="none" stroke="#d7d7d7" stroke-miterlimit="10" stroke-width="4"/><line x1=".8" y1="785.68" x2="568.44" y2="1034.13" fill="none" stroke="#d7d7d7" stroke-miterlimit="10" stroke-width="4"/></g><polygon id="decorativo" points="43.23 108.8 .8 86.58 .8 785.68 149.09 849.12 43.23 108.8" fill="#d7d7d7"/><polygon id="Espacio_verde" points="32.34 40.08 276.46 16.13 201.9 86.76 173.86 180.62 150.95 376.33 178.27 862.92 149.13 848.58 32.34 40.08" fill="#1b8b6e"/><path id="Calle_de_transito_peatonal" d="M275.02,16.13l64.9-7.14s.93,25.47-48.56,61.07c-49.49,35.61-64.1,94.08-64.1,94.08,0,0-17.01,124.34-20.58,154.14s-10.17,96.15-1.95,227.02c8.22,130.87,21.34,338.39,21.34,338.39l-57.33-24.19s-4.96-156.58-14.34-274.04c-5.87-73.6-7.66-148.48-8.17-194.14-.32-28.14,1.63-56.24,5.8-84.08,9.69-64.77,11.09-138.16,30.94-191.47,12.32-33.09,38.98-58.89,66.97-80.4l25.07-19.26Z" fill="#d7d7d7"/><path id="sector_exterior_accesolibre" d="M383.25,0l-1.69,139.02-64.3,3.36,44.09,471.17-83.56,8.07,27.82,295.41-88.1-38.16s-6.71-92.59-7.73-110.63c-3.17-56.1-12.04-180.78-14.92-227.77-3.74-61.17-7.55-144.82-.92-205.21,6.63-60.39,17.77-160.26,28.82-189.41,11.05-29.15,18.92-42.52,33.42-57.79s53.59-33.84,67.4-53.36c12.24-17.31,14.73-30.54,14.73-30.54l44.93-4.16Z" fill="#2daf91"/><path id="puesto_gastronomicos" d="M321.8,43.87s-9.2,8.68-30.25,22.86c-10.44,7.04-21.74,14.61-28.14,19.87-12.37,10.18-19.54,21.99-26.78,35.53-5.41,10.1-12.61,29.32-15.83,39.74-9.48,30.59-18.98,132.07-18.98,132.07l129.03,8.29-14.17-157.5,27.56-1.57-22.44-99.29Z" fill="#2daf91"/><polygon id="sector_abonados" points="596.51 596.28 614.73 809.73 297.16 839.09 275.03 622.31 596.51 596.28" fill="#fa94b9" stroke="#000" stroke-miterlimit="10" stroke-width="2"/><polygon id="escenario_principal" points="479.37 255.46 511.41 603.17 359.02 615.37 327.27 262.47 479.37 255.46" fill="#fa94b9" stroke="#000" stroke-miterlimit="10" stroke-width="2"/><polygon id="baños_accesolibre" points="508.63 133.78 519.03 255.32 393.33 260.01 397.5 314.65 332.38 319.22 327.27 262.47 316.68 144.74 508.63 133.78" fill="#fa94b9" stroke="#000" stroke-miterlimit="10" stroke-width="2"/><g id="zona_descanso_abonados"><circle id="contenedor_zona_descanso_abonados" cx="375.47" cy="739.76" r="29.02" fill="#ef5d34"/><path id="zona_descanso_abonados-2" d="M381.71,732.73l3.12,14.04M369.23,732.73l-3.12,14.04M364.54,732.73h21.85M389.51,740.54h-28.09" stroke="#fff" stroke-linecap="round" stroke-linejoin="round" stroke-width="3"/></g><g id="pantalla_abonados"><g id="contenedor_pantalla_abonados"><circle id="v" cx="480.28" cy="640.72" r="29.02" fill="#ef5d34"/></g><g id="pantalla_abonados-2"><path d="M463.97,636.19c0-2,1.62-3.62,3.62-3.62h25.37c2,0,3.62,1.62,3.62,3.62v16.31c0,2-1.62,3.62-3.62,3.62h-25.37c-2,0-3.62-1.62-3.62-3.62v-16.31Z" fill="none" stroke="#f8f3ef" stroke-linecap="round" stroke-linejoin="round" stroke-width="3"/><path d="M487.53,625.31l-7.25,7.25-7.25-7.25" fill="none" stroke="#f8f3ef" stroke-linecap="round" stroke-linejoin="round" stroke-width="3"/></g></g><g id="pantalla_exterior_escenario_exterior"><g id="contenedor_pantalla_exterior_escenario_exterior"><circle id="v-2" cx="310.55" cy="461.1" r="29.02" fill="#ef5d34"/></g><g id="pantalla_exterior_escenario_exterior-2"><path d="M315.09,444.79c2,0,3.62,1.62,3.62,3.62v25.37c0,2-1.62,3.62-3.62,3.62h-16.31c-2,0-3.62-1.62-3.62-3.62v-25.37c0-2,1.62-3.62,3.62-3.62h16.31Z" fill="none" stroke="#f8f3ef" stroke-linecap="round" stroke-linejoin="round" stroke-width="3"/><path d="M325.96,468.35l-7.25-7.25,7.25-7.25" fill="none" stroke="#f8f3ef" stroke-linecap="round" stroke-linejoin="round" stroke-width="3"/></g></g><g id="baño_sectorexterior"><g id="contenedor_baño_sectorexterior"><circle id="v-3" cx="413.73" cy="195.93" r="29.02" fill="#ef5d34"/></g><g id="baño_sectorexterior-2"><path d="M397.42,186.87c0-2,1.62-3.62,3.62-3.62h25.37c2,0,3.62,1.62,3.62,3.62v18.12c0,2-1.62,3.62-3.62,3.62h-25.37c-2,0-3.62-1.62-3.62-3.62v-18.12Z" fill="none" stroke="#f8f3ef" stroke-linecap="round" stroke-linejoin="round" stroke-width="2"/><path d="M403.76,190.5l.91,10.87,3.62-7.25,3.62,7.25.91-10.87" fill="none" stroke="#f8f3ef" stroke-linecap="round" stroke-linejoin="round" stroke-width="2"/><path d="M422.79,193.22c0-1.5-1.22-2.72-2.72-2.72s-2.72,1.22-2.72,2.72v5.44c0,1.5,1.22,2.72,2.72,2.72s2.72-1.22,2.72-2.72" fill="none" stroke="#f8f3ef" stroke-linecap="round" stroke-linejoin="round" stroke-width="2"/></g></g><g id="baño_abonados"><g id="contenedor_baño_abonados"><circle id="v-4" cx="385.75" cy="647.97" r="29.02" fill="#ef5d34"/></g><g id="baño_abonados-2"><path d="M369.44,638.9c0-2,1.62-3.62,3.62-3.62h25.37c2,0,3.62,1.62,3.62,3.62v18.12c0,2-1.62,3.62-3.62,3.62h-25.37c-2,0-3.62-1.62-3.62-3.62v-18.12Z" fill="none" stroke="#f8f3ef" stroke-linecap="round" stroke-linejoin="round" stroke-width="2"/><path d="M375.78,642.53l.91,10.87,3.62-7.25,3.62,7.25.91-10.87" fill="none" stroke="#f8f3ef" stroke-linecap="round" stroke-linejoin="round" stroke-width="2"/><path d="M394.81,645.25c0-1.5-1.22-2.72-2.72-2.72s-2.72,1.22-2.72,2.72v5.44c0,1.5,1.22,2.72,2.72,2.72s2.72-1.22,2.72-2.72" fill="none" stroke="#f8f3ef" stroke-linecap="round" stroke-linejoin="round" stroke-width="2"/></g></g><g id="zona_descanso_sectore_exterior_1"><circle id="contenedor_zona_descanso_sectore_exterior_1" cx="236.79" cy="461.1" r="29.02" fill="#ef5d34"/><path id="zona_descanso_sectore_exterior_1-2" d="M243.03,454.08l3.12,14.04M230.55,454.08l-3.12,14.04M225.87,454.08h21.85M250.83,461.88h-28.09" stroke="#fff" stroke-linecap="round" stroke-linejoin="round" stroke-width="3"/></g><g id="zona_descanso_sectore_exterior_2"><circle id="contenedor-zona_descanso_sectore_exterior_2" cx="248.44" cy="346.31" r="29.02" fill="#ef5d34"/><path id="zona_descanso_sectore_exterior_2-2" d="M254.68,339.28l3.12,14.04M242.2,339.28l-3.12,14.04M237.52,339.28h21.85M262.48,347.09h-28.09" stroke="#fff" stroke-linecap="round" stroke-linejoin="round" stroke-width="3"/></g><g id="informacion_acreeditacion"><g id="contenedor._informaciom_acreditacion"><g id="pantalla_abonados-3"><circle id="v-5" cx="257.76" cy="799.32" r="29.02" fill="#ef5d34"/></g></g><g id="informaciom_acreditacion"><path d="M241.45,799.32c0,9.01,7.3,16.31,16.31,16.31s16.31-7.3,16.31-16.31c0-9.01-7.3-16.31-16.31-16.31-9.01,0-16.31,7.3-16.31,16.31" fill="none" stroke="#f8f3ef" stroke-linecap="round" stroke-linejoin="round" stroke-width="3"/><path d="M257.76,793.88h.02" fill="none" stroke="#f8f3ef" stroke-linecap="round" stroke-linejoin="round" stroke-width="3"/><path d="M255.95,799.32h1.81v7.25s1.81,0,1.81,0" fill="none" stroke="#f8f3ef" stroke-linecap="round" stroke-linejoin="round" stroke-width="3"/></g></g><path id="flecha_ingreso_festival" d="M194.12,894.44v-42.26h-17.93c-2.76,0-5-2.37-5-5.28,0-1.4.53-2.74,1.46-3.73l32.94-34.79c1.95-2.06,5.12-2.06,7.07,0l32.94,34.79c1.95,2.06,1.95,5.41,0,7.47-.94.99-2.21,1.55-3.53,1.55h-17.93v42.26c0,2.92-2.24,5.28-5,5.28h-20.01c-2.76,0-5-2.37-5-5.28Z" fill="#ef5d34" stroke="#ef5d34" stroke-linecap="round" stroke-linejoin="round" stroke-width="2"/><path id="flecha_ingreso_sector_abonados" d="M317.96,587.39l1.31,24.48,10.39-.56c1.6-.09,2.97,1.22,3.06,2.9.04.81-.22,1.61-.73,2.21l-18,21.17c-1.07,1.26-2.9,1.35-4.1.22l-20.16-19.13c-1.2-1.13-1.3-3.07-.23-4.33.51-.6,1.23-.96,2-1.01l10.39-.56-1.31-24.48c-.09-1.69,1.13-3.13,2.73-3.22l11.59-.62c1.6-.09,2.97,1.21,3.06,2.9Z" fill="#ef5d34" stroke="#ef5d34" stroke-linecap="round" stroke-linejoin="round" stroke-width="2"/><path id="flecha_ingreso_sector_escenario" d="M304.01,381.67l24.51-.47-.2-10.4c-.03-1.6,1.32-2.93,3.01-2.96.81-.02,1.6.28,2.18.81l20.54,18.72c1.22,1.11,1.25,2.95.08,4.1l-19.81,19.48c-1.17,1.16-3.11,1.19-4.33.08-.58-.53-.92-1.26-.94-2.03l-.2-10.4-24.51.47c-1.69.03-3.09-1.24-3.12-2.84l-.22-11.6c-.03-1.6,1.32-2.93,3.01-2.96Z" fill="#ef5d34" stroke="#ef5d34" stroke-linecap="round" stroke-linejoin="round" stroke-width="2"/><g id="puesto_pizza"><g id="contenedor_puesto_gastronomico"><g id="pantalla_abonados-4"><circle id="v-6" cx="306.49" cy="116.06" r="25.63" fill="#fa94b9"/></g></g><g id="puesto_pizza-2"><path d="M306.49,101.25c4.87,0,9.53,1.14,13.61,3.17l-13.61,26.44-13.61-26.44c4.23-2.09,8.89-3.18,13.61-3.17Z" fill="#fa94b9"/><path d="M317.08,110.27c-3.38-1.72-7.12-2.62-10.91-2.62-3.6,0-7.16.8-10.41,2.37" fill="#fa94b9"/><path d="M304.88,118.05v.02" fill="#fa94b9"/><path d="M308.09,113.26v.02" fill="#fa94b9"/></g><g id="contenedor_puesto_gastronomico-2"><g id="pantalla_abonados-5"><circle id="v-7" cx="306.49" cy="116.06" r="25.63" fill="#ef5d34"/></g></g><g id="puesto_pizza-3"><path d="M306.49,101.25c4.87,0,9.53,1.14,13.61,3.17l-13.61,26.44-13.61-26.44c4.23-2.09,8.89-3.18,13.61-3.17Z" fill="none" stroke="#f8f3ef" stroke-linecap="round" stroke-linejoin="round" stroke-width="2"/><path d="M317.08,110.27c-3.38-1.72-7.12-2.62-10.91-2.62-3.6,0-7.16.8-10.41,2.37" fill="none" stroke="#f8f3ef" stroke-linecap="round" stroke-linejoin="round" stroke-width="2"/><path d="M304.88,118.05v.02" fill="none" stroke="#f8f3ef" stroke-linecap="round" stroke-linejoin="round" stroke-width="2"/><path d="M308.09,113.26v.02" fill="none" stroke="#f8f3ef" stroke-linecap="round" stroke-linejoin="round" stroke-width="2"/></g></g><g id="puesto_cafeteria"><g id="contenedor_puesto_gastronomico-3"><g id="baño_abonados-3"><g id="pantalla_abonados-6"><circle id="v-8" cx="261.01" cy="147.81" r="25.63" fill="#ef5d34"/></g></g></g><g id="puesto_cafeteria-2"><path d="M246.6,151.01c1.33,1.03,3.33,1.63,5.6,1.6,2.28.03,4.27-.57,5.6-1.6s3.33-1.63,5.6-1.6c2.28-.03,4.27.57,5.6,1.6" fill="none" stroke="#fff" stroke-linecap="round" stroke-linejoin="round" stroke-width="2"/><path d="M254.61,133.4c-1.03.74-1.63,1.94-1.6,3.2-.03,1.27.57,2.46,1.6,3.2" fill="none" stroke="#fff" stroke-linecap="round" stroke-linejoin="round" stroke-width="2"/><path d="M261.01,133.4c-1.03.74-1.63,1.94-1.6,3.2-.03,1.27.57,2.46,1.6,3.2" fill="none" stroke="#fff" stroke-linecap="round" stroke-linejoin="round" stroke-width="2"/><path d="M246.6,144.61h22.41v8c0,5.3-4.3,9.61-9.61,9.61h-3.2c-5.3,0-9.61-4.3-9.61-9.61v-8Z" fill="none" stroke="#fff" stroke-linecap="round" stroke-linejoin="round" stroke-width="2"/><path d="M268.61,155.38c2.41,1.11,5.26.05,6.37-2.36s.05-5.26-2.36-6.37c-1.13-.52-2.43-.58-3.6-.16" fill="none" stroke="#fff" stroke-linecap="round" stroke-linejoin="round" stroke-width="2"/></g></g><g id="puesto_hamburgesas"><g id="contenedor_puesto_gastronomico-4"><g id="baño_abonados-4"><g id="pantalla_abonados-7"><circle id="v-9" cx="246.6" cy="201.14" r="25.63" fill="#ef5d34"/></g></g></g><g id="puesto_haburguesa"><path d="M253.33,197.64l-5.6,2.4" fill="none" stroke="#fff" stroke-linecap="round" stroke-linejoin="round" stroke-width="2"/><path d="M248.52,192.83l-5.6,2.4" fill="none" stroke="#fff" stroke-linecap="round" stroke-linejoin="round" stroke-width="2"/><path d="M247.27,191.44l9.02,9.04c4.26,4.27,6,9.48,1.93,13.87l-.29.3c-1.87,1.87-4.89,1.87-6.76,0,0,0,0,0,0,0l-18.05-18.07c-1.78-1.79-1.87-4.65-.22-6.55l.22-.23c4.36-4.37,9.79-2.73,14.15,1.64Z" fill="none" stroke="#fff" stroke-linecap="round" stroke-linejoin="round" stroke-width="2"/><path d="M258.13,202.44l-5.6,2.4" fill="none" stroke="#fff" stroke-linecap="round" stroke-linejoin="round" stroke-width="2"/></g></g><g id="punto_interactivo_1"><g id="contenedor_puesto_interactivo"><g id="baño_abonados-5"><g id="pantalla_abonados-8"><circle id="v-10" cx="247.07" cy="683.33" r="29.02" fill="#ef5d34"/></g></g></g><g id="puesto_interactivo"><path d="M244.35,694.21v-27.19l12.69,7.25-12.69,7.25" fill="none" stroke="#fff" stroke-linecap="round" stroke-linejoin="round" stroke-width="2"/><path d="M238.91,693.61c-1.12.65-1.81,1.49-1.81,2.41,0,1.99,3.26,3.62,7.25,3.62s7.25-1.63,7.25-3.62c0-.91-.69-1.76-1.81-2.41" fill="none" stroke="#fff" stroke-linecap="round" stroke-linejoin="round" stroke-width="2"/></g></g><g id="punto_interactivo_2"><g id="contenedor_puesto_interactivo-2"><g id="baño_abonados-6"><g id="pantalla_abonados-9"><circle id="v-11" cx="442.75" cy="792.75" r="29.02" fill="#ef5d34"/></g></g></g><g id="puesto_interactivo-2"><path d="M440.03,803.63v-27.19l12.69,7.25-12.69,7.25" fill="none" stroke="#fff" stroke-linecap="round" stroke-linejoin="round" stroke-width="2"/><path d="M434.59,803.03c-1.12.65-1.81,1.49-1.81,2.41,0,1.99,3.26,3.62,7.25,3.62s7.25-1.63,7.25-3.62c0-.91-.69-1.76-1.81-2.41" fill="none" stroke="#fff" stroke-linecap="round" stroke-linejoin="round" stroke-width="2"/></g></g><g id="punto_interactivo_3"><g id="contenedor_puesto_interactivo-3"><g id="baño_abonados-7"><g id="pantalla_abonados-10"><circle id="v-12" cx="572.14" cy="706.01" r="29.02" fill="#ef5d34"/></g></g></g><path d="M569.43,716.88v-27.19l12.69,7.25-12.69,7.25" fill="none" stroke="#fff" stroke-linecap="round" stroke-linejoin="round" stroke-width="2"/><path d="M563.99,716.29c-1.12.65-1.81,1.49-1.81,2.41,0,1.99,3.26,3.62,7.25,3.62s7.25-1.63,7.25-3.62c0-.91-.69-1.76-1.81-2.41" fill="none" stroke="#fff" stroke-linecap="round" stroke-linejoin="round" stroke-width="2"/></g><g id="barra"><circle id="contenedor_barra" cx="318.59" cy="538.82" r="29.02" fill="#ef5d34"/><g id="barra-2"><path d="M302.27,533.39v10.87c0,1,.81,1.81,1.81,1.81h6.57c2.53,0,5.03.53,7.3,1.53l1.27.56c2.27,1.01,4.08,1.53,6.62,1.53h7.25c1,0,1.81-.81,1.81-1.81v-18.12c0-1-.81-1.81-1.81-1.81h-7.25c-2.53,0-4.35.53-6.62,1.53l-1.27.56c-2.3,1.01-4.78,1.54-7.3,1.53h-6.57c-1,0-1.81.81-1.81,1.81Z" fill="none" stroke="#fff" stroke-linecap="round" stroke-linejoin="round" stroke-width="3"/><path d="M325.84,527.95v21.75" fill="none" stroke="#fff" stroke-linecap="round" stroke-linejoin="round" stroke-width="3"/></g></g><g id="pueso_pochoclos"><circle id="contenedor_puesto_gastronomico-5" cx="239.45" cy="256.03" r="25.63" fill="#ef5d34"/><g id="puesto_pochoclo"><path d="M251.92,243.45c-.06-1.66-1.15-3.12-2.78-3.78-.79-1.41-2.37-2.3-4.11-2.3-1.37,0-2.67.57-3.54,1.52-.53-.19-1.1-.29-1.68-.29-1.09,0-2.12.35-2.95.98-.73-.42-1.58-.65-2.46-.65-2.25,0-4.14,1.49-4.55,3.47-.12,0-.25-.01-.37-.01-2.55,0-4.63,1.92-4.63,4.28,0,1.66,1.04,3.11,2.54,3.82l2.48,21.05c.07.63.55,1.16,1.21,1.33.15.04,3.57.92,8.3.97.02,0,.04,0,.06,0,.01,0,.03,0,.04,0,.12,0,.24,0,.37,0,2.93,0,5.73-.33,8.32-.97.68-.17,1.17-.71,1.23-1.36l2.07-20.63c1.51-.7,2.56-2.15,2.56-3.82,0-1.46-.82-2.81-2.12-3.6ZM231.09,252.33c1.56.12,3.89.24,6.68.29v1.8c-3.1.97-5.34,2.74-5.94,4.52l-.74-6.61ZM237.77,270.68c-2.02-.12-3.68-.37-4.69-.57l-.99-8.8c.79,1.22,2.6,1.93,5.02,1.93.21,0,.43,0,.65-.02v7.45h0ZM246.18,270.13c-1.6.33-3.3.52-5.06.59v-8.08c1.94-.57,3.64-1.48,4.81-2.57.66-.62,1.12-1.26,1.36-1.9l-1.12,11.97ZM247.44,256.57c-.02-.1-.05-.2-.08-.29-.53-1.6-2.52-2.55-5.32-2.55-.3,0-.61.01-.92.03v-1.14c2.34-.03,4.59-.1,6.72-.29l-.39,4.23ZM250.9,248.6c-.68.22-3.7,1.02-11.58,1.02-4.7,0-7.6-.28-9.31-.55,0,0-.09-.02-.14-.02-.3-.05-.57-.1-.79-.14-1.03-.34-1.76-1.22-1.76-2.26,0-1.33,1.21-2.41,2.7-2.41.29,0,.58.04.86.12l1.18.35-.06-1.11s0-.08,0-.13c0-1.33,1.21-2.41,2.7-2.41.68,0,1.33.23,1.83.64l.65.54.57-.61c.51-.55,1.27-.87,2.07-.87.5,0,.99.12,1.42.36l.75.41.44-.68c.48-.75,1.38-1.22,2.34-1.22,1.09,0,2.07.58,2.49,1.48l.15.32.36.11c1.1.33,1.83,1.25,1.83,2.28,0,.08,0,.15-.01.23l-.06.53.54.23c.94.4,1.54,1.25,1.54,2.18,0,.61-.26,1.18-.69,1.6Z" fill="#fff"/></g></g><path id="flecha_ingreso_sector_baño_sectore_exterior" d="M324.14,284.21l13.59-.69-.29-5.77c-.04-.89.68-1.65,1.62-1.69.45-.02.89.12,1.22.41l11.72,10.02c.69.59.75,1.61.11,2.27l-10.65,11.15c-.63.66-1.71.72-2.4.12-.33-.29-.53-.69-.55-1.11l-.29-5.77-13.59.69c-.94.05-1.73-.63-1.78-1.52l-.32-6.43c-.04-.89.68-1.65,1.62-1.69Z" fill="#ef5d34" stroke="#ef5d34" stroke-linecap="round" stroke-linejoin="round" stroke-width="2"/><g id="sector_abonados_salon"><circle id="contenedor_abonados_1" cx="480.28" cy="722.59" r="33.71" fill="#ef5d34"/><path id="abonados_1" d="M480.28,711.71l7.25,10.87,9.06-7.25-3.62,18.12h-25.37s-3.62-18.12-3.62-18.12l9.06,7.25,7.25-10.87Z" fill="#fff" stroke="#fff" stroke-linecap="round" stroke-linejoin="round" stroke-width="1.33"/></g><g id="sector_abonados_escenarios"><circle id="Contenedor_abonados_2" cx="420.78" cy="413.55" r="33.71" fill="#ef5d34"/><path id="abonados_2" d="M420.78,402.67l7.25,10.87,9.06-7.25-3.62,18.12h-25.37s-3.62-18.12-3.62-18.12l9.06,7.25,7.25-10.87Z" fill="#fff" stroke="#fff" stroke-linecap="round" stroke-linejoin="round" stroke-width="1.33"/></g><g id="escenario_interior"><circle id="contenedor_escenario" cx="431.87" cy="549.7" r="33.71" fill="#ef5d34"/><g id="escenario"><path d="M417.37,564.2h29" fill="none" stroke="#fff" stroke-linecap="round" stroke-linejoin="round" stroke-width="1.33"/><path d="M446.37,556.95v-18.12c0-2-1.62-3.62-3.62-3.62h-21.75c-2,0-3.62,1.62-3.62,3.62v18.12s7.25-10.87,7.25-10.87c4.83,2.42,9.67,2.42,14.5,0l7.25,10.87Z" fill="#fff" stroke="#fff" stroke-linecap="round" stroke-linejoin="round" stroke-width="1.33"/></g></g><g id="nombre_de_calle_acceso"><path d="M50.44,865.73c-.08-1-.42-1.87-1-2.63-.58-.76-1.38-1.36-2.4-1.81-1.13-.5-2.25-.69-3.35-.56-1.1.13-2.11.55-3.02,1.29-.91.73-1.64,1.72-2.19,2.96-.56,1.28-.8,2.5-.72,3.67.08,1.17.46,2.21,1.13,3.11.67.91,1.59,1.62,2.78,2.14,1.46.64,2.83.78,4.1.42,1.27-.37,2.36-1.18,3.26-2.43l-6.57-2.9,1.29-2.93,10.34,4.56-1.47,3.34c-.84,1.22-1.93,2.21-3.27,2.97-1.34.76-2.82,1.19-4.44,1.29-1.62.1-3.26-.21-4.9-.94-1.84-.81-3.32-1.96-4.44-3.45s-1.78-3.15-1.98-5c-.2-1.85.12-3.72.95-5.6.83-1.88,1.99-3.37,3.5-4.49,1.5-1.11,3.18-1.76,5.03-1.93,1.85-.17,3.69.14,5.51.94,2.15.95,3.79,2.3,4.91,4.05s1.57,3.7,1.33,5.87l-4.41-1.94Z"/><path d="M62.11,886.83l-.93-9.3-1.81-.8-3.28,7.44-3.83-1.69,8.42-19.09,7.17,3.16c1.48.65,2.62,1.47,3.43,2.44.81.98,1.28,2.02,1.41,3.14s-.05,2.22-.53,3.31c-.56,1.26-1.42,2.23-2.6,2.92-1.18.69-2.57.91-4.18.66l1.15,9.76-4.43-1.96ZM60.65,873.86l3.2,1.41c1.04.46,1.92.55,2.66.27.73-.28,1.29-.86,1.69-1.75.39-.88.43-1.67.13-2.38-.3-.71-.97-1.29-2.01-1.75l-3.2-1.41-2.47,5.61Z"/><path d="M80.69,875.9l-2.11,4.79,6.43,2.84-1.34,3.04-6.43-2.84-2.23,5.06,7.25,3.2-1.38,3.12-11.08-4.89,8.44-19.12,11.08,4.89-1.38,3.12-7.25-3.2Z"/><path d="M103.54,889.15c-.08-1-.42-1.87-1-2.63-.58-.76-1.38-1.36-2.4-1.81-1.13-.5-2.25-.69-3.35-.56-1.1.13-2.11.55-3.02,1.29-.91.73-1.64,1.72-2.19,2.96-.56,1.28-.8,2.5-.72,3.67.08,1.17.46,2.21,1.13,3.11.67.91,1.6,1.62,2.78,2.14,1.46.64,2.82.78,4.1.42,1.27-.37,2.36-1.18,3.26-2.43l-6.57-2.9,1.29-2.93,10.34,4.56-1.47,3.34c-.84,1.22-1.93,2.21-3.27,2.97-1.34.76-2.82,1.19-4.44,1.29-1.62.1-3.26-.21-4.9-.94-1.84-.81-3.32-1.96-4.44-3.45s-1.78-3.15-1.97-5c-.2-1.85.12-3.72.95-5.6.83-1.88,2-3.37,3.5-4.49,1.5-1.11,3.18-1.76,5.03-1.93,1.85-.17,3.69.14,5.51.94,2.15.95,3.79,2.3,4.91,4.05s1.57,3.7,1.33,5.87l-4.4-1.94Z"/><path d="M109.77,906.57c-1.13-1.5-1.8-3.18-2.02-5.06-.22-1.87.08-3.75.91-5.63.82-1.86,2-3.34,3.53-4.44,1.53-1.1,3.23-1.74,5.09-1.92s3.69.13,5.48.91c1.81.8,3.27,1.94,4.38,3.44,1.12,1.5,1.78,3.18,1.99,5.04.21,1.87-.09,3.73-.92,5.59-.83,1.88-2,3.37-3.53,4.47-1.52,1.11-3.22,1.75-5.08,1.93-1.87.18-3.69-.12-5.48-.91s-3.24-1.93-4.37-3.43ZM119.03,907.14c1.1-.13,2.12-.58,3.04-1.33.92-.75,1.66-1.76,2.22-3.04.56-1.28.81-2.5.74-3.68-.07-1.17-.43-2.21-1.08-3.11-.65-.9-1.55-1.6-2.7-2.11-1.15-.51-2.28-.7-3.39-.58-1.11.12-2.12.55-3.04,1.29-.91.74-1.65,1.75-2.22,3.03-.56,1.28-.81,2.51-.75,3.69.07,1.18.43,2.23,1.08,3.14.65.91,1.56,1.62,2.71,2.12,1.15.51,2.28.69,3.38.56Z"/><path d="M136.69,919.72l-.93-9.3-1.81-.8-3.28,7.44-3.83-1.69,8.42-19.09,7.17,3.16c1.48.65,2.62,1.47,3.43,2.44s1.28,2.02,1.41,3.14c.13,1.11-.05,2.22-.53,3.31-.56,1.26-1.42,2.23-2.6,2.92-1.18.69-2.57.91-4.18.66l1.15,9.76-4.43-1.95ZM135.22,906.75l3.2,1.41c1.04.46,1.92.55,2.66.27.73-.28,1.29-.86,1.69-1.75.39-.88.43-1.67.13-2.38-.3-.71-.97-1.29-2.01-1.75l-3.2-1.41-2.47,5.61Z"/><path d="M156.63,905.71l-8.42,19.09-3.83-1.69,8.42-19.09,3.83,1.69Z"/><path d="M156.39,927.14c-1.13-1.5-1.8-3.18-2.02-5.06-.22-1.87.08-3.75.91-5.63.82-1.86,2-3.34,3.53-4.44,1.53-1.1,3.23-1.74,5.09-1.92,1.87-.18,3.69.13,5.48.91,1.81.8,3.27,1.94,4.38,3.44,1.12,1.49,1.78,3.18,1.99,5.04s-.09,3.73-.92,5.59c-.83,1.88-2,3.37-3.53,4.47-1.52,1.1-3.22,1.75-5.08,1.93-1.87.18-3.69-.12-5.48-.91-1.79-.79-3.24-1.93-4.37-3.43ZM165.65,927.71c1.1-.13,2.12-.58,3.04-1.32.92-.75,1.66-1.76,2.22-3.04.56-1.28.81-2.5.74-3.68-.07-1.18-.43-2.21-1.08-3.11s-1.55-1.6-2.7-2.11c-1.15-.51-2.28-.7-3.39-.58-1.11.12-2.12.55-3.04,1.29-.91.74-1.65,1.75-2.22,3.02-.56,1.28-.81,2.51-.75,3.69.07,1.18.43,2.23,1.08,3.14.65.91,1.56,1.62,2.71,2.12,1.15.51,2.28.69,3.38.56Z"/><path d="M209.21,928.9l-8.42,19.09-3.83-1.69,5.48-12.42-10.59,10.16-2.9-1.28.34-14.69-5.48,12.42-3.83-1.69,8.42-19.09,4.35,1.92-.19,16.88,12.34-11.52,4.32,1.91Z"/><path d="M217.87,951.18l-7.6-3.35-2.86,3.08-4.02-1.77,15.3-16.09,4.46,1.97-1.57,22.15-4.05-1.79.35-4.19ZM218.18,947.66l.76-9.21-6.29,6.77,5.53,2.44Z"/><path d="M245.56,944.93l-1.36,3.09-5.09-2.25-7.06,16-3.83-1.69,7.06-16-5.09-2.24,1.36-3.09,14.01,6.18Z"/><path d="M244.34,965.93c-1.13-1.5-1.8-3.18-2.02-5.06-.22-1.87.08-3.75.91-5.63.82-1.86,2-3.34,3.53-4.44,1.53-1.1,3.23-1.74,5.1-1.92,1.86-.18,3.69.13,5.48.91,1.81.8,3.27,1.94,4.38,3.44,1.12,1.49,1.78,3.18,1.99,5.04.21,1.87-.09,3.73-.91,5.59-.83,1.88-2,3.37-3.53,4.47-1.52,1.1-3.22,1.75-5.08,1.92-1.87.18-3.69-.12-5.48-.91-1.79-.79-3.25-1.93-4.37-3.43ZM253.6,966.5c1.1-.13,2.12-.58,3.03-1.32s1.66-1.76,2.22-3.04c.56-1.28.81-2.5.74-3.68-.07-1.18-.43-2.21-1.08-3.11s-1.55-1.6-2.7-2.11c-1.15-.51-2.28-.7-3.39-.58-1.11.12-2.12.55-3.04,1.29-.92.74-1.65,1.75-2.22,3.02s-.81,2.51-.75,3.69.43,2.23,1.08,3.14c.66.91,1.56,1.62,2.71,2.12,1.15.51,2.28.69,3.38.56Z"/><path d="M271.25,979.08l-.93-9.3-1.81-.8-3.28,7.44-3.83-1.69,8.42-19.1,7.17,3.16c1.48.65,2.62,1.47,3.43,2.44.81.98,1.28,2.02,1.41,3.14.13,1.11-.05,2.22-.53,3.31-.56,1.26-1.42,2.23-2.6,2.92-1.18.69-2.57.91-4.18.66l1.15,9.76-4.43-1.96ZM269.78,966.11l3.2,1.41c1.04.46,1.92.55,2.66.27.73-.28,1.29-.86,1.69-1.76.39-.88.43-1.67.13-2.38-.3-.71-.97-1.29-2.01-1.75l-3.2-1.41-2.47,5.61Z"/><path d="M288.79,986.81l-.93-9.3-1.81-.8-3.28,7.44-3.83-1.69,8.42-19.09,7.17,3.16c1.48.65,2.62,1.47,3.43,2.45.81.98,1.28,2.02,1.41,3.14.13,1.11-.05,2.22-.53,3.31-.56,1.26-1.42,2.23-2.6,2.92-1.18.69-2.57.91-4.18.66l1.15,9.76-4.43-1.96ZM287.32,973.84l3.2,1.41c1.04.46,1.92.55,2.66.27.73-.28,1.29-.86,1.69-1.75.39-.88.43-1.67.13-2.38-.3-.71-.97-1.29-2.01-1.75l-3.2-1.41-2.47,5.61Z"/><path d="M309.79,991.73l-7.6-3.35-2.86,3.08-4.02-1.77,15.3-16.09,4.46,1.97-1.57,22.15-4.05-1.79.35-4.19ZM310.1,988.21l.76-9.21-6.29,6.77,5.53,2.44Z"/><path d="M319.28,999.67c-.87-.93-1.42-1.96-1.66-3.09-.24-1.13-.11-2.28.38-3.46l4.1,1.81c-.29.81-.29,1.55.01,2.23.3.68.89,1.21,1.76,1.59.89.39,1.69.49,2.39.29s1.2-.65,1.51-1.34c.25-.57.28-1.11.1-1.62-.19-.52-.49-1-.92-1.43-.43-.44-1.04-.99-1.84-1.64-1.08-.91-1.93-1.72-2.55-2.41-.62-.7-1.05-1.53-1.28-2.5-.24-.97-.09-2.05.44-3.25.5-1.13,1.22-1.99,2.15-2.58.94-.59,2.01-.88,3.23-.88,1.22,0,2.48.3,3.8.88,1.97.87,3.36,2.05,4.17,3.55.81,1.5.9,3.14.27,4.91l-4.21-1.86c.25-.67.21-1.34-.12-2-.33-.66-.92-1.18-1.78-1.55-.75-.33-1.43-.4-2.04-.22-.62.19-1.08.64-1.41,1.37-.22.51-.24,1.01-.05,1.5.19.49.49.94.9,1.38s1.01.99,1.8,1.66c1.08.91,1.93,1.72,2.55,2.43.62.71,1.06,1.56,1.3,2.53.24.98.1,2.06-.42,3.25-.45,1.02-1.13,1.85-2.05,2.49-.92.64-2,1-3.25,1.07-1.25.07-2.58-.21-3.98-.83-1.33-.59-2.43-1.34-3.3-2.27Z"/><path d="M76.47,910.97c1.18,1.46,1.86,3.09,2.05,4.91s-.14,3.68-.98,5.6-2,3.41-3.46,4.47c-1.46,1.07-3.13,1.66-5,1.77-1.87.11-3.81-.27-5.81-1.16l-6.68-2.94,8.42-19.09,6.67,2.94c2.01.88,3.6,2.05,4.77,3.51ZM69.94,923.64c1.58-.61,2.8-1.91,3.68-3.9.88-1.99,1.02-3.78.42-5.39-.6-1.6-1.9-2.85-3.91-3.73l-2.71-1.19-5.56,12.61,2.71,1.19c2.01.88,3.8,1.02,5.38.41Z"/><path d="M87.1,917.94l-2.11,4.79,6.43,2.84-1.34,3.04-6.43-2.84-2.23,5.06,7.25,3.2-1.38,3.12-11.08-4.89,8.43-19.12,11.08,4.89-1.38,3.12-7.25-3.2Z"/><path d="M100.48,942.38c-.87-.93-1.42-1.96-1.66-3.09-.24-1.13-.12-2.28.38-3.46l4.1,1.81c-.29.81-.29,1.55.01,2.23.3.68.89,1.21,1.76,1.59.89.39,1.69.49,2.39.29.7-.2,1.2-.65,1.51-1.34.25-.57.28-1.11.1-1.62-.19-.52-.49-1-.92-1.43s-1.04-.99-1.84-1.64c-1.08-.91-1.93-1.72-2.55-2.41-.62-.7-1.05-1.53-1.29-2.5-.24-.97-.09-2.05.44-3.25.5-1.13,1.22-1.99,2.15-2.58s2.01-.88,3.23-.88c1.22,0,2.48.3,3.8.88,1.97.87,3.36,2.05,4.17,3.55.81,1.5.9,3.14.27,4.91l-4.21-1.86c.25-.67.21-1.34-.12-2-.33-.66-.92-1.18-1.78-1.55-.75-.33-1.43-.4-2.04-.22s-1.08.64-1.41,1.37c-.23.51-.24,1.01-.06,1.5.19.49.49.94.9,1.38.41.43,1.01.99,1.8,1.66,1.08.91,1.93,1.72,2.55,2.43.62.71,1.06,1.56,1.3,2.53.24.98.1,2.06-.42,3.25-.45,1.02-1.13,1.85-2.05,2.49-.92.64-2,1-3.25,1.07-1.25.07-2.58-.21-3.98-.83-1.33-.59-2.43-1.34-3.3-2.27Z"/><path d="M127.25,950.42l-7.61-3.36-2.86,3.08-4.02-1.77,15.3-16.09,4.46,1.97-1.57,22.15-4.05-1.79.35-4.19ZM127.56,946.9l.76-9.21-6.29,6.77,5.53,2.44Z"/><path d="M149.85,964.74l-3.83-1.69-2.89-16.93-5.78,13.1-3.83-1.69,8.43-19.12,3.83,1.69,2.88,16.96,5.79-13.13,3.83,1.69-8.43,19.12Z"/><path d="M189.38,959.37l-8.42,19.09-3.83-1.69,5.48-12.42-10.59,10.16-2.9-1.28.33-14.69-5.48,12.42-3.83-1.69,8.42-19.09,4.35,1.92-.19,16.88,12.33-11.52,4.32,1.91Z"/><path d="M198.04,981.65l-7.61-3.35-2.86,3.08-4.02-1.77,15.3-16.09,4.46,1.97-1.57,22.15-4.05-1.79.35-4.19ZM198.36,978.13l.76-9.21-6.29,6.77,5.53,2.44Z"/><path d="M217.63,990.29l-7.61-3.35-2.86,3.08-4.02-1.77,15.3-16.09,4.46,1.97-1.57,22.15-4.05-1.79.35-4.19ZM217.94,986.77l.76-9.21-6.29,6.77,5.53,2.44Z"/><path d="M233.75,1001.75l-.93-9.3-1.81-.8-3.28,7.44-3.83-1.69,8.42-19.09,7.17,3.16c1.48.65,2.62,1.47,3.43,2.44.81.98,1.28,2.02,1.41,3.14.13,1.11-.05,2.22-.53,3.31-.56,1.26-1.42,2.23-2.6,2.92-1.18.69-2.57.91-4.18.66l1.15,9.76-4.43-1.96ZM232.28,988.78l3.2,1.41c1.04.46,1.93.55,2.66.27.73-.28,1.29-.86,1.69-1.75.39-.88.43-1.67.13-2.38-.3-.71-.97-1.29-2.01-1.75l-3.2-1.41-2.47,5.61Z"/><path d="M262.86,991.78l-1.36,3.09-5.09-2.24-7.06,16-3.83-1.69,7.06-16-5.09-2.24,1.36-3.09,14.01,6.18Z"/><path d="M269.48,994.7l-8.42,19.1-3.83-1.69,8.42-19.1,3.83,1.69Z"/><path d="M281.16,1022.66l-3.83-1.69-2.89-16.93-5.78,13.1-3.83-1.69,8.43-19.12,3.83,1.69,2.88,16.96,5.79-13.13,3.83,1.69-8.43,19.12Z"/></g></svg>